<svg version="1.1" xmlns="http://www.w3.org/2000/svg" xmlns:xlink="http://www.w3.org/1999/xlink" width="913" height="670"><defs/><g><g transform="translate(-70,2) scale(1,1)"><path fill="#C0C0C0" stroke="none" d="M 119 176 C 119 166.6111584 157.9512224 159 206 159 C 254.0487776 159 293 166.6111584 293 176 C 293 185.3888416 254.0487776 193 206 193 C 157.9512224 193 119 185.3888416 119 176 Z" opacity="0.2"/></g><g transform="translate(-70,2) scale(1,1)"><path fill="#ffffff" stroke="none" d="M 112 169 C 112 159.6111584 150.9512224 152 199 152 C 247.0487776 152 286 159.6111584 286 169 C 286 178.3888416 247.0487776 186 199 186 C 150.9512224 186 112 178.3888416 112 169 Z"/></g><g transform="translate(-70,2) scale(1,1)"><path fill="none" stroke="#000000" d="M 112 169 C 112 159.6111584 150.9512224 152 199 152 C 247.0487776 152 286 159.6111584 286 169 C 286 178.3888416 247.0487776 186 199 186 C 150.9512224 186 112 178.3888416 112 169 Z" stroke-miterlimit="10"/></g><g transform="translate(-70,2) scale(1,1)"><g><path fill="none" stroke="none"/><text fill="#000000" stroke="none" font-family="Arial" font-size="13px" font-style="normal" font-weight="bold" text-decoration="none" x="145.87646484375" y="176">Thống kê doanh thu</text></g></g><g transform="translate(-70,2) scale(1,1)"><path fill="#C0C0C0" stroke="none" d="M 319 96 C 319 86.6111584 341.6096176 79 369.5 79 C 397.3903824 79 420 86.6111584 420 96 C 420 105.3888416 397.3903824 113 369.5 113 C 341.6096176 113 319 105.3888416 319 96 Z" opacity="0.2"/></g><g transform="translate(-70,2) scale(1,1)"><path fill="#ffffff" stroke="none" d="M 312 89 C 312 79.6111584 334.6096176 72 362.5 72 C 390.3903824 72 413 79.6111584 413 89 C 413 98.3888416 390.3903824 106 362.5 106 C 334.6096176 106 312 98.3888416 312 89 Z"/></g><g transform="translate(-70,2) scale(1,1)"><path fill="none" stroke="#000000" d="M 312 89 C 312 79.6111584 334.6096176 72 362.5 72 C 390.3903824 72 413 79.6111584 413 89 C 413 98.3888416 390.3903824 106 362.5 106 C 334.6096176 106 312 98.3888416 312 89 Z" stroke-miterlimit="10"/></g><g transform="translate(-70,2) scale(1,1)"><g><path fill="none" stroke="none"/><text fill="#000000" stroke="none" font-family="Arial" font-size="13px" font-style="normal" font-weight="bold" text-decoration="none" x="339.968994140625" y="96">Tra cứu</text></g></g><g transform="translate(-70,2) scale(1,1)"><path fill="none" stroke="#000000" d="M 325 107 L 236 151" stroke-miterlimit="10" stroke-dasharray="3"/></g><g transform="translate(-70,2) scale(1,1)"><path fill="none" stroke="#000000" d="M 243.2445780602338 142.72255542276608 L 236 151 L 246.97572746468452 150.2696530817687" stroke-miterlimit="10"/></g><g transform="translate(-70,2) scale(1,1)"><g><path fill="none" stroke="none"/><text fill="#000000" stroke="none" font-family="Arial" font-size="13px" font-style="normal" font-weight="normal" text-decoration="none" x="266.5" y="161.5">«extend»</text></g></g><g transform="translate(-70,2) scale(1,1)"><path fill="#C0C0C0" stroke="none" d="M 279 272 C 279 262.6111584 316.1603616 255 362 255 C 407.8396384 255 445 262.6111584 445 272 C 445 281.3888416 407.8396384 289 362 289 C 316.1603616 289 279 281.3888416 279 272 Z" opacity="0.2"/></g><g transform="translate(-70,2) scale(1,1)"><path fill="#ffffff" stroke="none" d="M 272 265 C 272 255.6111584 309.1603616 248 355 248 C 400.8396384 248 438 255.6111584 438 265 C 438 274.3888416 400.8396384 282 355 282 C 309.1603616 282 272 274.3888416 272 265 Z"/></g><g transform="translate(-70,2) scale(1,1)"><path fill="none" stroke="#000000" d="M 272 265 C 272 255.6111584 309.1603616 248 355 248 C 400.8396384 248 438 255.6111584 438 265 C 438 274.3888416 400.8396384 282 355 282 C 309.1603616 282 272 274.3888416 272 265 Z" stroke-miterlimit="10"/></g><g transform="translate(-70,2) scale(1,1)"><g><path fill="none" stroke="none"/><text fill="#000000" stroke="none" font-family="Arial" font-size="13px" font-style="normal" font-weight="bold" text-decoration="none" x="304.406005859375" y="272">Báo cáo thống kê</text></g></g><g transform="translate(-70,2) scale(1,1)"><path fill="none" stroke="#000000" d="M 326 247 L 228 187" stroke-miterlimit="10" stroke-dasharray="3"/></g><g transform="translate(-70,2) scale(1,1)"><path fill="none" stroke="#000000" d="M 238.8652664487485 188.71638719340947 L 228 187 L 234.46923456170717 195.89657260891033" stroke-miterlimit="10"/></g><g transform="translate(-70,2) scale(1,1)"><g><path fill="none" stroke="none"/><text fill="#000000" stroke="none" font-family="Arial" font-size="13px" font-style="normal" font-weight="normal" text-decoration="none" x="234.5" y="248.5">«extend»</text></g></g><g transform="translate(-70,2) scale(1,1)"><path fill="#C0C0C0" stroke="none" d="M 559 177 C 559 162.6405952 603.77152 151 659 151 C 714.22848 151 759 162.6405952 759 177 C 759 191.3594048 714.22848 203 659 203 C 603.77152 203 559 191.3594048 559 177 Z" opacity="0.2"/></g><g transform="translate(-70,2) scale(1,1)"><path fill="#ffffff" stroke="none" d="M 552 170 C 552 155.6405952 596.77152 144 652 144 C 707.22848 144 752 155.6405952 752 170 C 752 184.3594048 707.22848 196 652 196 C 596.77152 196 552 184.3594048 552 170 Z"/></g><g transform="translate(-70,2) scale(1,1)"><path fill="none" stroke="#000000" d="M 552 170 C 552 155.6405952 596.77152 144 652 144 C 707.22848 144 752 155.6405952 752 170 C 752 184.3594048 707.22848 196 652 196 C 596.77152 196 552 184.3594048 552 170 Z" stroke-miterlimit="10"/></g><g transform="translate(-70,2) scale(1,1)"><g><path fill="none" stroke="none"/><text fill="#000000" stroke="none" font-family="Arial" font-size="13px" font-style="normal" font-weight="bold" text-decoration="none" x="590.583251953125" y="170.5">Quản lý khuyến mãi -</text><text fill="#000000" stroke="none" font-family="Arial" font-size="13px" font-style="normal" font-weight="bold" text-decoration="none" x="623.4609375" y="183.5">Marketing</text></g></g><g transform="translate(-70,2) scale(1,1)"><path fill="#C0C0C0" stroke="none" d="M 831 32 C 831 22.6111584 853.6096176 15 881.5 15 C 909.3903824 15 932 22.6111584 932 32 C 932 41.3888416 909.3903824 49 881.5 49 C 853.6096176 49 831 41.3888416 831 32 Z" opacity="0.2"/></g><g transform="translate(-70,2) scale(1,1)"><path fill="#ffffff" stroke="none" d="M 824 25 C 824 15.611158399999999 846.6096176 8 874.5 8 C 902.3903824 8 925 15.611158399999999 925 25 C 925 34.3888416 902.3903824 42 874.5 42 C 846.6096176 42 824 34.3888416 824 25 Z"/></g><g transform="translate(-70,2) scale(1,1)"><path fill="none" stroke="#000000" d="M 824 25 C 824 15.611158399999999 846.6096176 8 874.5 8 C 902.3903824 8 925 15.611158399999999 925 25 C 925 34.3888416 902.3903824 42 874.5 42 C 846.6096176 42 824 34.3888416 824 25 Z" stroke-miterlimit="10"/></g><g transform="translate(-70,2) scale(1,1)"><g><path fill="none" stroke="none"/><text fill="#000000" stroke="none" font-family="Arial" font-size="13px" font-style="normal" font-weight="bold" text-decoration="none" x="857.885009765625" y="32">Thêm</text></g></g><g transform="translate(-70,2) scale(1,1)"><path fill="none" stroke="#000000" d="M 846 43 L 693 143" stroke-miterlimit="10" stroke-dasharray="3"/></g><g transform="translate(-70,2) scale(1,1)"><path fill="none" stroke="#000000" d="M 699.203794038081 133.91633666778262 L 693 143 L 703.8098647736382 140.96362489318523" stroke-miterlimit="10"/></g><g transform="translate(-70,2) scale(1,1)"><g><path fill="none" stroke="none"/><text fill="#000000" stroke="none" font-family="Arial" font-size="13px" font-style="normal" font-weight="normal" text-decoration="none" x="758.5" y="124.5">«extend»</text></g></g><g transform="translate(-70,2) scale(1,1)"><path fill="#C0C0C0" stroke="none" d="M 863 120 C 863 110.6111584 885.6096176 103 913.5 103 C 941.3903824 103 964 110.6111584 964 120 C 964 129.3888416 941.3903824 137 913.5 137 C 885.6096176 137 863 129.3888416 863 120 Z" opacity="0.2"/></g><g transform="translate(-70,2) scale(1,1)"><path fill="#ffffff" stroke="none" d="M 856 113 C 856 103.6111584 878.6096176 96 906.5 96 C 934.3903824 96 957 103.6111584 957 113 C 957 122.3888416 934.3903824 130 906.5 130 C 878.6096176 130 856 122.3888416 856 113 Z"/></g><g transform="translate(-70,2) scale(1,1)"><path fill="none" stroke="#000000" d="M 856 113 C 856 103.6111584 878.6096176 96 906.5 96 C 934.3903824 96 957 103.6111584 957 113 C 957 122.3888416 934.3903824 130 906.5 130 C 878.6096176 130 856 122.3888416 856 113 Z" stroke-miterlimit="10"/></g><g transform="translate(-70,2) scale(1,1)"><g><path fill="none" stroke="none"/><text fill="#000000" stroke="none" font-family="Arial" font-size="13px" font-style="normal" font-weight="bold" text-decoration="none" x="894.9345703125" y="120">Xóa</text></g></g><g transform="translate(-70,2) scale(1,1)"><path fill="none" stroke="#000000" d="M 855 124 L 753 147" stroke-miterlimit="10" stroke-dasharray="3"/></g><g transform="translate(-70,2) scale(1,1)"><path fill="none" stroke="#000000" d="M 761.9878065821342 140.6581286009456 L 753 147 L 763.8397192539046 148.87095871053583" stroke-miterlimit="10"/></g><g transform="translate(-70,2) scale(1,1)"><g><path fill="none" stroke="none"/><text fill="#000000" stroke="none" font-family="Arial" font-size="13px" font-style="normal" font-weight="normal" text-decoration="none" x="783.5" y="170.5">«extend»</text></g></g><g transform="translate(-70,2) scale(1,1)"><path fill="#C0C0C0" stroke="none" d="M 791 328 C 791 318.6111584 813.6096176 311 841.5 311 C 869.3903824 311 892 318.6111584 892 328 C 892 337.3888416 869.3903824 345 841.5 345 C 813.6096176 345 791 337.3888416 791 328 Z" opacity="0.2"/></g><g transform="translate(-70,2) scale(1,1)"><path fill="#ffffff" stroke="none" d="M 784 321 C 784 311.6111584 806.6096176 304 834.5 304 C 862.3903824 304 885 311.6111584 885 321 C 885 330.3888416 862.3903824 338 834.5 338 C 806.6096176 338 784 330.3888416 784 321 Z"/></g><g transform="translate(-70,2) scale(1,1)"><path fill="none" stroke="#000000" d="M 784 321 C 784 311.6111584 806.6096176 304 834.5 304 C 862.3903824 304 885 311.6111584 885 321 C 885 330.3888416 862.3903824 338 834.5 338 C 806.6096176 338 784 330.3888416 784 321 Z" stroke-miterlimit="10"/></g><g transform="translate(-70,2) scale(1,1)"><g><path fill="none" stroke="none"/><text fill="#000000" stroke="none" font-family="Arial" font-size="13px" font-style="normal" font-weight="bold" text-decoration="none" x="822.1982421875" y="328">Sửa</text></g></g><g transform="translate(-70,2) scale(1,1)"><path fill="none" stroke="#000000" d="M 812 303 L 685 197" stroke-miterlimit="10" stroke-dasharray="3"/></g><g transform="translate(-70,2) scale(1,1)"><path fill="none" stroke="#000000" d="M 695.4995149160121 200.28027232534734 L 685 197 L 690.1047753908898 206.7437810016731" stroke-miterlimit="10"/></g><g transform="translate(-70,2) scale(1,1)"><g><path fill="none" stroke="none"/><text fill="#000000" stroke="none" font-family="Arial" font-size="13px" font-style="normal" font-weight="normal" text-decoration="none" x="701.5" y="278.5">«extend»</text></g></g><g transform="translate(-70,2) scale(1,1)"><path fill="#C0C0C0" stroke="none" d="M 879 240 C 879 230.6111584 901.6096176 223 929.5 223 C 957.3903824 223 980 230.6111584 980 240 C 980 249.3888416 957.3903824 257 929.5 257 C 901.6096176 257 879 249.3888416 879 240 Z" opacity="0.2"/></g><g transform="translate(-70,2) scale(1,1)"><path fill="#ffffff" stroke="none" d="M 872 233 C 872 223.6111584 894.6096176 216 922.5 216 C 950.3903824 216 973 223.6111584 973 233 C 973 242.3888416 950.3903824 250 922.5 250 C 894.6096176 250 872 242.3888416 872 233 Z"/></g><g transform="translate(-70,2) scale(1,1)"><path fill="none" stroke="#000000" d="M 872 233 C 872 223.6111584 894.6096176 216 922.5 216 C 950.3903824 216 973 223.6111584 973 233 C 973 242.3888416 950.3903824 250 922.5 250 C 894.6096176 250 872 242.3888416 872 233 Z" stroke-miterlimit="10"/></g><g transform="translate(-70,2) scale(1,1)"><g><path fill="none" stroke="none"/><text fill="#000000" stroke="none" font-family="Arial" font-size="13px" font-style="normal" font-weight="bold" text-decoration="none" x="899.968994140625" y="240">Tra cứu</text></g></g><g transform="translate(-70,2) scale(1,1)"><path fill="none" stroke="#000000" d="M 871 221 L 753 194" stroke-miterlimit="10" stroke-dasharray="3"/></g><g transform="translate(-70,2) scale(1,1)"><path fill="none" stroke="#000000" d="M 763.8455778967991 192.16330729721528 L 753 194 L 761.9677195418085 200.37024381161865" stroke-miterlimit="10"/></g><g transform="translate(-70,2) scale(1,1)"><g><path fill="none" stroke="none"/><text fill="#000000" stroke="none" font-family="Arial" font-size="13px" font-style="normal" font-weight="normal" text-decoration="none" x="778.5" y="242.5">«extend»</text></g></g><g transform="translate(-70,2) scale(1,1)"><path fill="none" stroke="#000000" d="M 852 303 L 904 251" stroke-miterlimit="10" stroke-dasharray="3"/></g><g transform="translate(-70,2) scale(1,1)"><path fill="none" stroke="#000000" d="M 899.790482243984 261.16267485762415 L 904 251 L 893.8373251423759 255.209517756016" stroke-miterlimit="10"/></g><g transform="translate(-70,2) scale(1,1)"><g><path fill="none" stroke="none"/><text fill="#000000" stroke="none" font-family="Arial" font-size="13px" font-style="normal" font-weight="normal" text-decoration="none" x="828.5" y="261.5">«include»</text></g></g><g transform="translate(-70,2) scale(1,1)"><path fill="none" stroke="#000000" d="M 908 131 L 920 215" stroke-miterlimit="10" stroke-dasharray="3"/></g><g transform="translate(-70,2) scale(1,1)"><path fill="none" stroke="#000000" d="M 914.3955707675103 205.53478088061271 L 920 215 L 922.7299907097618 204.34414946029108" stroke-miterlimit="10"/></g><g transform="translate(-70,2) scale(1,1)"><g><path fill="none" stroke="none"/><text fill="#000000" stroke="none" font-family="Arial" font-size="13px" font-style="normal" font-weight="normal" text-decoration="none" x="915.5" y="174.5">«include»</text></g></g><g transform="translate(-70,2) scale(1,1)"><path fill="#C0C0C0" stroke="none" d="M 87 496 C 87 486.6111584 125.2796496 479 172.5 479 C 219.7203504 479 258 486.6111584 258 496 C 258 505.3888416 219.7203504 513 172.5 513 C 125.2796496 513 87 505.3888416 87 496 Z" opacity="0.2"/></g><g transform="translate(-70,2) scale(1,1)"><path fill="#ffffff" stroke="none" d="M 80 489 C 80 479.6111584 118.2796496 472 165.5 472 C 212.7203504 472 251 479.6111584 251 489 C 251 498.3888416 212.7203504 506 165.5 506 C 118.2796496 506 80 498.3888416 80 489 Z"/></g><g transform="translate(-70,2) scale(1,1)"><path fill="none" stroke="#000000" d="M 80 489 C 80 479.6111584 118.2796496 472 165.5 472 C 212.7203504 472 251 479.6111584 251 489 C 251 498.3888416 212.7203504 506 165.5 506 C 118.2796496 506 80 498.3888416 80 489 Z" stroke-miterlimit="10"/></g><g transform="translate(-70,2) scale(1,1)"><g><path fill="none" stroke="none"/><text fill="#000000" stroke="none" font-family="Arial" font-size="13px" font-style="normal" font-weight="bold" text-decoration="none" x="113.103271484375" y="496">Quản lý nhân viên</text></g></g><g transform="translate(-70,2) scale(1,1)"><path fill="#C0C0C0" stroke="none" d="M 319 384 C 319 374.6111584 341.6096176 367 369.5 367 C 397.3903824 367 420 374.6111584 420 384 C 420 393.3888416 397.3903824 401 369.5 401 C 341.6096176 401 319 393.3888416 319 384 Z" opacity="0.2"/></g><g transform="translate(-70,2) scale(1,1)"><path fill="#ffffff" stroke="none" d="M 312 377 C 312 367.6111584 334.6096176 360 362.5 360 C 390.3903824 360 413 367.6111584 413 377 C 413 386.3888416 390.3903824 394 362.5 394 C 334.6096176 394 312 386.3888416 312 377 Z"/></g><g transform="translate(-70,2) scale(1,1)"><path fill="none" stroke="#000000" d="M 312 377 C 312 367.6111584 334.6096176 360 362.5 360 C 390.3903824 360 413 367.6111584 413 377 C 413 386.3888416 390.3903824 394 362.5 394 C 334.6096176 394 312 386.3888416 312 377 Z" stroke-miterlimit="10"/></g><g transform="translate(-70,2) scale(1,1)"><g><path fill="none" stroke="none"/><text fill="#000000" stroke="none" font-family="Arial" font-size="13px" font-style="normal" font-weight="bold" text-decoration="none" x="345.885009765625" y="384">Thêm</text></g></g><g transform="translate(-70,2) scale(1,1)"><path fill="none" stroke="#000000" d="M 330 395 L 197 471" stroke-miterlimit="10" stroke-dasharray="3"/></g><g transform="translate(-70,2) scale(1,1)"><path fill="none" stroke="#000000" d="M 203.73516708030883 462.30301636196066 L 197 471 L 207.91217842123686 469.6127862085847" stroke-miterlimit="10"/></g><g transform="translate(-70,2) scale(1,1)"><g><path fill="none" stroke="none"/><text fill="#000000" stroke="none" font-family="Arial" font-size="13px" font-style="normal" font-weight="normal" text-decoration="none" x="250.5" y="464.5">«extend»</text></g></g><g transform="translate(-70,2) scale(1,1)"><path fill="#C0C0C0" stroke="none" d="M 375 456 C 375 446.6111584 397.6096176 439 425.5 439 C 453.3903824 439 476 446.6111584 476 456 C 476 465.3888416 453.3903824 473 425.5 473 C 397.6096176 473 375 465.3888416 375 456 Z" opacity="0.2"/></g><g transform="translate(-70,2) scale(1,1)"><path fill="#ffffff" stroke="none" d="M 368 449 C 368 439.6111584 390.6096176 432 418.5 432 C 446.3903824 432 469 439.6111584 469 449 C 469 458.3888416 446.3903824 466 418.5 466 C 390.6096176 466 368 458.3888416 368 449 Z"/></g><g transform="translate(-70,2) scale(1,1)"><path fill="none" stroke="#000000" d="M 368 449 C 368 439.6111584 390.6096176 432 418.5 432 C 446.3903824 432 469 439.6111584 469 449 C 469 458.3888416 446.3903824 466 418.5 466 C 390.6096176 466 368 458.3888416 368 449 Z" stroke-miterlimit="10"/></g><g transform="translate(-70,2) scale(1,1)"><g><path fill="none" stroke="none"/><text fill="#000000" stroke="none" font-family="Arial" font-size="13px" font-style="normal" font-weight="bold" text-decoration="none" x="406.9345703125" y="456">Xóa</text></g></g><g transform="translate(-70,2) scale(1,1)"><path fill="none" stroke="#000000" d="M 367 457 L 252 475" stroke-miterlimit="10" stroke-dasharray="3"/></g><g transform="translate(-70,2) scale(1,1)"><path fill="none" stroke="#000000" d="M 261.38947315900464 469.26957298307263 L 252 475 L 262.6913839452652 477.5873363397373" stroke-miterlimit="10"/></g><g transform="translate(-70,2) scale(1,1)"><g><path fill="none" stroke="none"/><text fill="#000000" stroke="none" font-family="Arial" font-size="13px" font-style="normal" font-weight="normal" text-decoration="none" x="286.5" y="501.5">«extend»</text></g></g><g transform="translate(-70,2) scale(1,1)"><path fill="#C0C0C0" stroke="none" d="M 383 552 C 383 542.6111584 405.6096176 535 433.5 535 C 461.3903824 535 484 542.6111584 484 552 C 484 561.3888416 461.3903824 569 433.5 569 C 405.6096176 569 383 561.3888416 383 552 Z" opacity="0.2"/></g><g transform="translate(-70,2) scale(1,1)"><path fill="#ffffff" stroke="none" d="M 376 545 C 376 535.6111584 398.6096176 528 426.5 528 C 454.3903824 528 477 535.6111584 477 545 C 477 554.3888416 454.3903824 562 426.5 562 C 398.6096176 562 376 554.3888416 376 545 Z"/></g><g transform="translate(-70,2) scale(1,1)"><path fill="none" stroke="#000000" d="M 376 545 C 376 535.6111584 398.6096176 528 426.5 528 C 454.3903824 528 477 535.6111584 477 545 C 477 554.3888416 454.3903824 562 426.5 562 C 398.6096176 562 376 554.3888416 376 545 Z" stroke-miterlimit="10"/></g><g transform="translate(-70,2) scale(1,1)"><g><path fill="none" stroke="none"/><text fill="#000000" stroke="none" font-family="Arial" font-size="13px" font-style="normal" font-weight="bold" text-decoration="none" x="403.968994140625" y="552">Tra cứu</text></g></g><g transform="translate(-70,2) scale(1,1)"><path fill="none" stroke="#000000" d="M 375 534 L 249 507" stroke-miterlimit="10" stroke-dasharray="3"/></g><g transform="translate(-70,2) scale(1,1)"><path fill="none" stroke="#000000" d="M 259.81910442868315 505.013299378052 L 249 507 L 258.0550715898542 513.2454526259203" stroke-miterlimit="10"/></g><g transform="translate(-70,2) scale(1,1)"><g><path fill="none" stroke="none"/><text fill="#000000" stroke="none" font-family="Arial" font-size="13px" font-style="normal" font-weight="normal" text-decoration="none" x="278.5" y="555.5">«extend»</text></g></g><g transform="translate(-70,2) scale(1,1)"><path fill="#C0C0C0" stroke="none" d="M 311 648 C 311 638.6111584 333.6096176 631 361.5 631 C 389.3903824 631 412 638.6111584 412 648 C 412 657.3888416 389.3903824 665 361.5 665 C 333.6096176 665 311 657.3888416 311 648 Z" opacity="0.2"/></g><g transform="translate(-70,2) scale(1,1)"><path fill="#ffffff" stroke="none" d="M 304 641 C 304 631.6111584 326.6096176 624 354.5 624 C 382.3903824 624 405 631.6111584 405 641 C 405 650.3888416 382.3903824 658 354.5 658 C 326.6096176 658 304 650.3888416 304 641 Z"/></g><g transform="translate(-70,2) scale(1,1)"><path fill="none" stroke="#000000" d="M 304 641 C 304 631.6111584 326.6096176 624 354.5 624 C 382.3903824 624 405 631.6111584 405 641 C 405 650.3888416 382.3903824 658 354.5 658 C 326.6096176 658 304 650.3888416 304 641 Z" stroke-miterlimit="10"/></g><g transform="translate(-70,2) scale(1,1)"><g><path fill="none" stroke="none"/><text fill="#000000" stroke="none" font-family="Arial" font-size="13px" font-style="normal" font-weight="bold" text-decoration="none" x="342.1982421875" y="648">Sửa</text></g></g><g transform="translate(-70,2) scale(1,1)"><path fill="none" stroke="#000000" d="M 332 623 L 187 507" stroke-miterlimit="10" stroke-dasharray="3"/></g><g transform="translate(-70,2) scale(1,1)"><path fill="none" stroke="#000000" d="M 197.5653807116052 510.06149153499416 L 187 507 L 192.306050922054 516.6356537719332" stroke-miterlimit="10"/></g><g transform="translate(-70,2) scale(1,1)"><g><path fill="none" stroke="none"/><text fill="#000000" stroke="none" font-family="Arial" font-size="13px" font-style="normal" font-weight="normal" text-decoration="none" x="213.5" y="594.5">«extend»</text></g></g><g transform="translate(-70,2) scale(1,1)"><path fill="none" stroke="#000000" d="M 368 623 L 413 563" stroke-miterlimit="10" stroke-dasharray="3"/></g><g transform="translate(-70,2) scale(1,1)"><path fill="none" stroke="#000000" d="M 410.2700092902383 573.6558505397089 L 413 563 L 403.53478088061274 568.6044292324897" stroke-miterlimit="10"/></g><g transform="translate(-70,2) scale(1,1)"><g><path fill="none" stroke="none"/><text fill="#000000" stroke="none" font-family="Arial" font-size="13px" font-style="normal" font-weight="normal" text-decoration="none" x="338.5" y="580.5">«include»</text></g></g><g transform="translate(-70,2) scale(1,1)"><path fill="none" stroke="#000000" d="M 420 467 L 425 527" stroke-miterlimit="10" stroke-dasharray="3"/></g><g transform="translate(-70,2) scale(1,1)"><path fill="none" stroke="#000000" d="M 419.96105872583684 517.222010900214 L 425 527 L 428.3510128538653 516.5228480562116" stroke-miterlimit="10"/></g><g transform="translate(-70,2) scale(1,1)"><g><path fill="none" stroke="none"/><text fill="#000000" stroke="none" font-family="Arial" font-size="13px" font-style="normal" font-weight="normal" text-decoration="none" x="423.5" y="500.5">«include»</text></g></g></g></svg>