<svg version="1.1" xmlns="http://www.w3.org/2000/svg" xmlns:xlink="http://www.w3.org/1999/xlink" width="884" height="932"><defs/><g><g transform="translate(-54,-30) scale(1,1)"><path fill="#ffffff" stroke="none" d="M 123.4717879971591 47.3 C 123.4717879971591 43.82060576 126.3501897193409 41 129.90087890625 41 C 133.4515680931591 41 136.32996981534092 43.82060576 136.32996981534092 47.3 C 136.32996981534092 50.779394239999995 133.4515680931591 53.6 129.90087890625 53.6 C 126.3501897193409 53.6 123.4717879971591 50.779394239999995 123.4717879971591 47.3 Z"/></g><g transform="translate(-54,-30) scale(1,1)"><path fill="none" stroke="#000000" d="M 123.4717879971591 47.3 C 123.4717879971591 43.82060576 126.3501897193409 41 129.90087890625 41 C 133.4515680931591 41 136.32996981534092 43.82060576 136.32996981534092 47.3 C 136.32996981534092 50.779394239999995 133.4515680931591 53.6 129.90087890625 53.6 C 126.3501897193409 53.6 123.4717879971591 50.779394239999995 123.4717879971591 47.3 Z" stroke-miterlimit="10"/></g><g transform="translate(-54,-30) scale(1,1)"><path fill="none" stroke="#000000" d="M 129.90087890625 53.6 L 129.90087890625 66.4" stroke-miterlimit="10"/></g><g transform="translate(-54,-30) scale(1,1)"><path fill="none" stroke="#000000" d="M 123.09360617897728 58.4 L 136.70815163352273 58.4" stroke-miterlimit="10"/></g><g transform="translate(-54,-30) scale(1,1)"><path fill="none" stroke="#000000" d="M 129.90087890625 66.4 L 120.44633345170455 79" stroke-miterlimit="10"/></g><g transform="translate(-54,-30) scale(1,1)"><path fill="none" stroke="#000000" d="M 129.90087890625 66.4 L 139.35542436079547 79" stroke-miterlimit="10"/></g><g transform="translate(-54,-30) scale(1,1)"><g><path fill="none" stroke="none"/><text fill="#000000" stroke="none" font-family="Arial" font-size="13px" font-style="normal" font-weight="bold" text-decoration="none" x="97.02001953125" y="99.5">: Nhân viên</text></g></g><g transform="translate(-54,-30) scale(1,1)"><path fill="none" stroke="#000000" d="M 130.5 105 L 130.5 952" stroke-miterlimit="10" stroke-dasharray="3"/></g><g transform="translate(-54,-30) scale(1,1)"><path fill="#ffffff" stroke="none" d="M 272.0654296875 60 C 272.0654296875 51.1634432 279.2288728875 44 288.0654296875 44 C 296.9019864875 44 304.0654296875 51.1634432 304.0654296875 60 C 304.0654296875 68.8365568 296.9019864875 76 288.0654296875 76 C 279.2288728875 76 272.0654296875 68.8365568 272.0654296875 60 Z"/></g><g transform="translate(-54,-30) scale(1,1)"><path fill="none" stroke="#000000" d="M 272.0654296875 60 C 272.0654296875 51.1634432 279.2288728875 44 288.0654296875 44 C 296.9019864875 44 304.0654296875 51.1634432 304.0654296875 60 C 304.0654296875 68.8365568 296.9019864875 76 288.0654296875 76 C 279.2288728875 76 272.0654296875 68.8365568 272.0654296875 60 Z" stroke-miterlimit="10"/></g><g transform="translate(-54,-30) scale(1,1)"><path fill="none" stroke="#000000" d="M 264.0654296875 44 L 264.0654296875 76" stroke-miterlimit="10"/></g><g transform="translate(-54,-30) scale(1,1)"><path fill="none" stroke="#000000" d="M 264.0654296875 60 L 272.0654296875 60" stroke-miterlimit="10"/></g><g transform="translate(-54,-30) scale(1,1)"><g><path fill="none" stroke="none"/><text fill="#000000" stroke="none" font-family="Arial" font-size="13px" font-style="normal" font-weight="bold" text-decoration="none" x="247.582275390625" y="99.5">: QLNV_GUI</text></g></g><g transform="translate(-54,-30) scale(1,1)"><path fill="none" stroke="#000000" d="M 285.5 105 L 285.5 952" stroke-miterlimit="10" stroke-dasharray="3"/></g><g transform="translate(-54,-30) scale(1,1)"><path fill="#ffffff" stroke="none" d="M 438.97998046875 60 C 438.97998046875 51.1634432 446.14342366875 44 454.97998046875 44 C 463.81653726875 44 470.97998046875 51.1634432 470.97998046875 60 C 470.97998046875 68.8365568 463.81653726875 76 454.97998046875 76 C 446.14342366875 76 438.97998046875 68.8365568 438.97998046875 60 Z"/></g><g transform="translate(-54,-30) scale(1,1)"><path fill="none" stroke="#000000" d="M 438.97998046875 60 C 438.97998046875 51.1634432 446.14342366875 44 454.97998046875 44 C 463.81653726875 44 470.97998046875 51.1634432 470.97998046875 60 C 470.97998046875 68.8365568 463.81653726875 76 454.97998046875 76 C 446.14342366875 76 438.97998046875 68.8365568 438.97998046875 60 Z" stroke-miterlimit="10"/></g><g transform="translate(-54,-30) scale(1,1)"><path fill="none" stroke="#000000" d="M 430.97998046875 44 L 430.97998046875 76" stroke-miterlimit="10"/></g><g transform="translate(-54,-30) scale(1,1)"><path fill="none" stroke="#000000" d="M 430.97998046875 60 L 438.97998046875 60" stroke-miterlimit="10"/></g><g transform="translate(-54,-30) scale(1,1)"><g><path fill="none" stroke="none"/><text fill="#000000" stroke="none" font-family="Arial" font-size="13px" font-style="normal" font-weight="bold" text-decoration="none" x="415.226806640625" y="99.5">: TTNV_GUI</text></g></g><g transform="translate(-54,-30) scale(1,1)"><path fill="none" stroke="#000000" d="M 451.5 105 L 451.5 944" stroke-miterlimit="10" stroke-dasharray="3"/></g><g transform="translate(-54,-30) scale(1,1)"><path fill="#ffffff" stroke="none" d="M 592.5654296875 60 C 592.5654296875 51.715728 599.2811576875 45 607.5654296875 45 C 615.8497016875 45 622.5654296875 51.715728 622.5654296875 60 C 622.5654296875 68.284272 615.8497016875 75 607.5654296875 75 C 599.2811576875 75 592.5654296875 68.284272 592.5654296875 60 Z"/></g><g transform="translate(-54,-30) scale(1,1)"><path fill="none" stroke="#000000" d="M 592.5654296875 60 C 592.5654296875 51.715728 599.2811576875 45 607.5654296875 45 C 615.8497016875 45 622.5654296875 51.715728 622.5654296875 60 C 622.5654296875 68.284272 615.8497016875 75 607.5654296875 75 C 599.2811576875 75 592.5654296875 68.284272 592.5654296875 60 Z" stroke-miterlimit="10"/></g><g transform="translate(-54,-30) scale(1,1)"><path fill="none" stroke="#000000" d="M 607.5654296875 45 L 612.5654296875 40" stroke-miterlimit="10"/></g><g transform="translate(-54,-30) scale(1,1)"><path fill="none" stroke="#000000" d="M 607.5654296875 45 L 612.5654296875 50" stroke-miterlimit="10"/></g><g transform="translate(-54,-30) scale(1,1)"><g><path fill="none" stroke="none"/><text fill="#000000" stroke="none" font-family="Arial" font-size="13px" font-style="normal" font-weight="bold" text-decoration="none" x="554.4609375" y="99.5">: Controller_QLNV</text></g></g><g transform="translate(-54,-30) scale(1,1)"><path fill="none" stroke="#000000" d="M 608.5 105 L 608.5 944" stroke-miterlimit="10" stroke-dasharray="3"/></g><g transform="translate(-54,-30) scale(1,1)"><path fill="#ffffff" stroke="none" d="M 756.785888671875 60 C 756.785888671875 51.1634432 763.949331871875 44 772.785888671875 44 C 781.622445471875 44 788.785888671875 51.1634432 788.785888671875 60 C 788.785888671875 68.8365568 781.622445471875 76 772.785888671875 76 C 763.949331871875 76 756.785888671875 68.8365568 756.785888671875 60 Z"/></g><g transform="translate(-54,-30) scale(1,1)"><path fill="none" stroke="#000000" d="M 756.785888671875 60 C 756.785888671875 51.1634432 763.949331871875 44 772.785888671875 44 C 781.622445471875 44 788.785888671875 51.1634432 788.785888671875 60 C 788.785888671875 68.8365568 781.622445471875 76 772.785888671875 76 C 763.949331871875 76 756.785888671875 68.8365568 756.785888671875 60 Z" stroke-miterlimit="10"/></g><g transform="translate(-54,-30) scale(1,1)"><path fill="none" stroke="#000000" d="M 756.785888671875 76 L 788.785888671875 76" stroke-miterlimit="10"/></g><g transform="translate(-54,-30) scale(1,1)"><g><path fill="none" stroke="none"/><text fill="#000000" stroke="none" font-family="Arial" font-size="13px" font-style="normal" font-weight="bold" text-decoration="none" x="735.58544921875" y="99.5">: NHANVIEN</text></g></g><g transform="translate(-54,-30) scale(1,1)"><path fill="none" stroke="#000000" d="M 773.5 105 L 773.5 944" stroke-miterlimit="10" stroke-dasharray="3"/></g><g transform="translate(-54,-30) scale(1,1)"><rect fill="#ffffff" stroke="none" x="88" y="128" width="840" height="29"/></g><g transform="translate(-54,-30) scale(1,1)"><path fill="none" stroke="#000000" d="M 88 128 L 928 128 L 928 157 L 88 157 L 88 128 Z Z" stroke-miterlimit="10"/></g><g transform="translate(-54,-30) scale(1,1)"><path fill="none" stroke="#000000" d="M 88 128 L 88 150 L 113.1708984375 150 L 124.1708984375 139 L 124.1708984375 128 L 88 128 L 88 128" stroke-miterlimit="10"/></g><g transform="translate(-54,-30) scale(1,1)"><g><path fill="none" stroke="none"/><text fill="#000000" stroke="none" font-family="Arial" font-size="13px" font-style="normal" font-weight="normal" text-decoration="none" x="407.577880859375" y="145.5">: Squence - Tìm kiếm thông tin nhân viên</text></g></g><g transform="translate(-54,-30) scale(1,1)"><g><path fill="none" stroke="none"/><text fill="#000000" stroke="none" font-family="Arial" font-size="13px" font-style="normal" font-weight="bold" text-decoration="none" x="93" y="145.5">ref</text></g></g><g transform="translate(-54,-30) scale(1,1)"><path fill="none" stroke="#000000" d="M 130 193 L 285 193" stroke-miterlimit="10"/></g><g transform="translate(-54,-30) scale(1,1)"><path fill="#000000" stroke="none" d="M 274.83732514237585 197.209517756016 L 285 193 L 274.83732514237585 188.790482243984"/></g><g transform="translate(-54,-30) scale(1,1)"><path fill="none" stroke="#000000" d="M 274.83732514237585 197.209517756016 L 285 193 L 274.83732514237585 188.790482243984 L 274.83732514237585 197.209517756016" stroke-miterlimit="10"/></g><g transform="translate(-54,-30) scale(1,1)"><g><path fill="none" stroke="none"/><text fill="#000000" stroke="none" font-family="Arial" font-size="13px" font-style="normal" font-weight="normal" text-decoration="none" x="130.5" y="189.5">1 : Chọn thông tin cần sửa</text></g></g><g transform="translate(-54,-30) scale(1,1)"><path fill="none" stroke="#000000" d="M 608 200 L 773 200" stroke-miterlimit="10"/></g><g transform="translate(-54,-30) scale(1,1)"><path fill="#000000" stroke="none" d="M 762.8373251423759 204.209517756016 L 773 200 L 762.8373251423758 195.790482243984"/></g><g transform="translate(-54,-30) scale(1,1)"><path fill="none" stroke="#000000" d="M 762.8373251423759 204.209517756016 L 773 200 L 762.8373251423758 195.790482243984 L 762.8373251423759 204.209517756016" stroke-miterlimit="10"/></g><g transform="translate(-54,-30) scale(1,1)"><g><path fill="none" stroke="none"/><text fill="#000000" stroke="none" font-family="Arial" font-size="13px" font-style="normal" font-weight="normal" text-decoration="none" x="588.5" y="196.5">2 : Lấy thông tin nhân viên đã chọn</text></g></g><g transform="translate(-54,-30) scale(1,1)"><path fill="none" stroke="#000000" d="M 451 232 L 481 232 L 481 252 L 451 252" stroke-miterlimit="10"/></g><g transform="translate(-54,-30) scale(1,1)"><path fill="#000000" stroke="none" d="M 461.16267485762415 247.790482243984 L 451 252 L 461.16267485762415 256.209517756016"/></g><g transform="translate(-54,-30) scale(1,1)"><path fill="none" stroke="#000000" d="M 461.16267485762415 247.790482243984 L 451 252 L 461.16267485762415 256.209517756016 L 461.16267485762415 247.790482243984" stroke-miterlimit="10"/></g><g transform="translate(-54,-30) scale(1,1)"><g><path fill="none" stroke="none"/><text fill="#000000" stroke="none" font-family="Arial" font-size="13px" font-style="normal" font-weight="normal" text-decoration="none" x="496.92822265625" y="226.5">3 : Hiển thị</text><text fill="#000000" stroke="none" font-family="Arial" font-size="13px" font-style="normal" font-weight="normal" text-decoration="none" x="503.063232421875" y="239.5">thông tin</text><text fill="#000000" stroke="none" font-family="Arial" font-size="13px" font-style="normal" font-weight="normal" text-decoration="none" x="499.81005859375" y="252.5">nhân viên</text><text fill="#000000" stroke="none" font-family="Arial" font-size="13px" font-style="normal" font-weight="normal" text-decoration="none" x="504.497802734375" y="265.5">cần sửa</text></g></g><g transform="translate(-54,-30) scale(1,1)"><path fill="none" stroke="#000000" d="M 130 376 L 451 376" stroke-miterlimit="10"/></g><g transform="translate(-54,-30) scale(1,1)"><path fill="#000000" stroke="none" d="M 440.83732514237585 380.209517756016 L 451 376 L 440.83732514237585 371.790482243984"/></g><g transform="translate(-54,-30) scale(1,1)"><path fill="none" stroke="#000000" d="M 440.83732514237585 380.209517756016 L 451 376 L 440.83732514237585 371.790482243984 L 440.83732514237585 380.209517756016" stroke-miterlimit="10"/></g><g transform="translate(-54,-30) scale(1,1)"><g><path fill="none" stroke="none"/><text fill="#000000" stroke="none" font-family="Arial" font-size="13px" font-style="normal" font-weight="normal" text-decoration="none" x="199.5" y="372.5">4 : Thay đổi thông tin nhân viên</text></g></g><g transform="translate(-54,-30) scale(1,1)"><path fill="none" stroke="#000000" d="M 451 416 L 608 416" stroke-miterlimit="10"/></g><g transform="translate(-54,-30) scale(1,1)"><path fill="#000000" stroke="none" d="M 597.8373251423759 420.209517756016 L 608 416 L 597.8373251423758 411.790482243984"/></g><g transform="translate(-54,-30) scale(1,1)"><path fill="none" stroke="#000000" d="M 597.8373251423759 420.209517756016 L 608 416 L 597.8373251423758 411.790482243984 L 597.8373251423759 420.209517756016" stroke-miterlimit="10"/></g><g transform="translate(-54,-30) scale(1,1)"><g><path fill="none" stroke="none"/><text fill="#000000" stroke="none" font-family="Arial" font-size="13px" font-style="normal" font-weight="normal" text-decoration="none" x="438.5" y="412.5">5 : Kiểm tra định dạng thông tin</text></g></g><g transform="translate(-54,-30) scale(1,1)"><path fill="none" stroke="#000000" d="M 608 504 L 451 504" stroke-miterlimit="10" stroke-dasharray="3"/></g><g transform="translate(-54,-30) scale(1,1)"><path fill="none" stroke="#000000" d="M 461.16267485762415 499.790482243984 L 451 504 L 461.16267485762415 508.209517756016" stroke-miterlimit="10"/></g><g transform="translate(-54,-30) scale(1,1)"><g><path fill="none" stroke="none"/><text fill="#000000" stroke="none" font-family="Arial" font-size="13px" font-style="normal" font-weight="normal" text-decoration="none" x="453.025146484375" y="490.5">6 : Thông báo định dạng</text><text fill="#000000" stroke="none" font-family="Arial" font-size="13px" font-style="normal" font-weight="normal" text-decoration="none" x="485.626708984375" y="503.5">không hợp lệ</text></g></g><g transform="translate(-54,-30) scale(1,1)"><path fill="none" stroke="#000000" d="M 608 560 L 773 560" stroke-miterlimit="10"/></g><g transform="translate(-54,-30) scale(1,1)"><path fill="#000000" stroke="none" d="M 762.8373251423759 564.209517756016 L 773 560 L 762.8373251423758 555.790482243984"/></g><g transform="translate(-54,-30) scale(1,1)"><path fill="none" stroke="#000000" d="M 762.8373251423759 564.209517756016 L 773 560 L 762.8373251423758 555.790482243984 L 762.8373251423759 564.209517756016" stroke-miterlimit="10"/></g><g transform="translate(-54,-30) scale(1,1)"><g><path fill="none" stroke="none"/><text fill="#000000" stroke="none" font-family="Arial" font-size="13px" font-style="normal" font-weight="normal" text-decoration="none" x="587.5" y="556.5">7 : Yêu cầu sửa thông tin nhân viên</text></g></g><g transform="translate(-54,-30) scale(1,1)"><path fill="none" stroke="#000000" d="M 773 608 L 803 608 L 803 628 L 773 628" stroke-miterlimit="10"/></g><g transform="translate(-54,-30) scale(1,1)"><path fill="#000000" stroke="none" d="M 783.1626748576241 623.790482243984 L 773 628 L 783.1626748576241 632.209517756016"/></g><g transform="translate(-54,-30) scale(1,1)"><path fill="none" stroke="#000000" d="M 783.1626748576241 623.790482243984 L 773 628 L 783.1626748576241 632.209517756016 L 783.1626748576241 623.790482243984" stroke-miterlimit="10"/></g><g transform="translate(-54,-30) scale(1,1)"><g><path fill="none" stroke="none"/><text fill="#000000" stroke="none" font-family="Arial" font-size="13px" font-style="normal" font-weight="normal" text-decoration="none" x="810.158203125" y="603.5">8 : Kiểm</text><text fill="#000000" stroke="none" font-family="Arial" font-size="13px" font-style="normal" font-weight="normal" text-decoration="none" x="808.3427734375" y="616.5">tra thông</text><text fill="#000000" stroke="none" font-family="Arial" font-size="13px" font-style="normal" font-weight="normal" text-decoration="none" x="810.869140625" y="629.5">tin nhân</text><text fill="#000000" stroke="none" font-family="Arial" font-size="13px" font-style="normal" font-weight="normal" text-decoration="none" x="822.075927734375" y="642.5">viên</text></g></g><g transform="translate(-54,-30) scale(1,1)"><path fill="none" stroke="#000000" d="M 773 712 L 608 712" stroke-miterlimit="10" stroke-dasharray="3"/></g><g transform="translate(-54,-30) scale(1,1)"><path fill="none" stroke="#000000" d="M 618.1626748576241 707.790482243984 L 608 712 L 618.1626748576241 716.209517756016" stroke-miterlimit="10"/></g><g transform="translate(-54,-30) scale(1,1)"><g><path fill="none" stroke="none"/><text fill="#000000" stroke="none" font-family="Arial" font-size="13px" font-style="normal" font-weight="normal" text-decoration="none" x="638.5" y="707.5">9 : Thông báo lỗi</text></g></g><g transform="translate(-54,-30) scale(1,1)"><path fill="none" stroke="#000000" d="M 608 744 L 451 744" stroke-miterlimit="10" stroke-dasharray="3"/></g><g transform="translate(-54,-30) scale(1,1)"><path fill="none" stroke="#000000" d="M 461.16267485762415 739.790482243984 L 451 744 L 461.16267485762415 748.209517756016" stroke-miterlimit="10"/></g><g transform="translate(-54,-30) scale(1,1)"><g><path fill="none" stroke="none"/><text fill="#000000" stroke="none" font-family="Arial" font-size="13px" font-style="normal" font-weight="normal" text-decoration="none" x="470.5" y="739.5">10 : Thông báo lỗi</text></g></g><g transform="translate(-54,-30) scale(1,1)"><path fill="none" stroke="#000000" d="M 773 832 L 803 832 L 803 852 L 773 852" stroke-miterlimit="10"/></g><g transform="translate(-54,-30) scale(1,1)"><path fill="#000000" stroke="none" d="M 783.1626748576241 847.790482243984 L 773 852 L 783.1626748576241 856.209517756016"/></g><g transform="translate(-54,-30) scale(1,1)"><path fill="none" stroke="#000000" d="M 783.1626748576241 847.790482243984 L 773 852 L 783.1626748576241 856.209517756016 L 783.1626748576241 847.790482243984" stroke-miterlimit="10"/></g><g transform="translate(-54,-30) scale(1,1)"><g><path fill="none" stroke="none"/><text fill="#000000" stroke="none" font-family="Arial" font-size="13px" font-style="normal" font-weight="normal" text-decoration="none" x="811.25341796875" y="827.5">11 : Lưu</text><text fill="#000000" stroke="none" font-family="Arial" font-size="13px" font-style="normal" font-weight="normal" text-decoration="none" x="810.063232421875" y="840.5">thông tin</text><text fill="#000000" stroke="none" font-family="Arial" font-size="13px" font-style="normal" font-weight="normal" text-decoration="none" x="820.5400390625" y="853.5">nhân</text><text fill="#000000" stroke="none" font-family="Arial" font-size="13px" font-style="normal" font-weight="normal" text-decoration="none" x="823.075927734375" y="866.5">viên</text></g></g><g transform="translate(-54,-30) scale(1,1)"><path fill="none" stroke="#000000" d="M 773 896 L 608 896" stroke-miterlimit="10" stroke-dasharray="3"/></g><g transform="translate(-54,-30) scale(1,1)"><path fill="none" stroke="#000000" d="M 618.1626748576241 891.790482243984 L 608 896 L 618.1626748576241 900.209517756016" stroke-miterlimit="10"/></g><g transform="translate(-54,-30) scale(1,1)"><g><path fill="none" stroke="none"/><text fill="#000000" stroke="none" font-family="Arial" font-size="13px" font-style="normal" font-weight="normal" text-decoration="none" x="599.5" y="892.5">12 : Thông báo sửa thành công</text></g></g><g transform="translate(-54,-30) scale(1,1)"><path fill="none" stroke="#000000" d="M 608 928 L 285 928" stroke-miterlimit="10" stroke-dasharray="3"/></g><g transform="translate(-54,-30) scale(1,1)"><path fill="none" stroke="#000000" d="M 295.16267485762415 923.790482243984 L 285 928 L 295.16267485762415 932.209517756016" stroke-miterlimit="10"/></g><g transform="translate(-54,-30) scale(1,1)"><g><path fill="none" stroke="none"/><text fill="#000000" stroke="none" font-family="Arial" font-size="13px" font-style="normal" font-weight="normal" text-decoration="none" x="349.276123046875" y="906.5">13 : Thông báo sửa thành công</text><text fill="#000000" stroke="none" font-family="Arial" font-size="13px" font-style="normal" font-weight="normal" text-decoration="none" x="348.571533203125" y="919.5">và hiển thị danh sách nhân viên</text></g></g><g transform="translate(-54,-30) scale(1,1)"><path fill="none" stroke="#000000" d="M 248 432 L 888 432 L 888 776 L 248 776 L 248 432" stroke-miterlimit="10"/></g><g transform="translate(-54,-30) scale(1,1)"><path fill="#ffffff" stroke="none" d="M 248 432 L 248 454 L 277.72998046875 454 L 288.72998046875 443 L 288.72998046875 432 L 248 432"/></g><g transform="translate(-54,-30) scale(1,1)"><path fill="none" stroke="#000000" d="M 248 432 L 248 454 L 277.72998046875 454 L 288.72998046875 443 L 288.72998046875 432 L 248 432 L 248 432" stroke-miterlimit="10"/></g><g transform="translate(-54,-30) scale(1,1)"><g><path fill="none" stroke="none"/><text fill="#000000" stroke="none" font-family="Arial" font-size="13px" font-style="normal" font-weight="bold" text-decoration="none" x="253" y="449.5">alt</text></g></g><g transform="translate(-54,-30) scale(1,1)"><g><path fill="none" stroke="none"/><text fill="#000000" stroke="none" font-family="Arial" font-size="13px" font-style="normal" font-weight="normal" text-decoration="none" x="267.5" y="482.5">[Định dạng không hợp lệ]</text></g></g><g transform="translate(-54,-30) scale(1,1)"><path fill="none" stroke="#000000" d="M 248 529 L 888 529" stroke-miterlimit="10" stroke-dasharray="10,3"/></g><g transform="translate(-54,-30) scale(1,1)"><g><path fill="none" stroke="none"/><text fill="#000000" stroke="none" font-family="Arial" font-size="13px" font-style="normal" font-weight="normal" text-decoration="none" x="267.5" y="556.5">[Định dạng hợp lệ]</text></g></g><g transform="translate(-54,-30) scale(1,1)"><path fill="none" stroke="#000000" d="M 264 656 L 872 656 L 872 760 L 264 760 L 264 656" stroke-miterlimit="10"/></g><g transform="translate(-54,-30) scale(1,1)"><path fill="#ffffff" stroke="none" d="M 264 656 L 264 678 L 293.72998046875 678 L 304.72998046875 667 L 304.72998046875 656 L 264 656"/></g><g transform="translate(-54,-30) scale(1,1)"><path fill="none" stroke="#000000" d="M 264 656 L 264 678 L 293.72998046875 678 L 304.72998046875 667 L 304.72998046875 656 L 264 656 L 264 656" stroke-miterlimit="10"/></g><g transform="translate(-54,-30) scale(1,1)"><g><path fill="none" stroke="none"/><text fill="#000000" stroke="none" font-family="Arial" font-size="13px" font-style="normal" font-weight="bold" text-decoration="none" x="269" y="673.5">alt</text></g></g><g transform="translate(-54,-30) scale(1,1)"><g><path fill="none" stroke="none"/><text fill="#000000" stroke="none" font-family="Arial" font-size="13px" font-style="normal" font-weight="normal" text-decoration="none" x="283.5" y="706.5">[Không hợp lệ]</text></g></g><g transform="translate(-54,-30) scale(1,1)"><path fill="none" stroke="#000000" d="M 80 280 L 928 280 L 928 792 L 80 792 L 80 280" stroke-miterlimit="10"/></g><g transform="translate(-54,-30) scale(1,1)"><path fill="#ffffff" stroke="none" d="M 80 280 L 80 302 L 120.578125 302 L 131.578125 291 L 131.578125 280 L 80 280"/></g><g transform="translate(-54,-30) scale(1,1)"><path fill="none" stroke="#000000" d="M 80 280 L 80 302 L 120.578125 302 L 131.578125 291 L 131.578125 280 L 80 280 L 80 280" stroke-miterlimit="10"/></g><g transform="translate(-54,-30) scale(1,1)"><g><path fill="none" stroke="none"/><text fill="#000000" stroke="none" font-family="Arial" font-size="13px" font-style="normal" font-weight="bold" text-decoration="none" x="85" y="297.5">loop</text></g></g><g transform="translate(-54,-30) scale(1,1)"><g><path fill="none" stroke="none"/><text fill="#000000" stroke="none" font-family="Arial" font-size="13px" font-style="normal" font-weight="normal" text-decoration="none" x="99.5" y="330.5">[Chưa sửa thành công]</text></g></g></g></svg>