<svg version="1.1" xmlns="http://www.w3.org/2000/svg" xmlns:xlink="http://www.w3.org/1999/xlink" width="860" height="924"><defs/><g><g transform="translate(-38,-30) scale(1,1)"><path fill="#ffffff" stroke="none" d="M 107.4717879971591 47.3 C 107.4717879971591 43.82060576 110.35018971934092 41 113.90087890625 41 C 117.45156809315908 41 120.3299698153409 43.82060576 120.3299698153409 47.3 C 120.3299698153409 50.779394239999995 117.45156809315908 53.6 113.90087890625 53.6 C 110.35018971934092 53.6 107.4717879971591 50.779394239999995 107.4717879971591 47.3 Z"/></g><g transform="translate(-38,-30) scale(1,1)"><path fill="none" stroke="#000000" d="M 107.4717879971591 47.3 C 107.4717879971591 43.82060576 110.35018971934092 41 113.90087890625 41 C 117.45156809315908 41 120.3299698153409 43.82060576 120.3299698153409 47.3 C 120.3299698153409 50.779394239999995 117.45156809315908 53.6 113.90087890625 53.6 C 110.35018971934092 53.6 107.4717879971591 50.779394239999995 107.4717879971591 47.3 Z" stroke-miterlimit="10"/></g><g transform="translate(-38,-30) scale(1,1)"><path fill="none" stroke="#000000" d="M 113.90087890625 53.6 L 113.90087890625 66.4" stroke-miterlimit="10"/></g><g transform="translate(-38,-30) scale(1,1)"><path fill="none" stroke="#000000" d="M 107.09360617897727 58.4 L 120.70815163352273 58.4" stroke-miterlimit="10"/></g><g transform="translate(-38,-30) scale(1,1)"><path fill="none" stroke="#000000" d="M 113.90087890625 66.4 L 104.44633345170455 79" stroke-miterlimit="10"/></g><g transform="translate(-38,-30) scale(1,1)"><path fill="none" stroke="#000000" d="M 113.90087890625 66.4 L 123.35542436079545 79" stroke-miterlimit="10"/></g><g transform="translate(-38,-30) scale(1,1)"><g><path fill="none" stroke="none"/><text fill="#000000" stroke="none" font-family="Arial" font-size="13px" font-style="normal" font-weight="bold" text-decoration="none" x="81.02001953125" y="99.5">: Nhân viên</text></g></g><g transform="translate(-38,-30) scale(1,1)"><path fill="none" stroke="#000000" d="M 114.5 105 L 114.5 912" stroke-miterlimit="10" stroke-dasharray="3"/></g><g transform="translate(-38,-30) scale(1,1)"><path fill="#ffffff" stroke="none" d="M 224.0654296875 60 C 224.0654296875 51.1634432 231.2288728875 44 240.0654296875 44 C 248.9019864875 44 256.0654296875 51.1634432 256.0654296875 60 C 256.0654296875 68.8365568 248.9019864875 76 240.0654296875 76 C 231.2288728875 76 224.0654296875 68.8365568 224.0654296875 60 Z"/></g><g transform="translate(-38,-30) scale(1,1)"><path fill="none" stroke="#000000" d="M 224.0654296875 60 C 224.0654296875 51.1634432 231.2288728875 44 240.0654296875 44 C 248.9019864875 44 256.0654296875 51.1634432 256.0654296875 60 C 256.0654296875 68.8365568 248.9019864875 76 240.0654296875 76 C 231.2288728875 76 224.0654296875 68.8365568 224.0654296875 60 Z" stroke-miterlimit="10"/></g><g transform="translate(-38,-30) scale(1,1)"><path fill="none" stroke="#000000" d="M 216.0654296875 44 L 216.0654296875 76" stroke-miterlimit="10"/></g><g transform="translate(-38,-30) scale(1,1)"><path fill="none" stroke="#000000" d="M 216.0654296875 60 L 224.0654296875 60" stroke-miterlimit="10"/></g><g transform="translate(-38,-30) scale(1,1)"><g><path fill="none" stroke="none"/><text fill="#000000" stroke="none" font-family="Arial" font-size="13px" font-style="normal" font-weight="bold" text-decoration="none" x="199.582275390625" y="99.5">: QLNV_GUI</text></g></g><g transform="translate(-38,-30) scale(1,1)"><path fill="none" stroke="#000000" d="M 237.5 105 L 237.5 912" stroke-miterlimit="10" stroke-dasharray="3"/></g><g transform="translate(-38,-30) scale(1,1)"><path fill="#ffffff" stroke="none" d="M 358.97998046875 60 C 358.97998046875 51.1634432 366.14342366875 44 374.97998046875 44 C 383.81653726875 44 390.97998046875 51.1634432 390.97998046875 60 C 390.97998046875 68.8365568 383.81653726875 76 374.97998046875 76 C 366.14342366875 76 358.97998046875 68.8365568 358.97998046875 60 Z"/></g><g transform="translate(-38,-30) scale(1,1)"><path fill="none" stroke="#000000" d="M 358.97998046875 60 C 358.97998046875 51.1634432 366.14342366875 44 374.97998046875 44 C 383.81653726875 44 390.97998046875 51.1634432 390.97998046875 60 C 390.97998046875 68.8365568 383.81653726875 76 374.97998046875 76 C 366.14342366875 76 358.97998046875 68.8365568 358.97998046875 60 Z" stroke-miterlimit="10"/></g><g transform="translate(-38,-30) scale(1,1)"><path fill="none" stroke="#000000" d="M 350.97998046875 44 L 350.97998046875 76" stroke-miterlimit="10"/></g><g transform="translate(-38,-30) scale(1,1)"><path fill="none" stroke="#000000" d="M 350.97998046875 60 L 358.97998046875 60" stroke-miterlimit="10"/></g><g transform="translate(-38,-30) scale(1,1)"><g><path fill="none" stroke="none"/><text fill="#000000" stroke="none" font-family="Arial" font-size="13px" font-style="normal" font-weight="bold" text-decoration="none" x="335.226806640625" y="99.5">: TTNV_GUI</text></g></g><g transform="translate(-38,-30) scale(1,1)"><path fill="none" stroke="#000000" d="M 371.5 105 L 371.5 912" stroke-miterlimit="10" stroke-dasharray="3"/></g><g transform="translate(-38,-30) scale(1,1)"><path fill="#ffffff" stroke="none" d="M 480.5654296875 60 C 480.5654296875 51.715728 487.2811576875 45 495.5654296875 45 C 503.8497016875 45 510.5654296875 51.715728 510.5654296875 60 C 510.5654296875 68.284272 503.8497016875 75 495.5654296875 75 C 487.2811576875 75 480.5654296875 68.284272 480.5654296875 60 Z"/></g><g transform="translate(-38,-30) scale(1,1)"><path fill="none" stroke="#000000" d="M 480.5654296875 60 C 480.5654296875 51.715728 487.2811576875 45 495.5654296875 45 C 503.8497016875 45 510.5654296875 51.715728 510.5654296875 60 C 510.5654296875 68.284272 503.8497016875 75 495.5654296875 75 C 487.2811576875 75 480.5654296875 68.284272 480.5654296875 60 Z" stroke-miterlimit="10"/></g><g transform="translate(-38,-30) scale(1,1)"><path fill="none" stroke="#000000" d="M 495.5654296875 45 L 500.5654296875 40" stroke-miterlimit="10"/></g><g transform="translate(-38,-30) scale(1,1)"><path fill="none" stroke="#000000" d="M 495.5654296875 45 L 500.5654296875 50" stroke-miterlimit="10"/></g><g transform="translate(-38,-30) scale(1,1)"><g><path fill="none" stroke="none"/><text fill="#000000" stroke="none" font-family="Arial" font-size="13px" font-style="normal" font-weight="bold" text-decoration="none" x="442.4609375" y="99.5">: Controller_QLNV</text></g></g><g transform="translate(-38,-30) scale(1,1)"><path fill="none" stroke="#000000" d="M 496.5 105 L 496.5 912" stroke-miterlimit="10" stroke-dasharray="3"/></g><g transform="translate(-38,-30) scale(1,1)"><path fill="#ffffff" stroke="none" d="M 596.785888671875 60 C 596.785888671875 51.1634432 603.949331871875 44 612.785888671875 44 C 621.622445471875 44 628.785888671875 51.1634432 628.785888671875 60 C 628.785888671875 68.8365568 621.622445471875 76 612.785888671875 76 C 603.949331871875 76 596.785888671875 68.8365568 596.785888671875 60 Z"/></g><g transform="translate(-38,-30) scale(1,1)"><path fill="none" stroke="#000000" d="M 596.785888671875 60 C 596.785888671875 51.1634432 603.949331871875 44 612.785888671875 44 C 621.622445471875 44 628.785888671875 51.1634432 628.785888671875 60 C 628.785888671875 68.8365568 621.622445471875 76 612.785888671875 76 C 603.949331871875 76 596.785888671875 68.8365568 596.785888671875 60 Z" stroke-miterlimit="10"/></g><g transform="translate(-38,-30) scale(1,1)"><path fill="none" stroke="#000000" d="M 596.785888671875 76 L 628.785888671875 76" stroke-miterlimit="10"/></g><g transform="translate(-38,-30) scale(1,1)"><g><path fill="none" stroke="none"/><text fill="#000000" stroke="none" font-family="Arial" font-size="13px" font-style="normal" font-weight="bold" text-decoration="none" x="575.58544921875" y="99.5">: NHANVIEN</text></g></g><g transform="translate(-38,-30) scale(1,1)"><path fill="none" stroke="#000000" d="M 613.5 105 L 613.5 912" stroke-miterlimit="10" stroke-dasharray="3"/></g><g transform="translate(-38,-30) scale(1,1)"><path fill="#ffffff" stroke="none" d="M 716.658935546875 60 C 716.658935546875 51.1634432 723.822378746875 44 732.658935546875 44 C 741.495492346875 44 748.658935546875 51.1634432 748.658935546875 60 C 748.658935546875 68.8365568 741.495492346875 76 732.658935546875 76 C 723.822378746875 76 716.658935546875 68.8365568 716.658935546875 60 Z"/></g><g transform="translate(-38,-30) scale(1,1)"><path fill="none" stroke="#000000" d="M 716.658935546875 60 C 716.658935546875 51.1634432 723.822378746875 44 732.658935546875 44 C 741.495492346875 44 748.658935546875 51.1634432 748.658935546875 60 C 748.658935546875 68.8365568 741.495492346875 76 732.658935546875 76 C 723.822378746875 76 716.658935546875 68.8365568 716.658935546875 60 Z" stroke-miterlimit="10"/></g><g transform="translate(-38,-30) scale(1,1)"><path fill="none" stroke="#000000" d="M 716.658935546875 76 L 748.658935546875 76" stroke-miterlimit="10"/></g><g transform="translate(-38,-30) scale(1,1)"><g><path fill="none" stroke="none"/><text fill="#000000" stroke="none" font-family="Arial" font-size="13px" font-style="normal" font-weight="bold" text-decoration="none" x="696.302734375" y="99.5">: TAIKHOAN</text></g></g><g transform="translate(-38,-30) scale(1,1)"><path fill="none" stroke="#000000" d="M 733.5 105 L 733.5 912" stroke-miterlimit="10" stroke-dasharray="3"/></g><g transform="translate(-38,-30) scale(1,1)"><path fill="none" stroke="#000000" d="M 114 184 L 371 184" stroke-miterlimit="10"/></g><g transform="translate(-38,-30) scale(1,1)"><path fill="#000000" stroke="none" d="M 360.83732514237585 188.209517756016 L 371 184 L 360.83732514237585 179.790482243984"/></g><g transform="translate(-38,-30) scale(1,1)"><path fill="none" stroke="#000000" d="M 360.83732514237585 188.209517756016 L 371 184 L 360.83732514237585 179.790482243984 L 360.83732514237585 188.209517756016" stroke-miterlimit="10"/></g><g transform="translate(-38,-30) scale(1,1)"><g><path fill="none" stroke="none"/><text fill="#000000" stroke="none" font-family="Arial" font-size="13px" font-style="normal" font-weight="normal" text-decoration="none" x="160.5" y="180.5">1 : Nhập thông tin nhân viên</text></g></g><g transform="translate(-38,-30) scale(1,1)"><path fill="none" stroke="#000000" d="M 371 240 L 496 240" stroke-miterlimit="10"/></g><g transform="translate(-38,-30) scale(1,1)"><path fill="#000000" stroke="none" d="M 485.83732514237585 244.209517756016 L 496 240 L 485.83732514237585 235.790482243984"/></g><g transform="translate(-38,-30) scale(1,1)"><path fill="none" stroke="#000000" d="M 485.83732514237585 244.209517756016 L 496 240 L 485.83732514237585 235.790482243984 L 485.83732514237585 244.209517756016" stroke-miterlimit="10"/></g><g transform="translate(-38,-30) scale(1,1)"><g><path fill="none" stroke="none"/><text fill="#000000" stroke="none" font-family="Arial" font-size="13px" font-style="normal" font-weight="normal" text-decoration="none" x="384.171875" y="211.5">2 : Kiểm tra định</text><text fill="#000000" stroke="none" font-family="Arial" font-size="13px" font-style="normal" font-weight="normal" text-decoration="none" x="374.031494140625" y="224.5">dạng thông tin nhân</text><text fill="#000000" stroke="none" font-family="Arial" font-size="13px" font-style="normal" font-weight="normal" text-decoration="none" x="419.575927734375" y="237.5">viên</text></g></g><g transform="translate(-38,-30) scale(1,1)"><path fill="none" stroke="#000000" d="M 496 352 L 371 352" stroke-miterlimit="10" stroke-dasharray="3"/></g><g transform="translate(-38,-30) scale(1,1)"><path fill="none" stroke="#000000" d="M 381.16267485762415 347.790482243984 L 371 352 L 381.16267485762415 356.209517756016" stroke-miterlimit="10"/></g><g transform="translate(-38,-30) scale(1,1)"><g><path fill="none" stroke="none"/><text fill="#000000" stroke="none" font-family="Arial" font-size="13px" font-style="normal" font-weight="normal" text-decoration="none" x="360.025146484375" y="332.5">3 : Thông báo định dạng</text><text fill="#000000" stroke="none" font-family="Arial" font-size="13px" font-style="normal" font-weight="normal" text-decoration="none" x="392.626708984375" y="345.5">không hợp lệ</text></g></g><g transform="translate(-38,-30) scale(1,1)"><path fill="none" stroke="#000000" d="M 496 432 L 613 432" stroke-miterlimit="10"/></g><g transform="translate(-38,-30) scale(1,1)"><path fill="#000000" stroke="none" d="M 602.8373251423759 436.209517756016 L 613 432 L 602.8373251423758 427.790482243984"/></g><g transform="translate(-38,-30) scale(1,1)"><path fill="none" stroke="#000000" d="M 602.8373251423759 436.209517756016 L 613 432 L 602.8373251423758 427.790482243984 L 602.8373251423759 436.209517756016" stroke-miterlimit="10"/></g><g transform="translate(-38,-30) scale(1,1)"><g><path fill="none" stroke="none"/><text fill="#000000" stroke="none" font-family="Arial" font-size="13px" font-style="normal" font-weight="normal" text-decoration="none" x="504.859619140625" y="411.5">4 : Yêu cầu thêm</text><text fill="#000000" stroke="none" font-family="Arial" font-size="13px" font-style="normal" font-weight="normal" text-decoration="none" x="499.0673828125" y="424.5">thông tin nhân viên</text></g></g><g transform="translate(-38,-30) scale(1,1)"><path fill="none" stroke="#000000" d="M 613 472 L 643 472 L 643 492 L 613 492" stroke-miterlimit="10"/></g><g transform="translate(-38,-30) scale(1,1)"><path fill="#000000" stroke="none" d="M 623.1626748576241 487.790482243984 L 613 492 L 623.1626748576241 496.209517756016"/></g><g transform="translate(-38,-30) scale(1,1)"><path fill="none" stroke="#000000" d="M 623.1626748576241 487.790482243984 L 613 492 L 623.1626748576241 496.209517756016 L 623.1626748576241 487.790482243984" stroke-miterlimit="10"/></g><g transform="translate(-38,-30) scale(1,1)"><g><path fill="none" stroke="none"/><text fill="#000000" stroke="none" font-family="Arial" font-size="13px" font-style="normal" font-weight="normal" text-decoration="none" x="651.738525390625" y="476.5">5 : Kiểm tra</text><text fill="#000000" stroke="none" font-family="Arial" font-size="13px" font-style="normal" font-weight="normal" text-decoration="none" x="660.034912109375" y="489.5">thông tin</text><text fill="#000000" stroke="none" font-family="Arial" font-size="13px" font-style="normal" font-weight="normal" text-decoration="none" x="656.78173828125" y="502.5">nhân viên</text></g></g><g transform="translate(-38,-30) scale(1,1)"><path fill="none" stroke="#000000" d="M 613 568 L 496 568" stroke-miterlimit="10" stroke-dasharray="3"/></g><g transform="translate(-38,-30) scale(1,1)"><path fill="none" stroke="#000000" d="M 506.16267485762415 563.790482243984 L 496 568 L 506.16267485762415 572.209517756016" stroke-miterlimit="10"/></g><g transform="translate(-38,-30) scale(1,1)"><g><path fill="none" stroke="none"/><text fill="#000000" stroke="none" font-family="Arial" font-size="13px" font-style="normal" font-weight="normal" text-decoration="none" x="506.5" y="564.5">6 : Thông báo lỗi</text></g></g><g transform="translate(-38,-30) scale(1,1)"><path fill="none" stroke="#000000" d="M 496 605 L 371 605" stroke-miterlimit="10" stroke-dasharray="3"/></g><g transform="translate(-38,-30) scale(1,1)"><path fill="none" stroke="#000000" d="M 381.16267485762415 600.790482243984 L 371 605 L 381.16267485762415 609.209517756016" stroke-miterlimit="10"/></g><g transform="translate(-38,-30) scale(1,1)"><g><path fill="none" stroke="none"/><text fill="#000000" stroke="none" font-family="Arial" font-size="13px" font-style="normal" font-weight="normal" text-decoration="none" x="382.5" y="595.5">7 : Thông báo lỗi</text></g></g><g transform="translate(-38,-30) scale(1,1)"><path fill="none" stroke="#000000" d="M 613 680 L 643 680 L 643 700 L 613 700" stroke-miterlimit="10"/></g><g transform="translate(-38,-30) scale(1,1)"><path fill="#000000" stroke="none" d="M 623.1626748576241 695.790482243984 L 613 700 L 623.1626748576241 704.209517756016"/></g><g transform="translate(-38,-30) scale(1,1)"><path fill="none" stroke="#000000" d="M 623.1626748576241 695.790482243984 L 613 700 L 623.1626748576241 704.209517756016 L 623.1626748576241 695.790482243984" stroke-miterlimit="10"/></g><g transform="translate(-38,-30) scale(1,1)"><g><path fill="none" stroke="none"/><text fill="#000000" stroke="none" font-family="Arial" font-size="13px" font-style="normal" font-weight="normal" text-decoration="none" x="662.738525390625" y="684.5">8 : Lưu</text><text fill="#000000" stroke="none" font-family="Arial" font-size="13px" font-style="normal" font-weight="normal" text-decoration="none" x="658.415771484375" y="697.5">thông tin</text><text fill="#000000" stroke="none" font-family="Arial" font-size="13px" font-style="normal" font-weight="normal" text-decoration="none" x="655.16259765625" y="710.5">nhân viên</text></g></g><g transform="translate(-38,-30) scale(1,1)"><path fill="none" stroke="#000000" d="M 733 752 L 763 752 L 763 772 L 733 772" stroke-miterlimit="10"/></g><g transform="translate(-38,-30) scale(1,1)"><path fill="#000000" stroke="none" d="M 743.1626748576241 767.790482243984 L 733 772 L 743.1626748576241 776.209517756016"/></g><g transform="translate(-38,-30) scale(1,1)"><path fill="none" stroke="#000000" d="M 743.1626748576241 767.790482243984 L 733 772 L 743.1626748576241 776.209517756016 L 743.1626748576241 767.790482243984" stroke-miterlimit="10"/></g><g transform="translate(-38,-30) scale(1,1)"><g><path fill="none" stroke="none"/><text fill="#000000" stroke="none" font-family="Arial" font-size="13px" font-style="normal" font-weight="normal" text-decoration="none" x="772.595947265625" y="756.5">9 : Tạo tài</text><text fill="#000000" stroke="none" font-family="Arial" font-size="13px" font-style="normal" font-weight="normal" text-decoration="none" x="775.119140625" y="769.5">khoản và</text><text fill="#000000" stroke="none" font-family="Arial" font-size="13px" font-style="normal" font-weight="normal" text-decoration="none" x="776.569580078125" y="782.5">mậ khẩu</text></g></g><g transform="translate(-38,-30) scale(1,1)"><path fill="none" stroke="#000000" d="M 733 816 L 496 816" stroke-miterlimit="10"/></g><g transform="translate(-38,-30) scale(1,1)"><path fill="#000000" stroke="none" d="M 506.16267485762415 811.790482243984 L 496 816 L 506.16267485762415 820.209517756016"/></g><g transform="translate(-38,-30) scale(1,1)"><path fill="none" stroke="#000000" d="M 506.16267485762415 811.790482243984 L 496 816 L 506.16267485762415 820.209517756016 L 506.16267485762415 811.790482243984" stroke-miterlimit="10"/></g><g transform="translate(-38,-30) scale(1,1)"><g><path fill="none" stroke="none"/><text fill="#000000" stroke="none" font-family="Arial" font-size="13px" font-style="normal" font-weight="normal" text-decoration="none" x="533.8662109375" y="803.5">10 : Thông báo thành công</text></g></g><g transform="translate(-38,-30) scale(1,1)"><path fill="none" stroke="#000000" d="M 496 864 L 237 864" stroke-miterlimit="10"/></g><g transform="translate(-38,-30) scale(1,1)"><path fill="#000000" stroke="none" d="M 247.16267485762415 859.790482243984 L 237 864 L 247.16267485762415 868.209517756016"/></g><g transform="translate(-38,-30) scale(1,1)"><path fill="none" stroke="#000000" d="M 247.16267485762415 859.790482243984 L 237 864 L 247.16267485762415 868.209517756016 L 247.16267485762415 859.790482243984" stroke-miterlimit="10"/></g><g transform="translate(-38,-30) scale(1,1)"><g><path fill="none" stroke="none"/><text fill="#000000" stroke="none" font-family="Arial" font-size="13px" font-style="normal" font-weight="normal" text-decoration="none" x="256.343994140625" y="844.5">11 : Thông báo thành công và hiển thị</text><text fill="#000000" stroke="none" font-family="Arial" font-size="13px" font-style="normal" font-weight="normal" text-decoration="none" x="311.87646484375" y="857.5">thông tin tài khoản</text></g></g><g transform="translate(-38,-30) scale(1,1)"><path fill="none" stroke="#000000" d="M 200 264 L 872 264 L 872 920 L 200 920 L 200 264" stroke-miterlimit="10"/></g><g transform="translate(-38,-30) scale(1,1)"><path fill="#ffffff" stroke="none" d="M 200 264 L 200 286 L 229.72998046875 286 L 240.72998046875 275 L 240.72998046875 264 L 200 264"/></g><g transform="translate(-38,-30) scale(1,1)"><path fill="none" stroke="#000000" d="M 200 264 L 200 286 L 229.72998046875 286 L 240.72998046875 275 L 240.72998046875 264 L 200 264 L 200 264" stroke-miterlimit="10"/></g><g transform="translate(-38,-30) scale(1,1)"><g><path fill="none" stroke="none"/><text fill="#000000" stroke="none" font-family="Arial" font-size="13px" font-style="normal" font-weight="bold" text-decoration="none" x="205" y="281.5">alt</text></g></g><g transform="translate(-38,-30) scale(1,1)"><g><path fill="none" stroke="none"/><text fill="#000000" stroke="none" font-family="Arial" font-size="13px" font-style="normal" font-weight="normal" text-decoration="none" x="219.5" y="314.5">[Định dạng không hợp lệ]</text></g></g><g transform="translate(-38,-30) scale(1,1)"><path fill="none" stroke="#000000" d="M 200 385 L 872 385" stroke-miterlimit="10" stroke-dasharray="10,3"/></g><g transform="translate(-38,-30) scale(1,1)"><g><path fill="none" stroke="none"/><text fill="#000000" stroke="none" font-family="Arial" font-size="13px" font-style="normal" font-weight="normal" text-decoration="none" x="219.5" y="412.5">[Định dạng hợp lệ]</text></g></g><g transform="translate(-38,-30) scale(1,1)"><path fill="none" stroke="#000000" d="M 216 520 L 840 520 L 840 888 L 216 888 L 216 520" stroke-miterlimit="10"/></g><g transform="translate(-38,-30) scale(1,1)"><path fill="#ffffff" stroke="none" d="M 216 520 L 216 542 L 245.72998046875 542 L 256.72998046875 531 L 256.72998046875 520 L 216 520"/></g><g transform="translate(-38,-30) scale(1,1)"><path fill="none" stroke="#000000" d="M 216 520 L 216 542 L 245.72998046875 542 L 256.72998046875 531 L 256.72998046875 520 L 216 520 L 216 520" stroke-miterlimit="10"/></g><g transform="translate(-38,-30) scale(1,1)"><g><path fill="none" stroke="none"/><text fill="#000000" stroke="none" font-family="Arial" font-size="13px" font-style="normal" font-weight="bold" text-decoration="none" x="221" y="537.5">alt</text></g></g><g transform="translate(-38,-30) scale(1,1)"><g><path fill="none" stroke="none"/><text fill="#000000" stroke="none" font-family="Arial" font-size="13px" font-style="normal" font-weight="normal" text-decoration="none" x="235.5" y="570.5">[Không hợp lệ]</text></g></g><g transform="translate(-38,-30) scale(1,1)"><path fill="none" stroke="#000000" d="M 216 649 L 840 649" stroke-miterlimit="10" stroke-dasharray="10,3"/></g><g transform="translate(-38,-30) scale(1,1)"><g><path fill="none" stroke="none"/><text fill="#000000" stroke="none" font-family="Arial" font-size="13px" font-style="normal" font-weight="normal" text-decoration="none" x="235.5" y="676.5">[Hợp lệ]</text></g></g><g transform="translate(-38,-30) scale(1,1)"><path fill="none" stroke="#000000" d="M 64 128 L 888 128 L 888 944 L 64 944 L 64 128" stroke-miterlimit="10"/></g><g transform="translate(-38,-30) scale(1,1)"><path fill="#ffffff" stroke="none" d="M 64 128 L 64 150 L 104.578125 150 L 115.578125 139 L 115.578125 128 L 64 128"/></g><g transform="translate(-38,-30) scale(1,1)"><path fill="none" stroke="#000000" d="M 64 128 L 64 150 L 104.578125 150 L 115.578125 139 L 115.578125 128 L 64 128 L 64 128" stroke-miterlimit="10"/></g><g transform="translate(-38,-30) scale(1,1)"><g><path fill="none" stroke="none"/><text fill="#000000" stroke="none" font-family="Arial" font-size="13px" font-style="normal" font-weight="bold" text-decoration="none" x="69" y="145.5">loop</text></g></g></g></svg>