<svg version="1.1" xmlns="http://www.w3.org/2000/svg" xmlns:xlink="http://www.w3.org/1999/xlink" width="647" height="668"><defs/><g><g transform="translate(-102,-30) scale(1,1)"><path fill="#ffffff" stroke="none" d="M 171.4717879971591 47.3 C 171.4717879971591 43.82060576 174.3501897193409 41 177.90087890625 41 C 181.4515680931591 41 184.32996981534092 43.82060576 184.32996981534092 47.3 C 184.32996981534092 50.779394239999995 181.4515680931591 53.6 177.90087890625 53.6 C 174.3501897193409 53.6 171.4717879971591 50.779394239999995 171.4717879971591 47.3 Z"/></g><g transform="translate(-102,-30) scale(1,1)"><path fill="none" stroke="#000000" d="M 171.4717879971591 47.3 C 171.4717879971591 43.82060576 174.3501897193409 41 177.90087890625 41 C 181.4515680931591 41 184.32996981534092 43.82060576 184.32996981534092 47.3 C 184.32996981534092 50.779394239999995 181.4515680931591 53.6 177.90087890625 53.6 C 174.3501897193409 53.6 171.4717879971591 50.779394239999995 171.4717879971591 47.3 Z" stroke-miterlimit="10"/></g><g transform="translate(-102,-30) scale(1,1)"><path fill="none" stroke="#000000" d="M 177.90087890625 53.6 L 177.90087890625 66.4" stroke-miterlimit="10"/></g><g transform="translate(-102,-30) scale(1,1)"><path fill="none" stroke="#000000" d="M 171.0936061789773 58.4 L 184.70815163352273 58.4" stroke-miterlimit="10"/></g><g transform="translate(-102,-30) scale(1,1)"><path fill="none" stroke="#000000" d="M 177.90087890625 66.4 L 168.44633345170456 79" stroke-miterlimit="10"/></g><g transform="translate(-102,-30) scale(1,1)"><path fill="none" stroke="#000000" d="M 177.90087890625 66.4 L 187.35542436079547 79" stroke-miterlimit="10"/></g><g transform="translate(-102,-30) scale(1,1)"><g><path fill="none" stroke="none"/><text fill="#000000" stroke="none" font-family="Arial" font-size="13px" font-style="normal" font-weight="bold" text-decoration="none" x="145.02001953125" y="99.5">: Nhân viên</text></g></g><g transform="translate(-102,-30) scale(1,1)"><path fill="none" stroke="#000000" d="M 178.5 105 L 178.5 672" stroke-miterlimit="10" stroke-dasharray="3"/></g><g transform="translate(-102,-30) scale(1,1)"><path fill="#ffffff" stroke="none" d="M 312.0654296875 60 C 312.0654296875 51.1634432 319.2288728875 44 328.0654296875 44 C 336.9019864875 44 344.0654296875 51.1634432 344.0654296875 60 C 344.0654296875 68.8365568 336.9019864875 76 328.0654296875 76 C 319.2288728875 76 312.0654296875 68.8365568 312.0654296875 60 Z"/></g><g transform="translate(-102,-30) scale(1,1)"><path fill="none" stroke="#000000" d="M 312.0654296875 60 C 312.0654296875 51.1634432 319.2288728875 44 328.0654296875 44 C 336.9019864875 44 344.0654296875 51.1634432 344.0654296875 60 C 344.0654296875 68.8365568 336.9019864875 76 328.0654296875 76 C 319.2288728875 76 312.0654296875 68.8365568 312.0654296875 60 Z" stroke-miterlimit="10"/></g><g transform="translate(-102,-30) scale(1,1)"><path fill="none" stroke="#000000" d="M 304.0654296875 44 L 304.0654296875 76" stroke-miterlimit="10"/></g><g transform="translate(-102,-30) scale(1,1)"><path fill="none" stroke="#000000" d="M 304.0654296875 60 L 312.0654296875 60" stroke-miterlimit="10"/></g><g transform="translate(-102,-30) scale(1,1)"><g><path fill="none" stroke="none"/><text fill="#000000" stroke="none" font-family="Arial" font-size="13px" font-style="normal" font-weight="bold" text-decoration="none" x="287.582275390625" y="99.5">: QLNV_GUI</text></g></g><g transform="translate(-102,-30) scale(1,1)"><path fill="none" stroke="#000000" d="M 325.5 105 L 325.5 688" stroke-miterlimit="10" stroke-dasharray="3"/></g><g transform="translate(-102,-30) scale(1,1)"><path fill="#ffffff" stroke="none" d="M 472.5654296875 60 C 472.5654296875 51.715728 479.2811576875 45 487.5654296875 45 C 495.8497016875 45 502.5654296875 51.715728 502.5654296875 60 C 502.5654296875 68.284272 495.8497016875 75 487.5654296875 75 C 479.2811576875 75 472.5654296875 68.284272 472.5654296875 60 Z"/></g><g transform="translate(-102,-30) scale(1,1)"><path fill="none" stroke="#000000" d="M 472.5654296875 60 C 472.5654296875 51.715728 479.2811576875 45 487.5654296875 45 C 495.8497016875 45 502.5654296875 51.715728 502.5654296875 60 C 502.5654296875 68.284272 495.8497016875 75 487.5654296875 75 C 479.2811576875 75 472.5654296875 68.284272 472.5654296875 60 Z" stroke-miterlimit="10"/></g><g transform="translate(-102,-30) scale(1,1)"><path fill="none" stroke="#000000" d="M 487.5654296875 45 L 492.5654296875 40" stroke-miterlimit="10"/></g><g transform="translate(-102,-30) scale(1,1)"><path fill="none" stroke="#000000" d="M 487.5654296875 45 L 492.5654296875 50" stroke-miterlimit="10"/></g><g transform="translate(-102,-30) scale(1,1)"><g><path fill="none" stroke="none"/><text fill="#000000" stroke="none" font-family="Arial" font-size="13px" font-style="normal" font-weight="bold" text-decoration="none" x="434.4609375" y="99.5">: Controller_QLNV</text></g></g><g transform="translate(-102,-30) scale(1,1)"><path fill="none" stroke="#000000" d="M 488.5 105 L 488.5 688" stroke-miterlimit="10" stroke-dasharray="3"/></g><g transform="translate(-102,-30) scale(1,1)"><path fill="#ffffff" stroke="none" d="M 620.785888671875 60 C 620.785888671875 51.1634432 627.949331871875 44 636.785888671875 44 C 645.622445471875 44 652.785888671875 51.1634432 652.785888671875 60 C 652.785888671875 68.8365568 645.622445471875 76 636.785888671875 76 C 627.949331871875 76 620.785888671875 68.8365568 620.785888671875 60 Z"/></g><g transform="translate(-102,-30) scale(1,1)"><path fill="none" stroke="#000000" d="M 620.785888671875 60 C 620.785888671875 51.1634432 627.949331871875 44 636.785888671875 44 C 645.622445471875 44 652.785888671875 51.1634432 652.785888671875 60 C 652.785888671875 68.8365568 645.622445471875 76 636.785888671875 76 C 627.949331871875 76 620.785888671875 68.8365568 620.785888671875 60 Z" stroke-miterlimit="10"/></g><g transform="translate(-102,-30) scale(1,1)"><path fill="none" stroke="#000000" d="M 620.785888671875 76 L 652.785888671875 76" stroke-miterlimit="10"/></g><g transform="translate(-102,-30) scale(1,1)"><g><path fill="none" stroke="none"/><text fill="#000000" stroke="none" font-family="Arial" font-size="13px" font-style="normal" font-weight="bold" text-decoration="none" x="599.58544921875" y="99.5">: NHANVIEN</text></g></g><g transform="translate(-102,-30) scale(1,1)"><path fill="none" stroke="#000000" d="M 637.5 105 L 637.5 688" stroke-miterlimit="10" stroke-dasharray="3"/></g><g transform="translate(-102,-30) scale(1,1)"><rect fill="#ffffff" stroke="none" x="144" y="128" width="520" height="29"/></g><g transform="translate(-102,-30) scale(1,1)"><path fill="none" stroke="#000000" d="M 144 128 L 664 128 L 664 157 L 144 157 L 144 128 Z Z" stroke-miterlimit="10"/></g><g transform="translate(-102,-30) scale(1,1)"><path fill="none" stroke="#000000" d="M 144 128 L 144 150 L 169.1708984375 150 L 180.1708984375 139 L 180.1708984375 128 L 144 128 L 144 128" stroke-miterlimit="10"/></g><g transform="translate(-102,-30) scale(1,1)"><g><path fill="none" stroke="none"/><text fill="#000000" stroke="none" font-family="Arial" font-size="13px" font-style="normal" font-weight="normal" text-decoration="none" x="299.962890625" y="145.5">: Sequence - Tìm kiếm thông tin nhân viên</text></g></g><g transform="translate(-102,-30) scale(1,1)"><g><path fill="none" stroke="none"/><text fill="#000000" stroke="none" font-family="Arial" font-size="13px" font-style="normal" font-weight="bold" text-decoration="none" x="149" y="145.5">ref</text></g></g><g transform="translate(-102,-30) scale(1,1)"><path fill="none" stroke="#000000" d="M 178 193 L 325 193" stroke-miterlimit="10"/></g><g transform="translate(-102,-30) scale(1,1)"><path fill="#000000" stroke="none" d="M 314.83732514237585 197.209517756016 L 325 193 L 314.83732514237585 188.790482243984"/></g><g transform="translate(-102,-30) scale(1,1)"><path fill="none" stroke="#000000" d="M 314.83732514237585 197.209517756016 L 325 193 L 314.83732514237585 188.790482243984 L 314.83732514237585 197.209517756016" stroke-miterlimit="10"/></g><g transform="translate(-102,-30) scale(1,1)"><g><path fill="none" stroke="none"/><text fill="#000000" stroke="none" font-family="Arial" font-size="13px" font-style="normal" font-weight="normal" text-decoration="none" x="175.5" y="189.5">1 : Chọn thông tin cần xóa</text></g></g><g transform="translate(-102,-30) scale(1,1)"><path fill="none" stroke="#000000" d="M 325 232 L 488 232" stroke-miterlimit="10"/></g><g transform="translate(-102,-30) scale(1,1)"><path fill="#000000" stroke="none" d="M 477.83732514237585 236.209517756016 L 488 232 L 477.83732514237585 227.790482243984"/></g><g transform="translate(-102,-30) scale(1,1)"><path fill="none" stroke="#000000" d="M 477.83732514237585 236.209517756016 L 488 232 L 477.83732514237585 227.790482243984 L 477.83732514237585 236.209517756016" stroke-miterlimit="10"/></g><g transform="translate(-102,-30) scale(1,1)"><g><path fill="none" stroke="none"/><text fill="#000000" stroke="none" font-family="Arial" font-size="13px" font-style="normal" font-weight="normal" text-decoration="none" x="342.5" y="228.5">2 : Xử lý xóa thông tin</text></g></g><g transform="translate(-102,-30) scale(1,1)"><path fill="none" stroke="#000000" d="M 488 266 L 637 266" stroke-miterlimit="10"/></g><g transform="translate(-102,-30) scale(1,1)"><path fill="#000000" stroke="none" d="M 626.8373251423759 270.209517756016 L 637 266 L 626.8373251423758 261.790482243984"/></g><g transform="translate(-102,-30) scale(1,1)"><path fill="none" stroke="#000000" d="M 626.8373251423759 270.209517756016 L 637 266 L 626.8373251423758 261.790482243984 L 626.8373251423759 270.209517756016" stroke-miterlimit="10"/></g><g transform="translate(-102,-30) scale(1,1)"><g><path fill="none" stroke="none"/><text fill="#000000" stroke="none" font-family="Arial" font-size="13px" font-style="normal" font-weight="normal" text-decoration="none" x="516.5" y="262.5">3 : Yêu cầu xóa</text></g></g><g transform="translate(-102,-30) scale(1,1)"><path fill="none" stroke="#000000" d="M 637 304 L 667 304 L 667 324 L 637 324" stroke-miterlimit="10"/></g><g transform="translate(-102,-30) scale(1,1)"><path fill="#000000" stroke="none" d="M 647.1626748576241 319.790482243984 L 637 324 L 647.1626748576241 328.209517756016"/></g><g transform="translate(-102,-30) scale(1,1)"><path fill="none" stroke="#000000" d="M 647.1626748576241 319.790482243984 L 637 324 L 647.1626748576241 328.209517756016 L 647.1626748576241 319.790482243984" stroke-miterlimit="10"/></g><g transform="translate(-102,-30) scale(1,1)"><g><path fill="none" stroke="none"/><text fill="#000000" stroke="none" font-family="Arial" font-size="13px" font-style="normal" font-weight="normal" text-decoration="none" x="671.766845703125" y="308.5">4 : Kiểm tra</text><text fill="#000000" stroke="none" font-family="Arial" font-size="13px" font-style="normal" font-weight="normal" text-decoration="none" x="677.2353515625" y="321.5">xóa được</text><text fill="#000000" stroke="none" font-family="Arial" font-size="13px" font-style="normal" font-weight="normal" text-decoration="none" x="675.004150390625" y="334.5">hay không</text></g></g><g transform="translate(-102,-30) scale(1,1)"><path fill="none" stroke="#000000" d="M 637 408 L 488 408" stroke-miterlimit="10" stroke-dasharray="3"/></g><g transform="translate(-102,-30) scale(1,1)"><path fill="none" stroke="#000000" d="M 498.16267485762415 403.790482243984 L 488 408 L 498.16267485762415 412.209517756016" stroke-miterlimit="10"/></g><g transform="translate(-102,-30) scale(1,1)"><g><path fill="none" stroke="none"/><text fill="#000000" stroke="none" font-family="Arial" font-size="13px" font-style="normal" font-weight="normal" text-decoration="none" x="511.5" y="403.5">5 : Thông báo lỗi</text></g></g><g transform="translate(-102,-30) scale(1,1)"><path fill="none" stroke="#000000" d="M 488 458 L 325 458" stroke-miterlimit="10" stroke-dasharray="3"/></g><g transform="translate(-102,-30) scale(1,1)"><path fill="none" stroke="#000000" d="M 335.16267485762415 453.790482243984 L 325 458 L 335.16267485762415 462.209517756016" stroke-miterlimit="10"/></g><g transform="translate(-102,-30) scale(1,1)"><g><path fill="none" stroke="none"/><text fill="#000000" stroke="none" font-family="Arial" font-size="13px" font-style="normal" font-weight="normal" text-decoration="none" x="327.14013671875" y="445.5">6 : Thông báo lỗi và hiển thị</text><text fill="#000000" stroke="none" font-family="Arial" font-size="13px" font-style="normal" font-weight="normal" text-decoration="none" x="347.00830078125" y="458.5">danh sách nhân viên</text></g></g><g transform="translate(-102,-30) scale(1,1)"><path fill="none" stroke="#000000" d="M 637 544 L 667 544 L 667 564 L 637 564" stroke-miterlimit="10"/></g><g transform="translate(-102,-30) scale(1,1)"><path fill="#000000" stroke="none" d="M 647.1626748576241 559.790482243984 L 637 564 L 647.1626748576241 568.209517756016"/></g><g transform="translate(-102,-30) scale(1,1)"><path fill="none" stroke="#000000" d="M 647.1626748576241 559.790482243984 L 637 564 L 647.1626748576241 568.209517756016 L 647.1626748576241 559.790482243984" stroke-miterlimit="10"/></g><g transform="translate(-102,-30) scale(1,1)"><g><path fill="none" stroke="none"/><text fill="#000000" stroke="none" font-family="Arial" font-size="13px" font-style="normal" font-weight="normal" text-decoration="none" x="614.5" y="539.5">7 : Lưu thay đổi</text></g></g><g transform="translate(-102,-30) scale(1,1)"><path fill="none" stroke="#000000" d="M 637 612 L 488 612" stroke-miterlimit="10" stroke-dasharray="3"/></g><g transform="translate(-102,-30) scale(1,1)"><path fill="none" stroke="#000000" d="M 498.16267485762415 607.790482243984 L 488 612 L 498.16267485762415 616.209517756016" stroke-miterlimit="10"/></g><g transform="translate(-102,-30) scale(1,1)"><g><path fill="none" stroke="none"/><text fill="#000000" stroke="none" font-family="Arial" font-size="13px" font-style="normal" font-weight="normal" text-decoration="none" x="473.5" y="603.5">8 : Thông báo xóa thành công</text></g></g><g transform="translate(-102,-30) scale(1,1)"><path fill="none" stroke="#000000" d="M 488 664 L 325 664" stroke-miterlimit="10" stroke-dasharray="3"/></g><g transform="translate(-102,-30) scale(1,1)"><path fill="none" stroke="#000000" d="M 335.16267485762415 659.790482243984 L 325 664 L 335.16267485762415 668.209517756016" stroke-miterlimit="10"/></g><g transform="translate(-102,-30) scale(1,1)"><g><path fill="none" stroke="none"/><text fill="#000000" stroke="none" font-family="Arial" font-size="13px" font-style="normal" font-weight="normal" text-decoration="none" x="309.95654296875" y="641.5">9 : Thông báo xóa thành công và</text><text fill="#000000" stroke="none" font-family="Arial" font-size="13px" font-style="normal" font-weight="normal" text-decoration="none" x="322.242431640625" y="654.5">hiển thị danh sách nhân viên</text></g></g><g transform="translate(-102,-30) scale(1,1)"><path fill="none" stroke="#000000" d="M 280 352 L 712 352 L 712 680 L 280 680 L 280 352" stroke-miterlimit="10"/></g><g transform="translate(-102,-30) scale(1,1)"><path fill="#ffffff" stroke="none" d="M 280 352 L 280 374 L 309.72998046875 374 L 320.72998046875 363 L 320.72998046875 352 L 280 352"/></g><g transform="translate(-102,-30) scale(1,1)"><path fill="none" stroke="#000000" d="M 280 352 L 280 374 L 309.72998046875 374 L 320.72998046875 363 L 320.72998046875 352 L 280 352 L 280 352" stroke-miterlimit="10"/></g><g transform="translate(-102,-30) scale(1,1)"><g><path fill="none" stroke="none"/><text fill="#000000" stroke="none" font-family="Arial" font-size="13px" font-style="normal" font-weight="bold" text-decoration="none" x="285" y="369.5">alt</text></g></g><g transform="translate(-102,-30) scale(1,1)"><g><path fill="none" stroke="none"/><text fill="#000000" stroke="none" font-family="Arial" font-size="13px" font-style="normal" font-weight="normal" text-decoration="none" x="299.5" y="402.5">[Không thành công]</text></g></g><g transform="translate(-102,-30) scale(1,1)"><path fill="none" stroke="#000000" d="M 280 505 L 712 505" stroke-miterlimit="10" stroke-dasharray="10,3"/></g><g transform="translate(-102,-30) scale(1,1)"><g><path fill="none" stroke="none"/><text fill="#000000" stroke="none" font-family="Arial" font-size="13px" font-style="normal" font-weight="normal" text-decoration="none" x="299.5" y="532.5">[Thành công]</text></g></g></g></svg>