<svg version="1.1" xmlns="http://www.w3.org/2000/svg" xmlns:xlink="http://www.w3.org/1999/xlink" width="532.8916015625" height="721"><defs/><g><g transform="translate(-130,-54) scale(1,1)"><path fill="#ffffff" stroke="none" d="M 193.4404296875 369.5 C 193.4404296875 361.4228348 199.9882644875 354.875 208.0654296875 354.875 C 216.1425948875 354.875 222.6904296875 361.4228348 222.6904296875 369.5 C 222.6904296875 377.5771652 216.1425948875 384.125 208.0654296875 384.125 C 199.9882644875 384.125 193.4404296875 377.5771652 193.4404296875 369.5 Z"/></g><g transform="translate(-130,-54) scale(1,1)"><path fill="none" stroke="#000000" d="M 193.4404296875 369.5 C 193.4404296875 361.4228348 199.9882644875 354.875 208.0654296875 354.875 C 216.1425948875 354.875 222.6904296875 361.4228348 222.6904296875 369.5 C 222.6904296875 377.5771652 216.1425948875 384.125 208.0654296875 384.125 C 199.9882644875 384.125 193.4404296875 377.5771652 193.4404296875 369.5 Z" stroke-miterlimit="10"/></g><g transform="translate(-130,-54) scale(1,1)"><path fill="none" stroke="#000000" d="M 208.0654296875 354.875 L 212.9404296875 350" stroke-miterlimit="10"/></g><g transform="translate(-130,-54) scale(1,1)"><path fill="none" stroke="#000000" d="M 208.0654296875 354.875 L 212.9404296875 359.75" stroke-miterlimit="10"/></g><g transform="translate(-130,-54) scale(1,1)"><path fill="none" stroke="#000000" d="M 140 414 L 276.130859375 414" stroke-miterlimit="10"/></g><g transform="translate(-130,-54) scale(1,1)"><path fill="none" stroke="#000000" d="M 140 424 L 276.130859375 424" stroke-miterlimit="10"/></g><g transform="translate(-130,-54) scale(1,1)"><g><path fill="none" stroke="none"/><text fill="#000000" stroke="none" font-family="Arial" font-size="13px" font-style="normal" font-weight="bold" text-decoration="none" x="158.57275390625" y="408.5">Controller_QLNV</text></g></g><g transform="translate(-130,-54) scale(1,1)"><g><path fill="none" stroke="none"/><text fill="#000000" stroke="none" font-family="Arial" font-size="13px" font-style="normal" font-weight="normal" text-decoration="none" x="145" y="441.5">+LayDSNV()</text></g></g><g transform="translate(-130,-54) scale(1,1)"><g><path fill="none" stroke="none"/><text fill="#000000" stroke="none" font-family="Arial" font-size="13px" font-style="normal" font-weight="normal" text-decoration="none" x="145" y="456.5">+LayThongTinNV()</text></g></g><g transform="translate(-130,-54) scale(1,1)"><g><path fill="none" stroke="none"/><text fill="#000000" stroke="none" font-family="Arial" font-size="13px" font-style="normal" font-weight="normal" text-decoration="none" x="145" y="471.5">+ThemNV()</text></g></g><g transform="translate(-130,-54) scale(1,1)"><g><path fill="none" stroke="none"/><text fill="#000000" stroke="none" font-family="Arial" font-size="13px" font-style="normal" font-weight="normal" text-decoration="none" x="145" y="486.5">+TimNV()</text></g></g><g transform="translate(-130,-54) scale(1,1)"><g><path fill="none" stroke="none"/><text fill="#000000" stroke="none" font-family="Arial" font-size="13px" font-style="normal" font-weight="normal" text-decoration="none" x="145" y="501.5">+XoaNV()</text></g></g><g transform="translate(-130,-54) scale(1,1)"><g><path fill="none" stroke="none"/><text fill="#000000" stroke="none" font-family="Arial" font-size="13px" font-style="normal" font-weight="normal" text-decoration="none" x="145" y="516.5">+SuaNV()</text></g></g><g transform="translate(-130,-54) scale(1,1)"><g><path fill="none" stroke="none"/><text fill="#000000" stroke="none" font-family="Arial" font-size="13px" font-style="normal" font-weight="normal" text-decoration="none" x="145" y="531.5">+LayTTTK()</text></g></g><g transform="translate(-130,-54) scale(1,1)"><path fill="#ffffff" stroke="none" d="M 200.013134765625 99.5 C 200.013134765625 90.88435712 206.997491885625 83.9 215.613134765625 83.9 C 224.228777645625 83.9 231.213134765625 90.88435712 231.213134765625 99.5 C 231.213134765625 108.11564288 224.228777645625 115.10000000000001 215.613134765625 115.10000000000001 C 206.997491885625 115.10000000000001 200.013134765625 108.11564288 200.013134765625 99.5 Z"/></g><g transform="translate(-130,-54) scale(1,1)"><path fill="none" stroke="#000000" d="M 200.013134765625 99.5 C 200.013134765625 90.88435712 206.997491885625 83.9 215.613134765625 83.9 C 224.228777645625 83.9 231.213134765625 90.88435712 231.213134765625 99.5 C 231.213134765625 108.11564288 224.228777645625 115.10000000000001 215.613134765625 115.10000000000001 C 206.997491885625 115.10000000000001 200.013134765625 108.11564288 200.013134765625 99.5 Z" stroke-miterlimit="10"/></g><g transform="translate(-130,-54) scale(1,1)"><path fill="none" stroke="#000000" d="M 192.213134765625 83.9 L 192.213134765625 115.10000000000001" stroke-miterlimit="10"/></g><g transform="translate(-130,-54) scale(1,1)"><path fill="none" stroke="#000000" d="M 192.213134765625 99.5 L 200.013134765625 99.5" stroke-miterlimit="10"/></g><g transform="translate(-130,-54) scale(1,1)"><path fill="none" stroke="#000000" d="M 144 144 L 279.42626953125 144" stroke-miterlimit="10"/></g><g transform="translate(-130,-54) scale(1,1)"><path fill="none" stroke="#000000" d="M 144 154 L 279.42626953125 154" stroke-miterlimit="10"/></g><g transform="translate(-130,-54) scale(1,1)"><g><path fill="none" stroke="none"/><text fill="#000000" stroke="none" font-family="Arial" font-size="13px" font-style="normal" font-weight="bold" text-decoration="none" x="178.841796875" y="138.5">QLNV_GUI</text></g></g><g transform="translate(-130,-54) scale(1,1)"><g><path fill="none" stroke="none"/><text fill="#000000" stroke="none" font-family="Arial" font-size="13px" font-style="normal" font-weight="normal" text-decoration="none" x="149" y="171.5">+HienThiDSNV()</text></g></g><g transform="translate(-130,-54) scale(1,1)"><g><path fill="none" stroke="none"/><text fill="#000000" stroke="none" font-family="Arial" font-size="13px" font-style="normal" font-weight="normal" text-decoration="none" x="149" y="186.5">+ThemNV()</text></g></g><g transform="translate(-130,-54) scale(1,1)"><g><path fill="none" stroke="none"/><text fill="#000000" stroke="none" font-family="Arial" font-size="13px" font-style="normal" font-weight="normal" text-decoration="none" x="149" y="201.5">+TimNV()</text></g></g><g transform="translate(-130,-54) scale(1,1)"><g><path fill="none" stroke="none"/><text fill="#000000" stroke="none" font-family="Arial" font-size="13px" font-style="normal" font-weight="normal" text-decoration="none" x="149" y="216.5">+XoaNV()</text></g></g><g transform="translate(-130,-54) scale(1,1)"><g><path fill="none" stroke="none"/><text fill="#000000" stroke="none" font-family="Arial" font-size="13px" font-style="normal" font-weight="normal" text-decoration="none" x="149" y="231.5">+SuaNV()</text></g></g><g transform="translate(-130,-54) scale(1,1)"><path fill="#ffffff" stroke="none" d="M 463.07099609375 91 C 463.07099609375 79.07064832 472.74164441374995 69.4 484.67099609375 69.4 C 496.60034777375 69.4 506.27099609375 79.07064832 506.27099609375 91 C 506.27099609375 102.92935168 496.60034777375 112.60000000000001 484.67099609375 112.60000000000001 C 472.74164441374995 112.60000000000001 463.07099609375 102.92935168 463.07099609375 91 Z"/></g><g transform="translate(-130,-54) scale(1,1)"><path fill="none" stroke="#000000" d="M 463.07099609375 91 C 463.07099609375 79.07064832 472.74164441374995 69.4 484.67099609375 69.4 C 496.60034777375 69.4 506.27099609375 79.07064832 506.27099609375 91 C 506.27099609375 102.92935168 496.60034777375 112.60000000000001 484.67099609375 112.60000000000001 C 472.74164441374995 112.60000000000001 463.07099609375 102.92935168 463.07099609375 91 Z" stroke-miterlimit="10"/></g><g transform="translate(-130,-54) scale(1,1)"><path fill="none" stroke="#000000" d="M 452.27099609375 69.4 L 452.27099609375 112.60000000000001" stroke-miterlimit="10"/></g><g transform="translate(-130,-54) scale(1,1)"><path fill="none" stroke="#000000" d="M 452.27099609375 91 L 463.07099609375 91" stroke-miterlimit="10"/></g><g transform="translate(-130,-54) scale(1,1)"><path fill="none" stroke="#000000" d="M 408 143 L 550.5419921875 143" stroke-miterlimit="10"/></g><g transform="translate(-130,-54) scale(1,1)"><path fill="none" stroke="#000000" d="M 408 153 L 550.5419921875 153" stroke-miterlimit="10"/></g><g transform="translate(-130,-54) scale(1,1)"><g><path fill="none" stroke="none"/><text fill="#000000" stroke="none" font-family="Arial" font-size="13px" font-style="normal" font-weight="bold" text-decoration="none" x="447.129638671875" y="137.5">TTNV_GUI</text></g></g><g transform="translate(-130,-54) scale(1,1)"><g><path fill="none" stroke="none"/><text fill="#000000" stroke="none" font-family="Arial" font-size="13px" font-style="normal" font-weight="normal" text-decoration="none" x="413" y="170.5">+HienThiThongTinNV()</text></g></g><g transform="translate(-130,-54) scale(1,1)"><g><path fill="none" stroke="none"/><text fill="#000000" stroke="none" font-family="Arial" font-size="13px" font-style="normal" font-weight="normal" text-decoration="none" x="413" y="185.5">+HienThiTTTK()</text></g></g><g transform="translate(-130,-54) scale(1,1)"><g><path fill="none" stroke="none"/><text fill="#000000" stroke="none" font-family="Arial" font-size="13px" font-style="normal" font-weight="normal" text-decoration="none" x="413" y="200.5">+ThemNV()</text></g></g><g transform="translate(-130,-54) scale(1,1)"><g><path fill="none" stroke="none"/><text fill="#000000" stroke="none" font-family="Arial" font-size="13px" font-style="normal" font-weight="normal" text-decoration="none" x="413" y="215.5">+SuaNV()</text></g></g><g transform="translate(-130,-54) scale(1,1)"><path fill="#ffffff" stroke="none" d="M 555.753271484375 315.5 C 555.753271484375 306.88435712 562.737628604375 299.9 571.353271484375 299.9 C 579.968914364375 299.9 586.953271484375 306.88435712 586.953271484375 315.5 C 586.953271484375 324.11564288 579.968914364375 331.1 571.353271484375 331.1 C 562.737628604375 331.1 555.753271484375 324.11564288 555.753271484375 315.5 Z"/></g><g transform="translate(-130,-54) scale(1,1)"><path fill="none" stroke="#000000" d="M 555.753271484375 315.5 C 555.753271484375 306.88435712 562.737628604375 299.9 571.353271484375 299.9 C 579.968914364375 299.9 586.953271484375 306.88435712 586.953271484375 315.5 C 586.953271484375 324.11564288 579.968914364375 331.1 571.353271484375 331.1 C 562.737628604375 331.1 555.753271484375 324.11564288 555.753271484375 315.5 Z" stroke-miterlimit="10"/></g><g transform="translate(-130,-54) scale(1,1)"><path fill="none" stroke="#000000" d="M 555.753271484375 331.1 L 586.953271484375 331.1" stroke-miterlimit="10"/></g><g transform="translate(-130,-54) scale(1,1)"><path fill="none" stroke="#000000" d="M 512 360 L 630.70654296875 360" stroke-miterlimit="10"/></g><g transform="translate(-130,-54) scale(1,1)"><path fill="none" stroke="#000000" d="M 512 398 L 630.70654296875 398" stroke-miterlimit="10"/></g><g transform="translate(-130,-54) scale(1,1)"><g><path fill="none" stroke="none"/><text fill="#000000" stroke="none" font-family="Arial" font-size="13px" font-style="normal" font-weight="bold" text-decoration="none" x="537.7646484375" y="354.5">NHANVIEN</text></g></g><g transform="translate(-130,-54) scale(1,1)"><g><path fill="none" stroke="none"/><text fill="#000000" stroke="none" font-family="Arial" font-size="13px" font-style="normal" font-weight="normal" text-decoration="none" x="517" y="377.5">+MaNV: String</text></g></g><g transform="translate(-130,-54) scale(1,1)"><g><path fill="none" stroke="none"/><text fill="#000000" stroke="none" font-family="Arial" font-size="13px" font-style="normal" font-weight="normal" text-decoration="none" x="517" y="392.5">+TenNV: String</text></g></g><g transform="translate(-130,-54) scale(1,1)"><g><path fill="none" stroke="none"/><text fill="#000000" stroke="none" font-family="Arial" font-size="13px" font-style="normal" font-weight="normal" text-decoration="none" x="517" y="415.5">+LayDSNV()</text></g></g><g transform="translate(-130,-54) scale(1,1)"><g><path fill="none" stroke="none"/><text fill="#000000" stroke="none" font-family="Arial" font-size="13px" font-style="normal" font-weight="normal" text-decoration="none" x="517" y="430.5">+LayThongTinNV()</text></g></g><g transform="translate(-130,-54) scale(1,1)"><g><path fill="none" stroke="none"/><text fill="#000000" stroke="none" font-family="Arial" font-size="13px" font-style="normal" font-weight="normal" text-decoration="none" x="517" y="445.5">+ThemNV()</text></g></g><g transform="translate(-130,-54) scale(1,1)"><g><path fill="none" stroke="none"/><text fill="#000000" stroke="none" font-family="Arial" font-size="13px" font-style="normal" font-weight="normal" text-decoration="none" x="517" y="460.5">+TimNV()</text></g></g><g transform="translate(-130,-54) scale(1,1)"><g><path fill="none" stroke="none"/><text fill="#000000" stroke="none" font-family="Arial" font-size="13px" font-style="normal" font-weight="normal" text-decoration="none" x="517" y="475.5">+XoaNV()</text></g></g><g transform="translate(-130,-54) scale(1,1)"><g><path fill="none" stroke="none"/><text fill="#000000" stroke="none" font-family="Arial" font-size="13px" font-style="normal" font-weight="normal" text-decoration="none" x="517" y="490.5">+SuaNV()</text></g></g><g transform="translate(-130,-54) scale(1,1)"><path fill="#ffffff" stroke="none" d="M 566.84580078125 659.5 C 566.84580078125 650.88435712 573.83015790125 643.9 582.44580078125 643.9 C 591.06144366125 643.9 598.04580078125 650.88435712 598.04580078125 659.5 C 598.04580078125 668.11564288 591.06144366125 675.1 582.44580078125 675.1 C 573.83015790125 675.1 566.84580078125 668.11564288 566.84580078125 659.5 Z"/></g><g transform="translate(-130,-54) scale(1,1)"><path fill="none" stroke="#000000" d="M 566.84580078125 659.5 C 566.84580078125 650.88435712 573.83015790125 643.9 582.44580078125 643.9 C 591.06144366125 643.9 598.04580078125 650.88435712 598.04580078125 659.5 C 598.04580078125 668.11564288 591.06144366125 675.1 582.44580078125 675.1 C 573.83015790125 675.1 566.84580078125 668.11564288 566.84580078125 659.5 Z" stroke-miterlimit="10"/></g><g transform="translate(-130,-54) scale(1,1)"><path fill="none" stroke="#000000" d="M 566.84580078125 675.1 L 598.04580078125 675.1" stroke-miterlimit="10"/></g><g transform="translate(-130,-54) scale(1,1)"><path fill="none" stroke="#000000" d="M 512 704 L 652.8916015625 704" stroke-miterlimit="10"/></g><g transform="translate(-130,-54) scale(1,1)"><path fill="none" stroke="#000000" d="M 512 742 L 652.8916015625 742" stroke-miterlimit="10"/></g><g transform="translate(-130,-54) scale(1,1)"><g><path fill="none" stroke="none"/><text fill="#000000" stroke="none" font-family="Arial" font-size="13px" font-style="normal" font-weight="bold" text-decoration="none" x="549.701416015625" y="698.5">TAIKHOAN</text></g></g><g transform="translate(-130,-54) scale(1,1)"><g><path fill="none" stroke="none"/><text fill="#000000" stroke="none" font-family="Arial" font-size="13px" font-style="normal" font-weight="normal" text-decoration="none" x="517" y="721.5">+TenDangNhap: String</text></g></g><g transform="translate(-130,-54) scale(1,1)"><g><path fill="none" stroke="none"/><text fill="#000000" stroke="none" font-family="Arial" font-size="13px" font-style="normal" font-weight="normal" text-decoration="none" x="517" y="736.5">+MatKhau: String</text></g></g><g transform="translate(-130,-54) scale(1,1)"><g><path fill="none" stroke="none"/><text fill="#000000" stroke="none" font-family="Arial" font-size="13px" font-style="normal" font-weight="normal" text-decoration="none" x="517" y="759.5">+TaoTK()</text></g></g><g transform="translate(-130,-54) scale(1,1)"><path fill="none" stroke="#000000" d="M 209 349 L 210 238" stroke-miterlimit="10"/></g><g transform="translate(-130,-54) scale(1,1)"><path fill="none" stroke="#000000" d="M 277 366 L 407 222" stroke-miterlimit="10"/></g><g transform="translate(-130,-54) scale(1,1)"><path fill="none" stroke="#000000" d="M 277 434 L 511 404" stroke-miterlimit="10" stroke-dasharray="3"/></g><g transform="translate(-130,-54) scale(1,1)"><path fill="none" stroke="#000000" d="M 501.45512959063075 409.46767307621326 L 511 404 L 500.3845286984867 401.11698611748966" stroke-miterlimit="10"/></g><g transform="translate(-130,-54) scale(1,1)"><path fill="none" stroke="#000000" d="M 277 491 L 511 653" stroke-miterlimit="10" stroke-dasharray="3"/></g><g transform="translate(-130,-54) scale(1,1)"><path fill="none" stroke="#000000" d="M 500.2482285730592 650.6763366890146 L 511 653 L 505.04042759863455 643.7542714298503" stroke-miterlimit="10"/></g><g transform="translate(-130,-54) scale(1,1)"><path fill="none" stroke="#000000" d="M 580 639 L 575 497" stroke-miterlimit="10"/></g><g transform="translate(-130,-54) scale(1,1)"><path fill="#000000" stroke="none" d="M 579.5645296684479 507.00825004213317 L 575 497 L 571.1507084088838 507.30451135408964 L 575.7741681162561 518.986374501672"/></g><g transform="translate(-130,-54) scale(1,1)"><path fill="none" stroke="#000000" d="M 579.5645296684479 507.00825004213317 L 575 497 L 571.1507084088838 507.30451135408964 L 575.7741681162561 518.986374501672 L 579.5645296684479 507.00825004213317" stroke-miterlimit="10"/></g><g transform="translate(-130,-54) scale(1,1)"><g><path fill="none" stroke="none"/><text fill="#000000" stroke="none" font-family="Arial" font-size="13px" font-style="normal" font-weight="normal" text-decoration="none" x="587.5" y="622.5">1</text></g></g><g transform="translate(-130,-54) scale(1,1)"><g><path fill="none" stroke="none"/><text fill="#000000" stroke="none" font-family="Arial" font-size="13px" font-style="normal" font-weight="normal" text-decoration="none" x="584.5" y="524.5">1</text></g></g></g></svg>