<svg version="1.1" xmlns="http://www.w3.org/2000/svg" xmlns:xlink="http://www.w3.org/1999/xlink" width="755.2109375" height="612"><defs/><g><g transform="translate(-54,-30) scale(1,1)"><path fill="#ffffff" stroke="none" d="M 123.4717879971591 47.3 C 123.4717879971591 43.82060576 126.3501897193409 41 129.90087890625 41 C 133.4515680931591 41 136.32996981534092 43.82060576 136.32996981534092 47.3 C 136.32996981534092 50.779394239999995 133.4515680931591 53.6 129.90087890625 53.6 C 126.3501897193409 53.6 123.4717879971591 50.779394239999995 123.4717879971591 47.3 Z"/></g><g transform="translate(-54,-30) scale(1,1)"><path fill="none" stroke="#000000" d="M 123.4717879971591 47.3 C 123.4717879971591 43.82060576 126.3501897193409 41 129.90087890625 41 C 133.4515680931591 41 136.32996981534092 43.82060576 136.32996981534092 47.3 C 136.32996981534092 50.779394239999995 133.4515680931591 53.6 129.90087890625 53.6 C 126.3501897193409 53.6 123.4717879971591 50.779394239999995 123.4717879971591 47.3 Z" stroke-miterlimit="10"/></g><g transform="translate(-54,-30) scale(1,1)"><path fill="none" stroke="#000000" d="M 129.90087890625 53.6 L 129.90087890625 66.4" stroke-miterlimit="10"/></g><g transform="translate(-54,-30) scale(1,1)"><path fill="none" stroke="#000000" d="M 123.09360617897728 58.4 L 136.70815163352273 58.4" stroke-miterlimit="10"/></g><g transform="translate(-54,-30) scale(1,1)"><path fill="none" stroke="#000000" d="M 129.90087890625 66.4 L 120.44633345170455 79" stroke-miterlimit="10"/></g><g transform="translate(-54,-30) scale(1,1)"><path fill="none" stroke="#000000" d="M 129.90087890625 66.4 L 139.35542436079547 79" stroke-miterlimit="10"/></g><g transform="translate(-54,-30) scale(1,1)"><g><path fill="none" stroke="none"/><text fill="#000000" stroke="none" font-family="Arial" font-size="13px" font-style="normal" font-weight="bold" text-decoration="none" x="97.02001953125" y="99.5">: Nhân viên</text></g></g><g transform="translate(-54,-30) scale(1,1)"><path fill="none" stroke="#000000" d="M 130.5 105 L 130.5 624" stroke-miterlimit="10" stroke-dasharray="3"/></g><g transform="translate(-54,-30) scale(1,1)"><path fill="#ffffff" stroke="none" d="M 297.14453125 60 C 297.14453125 51.1634432 304.30797445 44 313.14453125 44 C 321.98108805 44 329.14453125 51.1634432 329.14453125 60 C 329.14453125 68.8365568 321.98108805 76 313.14453125 76 C 304.30797445 76 297.14453125 68.8365568 297.14453125 60 Z"/></g><g transform="translate(-54,-30) scale(1,1)"><path fill="none" stroke="#000000" d="M 297.14453125 60 C 297.14453125 51.1634432 304.30797445 44 313.14453125 44 C 321.98108805 44 329.14453125 51.1634432 329.14453125 60 C 329.14453125 68.8365568 321.98108805 76 313.14453125 76 C 304.30797445 76 297.14453125 68.8365568 297.14453125 60 Z" stroke-miterlimit="10"/></g><g transform="translate(-54,-30) scale(1,1)"><path fill="none" stroke="#000000" d="M 289.14453125 44 L 289.14453125 76" stroke-miterlimit="10"/></g><g transform="translate(-54,-30) scale(1,1)"><path fill="none" stroke="#000000" d="M 289.14453125 60 L 297.14453125 60" stroke-miterlimit="10"/></g><g transform="translate(-54,-30) scale(1,1)"><g><path fill="none" stroke="none"/><text fill="#000000" stroke="none" font-family="Arial" font-size="13px" font-style="normal" font-weight="bold" text-decoration="none" x="271.94091796875" y="99.5">: QLKM_GUI</text></g></g><g transform="translate(-54,-30) scale(1,1)"><path fill="none" stroke="#000000" d="M 310.5 105 L 310.5 624" stroke-miterlimit="10" stroke-dasharray="3"/></g><g transform="translate(-54,-30) scale(1,1)"><path fill="#ffffff" stroke="none" d="M 473.64453125 60 C 473.64453125 51.715728 480.36025925 45 488.64453125 45 C 496.92880325 45 503.64453125 51.715728 503.64453125 60 C 503.64453125 68.284272 496.92880325 75 488.64453125 75 C 480.36025925 75 473.64453125 68.284272 473.64453125 60 Z"/></g><g transform="translate(-54,-30) scale(1,1)"><path fill="none" stroke="#000000" d="M 473.64453125 60 C 473.64453125 51.715728 480.36025925 45 488.64453125 45 C 496.92880325 45 503.64453125 51.715728 503.64453125 60 C 503.64453125 68.284272 496.92880325 75 488.64453125 75 C 480.36025925 75 473.64453125 68.284272 473.64453125 60 Z" stroke-miterlimit="10"/></g><g transform="translate(-54,-30) scale(1,1)"><path fill="none" stroke="#000000" d="M 488.64453125 45 L 493.64453125 40" stroke-miterlimit="10"/></g><g transform="translate(-54,-30) scale(1,1)"><path fill="none" stroke="#000000" d="M 488.64453125 45 L 493.64453125 50" stroke-miterlimit="10"/></g><g transform="translate(-54,-30) scale(1,1)"><g><path fill="none" stroke="none"/><text fill="#000000" stroke="none" font-family="Arial" font-size="13px" font-style="normal" font-weight="bold" text-decoration="none" x="434.819580078125" y="99.5">: Controller_QLKM</text></g></g><g transform="translate(-54,-30) scale(1,1)"><path fill="none" stroke="#000000" d="M 489.5 105 L 489.5 624" stroke-miterlimit="10" stroke-dasharray="3"/></g><g transform="translate(-54,-30) scale(1,1)"><path fill="#ffffff" stroke="none" d="M 674.200439453125 60 C 674.200439453125 51.1634432 681.363882653125 44 690.200439453125 44 C 699.036996253125 44 706.200439453125 51.1634432 706.200439453125 60 C 706.200439453125 68.8365568 699.036996253125 76 690.200439453125 76 C 681.363882653125 76 674.200439453125 68.8365568 674.200439453125 60 Z"/></g><g transform="translate(-54,-30) scale(1,1)"><path fill="none" stroke="#000000" d="M 674.200439453125 60 C 674.200439453125 51.1634432 681.363882653125 44 690.200439453125 44 C 699.036996253125 44 706.200439453125 51.1634432 706.200439453125 60 C 706.200439453125 68.8365568 699.036996253125 76 690.200439453125 76 C 681.363882653125 76 674.200439453125 68.8365568 674.200439453125 60 Z" stroke-miterlimit="10"/></g><g transform="translate(-54,-30) scale(1,1)"><path fill="none" stroke="#000000" d="M 674.200439453125 76 L 706.200439453125 76" stroke-miterlimit="10"/></g><g transform="translate(-54,-30) scale(1,1)"><g><path fill="none" stroke="none"/><text fill="#000000" stroke="none" font-family="Arial" font-size="13px" font-style="normal" font-weight="bold" text-decoration="none" x="647.944091796875" y="99.5">: KHUYENMAI</text></g></g><g transform="translate(-54,-30) scale(1,1)"><path fill="none" stroke="#000000" d="M 691.5 105 L 691.5 624" stroke-miterlimit="10" stroke-dasharray="3"/></g><g transform="translate(-54,-30) scale(1,1)"><path fill="none" stroke="#000000" d="M 130 200 L 310 200" stroke-miterlimit="10"/></g><g transform="translate(-54,-30) scale(1,1)"><path fill="#000000" stroke="none" d="M 299.83732514237585 204.209517756016 L 310 200 L 299.83732514237585 195.790482243984"/></g><g transform="translate(-54,-30) scale(1,1)"><path fill="none" stroke="#000000" d="M 299.83732514237585 204.209517756016 L 310 200 L 299.83732514237585 195.790482243984 L 299.83732514237585 204.209517756016" stroke-miterlimit="10"/></g><g transform="translate(-54,-30) scale(1,1)"><g><path fill="none" stroke="none"/><text fill="#000000" stroke="none" font-family="Arial" font-size="13px" font-style="normal" font-weight="normal" text-decoration="none" x="144.5" y="196.5">1 : Chọn thông tin cần xóa</text></g></g><g transform="translate(-54,-30) scale(1,1)"><path fill="none" stroke="#000000" d="M 310 224 L 489 224" stroke-miterlimit="10"/></g><g transform="translate(-54,-30) scale(1,1)"><path fill="#000000" stroke="none" d="M 478.83732514237585 228.209517756016 L 489 224 L 478.83732514237585 219.790482243984"/></g><g transform="translate(-54,-30) scale(1,1)"><path fill="none" stroke="#000000" d="M 478.83732514237585 228.209517756016 L 489 224 L 478.83732514237585 219.790482243984 L 478.83732514237585 228.209517756016" stroke-miterlimit="10"/></g><g transform="translate(-54,-30) scale(1,1)"><g><path fill="none" stroke="none"/><text fill="#000000" stroke="none" font-family="Arial" font-size="13px" font-style="normal" font-weight="normal" text-decoration="none" x="335.5" y="220.5">2 : Xử lý xóa thông tin</text></g></g><g transform="translate(-54,-30) scale(1,1)"><path fill="none" stroke="#000000" d="M 489 256 L 691 256" stroke-miterlimit="10"/></g><g transform="translate(-54,-30) scale(1,1)"><path fill="#000000" stroke="none" d="M 680.8373251423759 260.209517756016 L 691 256 L 680.8373251423758 251.790482243984"/></g><g transform="translate(-54,-30) scale(1,1)"><path fill="none" stroke="#000000" d="M 680.8373251423759 260.209517756016 L 691 256 L 680.8373251423758 251.790482243984 L 680.8373251423759 260.209517756016" stroke-miterlimit="10"/></g><g transform="translate(-54,-30) scale(1,1)"><g><path fill="none" stroke="none"/><text fill="#000000" stroke="none" font-family="Arial" font-size="13px" font-style="normal" font-weight="normal" text-decoration="none" x="544.5" y="252.5">3 : Yêu cầu xóa</text></g></g><g transform="translate(-54,-30) scale(1,1)"><path fill="none" stroke="#000000" d="M 691 280 L 721 280 L 721 300 L 691 300" stroke-miterlimit="10"/></g><g transform="translate(-54,-30) scale(1,1)"><path fill="#000000" stroke="none" d="M 701.1626748576241 295.790482243984 L 691 300 L 701.1626748576241 304.209517756016"/></g><g transform="translate(-54,-30) scale(1,1)"><path fill="none" stroke="#000000" d="M 701.1626748576241 295.790482243984 L 691 300 L 701.1626748576241 304.209517756016 L 701.1626748576241 295.790482243984" stroke-miterlimit="10"/></g><g transform="translate(-54,-30) scale(1,1)"><g><path fill="none" stroke="none"/><text fill="#000000" stroke="none" font-family="Arial" font-size="13px" font-style="normal" font-weight="normal" text-decoration="none" x="729.872314453125" y="284.5">4 : Kiểm tra</text><text fill="#000000" stroke="none" font-family="Arial" font-size="13px" font-style="normal" font-weight="normal" text-decoration="none" x="735.3408203125" y="297.5">xóa được</text><text fill="#000000" stroke="none" font-family="Arial" font-size="13px" font-style="normal" font-weight="normal" text-decoration="none" x="733.109619140625" y="310.5">hay không</text></g></g><g transform="translate(-54,-30) scale(1,1)"><path fill="none" stroke="#000000" d="M 691 384 L 489 384" stroke-miterlimit="10" stroke-dasharray="3"/></g><g transform="translate(-54,-30) scale(1,1)"><path fill="none" stroke="#000000" d="M 499.16267485762415 379.790482243984 L 489 384 L 499.16267485762415 388.209517756016" stroke-miterlimit="10"/></g><g transform="translate(-54,-30) scale(1,1)"><g><path fill="none" stroke="none"/><text fill="#000000" stroke="none" font-family="Arial" font-size="13px" font-style="normal" font-weight="normal" text-decoration="none" x="539.5" y="377.5">5 : Thông báo lỗi</text></g></g><g transform="translate(-54,-30) scale(1,1)"><path fill="none" stroke="#000000" d="M 489 432 L 310 432" stroke-miterlimit="10" stroke-dasharray="3"/></g><g transform="translate(-54,-30) scale(1,1)"><path fill="none" stroke="#000000" d="M 320.16267485762415 427.790482243984 L 310 432 L 320.16267485762415 436.209517756016" stroke-miterlimit="10"/></g><g transform="translate(-54,-30) scale(1,1)"><g><path fill="none" stroke="none"/><text fill="#000000" stroke="none" font-family="Arial" font-size="13px" font-style="normal" font-weight="normal" text-decoration="none" x="319.31103515625" y="413.5">6 : Thông báo lỗi và hiển</text><text fill="#000000" stroke="none" font-family="Arial" font-size="13px" font-style="normal" font-weight="normal" text-decoration="none" x="316.787841796875" y="426.5">thị danh sách khuyến mãi</text></g></g><g transform="translate(-54,-30) scale(1,1)"><path fill="none" stroke="#000000" d="M 691 488 L 721 488 L 721 508 L 691 508" stroke-miterlimit="10"/></g><g transform="translate(-54,-30) scale(1,1)"><path fill="#000000" stroke="none" d="M 701.1626748576241 503.790482243984 L 691 508 L 701.1626748576241 512.209517756016"/></g><g transform="translate(-54,-30) scale(1,1)"><path fill="none" stroke="#000000" d="M 701.1626748576241 503.790482243984 L 691 508 L 701.1626748576241 512.209517756016 L 701.1626748576241 503.790482243984" stroke-miterlimit="10"/></g><g transform="translate(-54,-30) scale(1,1)"><g><path fill="none" stroke="none"/><text fill="#000000" stroke="none" font-family="Arial" font-size="13px" font-style="normal" font-weight="normal" text-decoration="none" x="670.5" y="483.5">7 : Lưu thay đổi</text></g></g><g transform="translate(-54,-30) scale(1,1)"><path fill="none" stroke="#000000" d="M 691 544 L 489 544" stroke-miterlimit="10" stroke-dasharray="3"/></g><g transform="translate(-54,-30) scale(1,1)"><path fill="none" stroke="#000000" d="M 499.16267485762415 539.790482243984 L 489 544 L 499.16267485762415 548.209517756016" stroke-miterlimit="10"/></g><g transform="translate(-54,-30) scale(1,1)"><g><path fill="none" stroke="none"/><text fill="#000000" stroke="none" font-family="Arial" font-size="13px" font-style="normal" font-weight="normal" text-decoration="none" x="502.5" y="531.5">8 : Thông báo xóa thành công</text></g></g><g transform="translate(-54,-30) scale(1,1)"><path fill="none" stroke="#000000" d="M 489 608 L 310 608" stroke-miterlimit="10" stroke-dasharray="3"/></g><g transform="translate(-54,-30) scale(1,1)"><path fill="none" stroke="#000000" d="M 320.16267485762415 603.790482243984 L 310 608 L 320.16267485762415 612.209517756016" stroke-miterlimit="10"/></g><g transform="translate(-54,-30) scale(1,1)"><g><path fill="none" stroke="none"/><text fill="#000000" stroke="none" font-family="Arial" font-size="13px" font-style="normal" font-weight="normal" text-decoration="none" x="312.62744140625" y="581.5">9 : Thông báo xóa thành công</text><text fill="#000000" stroke="none" font-family="Arial" font-size="13px" font-style="normal" font-weight="normal" text-decoration="none" x="314.801513671875" y="594.5">và hiển thị danh sách khuyến</text><text fill="#000000" stroke="none" font-family="Arial" font-size="13px" font-style="normal" font-weight="normal" text-decoration="none" x="388.5263671875" y="607.5">mãi</text></g></g><g transform="translate(-54,-30) scale(1,1)"><rect fill="#ffffff" stroke="none" x="112" y="120" width="592" height="29"/></g><g transform="translate(-54,-30) scale(1,1)"><path fill="none" stroke="#000000" d="M 112 120 L 704 120 L 704 149 L 112 149 L 112 120 Z Z" stroke-miterlimit="10"/></g><g transform="translate(-54,-30) scale(1,1)"><path fill="none" stroke="#000000" d="M 112 120 L 112 142 L 137.1708984375 142 L 148.1708984375 131 L 148.1708984375 120 L 112 120 L 112 120" stroke-miterlimit="10"/></g><g transform="translate(-54,-30) scale(1,1)"><g><path fill="none" stroke="none"/><text fill="#000000" stroke="none" font-family="Arial" font-size="13px" font-style="normal" font-weight="normal" text-decoration="none" x="298.913330078125" y="137.5">: Sequence - Tìm kiếm thông tin khuyến mãi</text></g></g><g transform="translate(-54,-30) scale(1,1)"><g><path fill="none" stroke="none"/><text fill="#000000" stroke="none" font-family="Arial" font-size="13px" font-style="normal" font-weight="bold" text-decoration="none" x="117" y="137.5">ref</text></g></g><g transform="translate(-54,-30) scale(1,1)"><path fill="none" stroke="#000000" d="M 248 328 L 776 328 L 776 632 L 248 632 L 248 328" stroke-miterlimit="10"/></g><g transform="translate(-54,-30) scale(1,1)"><path fill="#ffffff" stroke="none" d="M 248 328 L 248 350 L 277.72998046875 350 L 288.72998046875 339 L 288.72998046875 328 L 248 328"/></g><g transform="translate(-54,-30) scale(1,1)"><path fill="none" stroke="#000000" d="M 248 328 L 248 350 L 277.72998046875 350 L 288.72998046875 339 L 288.72998046875 328 L 248 328 L 248 328" stroke-miterlimit="10"/></g><g transform="translate(-54,-30) scale(1,1)"><g><path fill="none" stroke="none"/><text fill="#000000" stroke="none" font-family="Arial" font-size="13px" font-style="normal" font-weight="bold" text-decoration="none" x="253" y="345.5">alt</text></g></g><g transform="translate(-54,-30) scale(1,1)"><g><path fill="none" stroke="none"/><text fill="#000000" stroke="none" font-family="Arial" font-size="13px" font-style="normal" font-weight="normal" text-decoration="none" x="267.5" y="378.5">[Không thành công]</text></g></g><g transform="translate(-54,-30) scale(1,1)"><path fill="none" stroke="#000000" d="M 248 457 L 776 457" stroke-miterlimit="10" stroke-dasharray="10,3"/></g><g transform="translate(-54,-30) scale(1,1)"><g><path fill="none" stroke="none"/><text fill="#000000" stroke="none" font-family="Arial" font-size="13px" font-style="normal" font-weight="normal" text-decoration="none" x="267.5" y="484.5">[Thành công]</text></g></g></g></svg>