<svg version="1.1" xmlns="http://www.w3.org/2000/svg" xmlns:xlink="http://www.w3.org/1999/xlink" width="961" height="968"><defs/><g><g transform="translate(-62,-70) scale(1,1)"><path fill="#C0C0C0" stroke="none" d="M 335 256 C 335 246.6111584 357.6096176 239 385.5 239 C 413.3903824 239 436 246.6111584 436 256 C 436 265.3888416 413.3903824 273 385.5 273 C 357.6096176 273 335 265.3888416 335 256 Z" opacity="0.2"/></g><g transform="translate(-62,-70) scale(1,1)"><path fill="#ffffff" stroke="none" d="M 328 249 C 328 239.6111584 350.6096176 232 378.5 232 C 406.3903824 232 429 239.6111584 429 249 C 429 258.3888416 406.3903824 266 378.5 266 C 350.6096176 266 328 258.3888416 328 249 Z"/></g><g transform="translate(-62,-70) scale(1,1)"><path fill="none" stroke="#000000" d="M 328 249 C 328 239.6111584 350.6096176 232 378.5 232 C 406.3903824 232 429 239.6111584 429 249 C 429 258.3888416 406.3903824 266 378.5 266 C 350.6096176 266 328 258.3888416 328 249 Z" stroke-miterlimit="10"/></g><g transform="translate(-62,-70) scale(1,1)"><g><path fill="none" stroke="none"/><text fill="#000000" stroke="none" font-family="Arial" font-size="13px" font-style="normal" font-weight="bold" text-decoration="none" x="355.968994140625" y="256">Tra cứu</text></g></g><g transform="translate(-62,-70) scale(1,1)"><path fill="#C0C0C0" stroke="none" d="M 615 248 C 615 238.6111584 656.8613712 231 708.5 231 C 760.1386288 231 802 238.6111584 802 248 C 802 257.3888416 760.1386288 265 708.5 265 C 656.8613712 265 615 257.3888416 615 248 Z" opacity="0.2"/></g><g transform="translate(-62,-70) scale(1,1)"><path fill="#ffffff" stroke="none" d="M 608 241 C 608 231.6111584 649.8613712 224 701.5 224 C 753.1386288 224 795 231.6111584 795 241 C 795 250.3888416 753.1386288 258 701.5 258 C 649.8613712 258 608 250.3888416 608 241 Z"/></g><g transform="translate(-62,-70) scale(1,1)"><path fill="none" stroke="#000000" d="M 608 241 C 608 231.6111584 649.8613712 224 701.5 224 C 753.1386288 224 795 231.6111584 795 241 C 795 250.3888416 753.1386288 258 701.5 258 C 649.8613712 258 608 250.3888416 608 241 Z" stroke-miterlimit="10"/></g><g transform="translate(-62,-70) scale(1,1)"><g><path fill="none" stroke="none"/><text fill="#000000" stroke="none" font-family="Arial" font-size="13px" font-style="normal" font-weight="bold" text-decoration="none" x="643.682373046875" y="248">Quản lý khách hàng</text></g></g><g transform="translate(-62,-70) scale(1,1)"><path fill="#C0C0C0" stroke="none" d="M 823 104 C 823 94.6111584 845.6096176 87 873.5 87 C 901.3903824 87 924 94.6111584 924 104 C 924 113.3888416 901.3903824 121 873.5 121 C 845.6096176 121 823 113.3888416 823 104 Z" opacity="0.2"/></g><g transform="translate(-62,-70) scale(1,1)"><path fill="#ffffff" stroke="none" d="M 816 97 C 816 87.6111584 838.6096176 80 866.5 80 C 894.3903824 80 917 87.6111584 917 97 C 917 106.3888416 894.3903824 114 866.5 114 C 838.6096176 114 816 106.3888416 816 97 Z"/></g><g transform="translate(-62,-70) scale(1,1)"><path fill="none" stroke="#000000" d="M 816 97 C 816 87.6111584 838.6096176 80 866.5 80 C 894.3903824 80 917 87.6111584 917 97 C 917 106.3888416 894.3903824 114 866.5 114 C 838.6096176 114 816 106.3888416 816 97 Z" stroke-miterlimit="10"/></g><g transform="translate(-62,-70) scale(1,1)"><g><path fill="none" stroke="none"/><text fill="#000000" stroke="none" font-family="Arial" font-size="13px" font-style="normal" font-weight="bold" text-decoration="none" x="849.885009765625" y="104">Thêm</text></g></g><g transform="translate(-62,-70) scale(1,1)"><path fill="none" stroke="#000000" d="M 845 115 L 722 223" stroke-miterlimit="10" stroke-dasharray="3"/></g><g transform="translate(-62,-70) scale(1,1)"><path fill="none" stroke="#000000" d="M 726.8591979280393 213.1314542360012 L 722 223 L 732.4140874362175 219.45785617587086" stroke-miterlimit="10"/></g><g transform="translate(-62,-70) scale(1,1)"><g><path fill="none" stroke="none"/><text fill="#000000" stroke="none" font-family="Arial" font-size="13px" font-style="normal" font-weight="normal" text-decoration="none" x="775.5" y="197.5">«extend»</text></g></g><g transform="translate(-62,-70) scale(1,1)"><path fill="#C0C0C0" stroke="none" d="M 871 192 C 871 182.6111584 893.6096176 175 921.5 175 C 949.3903824 175 972 182.6111584 972 192 C 972 201.3888416 949.3903824 209 921.5 209 C 893.6096176 209 871 201.3888416 871 192 Z" opacity="0.2"/></g><g transform="translate(-62,-70) scale(1,1)"><path fill="#ffffff" stroke="none" d="M 864 185 C 864 175.6111584 886.6096176 168 914.5 168 C 942.3903824 168 965 175.6111584 965 185 C 965 194.3888416 942.3903824 202 914.5 202 C 886.6096176 202 864 194.3888416 864 185 Z"/></g><g transform="translate(-62,-70) scale(1,1)"><path fill="none" stroke="#000000" d="M 864 185 C 864 175.6111584 886.6096176 168 914.5 168 C 942.3903824 168 965 175.6111584 965 185 C 965 194.3888416 942.3903824 202 914.5 202 C 886.6096176 202 864 194.3888416 864 185 Z" stroke-miterlimit="10"/></g><g transform="translate(-62,-70) scale(1,1)"><g><path fill="none" stroke="none"/><text fill="#000000" stroke="none" font-family="Arial" font-size="13px" font-style="normal" font-weight="bold" text-decoration="none" x="902.9345703125" y="192">Xóa</text></g></g><g transform="translate(-62,-70) scale(1,1)"><path fill="none" stroke="#000000" d="M 863 198 L 769 223" stroke-miterlimit="10" stroke-dasharray="3"/></g><g transform="translate(-62,-70) scale(1,1)"><path fill="none" stroke="#000000" d="M 777.7393218730322 216.3198612888996 L 769 223 L 779.9032051412788 224.45606237750707" stroke-miterlimit="10"/></g><g transform="translate(-62,-70) scale(1,1)"><g><path fill="none" stroke="none"/><text fill="#000000" stroke="none" font-family="Arial" font-size="13px" font-style="normal" font-weight="normal" text-decoration="none" x="796.5" y="244.5">«extend»</text></g></g><g transform="translate(-62,-70) scale(1,1)"><path fill="#C0C0C0" stroke="none" d="M 919 280 C 919 270.6111584 941.6096176 263 969.5 263 C 997.3903824 263 1020 270.6111584 1020 280 C 1020 289.3888416 997.3903824 297 969.5 297 C 941.6096176 297 919 289.3888416 919 280 Z" opacity="0.2"/></g><g transform="translate(-62,-70) scale(1,1)"><path fill="#ffffff" stroke="none" d="M 912 273 C 912 263.6111584 934.6096176 256 962.5 256 C 990.3903824 256 1013 263.6111584 1013 273 C 1013 282.3888416 990.3903824 290 962.5 290 C 934.6096176 290 912 282.3888416 912 273 Z"/></g><g transform="translate(-62,-70) scale(1,1)"><path fill="none" stroke="#000000" d="M 912 273 C 912 263.6111584 934.6096176 256 962.5 256 C 990.3903824 256 1013 263.6111584 1013 273 C 1013 282.3888416 990.3903824 290 962.5 290 C 934.6096176 290 912 282.3888416 912 273 Z" stroke-miterlimit="10"/></g><g transform="translate(-62,-70) scale(1,1)"><g><path fill="none" stroke="none"/><text fill="#000000" stroke="none" font-family="Arial" font-size="13px" font-style="normal" font-weight="bold" text-decoration="none" x="939.968994140625" y="280">Tra cứu</text></g></g><g transform="translate(-62,-70) scale(1,1)"><path fill="none" stroke="#000000" d="M 911 267 L 796 253" stroke-miterlimit="10" stroke-dasharray="3"/></g><g transform="translate(-62,-70) scale(1,1)"><path fill="none" stroke="#000000" d="M 806.5969014535052 250.04946113655515 L 796 253 L 805.5794869158354 258.40679483884287" stroke-miterlimit="10"/></g><g transform="translate(-62,-70) scale(1,1)"><g><path fill="none" stroke="none"/><text fill="#000000" stroke="none" font-family="Arial" font-size="13px" font-style="normal" font-weight="normal" text-decoration="none" x="822.5" y="295.5">«extend»</text></g></g><g transform="translate(-62,-70) scale(1,1)"><path fill="none" stroke="#000000" d="M 924 203 L 952 255" stroke-miterlimit="10" stroke-dasharray="3"/></g><g transform="translate(-62,-70) scale(1,1)"><path fill="none" stroke="#000000" d="M 943.4755189196567 248.04779011314616 L 952 255 L 950.8882363772193 244.05632686676628" stroke-miterlimit="10"/></g><g transform="translate(-62,-70) scale(1,1)"><g><path fill="none" stroke="none"/><text fill="#000000" stroke="none" font-family="Arial" font-size="13px" font-style="normal" font-weight="normal" text-decoration="none" x="936.5" y="220.5">«include»</text></g></g><g transform="translate(-62,-70) scale(1,1)"><path fill="#C0C0C0" stroke="none" d="M 207 520 C 207 510.6111584 244.3842192 503 290.5 503 C 336.6157808 503 374 510.6111584 374 520 C 374 529.3888416 336.6157808 537 290.5 537 C 244.3842192 537 207 529.3888416 207 520 Z" opacity="0.2"/></g><g transform="translate(-62,-70) scale(1,1)"><path fill="#ffffff" stroke="none" d="M 200 513 C 200 503.6111584 237.3842192 496 283.5 496 C 329.6157808 496 367 503.6111584 367 513 C 367 522.3888416 329.6157808 530 283.5 530 C 237.3842192 530 200 522.3888416 200 513 Z"/></g><g transform="translate(-62,-70) scale(1,1)"><path fill="none" stroke="#000000" d="M 200 513 C 200 503.6111584 237.3842192 496 283.5 496 C 329.6157808 496 367 503.6111584 367 513 C 367 522.3888416 329.6157808 530 283.5 530 C 237.3842192 530 200 522.3888416 200 513 Z" stroke-miterlimit="10"/></g><g transform="translate(-62,-70) scale(1,1)"><g><path fill="none" stroke="none"/><text fill="#000000" stroke="none" font-family="Arial" font-size="13px" font-style="normal" font-weight="bold" text-decoration="none" x="232.182373046875" y="520">Quản lý hàng hóa</text></g></g><g transform="translate(-62,-70) scale(1,1)"><path fill="#C0C0C0" stroke="none" d="M 207 768 C 207 758.6111584 240.57864 751 282 751 C 323.42136 751 357 758.6111584 357 768 C 357 777.3888416 323.42136 785 282 785 C 240.57864 785 207 777.3888416 207 768 Z" opacity="0.2"/></g><g transform="translate(-62,-70) scale(1,1)"><path fill="#ffffff" stroke="none" d="M 200 761 C 200 751.6111584 233.57864 744 275 744 C 316.42136 744 350 751.6111584 350 761 C 350 770.3888416 316.42136 778 275 778 C 233.57864 778 200 770.3888416 200 761 Z"/></g><g transform="translate(-62,-70) scale(1,1)"><path fill="none" stroke="#000000" d="M 200 761 C 200 751.6111584 233.57864 744 275 744 C 316.42136 744 350 751.6111584 350 761 C 350 770.3888416 316.42136 778 275 778 C 233.57864 778 200 770.3888416 200 761 Z" stroke-miterlimit="10"/></g><g transform="translate(-62,-70) scale(1,1)"><g><path fill="none" stroke="none"/><text fill="#000000" stroke="none" font-family="Arial" font-size="13px" font-style="normal" font-weight="bold" text-decoration="none" x="229.833251953125" y="768">Quản lý kho bãi</text></g></g><g transform="translate(-62,-70) scale(1,1)"><path fill="#C0C0C0" stroke="none" d="M 727 504 C 727 494.6111584 749.6096176 487 777.5 487 C 805.3903824 487 828 494.6111584 828 504 C 828 513.3888416 805.3903824 521 777.5 521 C 749.6096176 521 727 513.3888416 727 504 Z" opacity="0.2"/></g><g transform="translate(-62,-70) scale(1,1)"><path fill="#ffffff" stroke="none" d="M 720 497 C 720 487.6111584 742.6096176 480 770.5 480 C 798.3903824 480 821 487.6111584 821 497 C 821 506.3888416 798.3903824 514 770.5 514 C 742.6096176 514 720 506.3888416 720 497 Z"/></g><g transform="translate(-62,-70) scale(1,1)"><path fill="none" stroke="#000000" d="M 720 497 C 720 487.6111584 742.6096176 480 770.5 480 C 798.3903824 480 821 487.6111584 821 497 C 821 506.3888416 798.3903824 514 770.5 514 C 742.6096176 514 720 506.3888416 720 497 Z" stroke-miterlimit="10"/></g><g transform="translate(-62,-70) scale(1,1)"><g><path fill="none" stroke="none"/><text fill="#000000" stroke="none" font-family="Arial" font-size="13px" font-style="normal" font-weight="bold" text-decoration="none" x="753.885009765625" y="504">Thêm</text></g></g><g transform="translate(-62,-70) scale(1,1)"><path fill="#C0C0C0" stroke="none" d="M 767 592 C 767 582.6111584 789.6096176 575 817.5 575 C 845.3903824 575 868 582.6111584 868 592 C 868 601.3888416 845.3903824 609 817.5 609 C 789.6096176 609 767 601.3888416 767 592 Z" opacity="0.2"/></g><g transform="translate(-62,-70) scale(1,1)"><path fill="#ffffff" stroke="none" d="M 760 585 C 760 575.6111584 782.6096176 568 810.5 568 C 838.3903824 568 861 575.6111584 861 585 C 861 594.3888416 838.3903824 602 810.5 602 C 782.6096176 602 760 594.3888416 760 585 Z"/></g><g transform="translate(-62,-70) scale(1,1)"><path fill="none" stroke="#000000" d="M 760 585 C 760 575.6111584 782.6096176 568 810.5 568 C 838.3903824 568 861 575.6111584 861 585 C 861 594.3888416 838.3903824 602 810.5 602 C 782.6096176 602 760 594.3888416 760 585 Z" stroke-miterlimit="10"/></g><g transform="translate(-62,-70) scale(1,1)"><g><path fill="none" stroke="none"/><text fill="#000000" stroke="none" font-family="Arial" font-size="13px" font-style="normal" font-weight="bold" text-decoration="none" x="798.9345703125" y="592">Xóa</text></g></g><g transform="translate(-62,-70) scale(1,1)"><path fill="#C0C0C0" stroke="none" d="M 711 784 C 711 774.6111584 733.6096176 767 761.5 767 C 789.3903824 767 812 774.6111584 812 784 C 812 793.3888416 789.3903824 801 761.5 801 C 733.6096176 801 711 793.3888416 711 784 Z" opacity="0.2"/></g><g transform="translate(-62,-70) scale(1,1)"><path fill="#ffffff" stroke="none" d="M 704 777 C 704 767.6111584 726.6096176 760 754.5 760 C 782.3903824 760 805 767.6111584 805 777 C 805 786.3888416 782.3903824 794 754.5 794 C 726.6096176 794 704 786.3888416 704 777 Z"/></g><g transform="translate(-62,-70) scale(1,1)"><path fill="none" stroke="#000000" d="M 704 777 C 704 767.6111584 726.6096176 760 754.5 760 C 782.3903824 760 805 767.6111584 805 777 C 805 786.3888416 782.3903824 794 754.5 794 C 726.6096176 794 704 786.3888416 704 777 Z" stroke-miterlimit="10"/></g><g transform="translate(-62,-70) scale(1,1)"><g><path fill="none" stroke="none"/><text fill="#000000" stroke="none" font-family="Arial" font-size="13px" font-style="normal" font-weight="bold" text-decoration="none" x="742.1982421875" y="784">Sửa</text></g></g><g transform="translate(-62,-70) scale(1,1)"><path fill="#C0C0C0" stroke="none" d="M 415 641 C 415 626.6405952 461.5623808 615 519 615 C 576.4376192 615 623 626.6405952 623 641 C 623 655.3594048 576.4376192 667 519 667 C 461.5623808 667 415 655.3594048 415 641 Z" opacity="0.2"/></g><g transform="translate(-62,-70) scale(1,1)"><path fill="#ffffff" stroke="none" d="M 408 634 C 408 619.6405952 454.5623808 608 512 608 C 569.4376192 608 616 619.6405952 616 634 C 616 648.3594048 569.4376192 660 512 660 C 454.5623808 660 408 648.3594048 408 634 Z"/></g><g transform="translate(-62,-70) scale(1,1)"><path fill="none" stroke="#000000" d="M 408 634 C 408 619.6405952 454.5623808 608 512 608 C 569.4376192 608 616 619.6405952 616 634 C 616 648.3594048 569.4376192 660 512 660 C 454.5623808 660 408 648.3594048 408 634 Z" stroke-miterlimit="10"/></g><g transform="translate(-62,-70) scale(1,1)"><g><path fill="none" stroke="none"/><text fill="#000000" stroke="none" font-family="Arial" font-size="13px" font-style="normal" font-weight="bold" text-decoration="none" x="450.570556640625" y="634.5">Quản lý thông tin sản</text><text fill="#000000" stroke="none" font-family="Arial" font-size="13px" font-style="normal" font-weight="bold" text-decoration="none" x="495.740478515625" y="647.5">phẩm</text></g></g><g transform="translate(-62,-70) scale(1,1)"><path fill="none" stroke="#000000" d="M 309 743 L 462 661" stroke-miterlimit="10"/></g><g transform="translate(-62,-70) scale(1,1)"><path fill="none" stroke="#000000" d="M 455.03117348505793 669.5109022438659 L 462 661 L 451.05417882371853 662.0904122050252" stroke-miterlimit="10"/></g><g transform="translate(-62,-70) scale(1,1)"><path fill="none" stroke="#000000" d="M 736 515 L 563 607" stroke-miterlimit="10" stroke-dasharray="3"/></g><g transform="translate(-62,-70) scale(1,1)"><path fill="none" stroke="#000000" d="M 569.9963146751584 598.511679732352 L 563 607 L 573.9492903722565 605.9449927279823" stroke-miterlimit="10"/></g><g transform="translate(-62,-70) scale(1,1)"><g><path fill="none" stroke="none"/><text fill="#000000" stroke="none" font-family="Arial" font-size="13px" font-style="normal" font-weight="normal" text-decoration="none" x="636.5" y="593.5">«extend»</text></g></g><g transform="translate(-62,-70) scale(1,1)"><path fill="none" stroke="#000000" d="M 759 593 L 617 617" stroke-miterlimit="10" stroke-dasharray="3"/></g><g transform="translate(-62,-70) scale(1,1)"><path fill="none" stroke="#000000" d="M 626.3190415190784 611.1557322814837 L 617 617 L 627.7220787871319 619.4570361174667" stroke-miterlimit="10"/></g><g transform="translate(-62,-70) scale(1,1)"><g><path fill="none" stroke="none"/><text fill="#000000" stroke="none" font-family="Arial" font-size="13px" font-style="normal" font-weight="normal" text-decoration="none" x="665.5" y="640.5">«extend»</text></g></g><g transform="translate(-62,-70) scale(1,1)"><path fill="none" stroke="#000000" d="M 724 759 L 558 661" stroke-miterlimit="10" stroke-dasharray="3"/></g><g transform="translate(-62,-70) scale(1,1)"><path fill="none" stroke="#000000" d="M 568.8914482328897 662.5415431846964 L 558 661 L 564.6113812630279 669.7914525418092" stroke-miterlimit="10"/></g><g transform="translate(-62,-70) scale(1,1)"><g><path fill="none" stroke="none"/><text fill="#000000" stroke="none" font-family="Arial" font-size="13px" font-style="normal" font-weight="normal" text-decoration="none" x="598.5" y="741.5">«extend»</text></g></g><g transform="translate(-62,-70) scale(1,1)"><path fill="#C0C0C0" stroke="none" d="M 783 696 C 783 686.6111584 805.6096176 679 833.5 679 C 861.3903824 679 884 686.6111584 884 696 C 884 705.3888416 861.3903824 713 833.5 713 C 805.6096176 713 783 705.3888416 783 696 Z" opacity="0.2"/></g><g transform="translate(-62,-70) scale(1,1)"><path fill="#ffffff" stroke="none" d="M 776 689 C 776 679.6111584 798.6096176 672 826.5 672 C 854.3903824 672 877 679.6111584 877 689 C 877 698.3888416 854.3903824 706 826.5 706 C 798.6096176 706 776 698.3888416 776 689 Z"/></g><g transform="translate(-62,-70) scale(1,1)"><path fill="none" stroke="#000000" d="M 776 689 C 776 679.6111584 798.6096176 672 826.5 672 C 854.3903824 672 877 679.6111584 877 689 C 877 698.3888416 854.3903824 706 826.5 706 C 798.6096176 706 776 698.3888416 776 689 Z" stroke-miterlimit="10"/></g><g transform="translate(-62,-70) scale(1,1)"><g><path fill="none" stroke="none"/><text fill="#000000" stroke="none" font-family="Arial" font-size="13px" font-style="normal" font-weight="bold" text-decoration="none" x="803.968994140625" y="696">Tra cứu</text></g></g><g transform="translate(-62,-70) scale(1,1)"><path fill="none" stroke="#000000" d="M 775 680 L 617 652" stroke-miterlimit="10" stroke-dasharray="3"/></g><g transform="translate(-62,-70) scale(1,1)"><path fill="none" stroke="#000000" d="M 627.7413026974657 649.6284147998826 L 617 652 L 626.27221195332 657.9182839989908" stroke-miterlimit="10"/></g><g transform="translate(-62,-70) scale(1,1)"><g><path fill="none" stroke="none"/><text fill="#000000" stroke="none" font-family="Arial" font-size="13px" font-style="normal" font-weight="normal" text-decoration="none" x="663.5" y="701.5">«extend»</text></g></g><g transform="translate(-62,-70) scale(1,1)"><path fill="none" stroke="#000000" d="M 769 759 L 811 707" stroke-miterlimit="10" stroke-dasharray="3"/></g><g transform="translate(-62,-70) scale(1,1)"><path fill="none" stroke="#000000" d="M 807.889171490892 717.5509594818159 L 811 707 L 801.3396570684847 712.2609670637178" stroke-miterlimit="10"/></g><g transform="translate(-62,-70) scale(1,1)"><g><path fill="none" stroke="none"/><text fill="#000000" stroke="none" font-family="Arial" font-size="13px" font-style="normal" font-weight="normal" text-decoration="none" x="738.5" y="720.5">«include»</text></g></g><g transform="translate(-62,-70) scale(1,1)"><path fill="none" stroke="#000000" d="M 813 603 L 823 671" stroke-miterlimit="10" stroke-dasharray="3"/></g><g transform="translate(-62,-70) scale(1,1)"><path fill="none" stroke="#000000" d="M 817.3566670334678 661.5579243262484 L 823 671 L 825.6861167282577 660.3330052534852" stroke-miterlimit="10"/></g><g transform="translate(-62,-70) scale(1,1)"><g><path fill="none" stroke="none"/><text fill="#000000" stroke="none" font-family="Arial" font-size="13px" font-style="normal" font-weight="normal" text-decoration="none" x="819.5" y="638.5">«include»</text></g></g><g transform="translate(-62,-70) scale(1,1)"><path fill="#C0C0C0" stroke="none" d="M 431 928 C 431 918.6111584 468.1603616 911 514 911 C 559.8396384 911 597 918.6111584 597 928 C 597 937.3888416 559.8396384 945 514 945 C 468.1603616 945 431 937.3888416 431 928 Z" opacity="0.2"/></g><g transform="translate(-62,-70) scale(1,1)"><path fill="#ffffff" stroke="none" d="M 424 921 C 424 911.6111584 461.1603616 904 507 904 C 552.8396384 904 590 911.6111584 590 921 C 590 930.3888416 552.8396384 938 507 938 C 461.1603616 938 424 930.3888416 424 921 Z"/></g><g transform="translate(-62,-70) scale(1,1)"><path fill="none" stroke="#000000" d="M 424 921 C 424 911.6111584 461.1603616 904 507 904 C 552.8396384 904 590 911.6111584 590 921 C 590 930.3888416 552.8396384 938 507 938 C 461.1603616 938 424 930.3888416 424 921 Z" stroke-miterlimit="10"/></g><g transform="translate(-62,-70) scale(1,1)"><g><path fill="none" stroke="none"/><text fill="#000000" stroke="none" font-family="Arial" font-size="13px" font-style="normal" font-weight="bold" text-decoration="none" x="456.406005859375" y="928">Báo cáo thống kê</text></g></g><g transform="translate(-62,-70) scale(1,1)"><path fill="none" stroke="#000000" d="M 301 779 L 481 903" stroke-miterlimit="10"/></g><g transform="translate(-62,-70) scale(1,1)"><path fill="none" stroke="#000000" d="M 470.24287854306937 900.7012312076151 L 481 903 L 475.0190414732324 893.7680914702817" stroke-miterlimit="10"/></g><g transform="translate(-62,-70) scale(1,1)"><path fill="#C0C0C0" stroke="none" d="M 671 865 C 671 850.6405952 706.817216 839 751 839 C 795.182784 839 831 850.6405952 831 865 C 831 879.3594048 795.182784 891 751 891 C 706.817216 891 671 879.3594048 671 865 Z" opacity="0.2"/></g><g transform="translate(-62,-70) scale(1,1)"><path fill="#ffffff" stroke="none" d="M 664 858 C 664 843.6405952 699.817216 832 744 832 C 788.182784 832 824 843.6405952 824 858 C 824 872.3594048 788.182784 884 744 884 C 699.817216 884 664 872.3594048 664 858 Z"/></g><g transform="translate(-62,-70) scale(1,1)"><path fill="none" stroke="#000000" d="M 664 858 C 664 843.6405952 699.817216 832 744 832 C 788.182784 832 824 843.6405952 824 858 C 824 872.3594048 788.182784 884 744 884 C 699.817216 884 664 872.3594048 664 858 Z" stroke-miterlimit="10"/></g><g transform="translate(-62,-70) scale(1,1)"><g><path fill="none" stroke="none"/><text fill="#000000" stroke="none" font-family="Arial" font-size="13px" font-style="normal" font-weight="bold" text-decoration="none" x="700.997802734375" y="858.5">Tạo danh sách</text><text fill="#000000" stroke="none" font-family="Arial" font-size="13px" font-style="normal" font-weight="bold" text-decoration="none" x="717.254150390625" y="871.5">nhập kho</text></g></g><g transform="translate(-62,-70) scale(1,1)"><path fill="none" stroke="#000000" d="M 663 880 L 575 903" stroke-miterlimit="10" stroke-dasharray="3"/></g><g transform="translate(-62,-70) scale(1,1)"><path fill="none" stroke="#000000" d="M 583.767933801017 896.3574600595116 L 575 903 L 585.8968504839157 904.502880411472" stroke-miterlimit="10"/></g><g transform="translate(-62,-70) scale(1,1)"><g><path fill="none" stroke="none"/><text fill="#000000" stroke="none" font-family="Arial" font-size="13px" font-style="normal" font-weight="normal" text-decoration="none" x="599.5" y="925.5">«extend»</text></g></g><g transform="translate(-62,-70) scale(1,1)"><path fill="#C0C0C0" stroke="none" d="M 679 1009 C 679 994.6405952 713.0263552 983 755 983 C 796.9736448 983 831 994.6405952 831 1009 C 831 1023.3594048 796.9736448 1035 755 1035 C 713.0263552 1035 679 1023.3594048 679 1009 Z" opacity="0.2"/></g><g transform="translate(-62,-70) scale(1,1)"><path fill="#ffffff" stroke="none" d="M 672 1002 C 672 987.6405952 706.0263552 976 748 976 C 789.9736448 976 824 987.6405952 824 1002 C 824 1016.3594048 789.9736448 1028 748 1028 C 706.0263552 1028 672 1016.3594048 672 1002 Z"/></g><g transform="translate(-62,-70) scale(1,1)"><path fill="none" stroke="#000000" d="M 672 1002 C 672 987.6405952 706.0263552 976 748 976 C 789.9736448 976 824 987.6405952 824 1002 C 824 1016.3594048 789.9736448 1028 748 1028 C 706.0263552 1028 672 1016.3594048 672 1002 Z" stroke-miterlimit="10"/></g><g transform="translate(-62,-70) scale(1,1)"><g><path fill="none" stroke="none"/><text fill="#000000" stroke="none" font-family="Arial" font-size="13px" font-style="normal" font-weight="bold" text-decoration="none" x="704.997802734375" y="1002.5">Tạo danh sách</text><text fill="#000000" stroke="none" font-family="Arial" font-size="13px" font-style="normal" font-weight="bold" text-decoration="none" x="723.42822265625" y="1015.5">xuất kho</text></g></g><g transform="translate(-62,-70) scale(1,1)"><path fill="none" stroke="#000000" d="M 671 976 L 561 939" stroke-miterlimit="10" stroke-dasharray="3"/></g><g transform="translate(-62,-70) scale(1,1)"><path fill="none" stroke="#000000" d="M 571.97441029622 938.2501209095984 L 561 939 L 569.2903245298736 946.2298353500876" stroke-miterlimit="10"/></g><g transform="translate(-62,-70) scale(1,1)"><g><path fill="none" stroke="none"/><text fill="#000000" stroke="none" font-family="Arial" font-size="13px" font-style="normal" font-weight="normal" text-decoration="none" x="579.5" y="991.5">«extend»</text></g></g><g transform="translate(-62,-70) scale(1,1)"><path fill="#C0C0C0" stroke="none" d="M 79 240 C 79 230.6111584 114.3695008 223 158 223 C 201.6304992 223 237 230.6111584 237 240 C 237 249.3888416 201.6304992 257 158 257 C 114.3695008 257 79 249.3888416 79 240 Z" opacity="0.2"/></g><g transform="translate(-62,-70) scale(1,1)"><path fill="#ffffff" stroke="none" d="M 72 233 C 72 223.6111584 107.3695008 216 151 216 C 194.6304992 216 230 223.6111584 230 233 C 230 242.3888416 194.6304992 250 151 250 C 107.3695008 250 72 242.3888416 72 233 Z"/></g><g transform="translate(-62,-70) scale(1,1)"><path fill="none" stroke="#000000" d="M 72 233 C 72 223.6111584 107.3695008 216 151 216 C 194.6304992 216 230 223.6111584 230 233 C 230 242.3888416 194.6304992 250 151 250 C 107.3695008 250 72 242.3888416 72 233 Z" stroke-miterlimit="10"/></g><g transform="translate(-62,-70) scale(1,1)"><g><path fill="none" stroke="none"/><text fill="#000000" stroke="none" font-family="Arial" font-size="13px" font-style="normal" font-weight="bold" text-decoration="none" x="102.64990234375" y="240">Quản lý hóa đơn</text></g></g><g transform="translate(-62,-70) scale(1,1)"><path fill="#C0C0C0" stroke="none" d="M 279 104 C 279 94.6111584 301.6096176 87 329.5 87 C 357.3903824 87 380 94.6111584 380 104 C 380 113.3888416 357.3903824 121 329.5 121 C 301.6096176 121 279 113.3888416 279 104 Z" opacity="0.2"/></g><g transform="translate(-62,-70) scale(1,1)"><path fill="#ffffff" stroke="none" d="M 272 97 C 272 87.6111584 294.6096176 80 322.5 80 C 350.3903824 80 373 87.6111584 373 97 C 373 106.3888416 350.3903824 114 322.5 114 C 294.6096176 114 272 106.3888416 272 97 Z"/></g><g transform="translate(-62,-70) scale(1,1)"><path fill="none" stroke="#000000" d="M 272 97 C 272 87.6111584 294.6096176 80 322.5 80 C 350.3903824 80 373 87.6111584 373 97 C 373 106.3888416 350.3903824 114 322.5 114 C 294.6096176 114 272 106.3888416 272 97 Z" stroke-miterlimit="10"/></g><g transform="translate(-62,-70) scale(1,1)"><g><path fill="none" stroke="none"/><text fill="#000000" stroke="none" font-family="Arial" font-size="13px" font-style="normal" font-weight="bold" text-decoration="none" x="305.885009765625" y="104">Thêm</text></g></g><g transform="translate(-62,-70) scale(1,1)"><path fill="none" stroke="#000000" d="M 299 115 L 174 215" stroke-miterlimit="10" stroke-dasharray="3"/></g><g transform="translate(-62,-70) scale(1,1)"><path fill="none" stroke="#000000" d="M 179.306050922054 205.36434622806684 L 174 215 L 184.5653807116052 211.93850846500584" stroke-miterlimit="10"/></g><g transform="translate(-62,-70) scale(1,1)"><g><path fill="none" stroke="none"/><text fill="#000000" stroke="none" font-family="Arial" font-size="13px" font-style="normal" font-weight="normal" text-decoration="none" x="227.5" y="194.5">«extend»</text></g></g><g transform="translate(-62,-70) scale(1,1)"><path fill="#C0C0C0" stroke="none" d="M 319 176 C 319 166.6111584 341.6096176 159 369.5 159 C 397.3903824 159 420 166.6111584 420 176 C 420 185.3888416 397.3903824 193 369.5 193 C 341.6096176 193 319 185.3888416 319 176 Z" opacity="0.2"/></g><g transform="translate(-62,-70) scale(1,1)"><path fill="#ffffff" stroke="none" d="M 312 169 C 312 159.6111584 334.6096176 152 362.5 152 C 390.3903824 152 413 159.6111584 413 169 C 413 178.3888416 390.3903824 186 362.5 186 C 334.6096176 186 312 178.3888416 312 169 Z"/></g><g transform="translate(-62,-70) scale(1,1)"><path fill="none" stroke="#000000" d="M 312 169 C 312 159.6111584 334.6096176 152 362.5 152 C 390.3903824 152 413 159.6111584 413 169 C 413 178.3888416 390.3903824 186 362.5 186 C 334.6096176 186 312 178.3888416 312 169 Z" stroke-miterlimit="10"/></g><g transform="translate(-62,-70) scale(1,1)"><g><path fill="none" stroke="none"/><text fill="#000000" stroke="none" font-family="Arial" font-size="13px" font-style="normal" font-weight="bold" text-decoration="none" x="350.9345703125" y="176">Xóa</text></g></g><g transform="translate(-62,-70) scale(1,1)"><path fill="none" stroke="#000000" d="M 311 184 L 210 215" stroke-miterlimit="10" stroke-dasharray="3"/></g><g transform="translate(-62,-70) scale(1,1)"><path fill="none" stroke="#000000" d="M 218.48018930288455 207.99383204688593 L 210 215 L 220.9505082315941 216.04229049203644" stroke-miterlimit="10"/></g><g transform="translate(-62,-70) scale(1,1)"><g><path fill="none" stroke="none"/><text fill="#000000" stroke="none" font-family="Arial" font-size="13px" font-style="normal" font-weight="normal" text-decoration="none" x="242.5" y="233.5">«extend»</text></g></g><g transform="translate(-62,-70) scale(1,1)"><path fill="#C0C0C0" stroke="none" d="M 327 352 C 327 342.6111584 349.6096176 335 377.5 335 C 405.3903824 335 428 342.6111584 428 352 C 428 361.3888416 405.3903824 369 377.5 369 C 349.6096176 369 327 361.3888416 327 352 Z" opacity="0.2"/></g><g transform="translate(-62,-70) scale(1,1)"><path fill="#ffffff" stroke="none" d="M 320 345 C 320 335.6111584 342.6096176 328 370.5 328 C 398.3903824 328 421 335.6111584 421 345 C 421 354.3888416 398.3903824 362 370.5 362 C 342.6096176 362 320 354.3888416 320 345 Z"/></g><g transform="translate(-62,-70) scale(1,1)"><path fill="none" stroke="#000000" d="M 320 345 C 320 335.6111584 342.6096176 328 370.5 328 C 398.3903824 328 421 335.6111584 421 345 C 421 354.3888416 398.3903824 362 370.5 362 C 342.6096176 362 320 354.3888416 320 345 Z" stroke-miterlimit="10"/></g><g transform="translate(-62,-70) scale(1,1)"><g><path fill="none" stroke="none"/><text fill="#000000" stroke="none" font-family="Arial" font-size="13px" font-style="normal" font-weight="bold" text-decoration="none" x="358.1982421875" y="352">Sửa</text></g></g><g transform="translate(-62,-70) scale(1,1)"><path fill="none" stroke="#000000" d="M 335 327 L 186 251" stroke-miterlimit="10" stroke-dasharray="3"/></g><g transform="translate(-62,-70) scale(1,1)"><path fill="none" stroke="#000000" d="M 196.9657186070855 251.86776461682808 L 186 251 L 193.1403317426208 259.3675362326865" stroke-miterlimit="10"/></g><g transform="translate(-62,-70) scale(1,1)"><g><path fill="none" stroke="none"/><text fill="#000000" stroke="none" font-family="Arial" font-size="13px" font-style="normal" font-weight="normal" text-decoration="none" x="219.5" y="321.5">«extend»</text></g></g><g transform="translate(-62,-70) scale(1,1)"><path fill="none" stroke="#000000" d="M 327 245 L 231 239" stroke-miterlimit="10" stroke-dasharray="3"/></g><g transform="translate(-62,-70) scale(1,1)"><path fill="none" stroke="#000000" d="M 241.4054663490951 235.43261018980968 L 231 239 L 240.88030134277494 243.8352502909322" stroke-miterlimit="10"/></g><g transform="translate(-62,-70) scale(1,1)"><g><path fill="none" stroke="none"/><text fill="#000000" stroke="none" font-family="Arial" font-size="13px" font-style="normal" font-weight="normal" text-decoration="none" x="250.5" y="277.5">«extend»</text></g></g><g transform="translate(-62,-70) scale(1,1)"><path fill="none" stroke="#000000" d="M 372 327 L 377 267" stroke-miterlimit="10" stroke-dasharray="3"/></g><g transform="translate(-62,-70) scale(1,1)"><path fill="none" stroke="#000000" d="M 380.3510128538653 277.47715194378844 L 377 267 L 371.96105872583684 276.77798909978605" stroke-miterlimit="10"/></g><g transform="translate(-62,-70) scale(1,1)"><g><path fill="none" stroke="none"/><text fill="#000000" stroke="none" font-family="Arial" font-size="13px" font-style="normal" font-weight="normal" text-decoration="none" x="316.5" y="300.5">«include»</text></g></g><g transform="translate(-62,-70) scale(1,1)"><path fill="none" stroke="#000000" d="M 366 187 L 374 231" stroke-miterlimit="10" stroke-dasharray="3"/></g><g transform="translate(-62,-70) scale(1,1)"><path fill="none" stroke="#000000" d="M 368.04042759863455 221.75427142985026 L 374 231 L 376.32366331098535 220.2482285730592" stroke-miterlimit="10"/></g><g transform="translate(-62,-70) scale(1,1)"><g><path fill="none" stroke="none"/><text fill="#000000" stroke="none" font-family="Arial" font-size="13px" font-style="normal" font-weight="normal" text-decoration="none" x="371.5" y="209.5">«include»</text></g></g><g transform="translate(-62,-70) scale(1,1)"><path fill="#C0C0C0" stroke="none" d="M 831 392 C 831 382.6111584 853.6096176 375 881.5 375 C 909.3903824 375 932 382.6111584 932 392 C 932 401.3888416 909.3903824 409 881.5 409 C 853.6096176 409 831 401.3888416 831 392 Z" opacity="0.2"/></g><g transform="translate(-62,-70) scale(1,1)"><path fill="#ffffff" stroke="none" d="M 824 385 C 824 375.6111584 846.6096176 368 874.5 368 C 902.3903824 368 925 375.6111584 925 385 C 925 394.3888416 902.3903824 402 874.5 402 C 846.6096176 402 824 394.3888416 824 385 Z"/></g><g transform="translate(-62,-70) scale(1,1)"><path fill="none" stroke="#000000" d="M 824 385 C 824 375.6111584 846.6096176 368 874.5 368 C 902.3903824 368 925 375.6111584 925 385 C 925 394.3888416 902.3903824 402 874.5 402 C 846.6096176 402 824 394.3888416 824 385 Z" stroke-miterlimit="10"/></g><g transform="translate(-62,-70) scale(1,1)"><g><path fill="none" stroke="none"/><text fill="#000000" stroke="none" font-family="Arial" font-size="13px" font-style="normal" font-weight="bold" text-decoration="none" x="862.1982421875" y="392">Sửa</text></g></g><g transform="translate(-62,-70) scale(1,1)"><path fill="none" stroke="#000000" d="M 852 367 L 723 259" stroke-miterlimit="10" stroke-dasharray="3"/></g><g transform="translate(-62,-70) scale(1,1)"><path fill="none" stroke="#000000" d="M 733.4945526788206 262.2961134797607 L 723 259 L 728.0900651716142 268.75147355781263" stroke-miterlimit="10"/></g><g transform="translate(-62,-70) scale(1,1)"><g><path fill="none" stroke="none"/><text fill="#000000" stroke="none" font-family="Arial" font-size="13px" font-style="normal" font-weight="normal" text-decoration="none" x="740.5" y="341.5">«extend»</text></g></g><g transform="translate(-62,-70) scale(1,1)"><path fill="none" stroke="#000000" d="M 888 367 L 948 291" stroke-miterlimit="10" stroke-dasharray="3"/></g><g transform="translate(-62,-70) scale(1,1)"><path fill="none" stroke="#000000" d="M 945.0067345056915 301.58491198265637 L 948 291 L 938.3987786298837 296.36810471228176" stroke-miterlimit="10"/></g><g transform="translate(-62,-70) scale(1,1)"><g><path fill="none" stroke="none"/><text fill="#000000" stroke="none" font-family="Arial" font-size="13px" font-style="normal" font-weight="normal" text-decoration="none" x="866.5" y="316.5">«include»</text></g></g><g transform="translate(-62,-70) scale(1,1)"><path fill="none" stroke="#000000" d="M 317 531 L 461 607" stroke-miterlimit="10"/></g><g transform="translate(-62,-70) scale(1,1)"><path fill="none" stroke="#000000" d="M 450.0474566109725 605.9793172326964 L 461 607 L 453.9771140045794 598.5336505921782" stroke-miterlimit="10"/></g></g></svg>