<svg version="1.1" xmlns="http://www.w3.org/2000/svg" xmlns:xlink="http://www.w3.org/1999/xlink" width="556" height="852"><defs/><g><g transform="translate(-102,-6) scale(1,1)"><rect fill="#ffffff" stroke="none" x="112" y="16" width="175" height="21"/></g><g transform="translate(-102,-6) scale(1,1)"><path fill="none" stroke="#000000" d="M 112 16 L 287 16 L 287 37 L 112 37 L 112 16 Z Z" stroke-miterlimit="10" stroke-width="2"/></g><g transform="translate(-102,-6) scale(1,1)"><path fill="none" stroke="#000000" d="M 112 848 L 112 16 L 287 16 L 287 848" stroke-miterlimit="10" stroke-width="2"/></g><g transform="translate(-102,-6) scale(1,1)"><g><path fill="none" stroke="none"/><text fill="#000000" stroke="none" font-family="Arial" font-size="13px" font-style="normal" font-weight="normal" text-decoration="none" x="170.23095703125" y="33">Nhân viên</text></g></g><g transform="translate(-102,-6) scale(1,1)"><rect fill="#ffffff" stroke="none" x="288" y="16" width="184" height="21"/></g><g transform="translate(-102,-6) scale(1,1)"><path fill="none" stroke="#000000" d="M 288 16 L 472 16 L 472 37 L 288 37 L 288 16 Z Z" stroke-miterlimit="10" stroke-width="2"/></g><g transform="translate(-102,-6) scale(1,1)"><path fill="none" stroke="#000000" d="M 288 848 L 288 16 L 472 16 L 472 848" stroke-miterlimit="10" stroke-width="2"/></g><g transform="translate(-102,-6) scale(1,1)"><g><path fill="none" stroke="none"/><text fill="#000000" stroke="none" font-family="Arial" font-size="13px" font-style="normal" font-weight="normal" text-decoration="none" x="353.619140625" y="33">Hệ thống</text></g></g><g transform="translate(-102,-6) scale(1,1)"><rect fill="#ffffff" stroke="none" x="472" y="16" width="176" height="21"/></g><g transform="translate(-102,-6) scale(1,1)"><path fill="none" stroke="#000000" d="M 472 16 L 648 16 L 648 37 L 472 37 L 472 16 Z Z" stroke-miterlimit="10" stroke-width="2"/></g><g transform="translate(-102,-6) scale(1,1)"><path fill="none" stroke="#000000" d="M 472 848 L 472 16 L 648 16 L 648 848" stroke-miterlimit="10" stroke-width="2"/></g><g transform="translate(-102,-6) scale(1,1)"><g><path fill="none" stroke="none"/><text fill="#000000" stroke="none" font-family="Arial" font-size="13px" font-style="normal" font-weight="normal" text-decoration="none" x="542.661376953125" y="33">CSDL</text></g></g><g transform="translate(-102,-6) scale(1,1)"><path fill="#C0C0C0" stroke="none" d="M 153 191 L 253 191 Q 263 191 263 201 L 263 260 Q 263 270 253 270 L 153 270 Q 143 270 143 260 L 143 201 Q 143 191 153 191 Z" opacity="0.2"/></g><g transform="translate(-102,-6) scale(1,1)"><path fill="#ffffff" stroke="none" d="M 146 184 L 246 184 Q 256 184 256 194 L 256 253 Q 256 263 246 263 L 146 263 Q 136 263 136 253 L 136 194 Q 136 184 146 184 Z"/></g><g transform="translate(-102,-6) scale(1,1)"><path fill="none" stroke="#000000" d="M 146 184 L 246 184 Q 256 184 256 194 L 256 253 Q 256 263 246 263 L 146 263 Q 136 263 136 253 L 136 194 Q 136 184 146 184 Z" stroke-miterlimit="10"/></g><g transform="translate(-102,-6) scale(1,1)"><g><path fill="none" stroke="none"/><text fill="#000000" stroke="none" font-family="Arial" font-size="13px" font-style="normal" font-weight="bold" text-decoration="none" x="159.869140625" y="203.5">Chọn và xác</text><text fill="#000000" stroke="none" font-family="Arial" font-size="13px" font-style="normal" font-weight="bold" text-decoration="none" x="154.79736328125" y="216.5">nhận thông tin</text><text fill="#000000" stroke="none" font-family="Arial" font-size="13px" font-style="normal" font-weight="bold" text-decoration="none" x="155.524169921875" y="229.5">nhân viên cần</text><text fill="#000000" stroke="none" font-family="Arial" font-size="13px" font-style="normal" font-weight="bold" text-decoration="none" x="184.78369140625" y="242.5">sửa</text></g></g><g transform="translate(-102,-6) scale(1,1)"><path fill="none" stroke="#000000" d="M 257 224 L 319 224" stroke-miterlimit="10"/></g><g transform="translate(-102,-6) scale(1,1)"><path fill="none" stroke="#000000" d="M 308.83732514237585 228.209517756016 L 319 224 L 308.83732514237585 219.790482243984" stroke-miterlimit="10"/></g><g transform="translate(-102,-6) scale(1,1)"><path fill="#C0C0C0" stroke="none" d="M 337 199 L 429 199 Q 439 199 439 209 L 439 255 Q 439 265 429 265 L 337 265 Q 327 265 327 255 L 327 209 Q 327 199 337 199 Z" opacity="0.2"/></g><g transform="translate(-102,-6) scale(1,1)"><path fill="#ffffff" stroke="none" d="M 330 192 L 422 192 Q 432 192 432 202 L 432 248 Q 432 258 422 258 L 330 258 Q 320 258 320 248 L 320 202 Q 320 192 330 192 Z"/></g><g transform="translate(-102,-6) scale(1,1)"><path fill="none" stroke="#000000" d="M 330 192 L 422 192 Q 432 192 432 202 L 432 248 Q 432 258 422 258 L 330 258 Q 320 258 320 248 L 320 202 Q 320 192 330 192 Z" stroke-miterlimit="10"/></g><g transform="translate(-102,-6) scale(1,1)"><g><path fill="none" stroke="none"/><text fill="#000000" stroke="none" font-family="Arial" font-size="13px" font-style="normal" font-weight="bold" text-decoration="none" x="339.865966796875" y="211.5">Hiển thị giao</text><text fill="#000000" stroke="none" font-family="Arial" font-size="13px" font-style="normal" font-weight="bold" text-decoration="none" x="336.96826171875" y="224.5">diện thông tin</text><text fill="#000000" stroke="none" font-family="Arial" font-size="13px" font-style="normal" font-weight="bold" text-decoration="none" x="347.81005859375" y="237.5">nhân viên</text></g></g><g transform="translate(-102,-6) scale(1,1)"><path fill="none" stroke="#000000" d="M 376 258 L 376 317 L 264 317" stroke-miterlimit="10"/></g><g transform="translate(-102,-6) scale(1,1)"><path fill="none" stroke="#000000" d="M 274.16267485762415 312.790482243984 L 264 317 L 274.16267485762415 321.209517756016" stroke-miterlimit="10"/></g><g transform="translate(-102,-6) scale(1,1)"><path fill="#C0C0C0" stroke="none" d="M 145 295 L 261 295 Q 271 295 271 305 L 271 351 Q 271 361 261 361 L 145 361 Q 135 361 135 351 L 135 305 Q 135 295 145 295 Z" opacity="0.2"/></g><g transform="translate(-102,-6) scale(1,1)"><path fill="#ffffff" stroke="none" d="M 138 288 L 254 288 Q 264 288 264 298 L 264 344 Q 264 354 254 354 L 138 354 Q 128 354 128 344 L 128 298 Q 128 288 138 288 Z"/></g><g transform="translate(-102,-6) scale(1,1)"><path fill="none" stroke="#000000" d="M 138 288 L 254 288 Q 264 288 264 298 L 264 344 Q 264 354 254 354 L 138 354 Q 128 354 128 344 L 128 298 Q 128 288 138 288 Z" stroke-miterlimit="10"/></g><g transform="translate(-102,-6) scale(1,1)"><g><path fill="none" stroke="none"/><text fill="#000000" stroke="none" font-family="Arial" font-size="13px" font-style="normal" font-weight="bold" text-decoration="none" x="153.71826171875" y="307.5">Nhập thông tin</text><text fill="#000000" stroke="none" font-family="Arial" font-size="13px" font-style="normal" font-weight="bold" text-decoration="none" x="147.21826171875" y="320.5">nhân viên và xác</text><text fill="#000000" stroke="none" font-family="Arial" font-size="13px" font-style="normal" font-weight="bold" text-decoration="none" x="181.5400390625" y="333.5">nhận</text></g></g><g transform="translate(-102,-6) scale(1,1)"><path fill="#C0C0C0" stroke="none" d="M 345 391 L 429 391 Q 439 391 439 401 L 439 434 Q 439 444 429 444 L 345 444 Q 335 444 335 434 L 335 401 Q 335 391 345 391 Z" opacity="0.2"/></g><g transform="translate(-102,-6) scale(1,1)"><path fill="#ffffff" stroke="none" d="M 338 384 L 422 384 Q 432 384 432 394 L 432 427 Q 432 437 422 437 L 338 437 Q 328 437 328 427 L 328 394 Q 328 384 338 384 Z"/></g><g transform="translate(-102,-6) scale(1,1)"><path fill="none" stroke="#000000" d="M 338 384 L 422 384 Q 432 384 432 394 L 432 427 Q 432 437 422 437 L 338 437 Q 328 437 328 427 L 328 394 Q 328 384 338 384 Z" stroke-miterlimit="10"/></g><g transform="translate(-102,-6) scale(1,1)"><g><path fill="none" stroke="none"/><text fill="#000000" stroke="none" font-family="Arial" font-size="13px" font-style="normal" font-weight="bold" text-decoration="none" x="341.70458984375" y="403.5">Kiểm tra định</text><text fill="#000000" stroke="none" font-family="Arial" font-size="13px" font-style="normal" font-weight="bold" text-decoration="none" x="343.84375" y="416.5">dạng dữ liệu</text></g></g><g transform="translate(-102,-6) scale(1,1)"><path fill="#C0C0C0" stroke="none" d="M 375 480.5 L 386.5 471 L 397 480.5 L 386.5 489 L 375 480.5" opacity="0.2"/></g><g transform="translate(-102,-6) scale(1,1)"><path fill="#ffffff" stroke="none" d="M 368 473 L 379 464 L 390 473 L 379 482 L 368 473"/></g><g transform="translate(-102,-6) scale(1,1)"><path fill="none" stroke="#000000" d="M 368 473 L 379 464 L 390 473 L 379 482 L 368 473 L 368 473" stroke-miterlimit="10"/></g><g transform="translate(-102,-6) scale(1,1)"><path fill="none" stroke="#000000" d="M 380 437 L 380 464" stroke-miterlimit="10"/></g><g transform="translate(-102,-6) scale(1,1)"><path fill="none" stroke="#000000" d="M 375.790482243984 453.83732514237585 L 380 464 L 384.209517756016 453.83732514237585" stroke-miterlimit="10"/></g><g transform="translate(-102,-6) scale(1,1)"><path fill="#C0C0C0" stroke="none" d="M 337 543 L 453 543 Q 463 543 463 553 L 463 586 Q 463 596 453 596 L 337 596 Q 327 596 327 586 L 327 553 Q 327 543 337 543 Z" opacity="0.2"/></g><g transform="translate(-102,-6) scale(1,1)"><path fill="#ffffff" stroke="none" d="M 330 536 L 446 536 Q 456 536 456 546 L 456 579 Q 456 589 446 589 L 330 589 Q 320 589 320 579 L 320 546 Q 320 536 330 536 Z"/></g><g transform="translate(-102,-6) scale(1,1)"><path fill="none" stroke="#000000" d="M 330 536 L 446 536 Q 456 536 456 546 L 456 579 Q 456 589 446 589 L 330 589 Q 320 589 320 579 L 320 546 Q 320 536 330 536 Z" stroke-miterlimit="10"/></g><g transform="translate(-102,-6) scale(1,1)"><g><path fill="none" stroke="none"/><text fill="#000000" stroke="none" font-family="Arial" font-size="13px" font-style="normal" font-weight="bold" text-decoration="none" x="335.222412109375" y="555.5">Thông báo dữ liệu</text><text fill="#000000" stroke="none" font-family="Arial" font-size="13px" font-style="normal" font-weight="bold" text-decoration="none" x="350.126708984375" y="568.5">không hợp lệ</text></g></g><g transform="translate(-102,-6) scale(1,1)"><path fill="none" stroke="#000000" d="M 380 482 L 380 536" stroke-miterlimit="10"/></g><g transform="translate(-102,-6) scale(1,1)"><path fill="none" stroke="#000000" d="M 375.790482243984 525.8373251423759 L 380 536 L 384.209517756016 525.8373251423759" stroke-miterlimit="10"/></g><g transform="translate(-102,-6) scale(1,1)"><g><path fill="none" stroke="none"/><text fill="#000000" stroke="none" font-family="Arial" font-size="13px" font-style="normal" font-weight="normal" text-decoration="none" x="355.5" y="514.5">Không hợp lệ</text></g></g><g transform="translate(-102,-6) scale(1,1)"><path fill="#C0C0C0" stroke="none" d="M 529 455 L 621 455 Q 631 455 631 465 L 631 498 Q 631 508 621 508 L 529 508 Q 519 508 519 498 L 519 465 Q 519 455 529 455 Z" opacity="0.2"/></g><g transform="translate(-102,-6) scale(1,1)"><path fill="#ffffff" stroke="none" d="M 522 448 L 614 448 Q 624 448 624 458 L 624 491 Q 624 501 614 501 L 522 501 Q 512 501 512 491 L 512 458 Q 512 448 522 448 Z"/></g><g transform="translate(-102,-6) scale(1,1)"><path fill="none" stroke="#000000" d="M 522 448 L 614 448 Q 624 448 624 458 L 624 491 Q 624 501 614 501 L 522 501 Q 512 501 512 491 L 512 458 Q 512 448 522 448 Z" stroke-miterlimit="10"/></g><g transform="translate(-102,-6) scale(1,1)"><g><path fill="none" stroke="none"/><text fill="#000000" stroke="none" font-family="Arial" font-size="13px" font-style="normal" font-weight="bold" text-decoration="none" x="525.727783203125" y="467.5">Kiểm tra thông</text><text fill="#000000" stroke="none" font-family="Arial" font-size="13px" font-style="normal" font-weight="bold" text-decoration="none" x="531.13916015625" y="480.5">tin nhân viên</text></g></g><g transform="translate(-102,-6) scale(1,1)"><path fill="none" stroke="#000000" d="M 391 473 L 511 474" stroke-miterlimit="10"/></g><g transform="translate(-102,-6) scale(1,1)"><path fill="none" stroke="#000000" d="M 500.8025998979879 478.12468558310604 L 511 474 L 500.87275609131814 469.7059423834715" stroke-miterlimit="10"/></g><g transform="translate(-102,-6) scale(1,1)"><g><path fill="none" stroke="none"/><text fill="#000000" stroke="none" font-family="Arial" font-size="13px" font-style="normal" font-weight="normal" text-decoration="none" x="406.5" y="463.5">Hợp lệ</text></g></g><g transform="translate(-102,-6) scale(1,1)"><path fill="none" stroke="#000000" d="M 566 502 L 564 543" stroke-miterlimit="10"/></g><g transform="translate(-102,-6) scale(1,1)"><path fill="none" stroke="#000000" d="M 560.2906331446342 532.6442963767635 L 564 543 L 568.6996697986108 533.0544932867136" stroke-miterlimit="10"/></g><g transform="translate(-102,-6) scale(1,1)"><path fill="#C0C0C0" stroke="none" d="M 513 607 L 621 607 Q 631 607 631 617 L 631 650 Q 631 660 621 660 L 513 660 Q 503 660 503 650 L 503 617 Q 503 607 513 607 Z" opacity="0.2"/></g><g transform="translate(-102,-6) scale(1,1)"><path fill="#ffffff" stroke="none" d="M 506 600 L 614 600 Q 624 600 624 610 L 624 643 Q 624 653 614 653 L 506 653 Q 496 653 496 643 L 496 610 Q 496 600 506 600 Z"/></g><g transform="translate(-102,-6) scale(1,1)"><path fill="none" stroke="#000000" d="M 506 600 L 614 600 Q 624 600 624 610 L 624 643 Q 624 653 614 653 L 506 653 Q 496 653 496 643 L 496 610 Q 496 600 506 600 Z" stroke-miterlimit="10"/></g><g transform="translate(-102,-6) scale(1,1)"><g><path fill="none" stroke="none"/><text fill="#000000" stroke="none" font-family="Arial" font-size="13px" font-style="normal" font-weight="bold" text-decoration="none" x="521.676025390625" y="619.5">Lưu thông tin</text><text fill="#000000" stroke="none" font-family="Arial" font-size="13px" font-style="normal" font-weight="bold" text-decoration="none" x="531.81005859375" y="632.5">nhân viên</text></g></g><g transform="translate(-102,-6) scale(1,1)"><path fill="none" stroke="#000000" d="M 563 562 L 563 600" stroke-miterlimit="10"/></g><g transform="translate(-102,-6) scale(1,1)"><path fill="none" stroke="#000000" d="M 558.790482243984 589.8373251423759 L 563 600 L 567.209517756016 589.8373251423759" stroke-miterlimit="10"/></g><g transform="translate(-102,-6) scale(1,1)"><g><path fill="none" stroke="none"/><text fill="#000000" stroke="none" font-family="Arial" font-size="13px" font-style="normal" font-weight="normal" text-decoration="none" x="566.5" y="580.5">Hợp lệ</text></g></g><g transform="translate(-102,-6) scale(1,1)"><path fill="#C0C0C0" stroke="none" d="M 559 560.5 L 570.5 551 L 581 560.5 L 570.5 569 L 559 560.5" opacity="0.2"/></g><g transform="translate(-102,-6) scale(1,1)"><path fill="#ffffff" stroke="none" d="M 552 553 L 563 544 L 574 553 L 563 562 L 552 553"/></g><g transform="translate(-102,-6) scale(1,1)"><path fill="none" stroke="#000000" d="M 552 553 L 563 544 L 574 553 L 563 562 L 552 553 L 552 553" stroke-miterlimit="10"/></g><g transform="translate(-102,-6) scale(1,1)"><path fill="none" stroke="#000000" d="M 552 558 L 456 558" stroke-miterlimit="10"/></g><g transform="translate(-102,-6) scale(1,1)"><path fill="none" stroke="#000000" d="M 466.16267485762415 553.790482243984 L 456 558 L 466.16267485762415 562.209517756016" stroke-miterlimit="10"/></g><g transform="translate(-102,-6) scale(1,1)"><g><path fill="none" stroke="none"/><text fill="#000000" stroke="none" font-family="Arial" font-size="13px" font-style="normal" font-weight="normal" text-decoration="none" x="471.5" y="548.5">Không hợp lệ</text></g></g><g transform="translate(-102,-6) scale(1,1)"><path fill="#C0C0C0" stroke="none" d="M 353 679 L 437 679 Q 447 679 447 689 L 447 761 Q 447 771 437 771 L 353 771 Q 343 771 343 761 L 343 689 Q 343 679 353 679 Z" opacity="0.2"/></g><g transform="translate(-102,-6) scale(1,1)"><path fill="#ffffff" stroke="none" d="M 346 672 L 430 672 Q 440 672 440 682 L 440 754 Q 440 764 430 764 L 346 764 Q 336 764 336 754 L 336 682 Q 336 672 346 672 Z"/></g><g transform="translate(-102,-6) scale(1,1)"><path fill="none" stroke="#000000" d="M 346 672 L 430 672 Q 440 672 440 682 L 440 754 Q 440 764 430 764 L 346 764 Q 336 764 336 754 L 336 682 Q 336 672 346 672 Z" stroke-miterlimit="10"/></g><g transform="translate(-102,-6) scale(1,1)"><g><path fill="none" stroke="none"/><text fill="#000000" stroke="none" font-family="Arial" font-size="13px" font-style="normal" font-weight="bold" text-decoration="none" x="356.918701171875" y="691.5">Thông báo</text><text fill="#000000" stroke="none" font-family="Arial" font-size="13px" font-style="normal" font-weight="bold" text-decoration="none" x="347.162353515625" y="704.5">thành công và</text><text fill="#000000" stroke="none" font-family="Arial" font-size="13px" font-style="normal" font-weight="bold" text-decoration="none" x="352.945068359375" y="717.5">hiển thị giao</text><text fill="#000000" stroke="none" font-family="Arial" font-size="13px" font-style="normal" font-weight="bold" text-decoration="none" x="352.945068359375" y="730.5">diện quản lý</text><text fill="#000000" stroke="none" font-family="Arial" font-size="13px" font-style="normal" font-weight="bold" text-decoration="none" x="359.81005859375" y="743.5">nhân viên</text></g></g><g transform="translate(-102,-6) scale(1,1)"><path fill="none" stroke="#000000" d="M 320 561 L 200 561 L 200 560 L 197 560 L 197 354" stroke-miterlimit="10"/></g><g transform="translate(-102,-6) scale(1,1)"><path fill="none" stroke="#000000" d="M 201.209517756016 364.16267485762415 L 197 354 L 192.790482243984 364.16267485762415" stroke-miterlimit="10"/></g><g transform="translate(-102,-6) scale(1,1)"><path fill="none" stroke="#000000" d="M 265 354 L 327 384" stroke-miterlimit="10"/></g><g transform="translate(-102,-6) scale(1,1)"><path fill="none" stroke="#000000" d="M 316.0184727471 383.36277225906684 L 327 384 L 319.68547566846354 375.7842995549155" stroke-miterlimit="10"/></g><g transform="translate(-102,-6) scale(1,1)"><rect fill="#C0C0C0" stroke="none" x="519" y="711" width="89.18359375" height="24" opacity="0.2"/></g><g transform="translate(-102,-6) scale(1,1)"><rect fill="#ffffff" stroke="none" x="512" y="704" width="89.18359375" height="24"/></g><g transform="translate(-102,-6) scale(1,1)"><path fill="none" stroke="#000000" d="M 512 704 L 601.18359375 704 L 601.18359375 728 L 512 728 L 512 704 Z Z" stroke-miterlimit="10"/></g><g transform="translate(-102,-6) scale(1,1)"><rect fill="#ffffff" stroke="none" x="512" y="704" width="89.18359375" height="24"/></g><g transform="translate(-102,-6) scale(1,1)"><path fill="none" stroke="#000000" d="M 512 704 L 601.18359375 704 L 601.18359375 728 L 512 728 L 512 704 Z Z" stroke-miterlimit="10"/></g><g transform="translate(-102,-6) scale(1,1)"><g><path fill="none" stroke="none"/><text fill="#000000" stroke="none" font-family="Arial" font-size="13px" font-style="normal" font-weight="bold" text-decoration="none" x="523.003173828125" y="723.5">NHANVIEN</text></g></g><g transform="translate(-102,-6) scale(1,1)"><path fill="none" stroke="#000000" d="M 559 653 L 559 704" stroke-miterlimit="10"/></g><g transform="translate(-102,-6) scale(1,1)"><path fill="none" stroke="#000000" d="M 554.790482243984 693.8373251423759 L 559 704 L 563.209517756016 693.8373251423759" stroke-miterlimit="10"/></g><g transform="translate(-102,-6) scale(1,1)"><path fill="none" stroke="#000000" d="M 512 717 L 440 717" stroke-miterlimit="10"/></g><g transform="translate(-102,-6) scale(1,1)"><path fill="none" stroke="#000000" d="M 450.16267485762415 712.790482243984 L 440 717 L 450.16267485762415 721.209517756016" stroke-miterlimit="10"/></g><g transform="translate(-102,-6) scale(1,1)"><path fill="none" stroke="#000000" d="M 384 764 L 384 808" stroke-miterlimit="10"/></g><g transform="translate(-102,-6) scale(1,1)"><path fill="none" stroke="#000000" d="M 379.790482243984 797.8373251423759 L 384 808 L 388.209517756016 797.8373251423759" stroke-miterlimit="10"/></g><g transform="translate(-102,-6) scale(1,1)"><path fill="#C0C0C0" stroke="none" d="M 375 827.5 C 375 820.59644 380.59644 815 387.5 815 C 394.40356 815 400 820.59644 400 827.5 C 400 834.40356 394.40356 840 387.5 840 C 380.59644 840 375 834.40356 375 827.5 Z" opacity="0.2"/></g><g transform="translate(-102,-6) scale(1,1)"><path fill="none" stroke="#000000" d="M 368 820.5 C 368 813.59644 373.59644 808 380.5 808 C 387.40356 808 393 813.59644 393 820.5 C 393 827.40356 387.40356 833 380.5 833 C 373.59644 833 368 827.40356 368 820.5 Z" stroke-miterlimit="10"/></g><g transform="translate(-102,-6) scale(1,1)"><path fill="#000000" stroke="none" d="M 373 820.5 C 373 816.357864 376.357864 813 380.5 813 C 384.642136 813 388 816.357864 388 820.5 C 388 824.642136 384.642136 828 380.5 828 C 376.357864 828 373 824.642136 373 820.5 Z"/></g><g transform="translate(-102,-6) scale(1,1)"><path fill="none" stroke="#000000" d="M 320 121 L 192 121 L 192 184" stroke-miterlimit="10"/></g><g transform="translate(-102,-6) scale(1,1)"><path fill="none" stroke="#000000" d="M 187.790482243984 173.83732514237585 L 192 184 L 196.209517756016 173.83732514237585" stroke-miterlimit="10"/></g><g transform="translate(-102,-6) scale(1,1)"><path fill="#C0C0C0" stroke="none" d="M 337 103 L 421 103 Q 431 103 431 113 L 431 146 Q 431 156 421 156 L 337 156 Q 327 156 327 146 L 327 113 Q 327 103 337 103 Z" opacity="0.2"/></g><g transform="translate(-102,-6) scale(1,1)"><path fill="#ffffff" stroke="none" d="M 330 96 L 414 96 Q 424 96 424 106 L 424 139 Q 424 149 414 149 L 330 149 Q 320 149 320 139 L 320 106 Q 320 96 330 96 Z"/></g><g transform="translate(-102,-6) scale(1,1)"><path fill="none" stroke="#000000" d="M 330 96 L 414 96 Q 424 96 424 106 L 424 139 Q 424 149 414 149 L 330 149 Q 320 149 320 139 L 320 106 Q 320 96 330 96 Z" stroke-miterlimit="10"/></g><g transform="translate(-102,-6) scale(1,1)"><g><path fill="none" stroke="none"/><text fill="#000000" stroke="none" font-family="Arial" font-size="13px" font-style="normal" font-weight="bold" text-decoration="none" x="335.878662109375" y="115.5">Usecase tìm</text><text fill="#000000" stroke="none" font-family="Arial" font-size="13px" font-style="normal" font-weight="bold" text-decoration="none" x="328.280517578125" y="128.5">kiếm nhân viên</text></g></g><g transform="translate(-102,-6) scale(1,1)"><path fill="none" stroke="#000000" d="M 370 68 L 371 95" stroke-miterlimit="10"/></g><g transform="translate(-102,-6) scale(1,1)"><path fill="none" stroke="#000000" d="M 366.41722899170594 85.00008950612359 L 371 95 L 374.8304960648887 84.68848702193164" stroke-miterlimit="10"/></g><g transform="translate(-102,-6) scale(1,1)"><path fill="#C0C0C0" stroke="none" d="M 367 64.5 C 367 59.2532944 371.2532944 55 376.5 55 C 381.7467056 55 386 59.2532944 386 64.5 C 386 69.7467056 381.7467056 74 376.5 74 C 371.2532944 74 367 69.7467056 367 64.5 Z" opacity="0.2"/></g><g transform="translate(-102,-6) scale(1,1)"><path fill="#000000" stroke="none" d="M 360 57.5 C 360 52.2532944 364.2532944 48 369.5 48 C 374.7467056 48 379 52.2532944 379 57.5 C 379 62.7467056 374.7467056 67 369.5 67 C 364.2532944 67 360 62.7467056 360 57.5 Z"/></g></g></svg>