<svg version="1.1" xmlns="http://www.w3.org/2000/svg" xmlns:xlink="http://www.w3.org/1999/xlink" width="467.98291015625" height="481"><defs/><g><g transform="translate(-110,-166) scale(1,1)"><path fill="#ffffff" stroke="none" d="M 173.4404296875 411.5 C 173.4404296875 403.4228348 179.9882644875 396.875 188.0654296875 396.875 C 196.1425948875 396.875 202.6904296875 403.4228348 202.6904296875 411.5 C 202.6904296875 419.5771652 196.1425948875 426.125 188.0654296875 426.125 C 179.9882644875 426.125 173.4404296875 419.5771652 173.4404296875 411.5 Z"/></g><g transform="translate(-110,-166) scale(1,1)"><path fill="none" stroke="#000000" d="M 173.4404296875 411.5 C 173.4404296875 403.4228348 179.9882644875 396.875 188.0654296875 396.875 C 196.1425948875 396.875 202.6904296875 403.4228348 202.6904296875 411.5 C 202.6904296875 419.5771652 196.1425948875 426.125 188.0654296875 426.125 C 179.9882644875 426.125 173.4404296875 419.5771652 173.4404296875 411.5 Z" stroke-miterlimit="10"/></g><g transform="translate(-110,-166) scale(1,1)"><path fill="none" stroke="#000000" d="M 188.0654296875 396.875 L 192.9404296875 392" stroke-miterlimit="10"/></g><g transform="translate(-110,-166) scale(1,1)"><path fill="none" stroke="#000000" d="M 188.0654296875 396.875 L 192.9404296875 401.75" stroke-miterlimit="10"/></g><g transform="translate(-110,-166) scale(1,1)"><path fill="none" stroke="#000000" d="M 120 456 L 256.130859375 456" stroke-miterlimit="10"/></g><g transform="translate(-110,-166) scale(1,1)"><path fill="none" stroke="#000000" d="M 120 466 L 256.130859375 466" stroke-miterlimit="10"/></g><g transform="translate(-110,-166) scale(1,1)"><g><path fill="none" stroke="none"/><text fill="#000000" stroke="none" font-family="Arial" font-size="13px" font-style="normal" font-weight="bold" text-decoration="none" x="137.852294921875" y="450.5">Controller_QLKM</text></g></g><g transform="translate(-110,-166) scale(1,1)"><g><path fill="none" stroke="none"/><text fill="#000000" stroke="none" font-family="Arial" font-size="13px" font-style="normal" font-weight="normal" text-decoration="none" x="125" y="483.5">+LayDSKM()</text></g></g><g transform="translate(-110,-166) scale(1,1)"><g><path fill="none" stroke="none"/><text fill="#000000" stroke="none" font-family="Arial" font-size="13px" font-style="normal" font-weight="normal" text-decoration="none" x="125" y="498.5">+ThemKM()</text></g></g><g transform="translate(-110,-166) scale(1,1)"><g><path fill="none" stroke="none"/><text fill="#000000" stroke="none" font-family="Arial" font-size="13px" font-style="normal" font-weight="normal" text-decoration="none" x="125" y="513.5">+TimKM()</text></g></g><g transform="translate(-110,-166) scale(1,1)"><g><path fill="none" stroke="none"/><text fill="#000000" stroke="none" font-family="Arial" font-size="13px" font-style="normal" font-weight="normal" text-decoration="none" x="125" y="528.5">+XoaKM()</text></g></g><g transform="translate(-110,-166) scale(1,1)"><g><path fill="none" stroke="none"/><text fill="#000000" stroke="none" font-family="Arial" font-size="13px" font-style="normal" font-weight="normal" text-decoration="none" x="125" y="543.5">+SuaKM()</text></g></g><g transform="translate(-110,-166) scale(1,1)"><g><path fill="none" stroke="none"/><text fill="#000000" stroke="none" font-family="Arial" font-size="13px" font-style="normal" font-weight="normal" text-decoration="none" x="125" y="558.5">+LayThongTinKM()</text></g></g><g transform="translate(-110,-166) scale(1,1)"><path fill="#ffffff" stroke="none" d="M 176.013134765625 195.5 C 176.013134765625 186.88435712 182.997491885625 179.9 191.613134765625 179.9 C 200.228777645625 179.9 207.213134765625 186.88435712 207.213134765625 195.5 C 207.213134765625 204.11564288 200.228777645625 211.1 191.613134765625 211.1 C 182.997491885625 211.1 176.013134765625 204.11564288 176.013134765625 195.5 Z"/></g><g transform="translate(-110,-166) scale(1,1)"><path fill="none" stroke="#000000" d="M 176.013134765625 195.5 C 176.013134765625 186.88435712 182.997491885625 179.9 191.613134765625 179.9 C 200.228777645625 179.9 207.213134765625 186.88435712 207.213134765625 195.5 C 207.213134765625 204.11564288 200.228777645625 211.1 191.613134765625 211.1 C 182.997491885625 211.1 176.013134765625 204.11564288 176.013134765625 195.5 Z" stroke-miterlimit="10"/></g><g transform="translate(-110,-166) scale(1,1)"><path fill="none" stroke="#000000" d="M 168.213134765625 179.9 L 168.213134765625 211.1" stroke-miterlimit="10"/></g><g transform="translate(-110,-166) scale(1,1)"><path fill="none" stroke="#000000" d="M 168.213134765625 195.5 L 176.013134765625 195.5" stroke-miterlimit="10"/></g><g transform="translate(-110,-166) scale(1,1)"><path fill="none" stroke="#000000" d="M 120 240 L 255.42626953125 240" stroke-miterlimit="10"/></g><g transform="translate(-110,-166) scale(1,1)"><path fill="none" stroke="#000000" d="M 120 250 L 255.42626953125 250" stroke-miterlimit="10"/></g><g transform="translate(-110,-166) scale(1,1)"><g><path fill="none" stroke="none"/><text fill="#000000" stroke="none" font-family="Arial" font-size="13px" font-style="normal" font-weight="bold" text-decoration="none" x="154.121337890625" y="234.5">QLKM_GUI</text></g></g><g transform="translate(-110,-166) scale(1,1)"><g><path fill="none" stroke="none"/><text fill="#000000" stroke="none" font-family="Arial" font-size="13px" font-style="normal" font-weight="normal" text-decoration="none" x="125" y="267.5">+HienThiDSKM()</text></g></g><g transform="translate(-110,-166) scale(1,1)"><g><path fill="none" stroke="none"/><text fill="#000000" stroke="none" font-family="Arial" font-size="13px" font-style="normal" font-weight="normal" text-decoration="none" x="125" y="282.5">+ThemKM()</text></g></g><g transform="translate(-110,-166) scale(1,1)"><g><path fill="none" stroke="none"/><text fill="#000000" stroke="none" font-family="Arial" font-size="13px" font-style="normal" font-weight="normal" text-decoration="none" x="125" y="297.5">+TimKM()</text></g></g><g transform="translate(-110,-166) scale(1,1)"><g><path fill="none" stroke="none"/><text fill="#000000" stroke="none" font-family="Arial" font-size="13px" font-style="normal" font-weight="normal" text-decoration="none" x="125" y="312.5">+XoaKM()</text></g></g><g transform="translate(-110,-166) scale(1,1)"><g><path fill="none" stroke="none"/><text fill="#000000" stroke="none" font-family="Arial" font-size="13px" font-style="normal" font-weight="normal" text-decoration="none" x="125" y="327.5">+SuaKM()</text></g></g><g transform="translate(-110,-166) scale(1,1)"><path fill="#ffffff" stroke="none" d="M 484.291455078125 227.5 C 484.291455078125 218.88435712 491.275812198125 211.9 499.891455078125 211.9 C 508.507097958125 211.9 515.491455078125 218.88435712 515.491455078125 227.5 C 515.491455078125 236.11564288 508.507097958125 243.1 499.891455078125 243.1 C 491.275812198125 243.1 484.291455078125 236.11564288 484.291455078125 227.5 Z"/></g><g transform="translate(-110,-166) scale(1,1)"><path fill="none" stroke="#000000" d="M 484.291455078125 227.5 C 484.291455078125 218.88435712 491.275812198125 211.9 499.891455078125 211.9 C 508.507097958125 211.9 515.491455078125 218.88435712 515.491455078125 227.5 C 515.491455078125 236.11564288 508.507097958125 243.1 499.891455078125 243.1 C 491.275812198125 243.1 484.291455078125 236.11564288 484.291455078125 227.5 Z" stroke-miterlimit="10"/></g><g transform="translate(-110,-166) scale(1,1)"><path fill="none" stroke="#000000" d="M 476.491455078125 211.9 L 476.491455078125 243.1" stroke-miterlimit="10"/></g><g transform="translate(-110,-166) scale(1,1)"><path fill="none" stroke="#000000" d="M 476.491455078125 227.5 L 484.291455078125 227.5" stroke-miterlimit="10"/></g><g transform="translate(-110,-166) scale(1,1)"><path fill="none" stroke="#000000" d="M 424 272 L 567.98291015625 272" stroke-miterlimit="10"/></g><g transform="translate(-110,-166) scale(1,1)"><path fill="none" stroke="#000000" d="M 424 282 L 567.98291015625 282" stroke-miterlimit="10"/></g><g transform="translate(-110,-166) scale(1,1)"><g><path fill="none" stroke="none"/><text fill="#000000" stroke="none" font-family="Arial" font-size="13px" font-style="normal" font-weight="bold" text-decoration="none" x="463.129638671875" y="266.5">TTKM_GUI</text></g></g><g transform="translate(-110,-166) scale(1,1)"><g><path fill="none" stroke="none"/><text fill="#000000" stroke="none" font-family="Arial" font-size="13px" font-style="normal" font-weight="normal" text-decoration="none" x="429" y="299.5">+HienThiThongTinKM()</text></g></g><g transform="translate(-110,-166) scale(1,1)"><g><path fill="none" stroke="none"/><text fill="#000000" stroke="none" font-family="Arial" font-size="13px" font-style="normal" font-weight="normal" text-decoration="none" x="429" y="314.5">+ThemKM()</text></g></g><g transform="translate(-110,-166) scale(1,1)"><g><path fill="none" stroke="none"/><text fill="#000000" stroke="none" font-family="Arial" font-size="13px" font-style="normal" font-weight="normal" text-decoration="none" x="429" y="329.5">+SuaKM()</text></g></g><g transform="translate(-110,-166) scale(1,1)"><path fill="#ffffff" stroke="none" d="M 470.47373046875 419 C 470.47373046875 407.07064832 480.14437878875 397.4 492.07373046875 397.4 C 504.00308214875 397.4 513.67373046875 407.07064832 513.67373046875 419 C 513.67373046875 430.92935168 504.00308214875 440.6 492.07373046875 440.6 C 480.14437878875 440.6 470.47373046875 430.92935168 470.47373046875 419 Z"/></g><g transform="translate(-110,-166) scale(1,1)"><path fill="none" stroke="#000000" d="M 470.47373046875 419 C 470.47373046875 407.07064832 480.14437878875 397.4 492.07373046875 397.4 C 504.00308214875 397.4 513.67373046875 407.07064832 513.67373046875 419 C 513.67373046875 430.92935168 504.00308214875 440.6 492.07373046875 440.6 C 480.14437878875 440.6 470.47373046875 430.92935168 470.47373046875 419 Z" stroke-miterlimit="10"/></g><g transform="translate(-110,-166) scale(1,1)"><path fill="none" stroke="#000000" d="M 470.47373046875 440.6 L 513.67373046875 440.6" stroke-miterlimit="10"/></g><g transform="translate(-110,-166) scale(1,1)"><path fill="none" stroke="#000000" d="M 432 471 L 552.1474609375 471" stroke-miterlimit="10"/></g><g transform="translate(-110,-166) scale(1,1)"><path fill="none" stroke="#000000" d="M 432 539 L 552.1474609375 539" stroke-miterlimit="10"/></g><g transform="translate(-110,-166) scale(1,1)"><g><path fill="none" stroke="none"/><text fill="#000000" stroke="none" font-family="Arial" font-size="13px" font-style="normal" font-weight="bold" text-decoration="none" x="453.42919921875" y="465.5">KHUYENMAI</text></g></g><g transform="translate(-110,-166) scale(1,1)"><g><path fill="none" stroke="none"/><text fill="#000000" stroke="none" font-family="Arial" font-size="13px" font-style="normal" font-weight="normal" text-decoration="none" x="437" y="488.5">+MaKM: String</text></g></g><g transform="translate(-110,-166) scale(1,1)"><g><path fill="none" stroke="none"/><text fill="#000000" stroke="none" font-family="Arial" font-size="13px" font-style="normal" font-weight="normal" text-decoration="none" x="437" y="503.5">+NoiDung: String</text></g></g><g transform="translate(-110,-166) scale(1,1)"><g><path fill="none" stroke="none"/><text fill="#000000" stroke="none" font-family="Arial" font-size="13px" font-style="normal" font-weight="normal" text-decoration="none" x="437" y="518.5">+DinhMuc: Float</text></g></g><g transform="translate(-110,-166) scale(1,1)"><g><path fill="none" stroke="none"/><text fill="#000000" stroke="none" font-family="Arial" font-size="13px" font-style="normal" font-weight="normal" text-decoration="none" x="437" y="533.5">+PhanTram: Float</text></g></g><g transform="translate(-110,-166) scale(1,1)"><g><path fill="none" stroke="none"/><text fill="#000000" stroke="none" font-family="Arial" font-size="13px" font-style="normal" font-weight="normal" text-decoration="none" x="437" y="556.5">+LayDSKM()</text></g></g><g transform="translate(-110,-166) scale(1,1)"><g><path fill="none" stroke="none"/><text fill="#000000" stroke="none" font-family="Arial" font-size="13px" font-style="normal" font-weight="normal" text-decoration="none" x="437" y="571.5">+ThemKM()</text></g></g><g transform="translate(-110,-166) scale(1,1)"><g><path fill="none" stroke="none"/><text fill="#000000" stroke="none" font-family="Arial" font-size="13px" font-style="normal" font-weight="normal" text-decoration="none" x="437" y="586.5">+TimKM()</text></g></g><g transform="translate(-110,-166) scale(1,1)"><g><path fill="none" stroke="none"/><text fill="#000000" stroke="none" font-family="Arial" font-size="13px" font-style="normal" font-weight="normal" text-decoration="none" x="437" y="601.5">+XoaKM()</text></g></g><g transform="translate(-110,-166) scale(1,1)"><g><path fill="none" stroke="none"/><text fill="#000000" stroke="none" font-family="Arial" font-size="13px" font-style="normal" font-weight="normal" text-decoration="none" x="437" y="616.5">+SuaKM()</text></g></g><g transform="translate(-110,-166) scale(1,1)"><g><path fill="none" stroke="none"/><text fill="#000000" stroke="none" font-family="Arial" font-size="13px" font-style="normal" font-weight="normal" text-decoration="none" x="437" y="631.5">+LayThongTinKM()</text></g></g><g transform="translate(-110,-166) scale(1,1)"><path fill="none" stroke="#000000" d="M 187 334 L 188 391" stroke-miterlimit="10"/></g><g transform="translate(-110,-166) scale(1,1)"><path fill="none" stroke="#000000" d="M 257 486 L 431 507" stroke-miterlimit="10" stroke-dasharray="3"/></g><g transform="translate(-110,-166) scale(1,1)"><path fill="none" stroke="#000000" d="M 420.40615589305196 509.9614974316521 L 431 507 L 421.41492607675616 501.60311590953165" stroke-miterlimit="10"/></g><g transform="translate(-110,-166) scale(1,1)"><path fill="none" stroke="#000000" d="M 423 320 L 257 431" stroke-miterlimit="10"/></g></g></svg>