<svg version="1.1" xmlns="http://www.w3.org/2000/svg" xmlns:xlink="http://www.w3.org/1999/xlink" width="884" height="964"><defs/><g><g transform="translate(-94,-30) scale(1,1)"><path fill="#ffffff" stroke="none" d="M 163.4717879971591 47.3 C 163.4717879971591 43.82060576 166.3501897193409 41 169.90087890625 41 C 173.4515680931591 41 176.32996981534092 43.82060576 176.32996981534092 47.3 C 176.32996981534092 50.779394239999995 173.4515680931591 53.6 169.90087890625 53.6 C 166.3501897193409 53.6 163.4717879971591 50.779394239999995 163.4717879971591 47.3 Z"/></g><g transform="translate(-94,-30) scale(1,1)"><path fill="none" stroke="#000000" d="M 163.4717879971591 47.3 C 163.4717879971591 43.82060576 166.3501897193409 41 169.90087890625 41 C 173.4515680931591 41 176.32996981534092 43.82060576 176.32996981534092 47.3 C 176.32996981534092 50.779394239999995 173.4515680931591 53.6 169.90087890625 53.6 C 166.3501897193409 53.6 163.4717879971591 50.779394239999995 163.4717879971591 47.3 Z" stroke-miterlimit="10"/></g><g transform="translate(-94,-30) scale(1,1)"><path fill="none" stroke="#000000" d="M 169.90087890625 53.6 L 169.90087890625 66.4" stroke-miterlimit="10"/></g><g transform="translate(-94,-30) scale(1,1)"><path fill="none" stroke="#000000" d="M 163.0936061789773 58.4 L 176.70815163352273 58.4" stroke-miterlimit="10"/></g><g transform="translate(-94,-30) scale(1,1)"><path fill="none" stroke="#000000" d="M 169.90087890625 66.4 L 160.44633345170456 79" stroke-miterlimit="10"/></g><g transform="translate(-94,-30) scale(1,1)"><path fill="none" stroke="#000000" d="M 169.90087890625 66.4 L 179.35542436079547 79" stroke-miterlimit="10"/></g><g transform="translate(-94,-30) scale(1,1)"><g><path fill="none" stroke="none"/><text fill="#000000" stroke="none" font-family="Arial" font-size="13px" font-style="normal" font-weight="bold" text-decoration="none" x="137.02001953125" y="99.5">: Nhân viên</text></g></g><g transform="translate(-94,-30) scale(1,1)"><path fill="none" stroke="#000000" d="M 170.5 105 L 170.5 984" stroke-miterlimit="10" stroke-dasharray="3"/></g><g transform="translate(-94,-30) scale(1,1)"><path fill="#ffffff" stroke="none" d="M 321.14453125 60 C 321.14453125 51.1634432 328.30797445 44 337.14453125 44 C 345.98108805 44 353.14453125 51.1634432 353.14453125 60 C 353.14453125 68.8365568 345.98108805 76 337.14453125 76 C 328.30797445 76 321.14453125 68.8365568 321.14453125 60 Z"/></g><g transform="translate(-94,-30) scale(1,1)"><path fill="none" stroke="#000000" d="M 321.14453125 60 C 321.14453125 51.1634432 328.30797445 44 337.14453125 44 C 345.98108805 44 353.14453125 51.1634432 353.14453125 60 C 353.14453125 68.8365568 345.98108805 76 337.14453125 76 C 328.30797445 76 321.14453125 68.8365568 321.14453125 60 Z" stroke-miterlimit="10"/></g><g transform="translate(-94,-30) scale(1,1)"><path fill="none" stroke="#000000" d="M 313.14453125 44 L 313.14453125 76" stroke-miterlimit="10"/></g><g transform="translate(-94,-30) scale(1,1)"><path fill="none" stroke="#000000" d="M 313.14453125 60 L 321.14453125 60" stroke-miterlimit="10"/></g><g transform="translate(-94,-30) scale(1,1)"><g><path fill="none" stroke="none"/><text fill="#000000" stroke="none" font-family="Arial" font-size="13px" font-style="normal" font-weight="bold" text-decoration="none" x="295.94091796875" y="99.5">: QLKM_GUI</text></g></g><g transform="translate(-94,-30) scale(1,1)"><path fill="none" stroke="#000000" d="M 334.5 105 L 334.5 984" stroke-miterlimit="10" stroke-dasharray="3"/></g><g transform="translate(-94,-30) scale(1,1)"><path fill="#ffffff" stroke="none" d="M 448.05908203125 60 C 448.05908203125 51.1634432 455.22252523125 44 464.05908203125 44 C 472.89563883125 44 480.05908203125 51.1634432 480.05908203125 60 C 480.05908203125 68.8365568 472.89563883125 76 464.05908203125 76 C 455.22252523125 76 448.05908203125 68.8365568 448.05908203125 60 Z"/></g><g transform="translate(-94,-30) scale(1,1)"><path fill="none" stroke="#000000" d="M 448.05908203125 60 C 448.05908203125 51.1634432 455.22252523125 44 464.05908203125 44 C 472.89563883125 44 480.05908203125 51.1634432 480.05908203125 60 C 480.05908203125 68.8365568 472.89563883125 76 464.05908203125 76 C 455.22252523125 76 448.05908203125 68.8365568 448.05908203125 60 Z" stroke-miterlimit="10"/></g><g transform="translate(-94,-30) scale(1,1)"><path fill="none" stroke="#000000" d="M 440.05908203125 44 L 440.05908203125 76" stroke-miterlimit="10"/></g><g transform="translate(-94,-30) scale(1,1)"><path fill="none" stroke="#000000" d="M 440.05908203125 60 L 448.05908203125 60" stroke-miterlimit="10"/></g><g transform="translate(-94,-30) scale(1,1)"><g><path fill="none" stroke="none"/><text fill="#000000" stroke="none" font-family="Arial" font-size="13px" font-style="normal" font-weight="bold" text-decoration="none" x="423.58544921875" y="99.5">: TTKM_GUI</text></g></g><g transform="translate(-94,-30) scale(1,1)"><path fill="none" stroke="#000000" d="M 461.5 105 L 461.5 984" stroke-miterlimit="10" stroke-dasharray="3"/></g><g transform="translate(-94,-30) scale(1,1)"><path fill="#ffffff" stroke="none" d="M 609.64453125 60 C 609.64453125 51.715728 616.36025925 45 624.64453125 45 C 632.92880325 45 639.64453125 51.715728 639.64453125 60 C 639.64453125 68.284272 632.92880325 75 624.64453125 75 C 616.36025925 75 609.64453125 68.284272 609.64453125 60 Z"/></g><g transform="translate(-94,-30) scale(1,1)"><path fill="none" stroke="#000000" d="M 609.64453125 60 C 609.64453125 51.715728 616.36025925 45 624.64453125 45 C 632.92880325 45 639.64453125 51.715728 639.64453125 60 C 639.64453125 68.284272 632.92880325 75 624.64453125 75 C 616.36025925 75 609.64453125 68.284272 609.64453125 60 Z" stroke-miterlimit="10"/></g><g transform="translate(-94,-30) scale(1,1)"><path fill="none" stroke="#000000" d="M 624.64453125 45 L 629.64453125 40" stroke-miterlimit="10"/></g><g transform="translate(-94,-30) scale(1,1)"><path fill="none" stroke="#000000" d="M 624.64453125 45 L 629.64453125 50" stroke-miterlimit="10"/></g><g transform="translate(-94,-30) scale(1,1)"><g><path fill="none" stroke="none"/><text fill="#000000" stroke="none" font-family="Arial" font-size="13px" font-style="normal" font-weight="bold" text-decoration="none" x="570.819580078125" y="99.5">: Controller_QLKM</text></g></g><g transform="translate(-94,-30) scale(1,1)"><path fill="none" stroke="#000000" d="M 625.5 105 L 625.5 984" stroke-miterlimit="10" stroke-dasharray="3"/></g><g transform="translate(-94,-30) scale(1,1)"><path fill="#ffffff" stroke="none" d="M 770.200439453125 60 C 770.200439453125 51.1634432 777.363882653125 44 786.200439453125 44 C 795.036996253125 44 802.200439453125 51.1634432 802.200439453125 60 C 802.200439453125 68.8365568 795.036996253125 76 786.200439453125 76 C 777.363882653125 76 770.200439453125 68.8365568 770.200439453125 60 Z"/></g><g transform="translate(-94,-30) scale(1,1)"><path fill="none" stroke="#000000" d="M 770.200439453125 60 C 770.200439453125 51.1634432 777.363882653125 44 786.200439453125 44 C 795.036996253125 44 802.200439453125 51.1634432 802.200439453125 60 C 802.200439453125 68.8365568 795.036996253125 76 786.200439453125 76 C 777.363882653125 76 770.200439453125 68.8365568 770.200439453125 60 Z" stroke-miterlimit="10"/></g><g transform="translate(-94,-30) scale(1,1)"><path fill="none" stroke="#000000" d="M 770.200439453125 76 L 802.200439453125 76" stroke-miterlimit="10"/></g><g transform="translate(-94,-30) scale(1,1)"><g><path fill="none" stroke="none"/><text fill="#000000" stroke="none" font-family="Arial" font-size="13px" font-style="normal" font-weight="bold" text-decoration="none" x="743.944091796875" y="99.5">: KHUYENMAI</text></g></g><g transform="translate(-94,-30) scale(1,1)"><path fill="none" stroke="#000000" d="M 787.5 105 L 787.5 984" stroke-miterlimit="10" stroke-dasharray="3"/></g><g transform="translate(-94,-30) scale(1,1)"><path fill="none" stroke="#000000" d="M 170 176 L 334 176" stroke-miterlimit="10"/></g><g transform="translate(-94,-30) scale(1,1)"><path fill="#000000" stroke="none" d="M 323.83732514237585 180.209517756016 L 334 176 L 323.83732514237585 171.790482243984"/></g><g transform="translate(-94,-30) scale(1,1)"><path fill="none" stroke="#000000" d="M 323.83732514237585 180.209517756016 L 334 176 L 323.83732514237585 171.790482243984 L 323.83732514237585 180.209517756016" stroke-miterlimit="10"/></g><g transform="translate(-94,-30) scale(1,1)"><g><path fill="none" stroke="none"/><text fill="#000000" stroke="none" font-family="Arial" font-size="13px" font-style="normal" font-weight="normal" text-decoration="none" x="175.752197265625" y="172.5">1 : Chọn thông tin cần sửa</text></g></g><g transform="translate(-94,-30) scale(1,1)"><path fill="none" stroke="#000000" d="M 625 182 L 787 182" stroke-miterlimit="10"/></g><g transform="translate(-94,-30) scale(1,1)"><path fill="#000000" stroke="none" d="M 776.8373251423759 186.209517756016 L 787 182 L 776.8373251423758 177.790482243984"/></g><g transform="translate(-94,-30) scale(1,1)"><path fill="none" stroke="#000000" d="M 776.8373251423759 186.209517756016 L 787 182 L 776.8373251423758 177.790482243984 L 776.8373251423759 186.209517756016" stroke-miterlimit="10"/></g><g transform="translate(-94,-30) scale(1,1)"><g><path fill="none" stroke="none"/><text fill="#000000" stroke="none" font-family="Arial" font-size="13px" font-style="normal" font-weight="normal" text-decoration="none" x="637.978759765625" y="171.5">2 : Lấy thông tin khuyến</text><text fill="#000000" stroke="none" font-family="Arial" font-size="13px" font-style="normal" font-weight="normal" text-decoration="none" x="671.589599609375" y="184.5">mãi đã chọn</text></g></g><g transform="translate(-94,-30) scale(1,1)"><path fill="none" stroke="#000000" d="M 461 208 L 491 208 L 491 228 L 461 228" stroke-miterlimit="10"/></g><g transform="translate(-94,-30) scale(1,1)"><path fill="#000000" stroke="none" d="M 471.16267485762415 223.790482243984 L 461 228 L 471.16267485762415 232.209517756016"/></g><g transform="translate(-94,-30) scale(1,1)"><path fill="none" stroke="#000000" d="M 471.16267485762415 223.790482243984 L 461 228 L 471.16267485762415 232.209517756016 L 471.16267485762415 223.790482243984" stroke-miterlimit="10"/></g><g transform="translate(-94,-30) scale(1,1)"><g><path fill="none" stroke="none"/><text fill="#000000" stroke="none" font-family="Arial" font-size="13px" font-style="normal" font-weight="normal" text-decoration="none" x="495.685546875" y="218.5">3 : Hiển thị thông tin</text><text fill="#000000" stroke="none" font-family="Arial" font-size="13px" font-style="normal" font-weight="normal" text-decoration="none" x="494.952392578125" y="231.5">khuyến mãi cần sửa</text></g></g><g transform="translate(-94,-30) scale(1,1)"><path fill="none" stroke="#000000" d="M 170 336 L 461 336" stroke-miterlimit="10"/></g><g transform="translate(-94,-30) scale(1,1)"><path fill="#000000" stroke="none" d="M 450.83732514237585 340.209517756016 L 461 336 L 450.83732514237585 331.790482243984"/></g><g transform="translate(-94,-30) scale(1,1)"><path fill="none" stroke="#000000" d="M 450.83732514237585 340.209517756016 L 461 336 L 450.83732514237585 331.790482243984 L 450.83732514237585 340.209517756016" stroke-miterlimit="10"/></g><g transform="translate(-94,-30) scale(1,1)"><g><path fill="none" stroke="none"/><text fill="#000000" stroke="none" font-family="Arial" font-size="13px" font-style="normal" font-weight="normal" text-decoration="none" x="219.5" y="332.5">4 : Thay đổi thông tin khuyến mãi</text></g></g><g transform="translate(-94,-30) scale(1,1)"><path fill="none" stroke="#000000" d="M 461 368 L 625 368" stroke-miterlimit="10"/></g><g transform="translate(-94,-30) scale(1,1)"><path fill="#000000" stroke="none" d="M 614.8373251423759 372.209517756016 L 625 368 L 614.8373251423758 363.790482243984"/></g><g transform="translate(-94,-30) scale(1,1)"><path fill="none" stroke="#000000" d="M 614.8373251423759 372.209517756016 L 625 368 L 614.8373251423758 363.790482243984 L 614.8373251423759 372.209517756016" stroke-miterlimit="10"/></g><g transform="translate(-94,-30) scale(1,1)"><g><path fill="none" stroke="none"/><text fill="#000000" stroke="none" font-family="Arial" font-size="13px" font-style="normal" font-weight="normal" text-decoration="none" x="497.671875" y="332.5">5 : Kiểm tra định</text><text fill="#000000" stroke="none" font-family="Arial" font-size="13px" font-style="normal" font-weight="normal" text-decoration="none" x="503.79736328125" y="345.5">dạng thông tin</text><text fill="#000000" stroke="none" font-family="Arial" font-size="13px" font-style="normal" font-weight="normal" text-decoration="none" x="511.760498046875" y="358.5">khuyến mãi</text></g></g><g transform="translate(-94,-30) scale(1,1)"><path fill="none" stroke="#000000" d="M 625 472 L 461 472" stroke-miterlimit="10" stroke-dasharray="3"/></g><g transform="translate(-94,-30) scale(1,1)"><path fill="none" stroke="#000000" d="M 471.16267485762415 467.790482243984 L 461 472 L 471.16267485762415 476.209517756016" stroke-miterlimit="10"/></g><g transform="translate(-94,-30) scale(1,1)"><g><path fill="none" stroke="none"/><text fill="#000000" stroke="none" font-family="Arial" font-size="13px" font-style="normal" font-weight="normal" text-decoration="none" x="469.025146484375" y="450.5">6 : Thông báo định dạng</text><text fill="#000000" stroke="none" font-family="Arial" font-size="13px" font-style="normal" font-weight="normal" text-decoration="none" x="501.626708984375" y="463.5">không hợp lệ</text></g></g><g transform="translate(-94,-30) scale(1,1)"><path fill="none" stroke="#000000" d="M 625 512 L 787 512" stroke-miterlimit="10"/></g><g transform="translate(-94,-30) scale(1,1)"><path fill="#000000" stroke="none" d="M 776.8373251423759 516.209517756016 L 787 512 L 776.8373251423758 507.790482243984"/></g><g transform="translate(-94,-30) scale(1,1)"><path fill="none" stroke="#000000" d="M 776.8373251423759 516.209517756016 L 787 512 L 776.8373251423758 507.790482243984 L 776.8373251423759 516.209517756016" stroke-miterlimit="10"/></g><g transform="translate(-94,-30) scale(1,1)"><g><path fill="none" stroke="none"/><text fill="#000000" stroke="none" font-family="Arial" font-size="13px" font-style="normal" font-weight="normal" text-decoration="none" x="633.35107421875" y="491.5">7 : Yêu cầu sửa thông tin</text><text fill="#000000" stroke="none" font-family="Arial" font-size="13px" font-style="normal" font-weight="normal" text-decoration="none" x="672.760498046875" y="504.5">khuyến mãi</text></g></g><g transform="translate(-94,-30) scale(1,1)"><path fill="none" stroke="#000000" d="M 787 576 L 817 576 L 817 596 L 787 596" stroke-miterlimit="10"/></g><g transform="translate(-94,-30) scale(1,1)"><path fill="#000000" stroke="none" d="M 797.1626748576241 591.790482243984 L 787 596 L 797.1626748576241 600.209517756016"/></g><g transform="translate(-94,-30) scale(1,1)"><path fill="none" stroke="#000000" d="M 797.1626748576241 591.790482243984 L 787 596 L 797.1626748576241 600.209517756016 L 797.1626748576241 591.790482243984" stroke-miterlimit="10"/></g><g transform="translate(-94,-30) scale(1,1)"><g><path fill="none" stroke="none"/><text fill="#000000" stroke="none" font-family="Arial" font-size="13px" font-style="normal" font-weight="normal" text-decoration="none" x="819.766845703125" y="572.5">8 : Kiểm tra</text><text fill="#000000" stroke="none" font-family="Arial" font-size="13px" font-style="normal" font-weight="normal" text-decoration="none" x="828.063232421875" y="585.5">thông tin</text><text fill="#000000" stroke="none" font-family="Arial" font-size="13px" font-style="normal" font-weight="normal" text-decoration="none" x="819.760498046875" y="598.5">khuyến mãi</text></g></g><g transform="translate(-94,-30) scale(1,1)"><path fill="none" stroke="#000000" d="M 787 656 L 625 656" stroke-miterlimit="10" stroke-dasharray="3"/></g><g transform="translate(-94,-30) scale(1,1)"><path fill="none" stroke="#000000" d="M 635.1626748576241 651.790482243984 L 625 656 L 635.1626748576241 660.209517756016" stroke-miterlimit="10"/></g><g transform="translate(-94,-30) scale(1,1)"><g><path fill="none" stroke="none"/><text fill="#000000" stroke="none" font-family="Arial" font-size="13px" font-style="normal" font-weight="normal" text-decoration="none" x="646.5" y="651.5">9 : Thông báo lỗi</text></g></g><g transform="translate(-94,-30) scale(1,1)"><path fill="none" stroke="#000000" d="M 625 704 L 461 704" stroke-miterlimit="10" stroke-dasharray="3"/></g><g transform="translate(-94,-30) scale(1,1)"><path fill="none" stroke="#000000" d="M 471.16267485762415 699.790482243984 L 461 704 L 471.16267485762415 708.209517756016" stroke-miterlimit="10"/></g><g transform="translate(-94,-30) scale(1,1)"><g><path fill="none" stroke="none"/><text fill="#000000" stroke="none" font-family="Arial" font-size="13px" font-style="normal" font-weight="normal" text-decoration="none" x="488.5" y="699.5">10 : Thông báo lỗi</text></g></g><g transform="translate(-94,-30) scale(1,1)"><path fill="none" stroke="#000000" d="M 787 824 L 817 824 L 817 844 L 787 844" stroke-miterlimit="10"/></g><g transform="translate(-94,-30) scale(1,1)"><path fill="#000000" stroke="none" d="M 797.1626748576241 839.790482243984 L 787 844 L 797.1626748576241 848.209517756016"/></g><g transform="translate(-94,-30) scale(1,1)"><path fill="none" stroke="#000000" d="M 797.1626748576241 839.790482243984 L 787 844 L 797.1626748576241 848.209517756016 L 797.1626748576241 839.790482243984" stroke-miterlimit="10"/></g><g transform="translate(-94,-30) scale(1,1)"><g><path fill="none" stroke="none"/><text fill="#000000" stroke="none" font-family="Arial" font-size="13px" font-style="normal" font-weight="normal" text-decoration="none" x="828.155517578125" y="828.5">11 : Lưu</text><text fill="#000000" stroke="none" font-family="Arial" font-size="13px" font-style="normal" font-weight="normal" text-decoration="none" x="826.96533203125" y="841.5">thông tin</text><text fill="#000000" stroke="none" font-family="Arial" font-size="13px" font-style="normal" font-weight="normal" text-decoration="none" x="818.66259765625" y="854.5">khuyến mãi</text></g></g><g transform="translate(-94,-30) scale(1,1)"><path fill="none" stroke="#000000" d="M 787 912 L 625 912" stroke-miterlimit="10" stroke-dasharray="3"/></g><g transform="translate(-94,-30) scale(1,1)"><path fill="none" stroke="#000000" d="M 635.1626748576241 907.790482243984 L 625 912 L 635.1626748576241 916.209517756016" stroke-miterlimit="10"/></g><g transform="translate(-94,-30) scale(1,1)"><g><path fill="none" stroke="none"/><text fill="#000000" stroke="none" font-family="Arial" font-size="13px" font-style="normal" font-weight="normal" text-decoration="none" x="615.5" y="900.5">12 : Thông báo sửa thành công</text></g></g><g transform="translate(-94,-30) scale(1,1)"><rect fill="#ffffff" stroke="none" x="144" y="120" width="800" height="29"/></g><g transform="translate(-94,-30) scale(1,1)"><path fill="none" stroke="#000000" d="M 144 120 L 944 120 L 944 149 L 144 149 L 144 120 Z Z" stroke-miterlimit="10"/></g><g transform="translate(-94,-30) scale(1,1)"><path fill="none" stroke="#000000" d="M 144 120 L 144 142 L 169.1708984375 142 L 180.1708984375 131 L 180.1708984375 120 L 144 120 L 144 120" stroke-miterlimit="10"/></g><g transform="translate(-94,-30) scale(1,1)"><g><path fill="none" stroke="none"/><text fill="#000000" stroke="none" font-family="Arial" font-size="13px" font-style="normal" font-weight="normal" text-decoration="none" x="434.913330078125" y="137.5">: Sequence - Tìm kiếm thông tin khuyến mãi</text></g></g><g transform="translate(-94,-30) scale(1,1)"><g><path fill="none" stroke="none"/><text fill="#000000" stroke="none" font-family="Arial" font-size="13px" font-style="normal" font-weight="bold" text-decoration="none" x="149" y="137.5">ref</text></g></g><g transform="translate(-94,-30) scale(1,1)"><path fill="none" stroke="#000000" d="M 625 952 L 334 952" stroke-miterlimit="10" stroke-dasharray="3"/></g><g transform="translate(-94,-30) scale(1,1)"><path fill="none" stroke="#000000" d="M 344.16267485762415 947.790482243984 L 334 952 L 344.16267485762415 956.209517756016" stroke-miterlimit="10"/></g><g transform="translate(-94,-30) scale(1,1)"><g><path fill="none" stroke="none"/><text fill="#000000" stroke="none" font-family="Arial" font-size="13px" font-style="normal" font-weight="normal" text-decoration="none" x="376.105224609375" y="930.5">13 : Thông báo sửa thành công và</text><text fill="#000000" stroke="none" font-family="Arial" font-size="13px" font-style="normal" font-weight="normal" text-decoration="none" x="387.69287109375" y="943.5">hiển thị danh sách khuyến mãi</text></g></g><g transform="translate(-94,-30) scale(1,1)"><path fill="none" stroke="#000000" d="M 280 384 L 928 384 L 928 768 L 280 768 L 280 384" stroke-miterlimit="10"/></g><g transform="translate(-94,-30) scale(1,1)"><path fill="#ffffff" stroke="none" d="M 280 384 L 280 406 L 309.72998046875 406 L 320.72998046875 395 L 320.72998046875 384 L 280 384"/></g><g transform="translate(-94,-30) scale(1,1)"><path fill="none" stroke="#000000" d="M 280 384 L 280 406 L 309.72998046875 406 L 320.72998046875 395 L 320.72998046875 384 L 280 384 L 280 384" stroke-miterlimit="10"/></g><g transform="translate(-94,-30) scale(1,1)"><g><path fill="none" stroke="none"/><text fill="#000000" stroke="none" font-family="Arial" font-size="13px" font-style="normal" font-weight="bold" text-decoration="none" x="285" y="401.5">alt</text></g></g><g transform="translate(-94,-30) scale(1,1)"><g><path fill="none" stroke="none"/><text fill="#000000" stroke="none" font-family="Arial" font-size="13px" font-style="normal" font-weight="normal" text-decoration="none" x="299.5" y="434.5">[Định dạng không hợp lệ]</text></g></g><g transform="translate(-94,-30) scale(1,1)"><path fill="none" stroke="#000000" d="M 280 537 L 928 537" stroke-miterlimit="10" stroke-dasharray="10,3"/></g><g transform="translate(-94,-30) scale(1,1)"><g><path fill="none" stroke="none"/><text fill="#000000" stroke="none" font-family="Arial" font-size="13px" font-style="normal" font-weight="normal" text-decoration="none" x="299.5" y="564.5">[Định dạng hợp lệ]</text></g></g><g transform="translate(-94,-30) scale(1,1)"><path fill="none" stroke="#000000" d="M 304 616 L 888 616 L 888 736 L 304 736 L 304 616" stroke-miterlimit="10"/></g><g transform="translate(-94,-30) scale(1,1)"><path fill="#ffffff" stroke="none" d="M 304 616 L 304 638 L 333.72998046875 638 L 344.72998046875 627 L 344.72998046875 616 L 304 616"/></g><g transform="translate(-94,-30) scale(1,1)"><path fill="none" stroke="#000000" d="M 304 616 L 304 638 L 333.72998046875 638 L 344.72998046875 627 L 344.72998046875 616 L 304 616 L 304 616" stroke-miterlimit="10"/></g><g transform="translate(-94,-30) scale(1,1)"><g><path fill="none" stroke="none"/><text fill="#000000" stroke="none" font-family="Arial" font-size="13px" font-style="normal" font-weight="bold" text-decoration="none" x="309" y="633.5">alt</text></g></g><g transform="translate(-94,-30) scale(1,1)"><g><path fill="none" stroke="none"/><text fill="#000000" stroke="none" font-family="Arial" font-size="13px" font-style="normal" font-weight="normal" text-decoration="none" x="323.5" y="666.5">[Không hợp lệ]</text></g></g><g transform="translate(-94,-30) scale(1,1)"><path fill="none" stroke="#000000" d="M 128 240 L 968 240 L 968 792 L 128 792 L 128 240" stroke-miterlimit="10"/></g><g transform="translate(-94,-30) scale(1,1)"><path fill="#ffffff" stroke="none" d="M 128 240 L 128 262 L 168.578125 262 L 179.578125 251 L 179.578125 240 L 128 240"/></g><g transform="translate(-94,-30) scale(1,1)"><path fill="none" stroke="#000000" d="M 128 240 L 128 262 L 168.578125 262 L 179.578125 251 L 179.578125 240 L 128 240 L 128 240" stroke-miterlimit="10"/></g><g transform="translate(-94,-30) scale(1,1)"><g><path fill="none" stroke="none"/><text fill="#000000" stroke="none" font-family="Arial" font-size="13px" font-style="normal" font-weight="bold" text-decoration="none" x="133" y="257.5">loop</text></g></g><g transform="translate(-94,-30) scale(1,1)"><g><path fill="none" stroke="none"/><text fill="#000000" stroke="none" font-family="Arial" font-size="13px" font-style="normal" font-weight="normal" text-decoration="none" x="147.5" y="290.5">[Chưa sửa thành công]</text></g></g></g></svg>