<svg version="1.1" xmlns="http://www.w3.org/2000/svg" xmlns:xlink="http://www.w3.org/1999/xlink" width="787.36376953125" height="596"><defs/><g><g transform="translate(2,-30) scale(1,1)"><path fill="#ffffff" stroke="none" d="M 67.4717879971591 47.3 C 67.4717879971591 43.82060576 70.35018971934092 41 73.90087890625 41 C 77.45156809315908 41 80.3299698153409 43.82060576 80.3299698153409 47.3 C 80.3299698153409 50.779394239999995 77.45156809315908 53.6 73.90087890625 53.6 C 70.35018971934092 53.6 67.4717879971591 50.779394239999995 67.4717879971591 47.3 Z"/></g><g transform="translate(2,-30) scale(1,1)"><path fill="none" stroke="#000000" d="M 67.4717879971591 47.3 C 67.4717879971591 43.82060576 70.35018971934092 41 73.90087890625 41 C 77.45156809315908 41 80.3299698153409 43.82060576 80.3299698153409 47.3 C 80.3299698153409 50.779394239999995 77.45156809315908 53.6 73.90087890625 53.6 C 70.35018971934092 53.6 67.4717879971591 50.779394239999995 67.4717879971591 47.3 Z" stroke-miterlimit="10"/></g><g transform="translate(2,-30) scale(1,1)"><path fill="none" stroke="#000000" d="M 73.90087890625 53.6 L 73.90087890625 66.4" stroke-miterlimit="10"/></g><g transform="translate(2,-30) scale(1,1)"><path fill="none" stroke="#000000" d="M 67.09360617897727 58.4 L 80.70815163352273 58.4" stroke-miterlimit="10"/></g><g transform="translate(2,-30) scale(1,1)"><path fill="none" stroke="#000000" d="M 73.90087890625 66.4 L 64.44633345170455 79" stroke-miterlimit="10"/></g><g transform="translate(2,-30) scale(1,1)"><path fill="none" stroke="#000000" d="M 73.90087890625 66.4 L 83.35542436079545 79" stroke-miterlimit="10"/></g><g transform="translate(2,-30) scale(1,1)"><g><path fill="none" stroke="none"/><text fill="#000000" stroke="none" font-family="Arial" font-size="13px" font-style="normal" font-weight="bold" text-decoration="none" x="41.02001953125" y="99.5">: Nhân viên</text></g></g><g transform="translate(2,-30) scale(1,1)"><path fill="none" stroke="#000000" d="M 74.5 105 L 74.5 616" stroke-miterlimit="10" stroke-dasharray="3"/></g><g transform="translate(2,-30) scale(1,1)"><path fill="#ffffff" stroke="none" d="M 241.14453125 60 C 241.14453125 51.1634432 248.30797445 44 257.14453125 44 C 265.98108805 44 273.14453125 51.1634432 273.14453125 60 C 273.14453125 68.8365568 265.98108805 76 257.14453125 76 C 248.30797445 76 241.14453125 68.8365568 241.14453125 60 Z"/></g><g transform="translate(2,-30) scale(1,1)"><path fill="none" stroke="#000000" d="M 241.14453125 60 C 241.14453125 51.1634432 248.30797445 44 257.14453125 44 C 265.98108805 44 273.14453125 51.1634432 273.14453125 60 C 273.14453125 68.8365568 265.98108805 76 257.14453125 76 C 248.30797445 76 241.14453125 68.8365568 241.14453125 60 Z" stroke-miterlimit="10"/></g><g transform="translate(2,-30) scale(1,1)"><path fill="none" stroke="#000000" d="M 233.14453125 44 L 233.14453125 76" stroke-miterlimit="10"/></g><g transform="translate(2,-30) scale(1,1)"><path fill="none" stroke="#000000" d="M 233.14453125 60 L 241.14453125 60" stroke-miterlimit="10"/></g><g transform="translate(2,-30) scale(1,1)"><g><path fill="none" stroke="none"/><text fill="#000000" stroke="none" font-family="Arial" font-size="13px" font-style="normal" font-weight="bold" text-decoration="none" x="215.94091796875" y="99.5">: QLKM_GUI</text></g></g><g transform="translate(2,-30) scale(1,1)"><path fill="none" stroke="#000000" d="M 254.5 105 L 254.5 616" stroke-miterlimit="10" stroke-dasharray="3"/></g><g transform="translate(2,-30) scale(1,1)"><path fill="#ffffff" stroke="none" d="M 433.64453125 60 C 433.64453125 51.715728 440.36025925 45 448.64453125 45 C 456.92880325 45 463.64453125 51.715728 463.64453125 60 C 463.64453125 68.284272 456.92880325 75 448.64453125 75 C 440.36025925 75 433.64453125 68.284272 433.64453125 60 Z"/></g><g transform="translate(2,-30) scale(1,1)"><path fill="none" stroke="#000000" d="M 433.64453125 60 C 433.64453125 51.715728 440.36025925 45 448.64453125 45 C 456.92880325 45 463.64453125 51.715728 463.64453125 60 C 463.64453125 68.284272 456.92880325 75 448.64453125 75 C 440.36025925 75 433.64453125 68.284272 433.64453125 60 Z" stroke-miterlimit="10"/></g><g transform="translate(2,-30) scale(1,1)"><path fill="none" stroke="#000000" d="M 448.64453125 45 L 453.64453125 40" stroke-miterlimit="10"/></g><g transform="translate(2,-30) scale(1,1)"><path fill="none" stroke="#000000" d="M 448.64453125 45 L 453.64453125 50" stroke-miterlimit="10"/></g><g transform="translate(2,-30) scale(1,1)"><g><path fill="none" stroke="none"/><text fill="#000000" stroke="none" font-family="Arial" font-size="13px" font-style="normal" font-weight="bold" text-decoration="none" x="394.819580078125" y="99.5">: Controller_QLKM</text></g></g><g transform="translate(2,-30) scale(1,1)"><path fill="none" stroke="#000000" d="M 449.5 105 L 449.5 616" stroke-miterlimit="10" stroke-dasharray="3"/></g><g transform="translate(2,-30) scale(1,1)"><path fill="#ffffff" stroke="none" d="M 634.200439453125 60 C 634.200439453125 51.1634432 641.363882653125 44 650.200439453125 44 C 659.036996253125 44 666.200439453125 51.1634432 666.200439453125 60 C 666.200439453125 68.8365568 659.036996253125 76 650.200439453125 76 C 641.363882653125 76 634.200439453125 68.8365568 634.200439453125 60 Z"/></g><g transform="translate(2,-30) scale(1,1)"><path fill="none" stroke="#000000" d="M 634.200439453125 60 C 634.200439453125 51.1634432 641.363882653125 44 650.200439453125 44 C 659.036996253125 44 666.200439453125 51.1634432 666.200439453125 60 C 666.200439453125 68.8365568 659.036996253125 76 650.200439453125 76 C 641.363882653125 76 634.200439453125 68.8365568 634.200439453125 60 Z" stroke-miterlimit="10"/></g><g transform="translate(2,-30) scale(1,1)"><path fill="none" stroke="#000000" d="M 634.200439453125 76 L 666.200439453125 76" stroke-miterlimit="10"/></g><g transform="translate(2,-30) scale(1,1)"><g><path fill="none" stroke="none"/><text fill="#000000" stroke="none" font-family="Arial" font-size="13px" font-style="normal" font-weight="bold" text-decoration="none" x="607.944091796875" y="99.5">: KHUYENMAI</text></g></g><g transform="translate(2,-30) scale(1,1)"><path fill="none" stroke="#000000" d="M 651.5 105 L 651.5 616" stroke-miterlimit="10" stroke-dasharray="3"/></g><g transform="translate(2,-30) scale(1,1)"><path fill="none" stroke="#000000" d="M 74 192 L 254 192" stroke-miterlimit="10"/></g><g transform="translate(2,-30) scale(1,1)"><path fill="#000000" stroke="none" d="M 243.83732514237585 196.209517756016 L 254 192 L 243.83732514237585 187.790482243984"/></g><g transform="translate(2,-30) scale(1,1)"><path fill="none" stroke="#000000" d="M 243.83732514237585 196.209517756016 L 254 192 L 243.83732514237585 187.790482243984 L 243.83732514237585 196.209517756016" stroke-miterlimit="10"/></g><g transform="translate(2,-30) scale(1,1)"><g><path fill="none" stroke="none"/><text fill="#000000" stroke="none" font-family="Arial" font-size="13px" font-style="normal" font-weight="normal" text-decoration="none" x="86.5" y="188.5">1 : Nhập thông tin tìm kiếm</text></g></g><g transform="translate(2,-30) scale(1,1)"><path fill="none" stroke="#000000" d="M 254 240 L 449 240" stroke-miterlimit="10"/></g><g transform="translate(2,-30) scale(1,1)"><path fill="#000000" stroke="none" d="M 438.83732514237585 244.209517756016 L 449 240 L 438.83732514237585 235.790482243984"/></g><g transform="translate(2,-30) scale(1,1)"><path fill="none" stroke="#000000" d="M 438.83732514237585 244.209517756016 L 449 240 L 438.83732514237585 235.790482243984 L 438.83732514237585 244.209517756016" stroke-miterlimit="10"/></g><g transform="translate(2,-30) scale(1,1)"><g><path fill="none" stroke="none"/><text fill="#000000" stroke="none" font-family="Arial" font-size="13px" font-style="normal" font-weight="normal" text-decoration="none" x="273.5" y="236.5">2 : Xử lý thông tin tìm kiếm</text></g></g><g transform="translate(2,-30) scale(1,1)"><path fill="none" stroke="#000000" d="M 449 294 L 651 294" stroke-miterlimit="10"/></g><g transform="translate(2,-30) scale(1,1)"><path fill="#000000" stroke="none" d="M 640.8373251423759 298.209517756016 L 651 294 L 640.8373251423758 289.790482243984"/></g><g transform="translate(2,-30) scale(1,1)"><path fill="none" stroke="#000000" d="M 640.8373251423759 298.209517756016 L 651 294 L 640.8373251423758 289.790482243984 L 640.8373251423759 298.209517756016" stroke-miterlimit="10"/></g><g transform="translate(2,-30) scale(1,1)"><g><path fill="none" stroke="none"/><text fill="#000000" stroke="none" font-family="Arial" font-size="13px" font-style="normal" font-weight="normal" text-decoration="none" x="462.5" y="290.5">3 : Truy vấn thông tin tìm kiếm</text></g></g><g transform="translate(2,-30) scale(1,1)"><path fill="none" stroke="#000000" d="M 651 344 L 681 344 L 681 364 L 651 364" stroke-miterlimit="10"/></g><g transform="translate(2,-30) scale(1,1)"><path fill="#000000" stroke="none" d="M 661.1626748576241 359.790482243984 L 651 364 L 661.1626748576241 368.209517756016"/></g><g transform="translate(2,-30) scale(1,1)"><path fill="none" stroke="#000000" d="M 661.1626748576241 359.790482243984 L 651 364 L 661.1626748576241 368.209517756016 L 661.1626748576241 359.790482243984" stroke-miterlimit="10"/></g><g transform="translate(2,-30) scale(1,1)"><g><path fill="none" stroke="none"/><text fill="#000000" stroke="none" font-family="Arial" font-size="13px" font-style="normal" font-weight="normal" text-decoration="none" x="697.1044921875" y="348.5">4 : Truy vấn</text><text fill="#000000" stroke="none" font-family="Arial" font-size="13px" font-style="normal" font-weight="normal" text-decoration="none" x="695.412841796875" y="361.5">thông tin tìm</text><text fill="#000000" stroke="none" font-family="Arial" font-size="13px" font-style="normal" font-weight="normal" text-decoration="none" x="717.458251953125" y="374.5">kiếm</text></g></g><g transform="translate(2,-30) scale(1,1)"><path fill="none" stroke="#000000" d="M 651 416 L 449 416" stroke-miterlimit="10" stroke-dasharray="3"/></g><g transform="translate(2,-30) scale(1,1)"><path fill="none" stroke="#000000" d="M 459.16267485762415 411.790482243984 L 449 416 L 459.16267485762415 420.209517756016" stroke-miterlimit="10"/></g><g transform="translate(2,-30) scale(1,1)"><g><path fill="none" stroke="none"/><text fill="#000000" stroke="none" font-family="Arial" font-size="13px" font-style="normal" font-weight="normal" text-decoration="none" x="465.5" y="404.5">5 : Thông báo không tìm thấy</text></g></g><g transform="translate(2,-30) scale(1,1)"><path fill="none" stroke="#000000" d="M 449 472 L 254 472" stroke-miterlimit="10" stroke-dasharray="3"/></g><g transform="translate(2,-30) scale(1,1)"><path fill="none" stroke="#000000" d="M 264.16267485762415 467.790482243984 L 254 472 L 264.16267485762415 476.209517756016" stroke-miterlimit="10"/></g><g transform="translate(2,-30) scale(1,1)"><g><path fill="none" stroke="none"/><text fill="#000000" stroke="none" font-family="Arial" font-size="13px" font-style="normal" font-weight="normal" text-decoration="none" x="255.775146484375" y="450.5">6 : Thông báo không tìm thấy và</text><text fill="#000000" stroke="none" font-family="Arial" font-size="13px" font-style="normal" font-weight="normal" text-decoration="none" x="261.19287109375" y="463.5">hiển thị danh sách khuyến mãi</text></g></g><g transform="translate(2,-30) scale(1,1)"><path fill="none" stroke="#000000" d="M 651 536 L 449 536" stroke-miterlimit="10" stroke-dasharray="3"/></g><g transform="translate(2,-30) scale(1,1)"><path fill="none" stroke="#000000" d="M 459.16267485762415 531.790482243984 L 449 536 L 459.16267485762415 540.209517756016" stroke-miterlimit="10"/></g><g transform="translate(2,-30) scale(1,1)"><g><path fill="none" stroke="none"/><text fill="#000000" stroke="none" font-family="Arial" font-size="13px" font-style="normal" font-weight="normal" text-decoration="none" x="458.5" y="532.5">7 : Thông báo truy vấn thành công</text></g></g><g transform="translate(2,-30) scale(1,1)"><path fill="none" stroke="#000000" d="M 449 584 L 254 584" stroke-miterlimit="10" stroke-dasharray="3"/></g><g transform="translate(2,-30) scale(1,1)"><path fill="none" stroke="#000000" d="M 264.16267485762415 579.790482243984 L 254 584 L 264.16267485762415 588.209517756016" stroke-miterlimit="10"/></g><g transform="translate(2,-30) scale(1,1)"><g><path fill="none" stroke="none"/><text fill="#000000" stroke="none" font-family="Arial" font-size="13px" font-style="normal" font-weight="normal" text-decoration="none" x="270.886962890625" y="557.5">8 : Thông báo truy vấn thành</text><text fill="#000000" stroke="none" font-family="Arial" font-size="13px" font-style="normal" font-weight="normal" text-decoration="none" x="274.50830078125" y="570.5">công và hiển thị kết quả tìm</text><text fill="#000000" stroke="none" font-family="Arial" font-size="13px" font-style="normal" font-weight="normal" text-decoration="none" x="340.2763671875" y="583.5">kiếm</text></g></g><g transform="translate(2,-30) scale(1,1)"><path fill="none" stroke="#000000" d="M 24 384 L 720 384 L 720 616 L 24 616 L 24 384" stroke-miterlimit="10"/></g><g transform="translate(2,-30) scale(1,1)"><path fill="#ffffff" stroke="none" d="M 24 384 L 24 406 L 53.72998046875 406 L 64.72998046875 395 L 64.72998046875 384 L 24 384"/></g><g transform="translate(2,-30) scale(1,1)"><path fill="none" stroke="#000000" d="M 24 384 L 24 406 L 53.72998046875 406 L 64.72998046875 395 L 64.72998046875 384 L 24 384 L 24 384" stroke-miterlimit="10"/></g><g transform="translate(2,-30) scale(1,1)"><g><path fill="none" stroke="none"/><text fill="#000000" stroke="none" font-family="Arial" font-size="13px" font-style="normal" font-weight="bold" text-decoration="none" x="29" y="401.5">alt</text></g></g><g transform="translate(2,-30) scale(1,1)"><g><path fill="none" stroke="none"/><text fill="#000000" stroke="none" font-family="Arial" font-size="13px" font-style="normal" font-weight="normal" text-decoration="none" x="43.5" y="434.5">[Không tìm thấy]</text></g></g><g transform="translate(2,-30) scale(1,1)"><path fill="none" stroke="#000000" d="M 24 505 L 720 505" stroke-miterlimit="10" stroke-dasharray="10,3"/></g><g transform="translate(2,-30) scale(1,1)"><g><path fill="none" stroke="none"/><text fill="#000000" stroke="none" font-family="Arial" font-size="13px" font-style="normal" font-weight="normal" text-decoration="none" x="43.5" y="532.5">[Tìm thấy]</text></g></g></g></svg>