<svg version="1.1" xmlns="http://www.w3.org/2000/svg" xmlns:xlink="http://www.w3.org/1999/xlink" width="868" height="900"><defs/><g><g transform="translate(-102,-30) scale(1,1)"><path fill="#ffffff" stroke="none" d="M 171.4717879971591 47.3 C 171.4717879971591 43.82060576 174.3501897193409 41 177.90087890625 41 C 181.4515680931591 41 184.32996981534092 43.82060576 184.32996981534092 47.3 C 184.32996981534092 50.779394239999995 181.4515680931591 53.6 177.90087890625 53.6 C 174.3501897193409 53.6 171.4717879971591 50.779394239999995 171.4717879971591 47.3 Z"/></g><g transform="translate(-102,-30) scale(1,1)"><path fill="none" stroke="#000000" d="M 171.4717879971591 47.3 C 171.4717879971591 43.82060576 174.3501897193409 41 177.90087890625 41 C 181.4515680931591 41 184.32996981534092 43.82060576 184.32996981534092 47.3 C 184.32996981534092 50.779394239999995 181.4515680931591 53.6 177.90087890625 53.6 C 174.3501897193409 53.6 171.4717879971591 50.779394239999995 171.4717879971591 47.3 Z" stroke-miterlimit="10"/></g><g transform="translate(-102,-30) scale(1,1)"><path fill="none" stroke="#000000" d="M 177.90087890625 53.6 L 177.90087890625 66.4" stroke-miterlimit="10"/></g><g transform="translate(-102,-30) scale(1,1)"><path fill="none" stroke="#000000" d="M 171.0936061789773 58.4 L 184.70815163352273 58.4" stroke-miterlimit="10"/></g><g transform="translate(-102,-30) scale(1,1)"><path fill="none" stroke="#000000" d="M 177.90087890625 66.4 L 168.44633345170456 79" stroke-miterlimit="10"/></g><g transform="translate(-102,-30) scale(1,1)"><path fill="none" stroke="#000000" d="M 177.90087890625 66.4 L 187.35542436079547 79" stroke-miterlimit="10"/></g><g transform="translate(-102,-30) scale(1,1)"><g><path fill="none" stroke="none"/><text fill="#000000" stroke="none" font-family="Arial" font-size="13px" font-style="normal" font-weight="bold" text-decoration="none" x="145.02001953125" y="99.5">: Nhân viên</text></g></g><g transform="translate(-102,-30) scale(1,1)"><path fill="none" stroke="#000000" d="M 178.5 105 L 178.5 920" stroke-miterlimit="10" stroke-dasharray="3"/></g><g transform="translate(-102,-30) scale(1,1)"><path fill="#ffffff" stroke="none" d="M 321.14453125 60 C 321.14453125 51.1634432 328.30797445 44 337.14453125 44 C 345.98108805 44 353.14453125 51.1634432 353.14453125 60 C 353.14453125 68.8365568 345.98108805 76 337.14453125 76 C 328.30797445 76 321.14453125 68.8365568 321.14453125 60 Z"/></g><g transform="translate(-102,-30) scale(1,1)"><path fill="none" stroke="#000000" d="M 321.14453125 60 C 321.14453125 51.1634432 328.30797445 44 337.14453125 44 C 345.98108805 44 353.14453125 51.1634432 353.14453125 60 C 353.14453125 68.8365568 345.98108805 76 337.14453125 76 C 328.30797445 76 321.14453125 68.8365568 321.14453125 60 Z" stroke-miterlimit="10"/></g><g transform="translate(-102,-30) scale(1,1)"><path fill="none" stroke="#000000" d="M 313.14453125 44 L 313.14453125 76" stroke-miterlimit="10"/></g><g transform="translate(-102,-30) scale(1,1)"><path fill="none" stroke="#000000" d="M 313.14453125 60 L 321.14453125 60" stroke-miterlimit="10"/></g><g transform="translate(-102,-30) scale(1,1)"><g><path fill="none" stroke="none"/><text fill="#000000" stroke="none" font-family="Arial" font-size="13px" font-style="normal" font-weight="bold" text-decoration="none" x="295.94091796875" y="99.5">: QLKM_GUI</text></g></g><g transform="translate(-102,-30) scale(1,1)"><path fill="none" stroke="#000000" d="M 334.5 105 L 334.5 912" stroke-miterlimit="10" stroke-dasharray="3"/></g><g transform="translate(-102,-30) scale(1,1)"><path fill="#ffffff" stroke="none" d="M 456.05908203125 60 C 456.05908203125 51.1634432 463.22252523125 44 472.05908203125 44 C 480.89563883125 44 488.05908203125 51.1634432 488.05908203125 60 C 488.05908203125 68.8365568 480.89563883125 76 472.05908203125 76 C 463.22252523125 76 456.05908203125 68.8365568 456.05908203125 60 Z"/></g><g transform="translate(-102,-30) scale(1,1)"><path fill="none" stroke="#000000" d="M 456.05908203125 60 C 456.05908203125 51.1634432 463.22252523125 44 472.05908203125 44 C 480.89563883125 44 488.05908203125 51.1634432 488.05908203125 60 C 488.05908203125 68.8365568 480.89563883125 76 472.05908203125 76 C 463.22252523125 76 456.05908203125 68.8365568 456.05908203125 60 Z" stroke-miterlimit="10"/></g><g transform="translate(-102,-30) scale(1,1)"><path fill="none" stroke="#000000" d="M 448.05908203125 44 L 448.05908203125 76" stroke-miterlimit="10"/></g><g transform="translate(-102,-30) scale(1,1)"><path fill="none" stroke="#000000" d="M 448.05908203125 60 L 456.05908203125 60" stroke-miterlimit="10"/></g><g transform="translate(-102,-30) scale(1,1)"><g><path fill="none" stroke="none"/><text fill="#000000" stroke="none" font-family="Arial" font-size="13px" font-style="normal" font-weight="bold" text-decoration="none" x="431.58544921875" y="99.5">: TTKM_GUI</text></g></g><g transform="translate(-102,-30) scale(1,1)"><path fill="none" stroke="#000000" d="M 469.5 105 L 469.5 912" stroke-miterlimit="10" stroke-dasharray="3"/></g><g transform="translate(-102,-30) scale(1,1)"><path fill="#ffffff" stroke="none" d="M 609.64453125 60 C 609.64453125 51.715728 616.36025925 45 624.64453125 45 C 632.92880325 45 639.64453125 51.715728 639.64453125 60 C 639.64453125 68.284272 632.92880325 75 624.64453125 75 C 616.36025925 75 609.64453125 68.284272 609.64453125 60 Z"/></g><g transform="translate(-102,-30) scale(1,1)"><path fill="none" stroke="#000000" d="M 609.64453125 60 C 609.64453125 51.715728 616.36025925 45 624.64453125 45 C 632.92880325 45 639.64453125 51.715728 639.64453125 60 C 639.64453125 68.284272 632.92880325 75 624.64453125 75 C 616.36025925 75 609.64453125 68.284272 609.64453125 60 Z" stroke-miterlimit="10"/></g><g transform="translate(-102,-30) scale(1,1)"><path fill="none" stroke="#000000" d="M 624.64453125 45 L 629.64453125 40" stroke-miterlimit="10"/></g><g transform="translate(-102,-30) scale(1,1)"><path fill="none" stroke="#000000" d="M 624.64453125 45 L 629.64453125 50" stroke-miterlimit="10"/></g><g transform="translate(-102,-30) scale(1,1)"><g><path fill="none" stroke="none"/><text fill="#000000" stroke="none" font-family="Arial" font-size="13px" font-style="normal" font-weight="bold" text-decoration="none" x="570.819580078125" y="99.5">: Controller_QLKM</text></g></g><g transform="translate(-102,-30) scale(1,1)"><path fill="none" stroke="#000000" d="M 625.5 105 L 625.5 912" stroke-miterlimit="10" stroke-dasharray="3"/></g><g transform="translate(-102,-30) scale(1,1)"><path fill="#ffffff" stroke="none" d="M 770.200439453125 60 C 770.200439453125 51.1634432 777.363882653125 44 786.200439453125 44 C 795.036996253125 44 802.200439453125 51.1634432 802.200439453125 60 C 802.200439453125 68.8365568 795.036996253125 76 786.200439453125 76 C 777.363882653125 76 770.200439453125 68.8365568 770.200439453125 60 Z"/></g><g transform="translate(-102,-30) scale(1,1)"><path fill="none" stroke="#000000" d="M 770.200439453125 60 C 770.200439453125 51.1634432 777.363882653125 44 786.200439453125 44 C 795.036996253125 44 802.200439453125 51.1634432 802.200439453125 60 C 802.200439453125 68.8365568 795.036996253125 76 786.200439453125 76 C 777.363882653125 76 770.200439453125 68.8365568 770.200439453125 60 Z" stroke-miterlimit="10"/></g><g transform="translate(-102,-30) scale(1,1)"><path fill="none" stroke="#000000" d="M 770.200439453125 76 L 802.200439453125 76" stroke-miterlimit="10"/></g><g transform="translate(-102,-30) scale(1,1)"><g><path fill="none" stroke="none"/><text fill="#000000" stroke="none" font-family="Arial" font-size="13px" font-style="normal" font-weight="bold" text-decoration="none" x="743.944091796875" y="99.5">: KHUYENMAI</text></g></g><g transform="translate(-102,-30) scale(1,1)"><path fill="none" stroke="#000000" d="M 787.5 105 L 787.5 920" stroke-miterlimit="10" stroke-dasharray="3"/></g><g transform="translate(-102,-30) scale(1,1)"><path fill="none" stroke="#000000" d="M 178 216 L 469 216" stroke-miterlimit="10"/></g><g transform="translate(-102,-30) scale(1,1)"><path fill="#000000" stroke="none" d="M 458.83732514237585 220.209517756016 L 469 216 L 458.83732514237585 211.790482243984"/></g><g transform="translate(-102,-30) scale(1,1)"><path fill="none" stroke="#000000" d="M 458.83732514237585 220.209517756016 L 469 216 L 458.83732514237585 211.790482243984 L 458.83732514237585 220.209517756016" stroke-miterlimit="10"/></g><g transform="translate(-102,-30) scale(1,1)"><g><path fill="none" stroke="none"/><text fill="#000000" stroke="none" font-family="Arial" font-size="13px" font-style="normal" font-weight="normal" text-decoration="none" x="236.5" y="212.5">1 : Nhập thông tin khuyến mãi</text></g></g><g transform="translate(-102,-30) scale(1,1)"><path fill="none" stroke="#000000" d="M 469 280 L 625 280" stroke-miterlimit="10"/></g><g transform="translate(-102,-30) scale(1,1)"><path fill="#000000" stroke="none" d="M 614.8373251423759 284.209517756016 L 625 280 L 614.8373251423758 275.790482243984"/></g><g transform="translate(-102,-30) scale(1,1)"><path fill="none" stroke="#000000" d="M 614.8373251423759 284.209517756016 L 625 280 L 614.8373251423758 275.790482243984 L 614.8373251423759 284.209517756016" stroke-miterlimit="10"/></g><g transform="translate(-102,-30) scale(1,1)"><g><path fill="none" stroke="none"/><text fill="#000000" stroke="none" font-family="Arial" font-size="13px" font-style="normal" font-weight="normal" text-decoration="none" x="501.671875" y="244.5">2 : Kiểm tra định</text><text fill="#000000" stroke="none" font-family="Arial" font-size="13px" font-style="normal" font-weight="normal" text-decoration="none" x="507.79736328125" y="257.5">dạng thông tin</text><text fill="#000000" stroke="none" font-family="Arial" font-size="13px" font-style="normal" font-weight="normal" text-decoration="none" x="515.760498046875" y="270.5">khuyến mãi</text></g></g><g transform="translate(-102,-30) scale(1,1)"><path fill="none" stroke="#000000" d="M 625 400 L 469 400" stroke-miterlimit="10" stroke-dasharray="3"/></g><g transform="translate(-102,-30) scale(1,1)"><path fill="none" stroke="#000000" d="M 479.16267485762415 395.790482243984 L 469 400 L 479.16267485762415 404.209517756016" stroke-miterlimit="10"/></g><g transform="translate(-102,-30) scale(1,1)"><g><path fill="none" stroke="none"/><text fill="#000000" stroke="none" font-family="Arial" font-size="13px" font-style="normal" font-weight="normal" text-decoration="none" x="474.025146484375" y="380.5">3 : Thông báo định dạng</text><text fill="#000000" stroke="none" font-family="Arial" font-size="13px" font-style="normal" font-weight="normal" text-decoration="none" x="506.626708984375" y="393.5">không hợp lệ</text></g></g><g transform="translate(-102,-30) scale(1,1)"><path fill="none" stroke="#000000" d="M 625 472 L 787 472" stroke-miterlimit="10"/></g><g transform="translate(-102,-30) scale(1,1)"><path fill="#000000" stroke="none" d="M 776.8373251423759 476.209517756016 L 787 472 L 776.8373251423758 467.790482243984"/></g><g transform="translate(-102,-30) scale(1,1)"><path fill="none" stroke="#000000" d="M 776.8373251423759 476.209517756016 L 787 472 L 776.8373251423758 467.790482243984 L 776.8373251423759 476.209517756016" stroke-miterlimit="10"/></g><g transform="translate(-102,-30) scale(1,1)"><g><path fill="none" stroke="none"/><text fill="#000000" stroke="none" font-family="Arial" font-size="13px" font-style="normal" font-weight="normal" text-decoration="none" x="638.787841796875" y="445.5">4 : Yêu cầu thêm thông</text><text fill="#000000" stroke="none" font-family="Arial" font-size="13px" font-style="normal" font-weight="normal" text-decoration="none" x="664.089599609375" y="458.5">tin khuyến mãi</text></g></g><g transform="translate(-102,-30) scale(1,1)"><path fill="none" stroke="#000000" d="M 787 504 L 817 504 L 817 524 L 787 524" stroke-miterlimit="10"/></g><g transform="translate(-102,-30) scale(1,1)"><path fill="#000000" stroke="none" d="M 797.1626748576241 519.790482243984 L 787 524 L 797.1626748576241 528.209517756016"/></g><g transform="translate(-102,-30) scale(1,1)"><path fill="none" stroke="#000000" d="M 797.1626748576241 519.790482243984 L 787 524 L 797.1626748576241 528.209517756016 L 797.1626748576241 519.790482243984" stroke-miterlimit="10"/></g><g transform="translate(-102,-30) scale(1,1)"><g><path fill="none" stroke="none"/><text fill="#000000" stroke="none" font-family="Arial" font-size="13px" font-style="normal" font-weight="normal" text-decoration="none" x="819.766845703125" y="500.5">5 : Kiểm tra</text><text fill="#000000" stroke="none" font-family="Arial" font-size="13px" font-style="normal" font-weight="normal" text-decoration="none" x="828.063232421875" y="513.5">thông tin</text><text fill="#000000" stroke="none" font-family="Arial" font-size="13px" font-style="normal" font-weight="normal" text-decoration="none" x="819.760498046875" y="526.5">khuyến mãi</text></g></g><g transform="translate(-102,-30) scale(1,1)"><path fill="none" stroke="#000000" d="M 787 609 L 625 609" stroke-miterlimit="10" stroke-dasharray="3"/></g><g transform="translate(-102,-30) scale(1,1)"><path fill="none" stroke="#000000" d="M 635.1626748576241 604.790482243984 L 625 609 L 635.1626748576241 613.209517756016" stroke-miterlimit="10"/></g><g transform="translate(-102,-30) scale(1,1)"><g><path fill="none" stroke="none"/><text fill="#000000" stroke="none" font-family="Arial" font-size="13px" font-style="normal" font-weight="normal" text-decoration="none" x="655.5" y="603.5">6 : Thông báo lỗi</text></g></g><g transform="translate(-102,-30) scale(1,1)"><path fill="none" stroke="#000000" d="M 625 655 L 469 655" stroke-miterlimit="10" stroke-dasharray="3"/></g><g transform="translate(-102,-30) scale(1,1)"><path fill="none" stroke="#000000" d="M 479.16267485762415 650.790482243984 L 469 655 L 479.16267485762415 659.209517756016" stroke-miterlimit="10"/></g><g transform="translate(-102,-30) scale(1,1)"><g><path fill="none" stroke="none"/><text fill="#000000" stroke="none" font-family="Arial" font-size="13px" font-style="normal" font-weight="normal" text-decoration="none" x="496.5" y="643.5">7 : Thông báo lỗi</text></g></g><g transform="translate(-102,-30) scale(1,1)"><path fill="none" stroke="#000000" d="M 787 744 L 817 744 L 817 764 L 787 764" stroke-miterlimit="10"/></g><g transform="translate(-102,-30) scale(1,1)"><path fill="#000000" stroke="none" d="M 797.1626748576241 759.790482243984 L 787 764 L 797.1626748576241 768.209517756016"/></g><g transform="translate(-102,-30) scale(1,1)"><path fill="none" stroke="#000000" d="M 797.1626748576241 759.790482243984 L 787 764 L 797.1626748576241 768.209517756016 L 797.1626748576241 759.790482243984" stroke-miterlimit="10"/></g><g transform="translate(-102,-30) scale(1,1)"><g><path fill="none" stroke="none"/><text fill="#000000" stroke="none" font-family="Arial" font-size="13px" font-style="normal" font-weight="normal" text-decoration="none" x="831.2880859375" y="748.5">8 : Lưu</text><text fill="#000000" stroke="none" font-family="Arial" font-size="13px" font-style="normal" font-weight="normal" text-decoration="none" x="826.96533203125" y="761.5">thông tin</text><text fill="#000000" stroke="none" font-family="Arial" font-size="13px" font-style="normal" font-weight="normal" text-decoration="none" x="818.66259765625" y="774.5">khuyến mãi</text></g></g><g transform="translate(-102,-30) scale(1,1)"><path fill="none" stroke="#000000" d="M 787 824 L 625 824" stroke-miterlimit="10" stroke-dasharray="3"/></g><g transform="translate(-102,-30) scale(1,1)"><path fill="none" stroke="#000000" d="M 635.1626748576241 819.790482243984 L 625 824 L 635.1626748576241 828.209517756016" stroke-miterlimit="10"/></g><g transform="translate(-102,-30) scale(1,1)"><g><path fill="none" stroke="none"/><text fill="#000000" stroke="none" font-family="Arial" font-size="13px" font-style="normal" font-weight="normal" text-decoration="none" x="615.114990234375" y="811.5">9 : Thông báo thêm thành công</text></g></g><g transform="translate(-102,-30) scale(1,1)"><path fill="none" stroke="#000000" d="M 625 864 L 334 864" stroke-miterlimit="10" stroke-dasharray="3"/></g><g transform="translate(-102,-30) scale(1,1)"><path fill="none" stroke="#000000" d="M 344.16267485762415 859.790482243984 L 334 864 L 344.16267485762415 868.209517756016" stroke-miterlimit="10"/></g><g transform="translate(-102,-30) scale(1,1)"><g><path fill="none" stroke="none"/><text fill="#000000" stroke="none" font-family="Arial" font-size="13px" font-style="normal" font-weight="normal" text-decoration="none" x="360.37109375" y="840.5">10 : Thông báo thêm thành công và</text><text fill="#000000" stroke="none" font-family="Arial" font-size="13px" font-style="normal" font-weight="normal" text-decoration="none" x="375.19287109375" y="853.5">hiển thị danh sách khuyến mãi</text></g></g><g transform="translate(-102,-30) scale(1,1)"><path fill="none" stroke="#000000" d="M 272 312 L 920 312 L 920 696 L 272 696 L 272 312" stroke-miterlimit="10"/></g><g transform="translate(-102,-30) scale(1,1)"><path fill="#ffffff" stroke="none" d="M 272 312 L 272 334 L 301.72998046875 334 L 312.72998046875 323 L 312.72998046875 312 L 272 312"/></g><g transform="translate(-102,-30) scale(1,1)"><path fill="none" stroke="#000000" d="M 272 312 L 272 334 L 301.72998046875 334 L 312.72998046875 323 L 312.72998046875 312 L 272 312 L 272 312" stroke-miterlimit="10"/></g><g transform="translate(-102,-30) scale(1,1)"><g><path fill="none" stroke="none"/><text fill="#000000" stroke="none" font-family="Arial" font-size="13px" font-style="normal" font-weight="bold" text-decoration="none" x="277" y="329.5">alt</text></g></g><g transform="translate(-102,-30) scale(1,1)"><g><path fill="none" stroke="none"/><text fill="#000000" stroke="none" font-family="Arial" font-size="13px" font-style="normal" font-weight="normal" text-decoration="none" x="291.5" y="362.5">[Định dạng không hợp lệ]</text></g></g><g transform="translate(-102,-30) scale(1,1)"><path fill="none" stroke="#000000" d="M 272 425 L 920 425" stroke-miterlimit="10" stroke-dasharray="10,3"/></g><g transform="translate(-102,-30) scale(1,1)"><g><path fill="none" stroke="none"/><text fill="#000000" stroke="none" font-family="Arial" font-size="13px" font-style="normal" font-weight="normal" text-decoration="none" x="291.5" y="452.5">[Định dạng hợp lệ]</text></g></g><g transform="translate(-102,-30) scale(1,1)"><path fill="none" stroke="#000000" d="M 304 560 L 888 560 L 888 672 L 304 672 L 304 560" stroke-miterlimit="10"/></g><g transform="translate(-102,-30) scale(1,1)"><path fill="#ffffff" stroke="none" d="M 304 560 L 304 582 L 333.72998046875 582 L 344.72998046875 571 L 344.72998046875 560 L 304 560"/></g><g transform="translate(-102,-30) scale(1,1)"><path fill="none" stroke="#000000" d="M 304 560 L 304 582 L 333.72998046875 582 L 344.72998046875 571 L 344.72998046875 560 L 304 560 L 304 560" stroke-miterlimit="10"/></g><g transform="translate(-102,-30) scale(1,1)"><g><path fill="none" stroke="none"/><text fill="#000000" stroke="none" font-family="Arial" font-size="13px" font-style="normal" font-weight="bold" text-decoration="none" x="309" y="577.5">alt</text></g></g><g transform="translate(-102,-30) scale(1,1)"><g><path fill="none" stroke="none"/><text fill="#000000" stroke="none" font-family="Arial" font-size="13px" font-style="normal" font-weight="normal" text-decoration="none" x="323.5" y="610.5">[Không hợp lệ]</text></g></g><g transform="translate(-102,-30) scale(1,1)"><path fill="none" stroke="#000000" d="M 144 112 L 960 112 L 960 728 L 144 728 L 144 112" stroke-miterlimit="10"/></g><g transform="translate(-102,-30) scale(1,1)"><path fill="#ffffff" stroke="none" d="M 144 112 L 144 134 L 184.578125 134 L 195.578125 123 L 195.578125 112 L 144 112"/></g><g transform="translate(-102,-30) scale(1,1)"><path fill="none" stroke="#000000" d="M 144 112 L 144 134 L 184.578125 134 L 195.578125 123 L 195.578125 112 L 144 112 L 144 112" stroke-miterlimit="10"/></g><g transform="translate(-102,-30) scale(1,1)"><g><path fill="none" stroke="none"/><text fill="#000000" stroke="none" font-family="Arial" font-size="13px" font-style="normal" font-weight="bold" text-decoration="none" x="149" y="129.5">loop</text></g></g><g transform="translate(-102,-30) scale(1,1)"><g><path fill="none" stroke="none"/><text fill="#000000" stroke="none" font-family="Arial" font-size="13px" font-style="normal" font-weight="normal" text-decoration="none" x="163.5" y="162.5">[Chưa thêm thành công]</text></g></g></g></svg>