<svg version="1.1" xmlns="http://www.w3.org/2000/svg" xmlns:xlink="http://www.w3.org/1999/xlink" width="1352.90087890625" height="900"><defs/><g><g transform="translate(-14,-30) scale(1,1)"><path fill="#ffffff" stroke="none" d="M 184.532568359375 563.5 C 184.532568359375 554.88435712 191.516925479375 547.9 200.132568359375 547.9 C 208.748211239375 547.9 215.732568359375 554.88435712 215.732568359375 563.5 C 215.732568359375 572.11564288 208.748211239375 579.1 200.132568359375 579.1 C 191.516925479375 579.1 184.532568359375 572.11564288 184.532568359375 563.5 Z"/></g><g transform="translate(-14,-30) scale(1,1)"><path fill="none" stroke="#000000" d="M 184.532568359375 563.5 C 184.532568359375 554.88435712 191.516925479375 547.9 200.132568359375 547.9 C 208.748211239375 547.9 215.732568359375 554.88435712 215.732568359375 563.5 C 215.732568359375 572.11564288 208.748211239375 579.1 200.132568359375 579.1 C 191.516925479375 579.1 184.532568359375 572.11564288 184.532568359375 563.5 Z" stroke-miterlimit="10"/></g><g transform="translate(-14,-30) scale(1,1)"><path fill="none" stroke="#000000" d="M 184.532568359375 579.1 L 215.732568359375 579.1" stroke-miterlimit="10"/></g><g transform="translate(-14,-30) scale(1,1)"><g><path fill="none" stroke="none"/><text fill="#000000" stroke="none" font-family="Arial" font-size="13px" font-style="normal" font-weight="bold" text-decoration="none" x="167.38818359375" y="602.5">TAIKHOAN</text></g></g><g transform="translate(-14,-30) scale(1,1)"><path fill="#ffffff" stroke="none" d="M 816.955908203125 163.5 C 816.955908203125 154.88435712 823.940265323125 147.9 832.555908203125 147.9 C 841.171551083125 147.9 848.155908203125 154.88435712 848.155908203125 163.5 C 848.155908203125 172.11564288 841.171551083125 179.1 832.555908203125 179.1 C 823.940265323125 179.1 816.955908203125 172.11564288 816.955908203125 163.5 Z"/></g><g transform="translate(-14,-30) scale(1,1)"><path fill="none" stroke="#000000" d="M 816.955908203125 163.5 C 816.955908203125 154.88435712 823.940265323125 147.9 832.555908203125 147.9 C 841.171551083125 147.9 848.155908203125 154.88435712 848.155908203125 163.5 C 848.155908203125 172.11564288 841.171551083125 179.1 832.555908203125 179.1 C 823.940265323125 179.1 816.955908203125 172.11564288 816.955908203125 163.5 Z" stroke-miterlimit="10"/></g><g transform="translate(-14,-30) scale(1,1)"><path fill="none" stroke="#000000" d="M 816.955908203125 179.1 L 848.155908203125 179.1" stroke-miterlimit="10"/></g><g transform="translate(-14,-30) scale(1,1)"><g><path fill="none" stroke="none"/><text fill="#000000" stroke="none" font-family="Arial" font-size="13px" font-style="normal" font-weight="bold" text-decoration="none" x="791.023193359375" y="202.5">KHACHHANG</text></g></g><g transform="translate(-14,-30) scale(1,1)"><path fill="#ffffff" stroke="none" d="M 368.291357421875 563.5 C 368.291357421875 554.88435712 375.275714541875 547.9 383.891357421875 547.9 C 392.507000301875 547.9 399.491357421875 554.88435712 399.491357421875 563.5 C 399.491357421875 572.11564288 392.507000301875 579.1 383.891357421875 579.1 C 375.275714541875 579.1 368.291357421875 572.11564288 368.291357421875 563.5 Z"/></g><g transform="translate(-14,-30) scale(1,1)"><path fill="none" stroke="#000000" d="M 368.291357421875 563.5 C 368.291357421875 554.88435712 375.275714541875 547.9 383.891357421875 547.9 C 392.507000301875 547.9 399.491357421875 554.88435712 399.491357421875 563.5 C 399.491357421875 572.11564288 392.507000301875 579.1 383.891357421875 579.1 C 375.275714541875 579.1 368.291357421875 572.11564288 368.291357421875 563.5 Z" stroke-miterlimit="10"/></g><g transform="translate(-14,-30) scale(1,1)"><path fill="none" stroke="#000000" d="M 368.291357421875 579.1 L 399.491357421875 579.1" stroke-miterlimit="10"/></g><g transform="translate(-14,-30) scale(1,1)"><g><path fill="none" stroke="none"/><text fill="#000000" stroke="none" font-family="Arial" font-size="13px" font-style="normal" font-weight="bold" text-decoration="none" x="350.302734375" y="602.5">NHANVIEN</text></g></g><g transform="translate(-14,-30) scale(1,1)"><path fill="#ffffff" stroke="none" d="M 965.76181640625 595.5 C 965.76181640625 586.88435712 972.74617352625 579.9 981.36181640625 579.9 C 989.97745928625 579.9 996.96181640625 586.88435712 996.96181640625 595.5 C 996.96181640625 604.11564288 989.97745928625 611.1 981.36181640625 611.1 C 972.74617352625 611.1 965.76181640625 604.11564288 965.76181640625 595.5 Z"/></g><g transform="translate(-14,-30) scale(1,1)"><path fill="none" stroke="#000000" d="M 965.76181640625 595.5 C 965.76181640625 586.88435712 972.74617352625 579.9 981.36181640625 579.9 C 989.97745928625 579.9 996.96181640625 586.88435712 996.96181640625 595.5 C 996.96181640625 604.11564288 989.97745928625 611.1 981.36181640625 611.1 C 972.74617352625 611.1 965.76181640625 604.11564288 965.76181640625 595.5 Z" stroke-miterlimit="10"/></g><g transform="translate(-14,-30) scale(1,1)"><path fill="none" stroke="#000000" d="M 965.76181640625 611.1 L 996.96181640625 611.1" stroke-miterlimit="10"/></g><g transform="translate(-14,-30) scale(1,1)"><g><path fill="none" stroke="none"/><text fill="#000000" stroke="none" font-family="Arial" font-size="13px" font-style="normal" font-weight="bold" text-decoration="none" x="949.21728515625" y="634.5">SANPHAM</text></g></g><g transform="translate(-14,-30) scale(1,1)"><path fill="#ffffff" stroke="none" d="M 666.15 363.5 C 666.15 354.88435712 673.13435712 347.9 681.75 347.9 C 690.36564288 347.9 697.35 354.88435712 697.35 363.5 C 697.35 372.11564288 690.36564288 379.1 681.75 379.1 C 673.13435712 379.1 666.15 372.11564288 666.15 363.5 Z"/></g><g transform="translate(-14,-30) scale(1,1)"><path fill="none" stroke="#000000" d="M 666.15 363.5 C 666.15 354.88435712 673.13435712 347.9 681.75 347.9 C 690.36564288 347.9 697.35 354.88435712 697.35 363.5 C 697.35 372.11564288 690.36564288 379.1 681.75 379.1 C 673.13435712 379.1 666.15 372.11564288 666.15 363.5 Z" stroke-miterlimit="10"/></g><g transform="translate(-14,-30) scale(1,1)"><path fill="none" stroke="#000000" d="M 666.15 379.1 L 697.35 379.1" stroke-miterlimit="10"/></g><g transform="translate(-14,-30) scale(1,1)"><g><path fill="none" stroke="none"/><text fill="#000000" stroke="none" font-family="Arial" font-size="13px" font-style="normal" font-weight="bold" text-decoration="none" x="653.220458984375" y="402.5">HOADON</text></g></g><g transform="translate(-14,-30) scale(1,1)"><path fill="#ffffff" stroke="none" d="M 658.5708984375 555.5 C 658.5708984375 546.88435712 665.5552555575 539.9 674.1708984375 539.9 C 682.7865413175 539.9 689.7708984375 546.88435712 689.7708984375 555.5 C 689.7708984375 564.11564288 682.7865413175 571.1 674.1708984375 571.1 C 665.5552555575 571.1 658.5708984375 564.11564288 658.5708984375 555.5 Z"/></g><g transform="translate(-14,-30) scale(1,1)"><path fill="none" stroke="#000000" d="M 658.5708984375 555.5 C 658.5708984375 546.88435712 665.5552555575 539.9 674.1708984375 539.9 C 682.7865413175 539.9 689.7708984375 546.88435712 689.7708984375 555.5 C 689.7708984375 564.11564288 682.7865413175 571.1 674.1708984375 571.1 C 665.5552555575 571.1 658.5708984375 564.11564288 658.5708984375 555.5 Z" stroke-miterlimit="10"/></g><g transform="translate(-14,-30) scale(1,1)"><path fill="none" stroke="#000000" d="M 658.5708984375 571.1 L 689.7708984375 571.1" stroke-miterlimit="10"/></g><g transform="translate(-14,-30) scale(1,1)"><g><path fill="none" stroke="none"/><text fill="#000000" stroke="none" font-family="Arial" font-size="13px" font-style="normal" font-weight="bold" text-decoration="none" x="660.08544921875" y="594.5">KHO</text></g></g><g transform="translate(-14,-30) scale(1,1)"><path fill="#ffffff" stroke="none" d="M 670.482275390625 875.5 C 670.482275390625 866.88435712 677.466632510625 859.9 686.082275390625 859.9 C 694.697918270625 859.9 701.682275390625 866.88435712 701.682275390625 875.5 C 701.682275390625 884.11564288 694.697918270625 891.1 686.082275390625 891.1 C 677.466632510625 891.1 670.482275390625 884.11564288 670.482275390625 875.5 Z"/></g><g transform="translate(-14,-30) scale(1,1)"><path fill="none" stroke="#000000" d="M 670.482275390625 875.5 C 670.482275390625 866.88435712 677.466632510625 859.9 686.082275390625 859.9 C 694.697918270625 859.9 701.682275390625 866.88435712 701.682275390625 875.5 C 701.682275390625 884.11564288 694.697918270625 891.1 686.082275390625 891.1 C 677.466632510625 891.1 670.482275390625 884.11564288 670.482275390625 875.5 Z" stroke-miterlimit="10"/></g><g transform="translate(-14,-30) scale(1,1)"><path fill="none" stroke="#000000" d="M 670.482275390625 891.1 L 701.682275390625 891.1" stroke-miterlimit="10"/></g><g transform="translate(-14,-30) scale(1,1)"><g><path fill="none" stroke="none"/><text fill="#000000" stroke="none" font-family="Arial" font-size="13px" font-style="normal" font-weight="bold" text-decoration="none" x="653.5791015625" y="914.5">CUAHANG</text></g></g><g transform="translate(-14,-30) scale(1,1)"><path fill="#ffffff" stroke="none" d="M 526.78818359375 243.5 C 526.78818359375 234.88435712 533.77254071375 227.9 542.38818359375 227.9 C 551.00382647375 227.9 557.98818359375 234.88435712 557.98818359375 243.5 C 557.98818359375 252.11564288 551.00382647375 259.1 542.38818359375 259.1 C 533.77254071375 259.1 526.78818359375 252.11564288 526.78818359375 243.5 Z"/></g><g transform="translate(-14,-30) scale(1,1)"><path fill="none" stroke="#000000" d="M 526.78818359375 243.5 C 526.78818359375 234.88435712 533.77254071375 227.9 542.38818359375 227.9 C 551.00382647375 227.9 557.98818359375 234.88435712 557.98818359375 243.5 C 557.98818359375 252.11564288 551.00382647375 259.1 542.38818359375 259.1 C 533.77254071375 259.1 526.78818359375 252.11564288 526.78818359375 243.5 Z" stroke-miterlimit="10"/></g><g transform="translate(-14,-30) scale(1,1)"><path fill="none" stroke="#000000" d="M 526.78818359375 259.1 L 557.98818359375 259.1" stroke-miterlimit="10"/></g><g transform="translate(-14,-30) scale(1,1)"><g><path fill="none" stroke="none"/><text fill="#000000" stroke="none" font-family="Arial" font-size="13px" font-style="normal" font-weight="bold" text-decoration="none" x="503.74365234375" y="282.5">KHUYENMAI</text></g></g><g transform="translate(-14,-30) scale(1,1)"><path fill="none" stroke="#000000" d="M 241 576 L 343 576" stroke-miterlimit="10"/></g><g transform="translate(-14,-30) scale(1,1)"><path fill="#000000" stroke="none" d="M 332.83732514237585 580.209517756016 L 343 576 L 332.83732514237585 571.790482243984 L 321 576"/></g><g transform="translate(-14,-30) scale(1,1)"><path fill="none" stroke="#000000" d="M 332.83732514237585 580.209517756016 L 343 576 L 332.83732514237585 571.790482243984 L 321 576 L 332.83732514237585 580.209517756016" stroke-miterlimit="10"/></g><g transform="translate(-14,-30) scale(1,1)"><g><path fill="none" stroke="none"/><text fill="#000000" stroke="none" font-family="Arial" font-size="13px" font-style="normal" font-weight="normal" text-decoration="none" x="258.5" y="594.5">1</text></g></g><g transform="translate(-14,-30) scale(1,1)"><g><path fill="none" stroke="none"/><text fill="#000000" stroke="none" font-family="Arial" font-size="13px" font-style="normal" font-weight="normal" text-decoration="none" x="317.5" y="594.5">1</text></g></g><g transform="translate(-14,-30) scale(1,1)"><path fill="none" stroke="#000000" d="M 425 548 L 647 399" stroke-miterlimit="10"/></g><g transform="translate(-14,-30) scale(1,1)"><g><path fill="none" stroke="none"/><text fill="#000000" stroke="none" font-family="Arial" font-size="13px" font-style="normal" font-weight="normal" text-decoration="none" x="445.5" y="552.5">1</text></g></g><g transform="translate(-14,-30) scale(1,1)"><g><path fill="none" stroke="none"/><text fill="#000000" stroke="none" font-family="Arial" font-size="13px" font-style="normal" font-weight="normal" text-decoration="none" x="625.5" y="427.5">0..*</text></g></g><g transform="translate(-14,-30) scale(1,1)"><path fill="none" stroke="#000000" d="M 807 209 L 706 343" stroke-miterlimit="10"/></g><g transform="translate(-14,-30) scale(1,1)"><g><path fill="none" stroke="none"/><text fill="#000000" stroke="none" font-family="Arial" font-size="13px" font-style="normal" font-weight="normal" text-decoration="none" x="779.5" y="224.5">1</text></g></g><g transform="translate(-14,-30) scale(1,1)"><g><path fill="none" stroke="none"/><text fill="#000000" stroke="none" font-family="Arial" font-size="13px" font-style="normal" font-weight="normal" text-decoration="none" x="699.5" y="324.5">0..*</text></g></g><g transform="translate(-14,-30) scale(1,1)"><path fill="#ffffff" stroke="none" d="M 919.679541015625 435.5 C 919.679541015625 426.88435712 926.663898135625 419.9 935.279541015625 419.9 C 943.895183895625 419.9 950.879541015625 426.88435712 950.879541015625 435.5 C 950.879541015625 444.11564288 943.895183895625 451.1 935.279541015625 451.1 C 926.663898135625 451.1 919.679541015625 444.11564288 919.679541015625 435.5 Z"/></g><g transform="translate(-14,-30) scale(1,1)"><path fill="none" stroke="#000000" d="M 919.679541015625 435.5 C 919.679541015625 426.88435712 926.663898135625 419.9 935.279541015625 419.9 C 943.895183895625 419.9 950.879541015625 426.88435712 950.879541015625 435.5 C 950.879541015625 444.11564288 943.895183895625 451.1 935.279541015625 451.1 C 926.663898135625 451.1 919.679541015625 444.11564288 919.679541015625 435.5 Z" stroke-miterlimit="10"/></g><g transform="translate(-14,-30) scale(1,1)"><path fill="none" stroke="#000000" d="M 919.679541015625 451.1 L 950.879541015625 451.1" stroke-miterlimit="10"/></g><g transform="translate(-14,-30) scale(1,1)"><path fill="none" stroke="#000000" d="M 912 480 L 958.55908203125 480" stroke-miterlimit="10"/></g><g transform="translate(-14,-30) scale(1,1)"><path fill="none" stroke="#000000" d="M 912 490 L 958.55908203125 490" stroke-miterlimit="10"/></g><g transform="translate(-14,-30) scale(1,1)"><g><path fill="none" stroke="none"/><text fill="#000000" stroke="none" font-family="Arial" font-size="13px" font-style="normal" font-weight="bold" text-decoration="none" x="917.226806640625" y="474.5">CTHD</text></g></g><g transform="translate(-14,-30) scale(1,1)"><path fill="none" stroke="#000000" d="M 717 403 L 943 579" stroke-miterlimit="10"/></g><g transform="translate(-14,-30) scale(1,1)"><g><path fill="none" stroke="none"/><text fill="#000000" stroke="none" font-family="Arial" font-size="13px" font-style="normal" font-weight="normal" text-decoration="none" x="743.5" y="420.5">0..*</text></g></g><g transform="translate(-14,-30) scale(1,1)"><g><path fill="none" stroke="none"/><text fill="#000000" stroke="none" font-family="Arial" font-size="13px" font-style="normal" font-weight="normal" text-decoration="none" x="927.5" y="563.5">1..*</text></g></g><g transform="translate(-14,-30) scale(1,1)"><path fill="none" stroke="#000000" d="M 911 466 L 830 491" stroke-miterlimit="10" stroke-dasharray="3"/></g><g transform="translate(-14,-30) scale(1,1)"><path fill="#ffffff" stroke="none" d="M 662.7017578125 699.5 C 662.7017578125 690.88435712 669.6861149325 683.9 678.3017578125 683.9 C 686.9174006925 683.9 693.9017578125 690.88435712 693.9017578125 699.5 C 693.9017578125 708.11564288 686.9174006925 715.1 678.3017578125 715.1 C 669.6861149325 715.1 662.7017578125 708.11564288 662.7017578125 699.5 Z"/></g><g transform="translate(-14,-30) scale(1,1)"><path fill="none" stroke="#000000" d="M 662.7017578125 699.5 C 662.7017578125 690.88435712 669.6861149325 683.9 678.3017578125 683.9 C 686.9174006925 683.9 693.9017578125 690.88435712 693.9017578125 699.5 C 693.9017578125 708.11564288 686.9174006925 715.1 678.3017578125 715.1 C 669.6861149325 715.1 662.7017578125 708.11564288 662.7017578125 699.5 Z" stroke-miterlimit="10"/></g><g transform="translate(-14,-30) scale(1,1)"><path fill="none" stroke="#000000" d="M 662.7017578125 715.1 L 693.9017578125 715.1" stroke-miterlimit="10"/></g><g transform="translate(-14,-30) scale(1,1)"><path fill="none" stroke="#000000" d="M 616 744 L 740.603515625 744" stroke-miterlimit="10"/></g><g transform="translate(-14,-30) scale(1,1)"><path fill="none" stroke="#000000" d="M 616 754 L 740.603515625 754" stroke-miterlimit="10"/></g><g transform="translate(-14,-30) scale(1,1)"><g><path fill="none" stroke="none"/><text fill="#000000" stroke="none" font-family="Arial" font-size="13px" font-style="normal" font-weight="bold" text-decoration="none" x="656.0341796875" y="738.5">CTTON</text></g></g><g transform="translate(-14,-30) scale(1,1)"><path fill="none" stroke="#000000" d="M 946 641 L 721 855" stroke-miterlimit="10"/></g><g transform="translate(-14,-30) scale(1,1)"><g><path fill="none" stroke="none"/><text fill="#000000" stroke="none" font-family="Arial" font-size="13px" font-style="normal" font-weight="normal" text-decoration="none" x="943.5" y="659.5">0..*</text></g></g><g transform="translate(-14,-30) scale(1,1)"><g><path fill="none" stroke="none"/><text fill="#000000" stroke="none" font-family="Arial" font-size="13px" font-style="normal" font-weight="normal" text-decoration="none" x="718.5" y="837.5">0..*</text></g></g><g transform="translate(-14,-30) scale(1,1)"><path fill="none" stroke="#000000" d="M 742 733 L 833 748" stroke-miterlimit="10" stroke-dasharray="3"/></g><g transform="translate(-14,-30) scale(1,1)"><path fill="none" stroke="#000000" d="M 647 347 L 580 289" stroke-miterlimit="10"/></g><g transform="translate(-14,-30) scale(1,1)"><g><path fill="none" stroke="none"/><text fill="#000000" stroke="none" font-family="Arial" font-size="13px" font-style="normal" font-weight="normal" text-decoration="none" x="628.5" y="329.5">0..*</text></g></g><g transform="translate(-14,-30) scale(1,1)"><g><path fill="none" stroke="none"/><text fill="#000000" stroke="none" font-family="Arial" font-size="13px" font-style="normal" font-weight="normal" text-decoration="none" x="593.5" y="299.5">0..1</text></g></g><g transform="translate(-14,-30) scale(1,1)"><path fill="none" stroke="#000000" d="M 425 575 L 647 569" stroke-miterlimit="10"/></g><g transform="translate(-14,-30) scale(1,1)"><g><path fill="none" stroke="none"/><text fill="#000000" stroke="none" font-family="Arial" font-size="13px" font-style="normal" font-weight="normal" text-decoration="none" x="436.5" y="592.5">1..*</text></g></g><g transform="translate(-14,-30) scale(1,1)"><g><path fill="none" stroke="none"/><text fill="#000000" stroke="none" font-family="Arial" font-size="13px" font-style="normal" font-weight="normal" text-decoration="none" x="614.5" y="565.5">0..1</text></g></g><g transform="translate(-14,-30) scale(1,1)"><path fill="none" stroke="#000000" d="M 415 609 L 654 855" stroke-miterlimit="10"/></g><g transform="translate(-14,-30) scale(1,1)"><g><path fill="none" stroke="none"/><text fill="#000000" stroke="none" font-family="Arial" font-size="13px" font-style="normal" font-weight="normal" text-decoration="none" x="411.5" y="636.5">1..*</text></g></g><g transform="translate(-14,-30) scale(1,1)"><g><path fill="none" stroke="none"/><text fill="#000000" stroke="none" font-family="Arial" font-size="13px" font-style="normal" font-weight="normal" text-decoration="none" x="618.5" y="854.5">0..1</text></g></g><g transform="translate(-14,-30) scale(1,1)"><path fill="#ffffff" stroke="none" d="M 185.93408203125 699.5 C 185.93408203125 691.4228348 192.48191683125 684.875 200.55908203125 684.875 C 208.63624723125 684.875 215.18408203125 691.4228348 215.18408203125 699.5 C 215.18408203125 707.5771652 208.63624723125 714.125 200.55908203125 714.125 C 192.48191683125 714.125 185.93408203125 707.5771652 185.93408203125 699.5 Z"/></g><g transform="translate(-14,-30) scale(1,1)"><path fill="none" stroke="#000000" d="M 185.93408203125 699.5 C 185.93408203125 691.4228348 192.48191683125 684.875 200.55908203125 684.875 C 208.63624723125 684.875 215.18408203125 691.4228348 215.18408203125 699.5 C 215.18408203125 707.5771652 208.63624723125 714.125 200.55908203125 714.125 C 192.48191683125 714.125 185.93408203125 707.5771652 185.93408203125 699.5 Z" stroke-miterlimit="10"/></g><g transform="translate(-14,-30) scale(1,1)"><path fill="none" stroke="#000000" d="M 200.55908203125 684.875 L 205.43408203125 680" stroke-miterlimit="10"/></g><g transform="translate(-14,-30) scale(1,1)"><path fill="none" stroke="#000000" d="M 200.55908203125 684.875 L 205.43408203125 689.75" stroke-miterlimit="10"/></g><g transform="translate(-14,-30) scale(1,1)"><g><path fill="none" stroke="none"/><text fill="#000000" stroke="none" font-family="Arial" font-size="13px" font-style="normal" font-weight="bold" text-decoration="none" x="159.378662109375" y="738.5">Controller_DN</text></g></g><g transform="translate(-14,-30) scale(1,1)"><path fill="#ffffff" stroke="none" d="M 70.247265625 787.5 C 70.247265625 778.88435712 77.23162274500001 771.9 85.847265625 771.9 C 94.462908505 771.9 101.447265625 778.88435712 101.447265625 787.5 C 101.447265625 796.11564288 94.462908505 803.1 85.847265625 803.1 C 77.23162274500001 803.1 70.247265625 796.11564288 70.247265625 787.5 Z"/></g><g transform="translate(-14,-30) scale(1,1)"><path fill="none" stroke="#000000" d="M 70.247265625 787.5 C 70.247265625 778.88435712 77.23162274500001 771.9 85.847265625 771.9 C 94.462908505 771.9 101.447265625 778.88435712 101.447265625 787.5 C 101.447265625 796.11564288 94.462908505 803.1 85.847265625 803.1 C 77.23162274500001 803.1 70.247265625 796.11564288 70.247265625 787.5 Z" stroke-miterlimit="10"/></g><g transform="translate(-14,-30) scale(1,1)"><path fill="none" stroke="#000000" d="M 62.447265625 771.9 L 62.447265625 803.1" stroke-miterlimit="10"/></g><g transform="translate(-14,-30) scale(1,1)"><path fill="none" stroke="#000000" d="M 62.447265625 787.5 L 70.247265625 787.5" stroke-miterlimit="10"/></g><g transform="translate(-14,-30) scale(1,1)"><g><path fill="none" stroke="none"/><text fill="#000000" stroke="none" font-family="Arial" font-size="13px" font-style="normal" font-weight="bold" text-decoration="none" x="29.944091796875" y="826.5">TRANGCHU_GUI</text></g></g><g transform="translate(-14,-30) scale(1,1)"><path fill="#ffffff" stroke="none" d="M 66.750439453125 651.5 C 66.750439453125 642.88435712 73.73479657312501 635.9 82.350439453125 635.9 C 90.966082333125 635.9 97.950439453125 642.88435712 97.950439453125 651.5 C 97.950439453125 660.11564288 90.966082333125 667.1 82.350439453125 667.1 C 73.73479657312501 667.1 66.750439453125 660.11564288 66.750439453125 651.5 Z"/></g><g transform="translate(-14,-30) scale(1,1)"><path fill="none" stroke="#000000" d="M 66.750439453125 651.5 C 66.750439453125 642.88435712 73.73479657312501 635.9 82.350439453125 635.9 C 90.966082333125 635.9 97.950439453125 642.88435712 97.950439453125 651.5 C 97.950439453125 660.11564288 90.966082333125 667.1 82.350439453125 667.1 C 73.73479657312501 667.1 66.750439453125 660.11564288 66.750439453125 651.5 Z" stroke-miterlimit="10"/></g><g transform="translate(-14,-30) scale(1,1)"><path fill="none" stroke="#000000" d="M 58.950439453125 635.9 L 58.950439453125 667.1" stroke-miterlimit="10"/></g><g transform="translate(-14,-30) scale(1,1)"><path fill="none" stroke="#000000" d="M 58.950439453125 651.5 L 66.750439453125 651.5" stroke-miterlimit="10"/></g><g transform="translate(-14,-30) scale(1,1)"><g><path fill="none" stroke="none"/><text fill="#000000" stroke="none" font-family="Arial" font-size="13px" font-style="normal" font-weight="bold" text-decoration="none" x="53.891357421875" y="690.5">DN_GUI</text></g></g><g transform="translate(-14,-30) scale(1,1)"><path fill="#ffffff" stroke="none" d="M 1275.4708984375 267.5 C 1275.4708984375 258.88435712 1282.4552555575 251.9 1291.0708984375 251.9 C 1299.6865413175 251.9 1306.6708984375 258.88435712 1306.6708984375 267.5 C 1306.6708984375 276.11564288 1299.6865413175 283.1 1291.0708984375 283.1 C 1282.4552555575 283.1 1275.4708984375 276.11564288 1275.4708984375 267.5 Z"/></g><g transform="translate(-14,-30) scale(1,1)"><path fill="none" stroke="#000000" d="M 1275.4708984375 267.5 C 1275.4708984375 258.88435712 1282.4552555575 251.9 1291.0708984375 251.9 C 1299.6865413175 251.9 1306.6708984375 258.88435712 1306.6708984375 267.5 C 1306.6708984375 276.11564288 1299.6865413175 283.1 1291.0708984375 283.1 C 1282.4552555575 283.1 1275.4708984375 276.11564288 1275.4708984375 267.5 Z" stroke-miterlimit="10"/></g><g transform="translate(-14,-30) scale(1,1)"><path fill="none" stroke="#000000" d="M 1267.6708984375 251.9 L 1267.6708984375 283.1" stroke-miterlimit="10"/></g><g transform="translate(-14,-30) scale(1,1)"><path fill="none" stroke="#000000" d="M 1267.6708984375 267.5 L 1275.4708984375 267.5" stroke-miterlimit="10"/></g><g transform="translate(-14,-30) scale(1,1)"><g><path fill="none" stroke="none"/><text fill="#000000" stroke="none" font-family="Arial" font-size="13px" font-style="normal" font-weight="bold" text-decoration="none" x="1253.94091796875" y="306.5">QLHD_GUI</text></g></g><g transform="translate(-14,-30) scale(1,1)"><path fill="#ffffff" stroke="none" d="M 1290.750439453125 387.5 C 1290.750439453125 378.88435712 1297.734796573125 371.9 1306.350439453125 371.9 C 1314.966082333125 371.9 1321.950439453125 378.88435712 1321.950439453125 387.5 C 1321.950439453125 396.11564288 1314.966082333125 403.09999999999997 1306.350439453125 403.09999999999997 C 1297.734796573125 403.09999999999997 1290.750439453125 396.11564288 1290.750439453125 387.5 Z"/></g><g transform="translate(-14,-30) scale(1,1)"><path fill="none" stroke="#000000" d="M 1290.750439453125 387.5 C 1290.750439453125 378.88435712 1297.734796573125 371.9 1306.350439453125 371.9 C 1314.966082333125 371.9 1321.950439453125 378.88435712 1321.950439453125 387.5 C 1321.950439453125 396.11564288 1314.966082333125 403.09999999999997 1306.350439453125 403.09999999999997 C 1297.734796573125 403.09999999999997 1290.750439453125 396.11564288 1290.750439453125 387.5 Z" stroke-miterlimit="10"/></g><g transform="translate(-14,-30) scale(1,1)"><path fill="none" stroke="#000000" d="M 1282.950439453125 371.9 L 1282.950439453125 403.09999999999997" stroke-miterlimit="10"/></g><g transform="translate(-14,-30) scale(1,1)"><path fill="none" stroke="#000000" d="M 1282.950439453125 387.5 L 1290.750439453125 387.5" stroke-miterlimit="10"/></g><g transform="translate(-14,-30) scale(1,1)"><g><path fill="none" stroke="none"/><text fill="#000000" stroke="none" font-family="Arial" font-size="13px" font-style="normal" font-weight="bold" text-decoration="none" x="1269.950439453125" y="426.5">TTHD_GUI</text></g></g><g transform="translate(-14,-30) scale(1,1)"><path fill="#ffffff" stroke="none" d="M 1138.96044921875 355.5 C 1138.96044921875 347.4228348 1145.50828401875 340.875 1153.58544921875 340.875 C 1161.66261441875 340.875 1168.21044921875 347.4228348 1168.21044921875 355.5 C 1168.21044921875 363.5771652 1161.66261441875 370.125 1153.58544921875 370.125 C 1145.50828401875 370.125 1138.96044921875 363.5771652 1138.96044921875 355.5 Z"/></g><g transform="translate(-14,-30) scale(1,1)"><path fill="none" stroke="#000000" d="M 1138.96044921875 355.5 C 1138.96044921875 347.4228348 1145.50828401875 340.875 1153.58544921875 340.875 C 1161.66261441875 340.875 1168.21044921875 347.4228348 1168.21044921875 355.5 C 1168.21044921875 363.5771652 1161.66261441875 370.125 1153.58544921875 370.125 C 1145.50828401875 370.125 1138.96044921875 363.5771652 1138.96044921875 355.5 Z" stroke-miterlimit="10"/></g><g transform="translate(-14,-30) scale(1,1)"><path fill="none" stroke="#000000" d="M 1153.58544921875 340.875 L 1158.46044921875 336" stroke-miterlimit="10"/></g><g transform="translate(-14,-30) scale(1,1)"><path fill="none" stroke="#000000" d="M 1153.58544921875 340.875 L 1158.46044921875 345.75" stroke-miterlimit="10"/></g><g transform="translate(-14,-30) scale(1,1)"><g><path fill="none" stroke="none"/><text fill="#000000" stroke="none" font-family="Arial" font-size="13px" font-style="normal" font-weight="bold" text-decoration="none" x="1103.734130859375" y="394.5">Controller_QLHD</text></g></g><g transform="translate(-14,-30) scale(1,1)"><path fill="#ffffff" stroke="none" d="M 1019.83271484375 59.5 C 1019.83271484375 50.884357120000004 1026.81707196375 43.9 1035.43271484375 43.9 C 1044.04835772375 43.9 1051.03271484375 50.884357120000004 1051.03271484375 59.5 C 1051.03271484375 68.11564288 1044.04835772375 75.1 1035.43271484375 75.1 C 1026.81707196375 75.1 1019.83271484375 68.11564288 1019.83271484375 59.5 Z"/></g><g transform="translate(-14,-30) scale(1,1)"><path fill="none" stroke="#000000" d="M 1019.83271484375 59.5 C 1019.83271484375 50.884357120000004 1026.81707196375 43.9 1035.43271484375 43.9 C 1044.04835772375 43.9 1051.03271484375 50.884357120000004 1051.03271484375 59.5 C 1051.03271484375 68.11564288 1044.04835772375 75.1 1035.43271484375 75.1 C 1026.81707196375 75.1 1019.83271484375 68.11564288 1019.83271484375 59.5 Z" stroke-miterlimit="10"/></g><g transform="translate(-14,-30) scale(1,1)"><path fill="none" stroke="#000000" d="M 1012.03271484375 43.9 L 1012.03271484375 75.1" stroke-miterlimit="10"/></g><g transform="translate(-14,-30) scale(1,1)"><path fill="none" stroke="#000000" d="M 1012.03271484375 59.5 L 1019.83271484375 59.5" stroke-miterlimit="10"/></g><g transform="translate(-14,-30) scale(1,1)"><g><path fill="none" stroke="none"/><text fill="#000000" stroke="none" font-family="Arial" font-size="13px" font-style="normal" font-weight="bold" text-decoration="none" x="998.661376953125" y="98.5">QLKH_GUI</text></g></g><g transform="translate(-14,-30) scale(1,1)"><path fill="#ffffff" stroke="none" d="M 1251.112255859375 67.5 C 1251.112255859375 58.884357120000004 1258.096612979375 51.9 1266.712255859375 51.9 C 1275.327898739375 51.9 1282.312255859375 58.884357120000004 1282.312255859375 67.5 C 1282.312255859375 76.11564288 1275.327898739375 83.1 1266.712255859375 83.1 C 1258.096612979375 83.1 1251.112255859375 76.11564288 1251.112255859375 67.5 Z"/></g><g transform="translate(-14,-30) scale(1,1)"><path fill="none" stroke="#000000" d="M 1251.112255859375 67.5 C 1251.112255859375 58.884357120000004 1258.096612979375 51.9 1266.712255859375 51.9 C 1275.327898739375 51.9 1282.312255859375 58.884357120000004 1282.312255859375 67.5 C 1282.312255859375 76.11564288 1275.327898739375 83.1 1266.712255859375 83.1 C 1258.096612979375 83.1 1251.112255859375 76.11564288 1251.112255859375 67.5 Z" stroke-miterlimit="10"/></g><g transform="translate(-14,-30) scale(1,1)"><path fill="none" stroke="#000000" d="M 1243.312255859375 51.9 L 1243.312255859375 83.1" stroke-miterlimit="10"/></g><g transform="translate(-14,-30) scale(1,1)"><path fill="none" stroke="#000000" d="M 1243.312255859375 67.5 L 1251.112255859375 67.5" stroke-miterlimit="10"/></g><g transform="translate(-14,-30) scale(1,1)"><g><path fill="none" stroke="none"/><text fill="#000000" stroke="none" font-family="Arial" font-size="13px" font-style="normal" font-weight="bold" text-decoration="none" x="1230.6708984375" y="106.5">TTKH_GUI</text></g></g><g transform="translate(-14,-30) scale(1,1)"><path fill="#ffffff" stroke="none" d="M 1106.96044921875 171.5 C 1106.96044921875 163.4228348 1113.50828401875 156.875 1121.58544921875 156.875 C 1129.66261441875 156.875 1136.21044921875 163.4228348 1136.21044921875 171.5 C 1136.21044921875 179.5771652 1129.66261441875 186.125 1121.58544921875 186.125 C 1113.50828401875 186.125 1106.96044921875 179.5771652 1106.96044921875 171.5 Z"/></g><g transform="translate(-14,-30) scale(1,1)"><path fill="none" stroke="#000000" d="M 1106.96044921875 171.5 C 1106.96044921875 163.4228348 1113.50828401875 156.875 1121.58544921875 156.875 C 1129.66261441875 156.875 1136.21044921875 163.4228348 1136.21044921875 171.5 C 1136.21044921875 179.5771652 1129.66261441875 186.125 1121.58544921875 186.125 C 1113.50828401875 186.125 1106.96044921875 179.5771652 1106.96044921875 171.5 Z" stroke-miterlimit="10"/></g><g transform="translate(-14,-30) scale(1,1)"><path fill="none" stroke="#000000" d="M 1121.58544921875 156.875 L 1126.46044921875 152" stroke-miterlimit="10"/></g><g transform="translate(-14,-30) scale(1,1)"><path fill="none" stroke="#000000" d="M 1121.58544921875 156.875 L 1126.46044921875 161.75" stroke-miterlimit="10"/></g><g transform="translate(-14,-30) scale(1,1)"><g><path fill="none" stroke="none"/><text fill="#000000" stroke="none" font-family="Arial" font-size="13px" font-style="normal" font-weight="bold" text-decoration="none" x="1072.0927734375" y="210.5">Controller_QLKH</text></g></g><g transform="translate(-14,-30) scale(1,1)"><path fill="#ffffff" stroke="none" d="M 1306.750439453125 515.5 C 1306.750439453125 506.88435712 1313.734796573125 499.9 1322.350439453125 499.9 C 1330.966082333125 499.9 1337.950439453125 506.88435712 1337.950439453125 515.5 C 1337.950439453125 524.11564288 1330.966082333125 531.1 1322.350439453125 531.1 C 1313.734796573125 531.1 1306.750439453125 524.11564288 1306.750439453125 515.5 Z"/></g><g transform="translate(-14,-30) scale(1,1)"><path fill="none" stroke="#000000" d="M 1306.750439453125 515.5 C 1306.750439453125 506.88435712 1313.734796573125 499.9 1322.350439453125 499.9 C 1330.966082333125 499.9 1337.950439453125 506.88435712 1337.950439453125 515.5 C 1337.950439453125 524.11564288 1330.966082333125 531.1 1322.350439453125 531.1 C 1313.734796573125 531.1 1306.750439453125 524.11564288 1306.750439453125 515.5 Z" stroke-miterlimit="10"/></g><g transform="translate(-14,-30) scale(1,1)"><path fill="none" stroke="#000000" d="M 1298.950439453125 499.9 L 1298.950439453125 531.1" stroke-miterlimit="10"/></g><g transform="translate(-14,-30) scale(1,1)"><path fill="none" stroke="#000000" d="M 1298.950439453125 515.5 L 1306.750439453125 515.5" stroke-miterlimit="10"/></g><g transform="translate(-14,-30) scale(1,1)"><g><path fill="none" stroke="none"/><text fill="#000000" stroke="none" font-family="Arial" font-size="13px" font-style="normal" font-weight="bold" text-decoration="none" x="1285.937744140625" y="554.5">QLSP_GUI</text></g></g><g transform="translate(-14,-30) scale(1,1)"><path fill="#ffffff" stroke="none" d="M 1298.750439453125 699.5 C 1298.750439453125 690.88435712 1305.734796573125 683.9 1314.350439453125 683.9 C 1322.966082333125 683.9 1329.950439453125 690.88435712 1329.950439453125 699.5 C 1329.950439453125 708.11564288 1322.966082333125 715.1 1314.350439453125 715.1 C 1305.734796573125 715.1 1298.750439453125 708.11564288 1298.750439453125 699.5 Z"/></g><g transform="translate(-14,-30) scale(1,1)"><path fill="none" stroke="#000000" d="M 1298.750439453125 699.5 C 1298.750439453125 690.88435712 1305.734796573125 683.9 1314.350439453125 683.9 C 1322.966082333125 683.9 1329.950439453125 690.88435712 1329.950439453125 699.5 C 1329.950439453125 708.11564288 1322.966082333125 715.1 1314.350439453125 715.1 C 1305.734796573125 715.1 1298.750439453125 708.11564288 1298.750439453125 699.5 Z" stroke-miterlimit="10"/></g><g transform="translate(-14,-30) scale(1,1)"><path fill="none" stroke="#000000" d="M 1290.950439453125 683.9 L 1290.950439453125 715.1" stroke-miterlimit="10"/></g><g transform="translate(-14,-30) scale(1,1)"><path fill="none" stroke="#000000" d="M 1290.950439453125 699.5 L 1298.750439453125 699.5" stroke-miterlimit="10"/></g><g transform="translate(-14,-30) scale(1,1)"><g><path fill="none" stroke="none"/><text fill="#000000" stroke="none" font-family="Arial" font-size="13px" font-style="normal" font-weight="bold" text-decoration="none" x="1278.667724609375" y="738.5">TTSP_GUI</text></g></g><g transform="translate(-14,-30) scale(1,1)"><path fill="#ffffff" stroke="none" d="M 1194.2431640625 595.5 C 1194.2431640625 587.4228348 1200.7909988625 580.875 1208.8681640625 580.875 C 1216.9453292625 580.875 1223.4931640625 587.4228348 1223.4931640625 595.5 C 1223.4931640625 603.5771652 1216.9453292625 610.125 1208.8681640625 610.125 C 1200.7909988625 610.125 1194.2431640625 603.5771652 1194.2431640625 595.5 Z"/></g><g transform="translate(-14,-30) scale(1,1)"><path fill="none" stroke="#000000" d="M 1194.2431640625 595.5 C 1194.2431640625 587.4228348 1200.7909988625 580.875 1208.8681640625 580.875 C 1216.9453292625 580.875 1223.4931640625 587.4228348 1223.4931640625 595.5 C 1223.4931640625 603.5771652 1216.9453292625 610.125 1208.8681640625 610.125 C 1200.7909988625 610.125 1194.2431640625 603.5771652 1194.2431640625 595.5 Z" stroke-miterlimit="10"/></g><g transform="translate(-14,-30) scale(1,1)"><path fill="none" stroke="#000000" d="M 1208.8681640625 580.875 L 1213.7431640625 576" stroke-miterlimit="10"/></g><g transform="translate(-14,-30) scale(1,1)"><path fill="none" stroke="#000000" d="M 1208.8681640625 580.875 L 1213.7431640625 585.75" stroke-miterlimit="10"/></g><g transform="translate(-14,-30) scale(1,1)"><g><path fill="none" stroke="none"/><text fill="#000000" stroke="none" font-family="Arial" font-size="13px" font-style="normal" font-weight="bold" text-decoration="none" x="1159.734130859375" y="634.5">Controller_QLSP</text></g></g><g transform="translate(-14,-30) scale(1,1)"><path fill="#ffffff" stroke="none" d="M 352.888623046875 875.5 C 352.888623046875 866.88435712 359.872980166875 859.9 368.488623046875 859.9 C 377.104265926875 859.9 384.088623046875 866.88435712 384.088623046875 875.5 C 384.088623046875 884.11564288 377.104265926875 891.1 368.488623046875 891.1 C 359.872980166875 891.1 352.888623046875 884.11564288 352.888623046875 875.5 Z"/></g><g transform="translate(-14,-30) scale(1,1)"><path fill="none" stroke="#000000" d="M 352.888623046875 875.5 C 352.888623046875 866.88435712 359.872980166875 859.9 368.488623046875 859.9 C 377.104265926875 859.9 384.088623046875 866.88435712 384.088623046875 875.5 C 384.088623046875 884.11564288 377.104265926875 891.1 368.488623046875 891.1 C 359.872980166875 891.1 352.888623046875 884.11564288 352.888623046875 875.5 Z" stroke-miterlimit="10"/></g><g transform="translate(-14,-30) scale(1,1)"><path fill="none" stroke="#000000" d="M 345.088623046875 859.9 L 345.088623046875 891.1" stroke-miterlimit="10"/></g><g transform="translate(-14,-30) scale(1,1)"><path fill="none" stroke="#000000" d="M 345.088623046875 875.5 L 352.888623046875 875.5" stroke-miterlimit="10"/></g><g transform="translate(-14,-30) scale(1,1)"><g><path fill="none" stroke="none"/><text fill="#000000" stroke="none" font-family="Arial" font-size="13px" font-style="normal" font-weight="bold" text-decoration="none" x="326.661376953125" y="914.5">QLKHO_GUI</text></g></g><g transform="translate(-14,-30) scale(1,1)"><path fill="#ffffff" stroke="none" d="M 352.016357421875 747.5 C 352.016357421875 739.4228348 358.564192221875 732.875 366.641357421875 732.875 C 374.718522621875 732.875 381.266357421875 739.4228348 381.266357421875 747.5 C 381.266357421875 755.5771652 374.718522621875 762.125 366.641357421875 762.125 C 358.564192221875 762.125 352.016357421875 755.5771652 352.016357421875 747.5 Z"/></g><g transform="translate(-14,-30) scale(1,1)"><path fill="none" stroke="#000000" d="M 352.016357421875 747.5 C 352.016357421875 739.4228348 358.564192221875 732.875 366.641357421875 732.875 C 374.718522621875 732.875 381.266357421875 739.4228348 381.266357421875 747.5 C 381.266357421875 755.5771652 374.718522621875 762.125 366.641357421875 762.125 C 358.564192221875 762.125 352.016357421875 755.5771652 352.016357421875 747.5 Z" stroke-miterlimit="10"/></g><g transform="translate(-14,-30) scale(1,1)"><path fill="none" stroke="#000000" d="M 366.641357421875 732.875 L 371.516357421875 728" stroke-miterlimit="10"/></g><g transform="translate(-14,-30) scale(1,1)"><path fill="none" stroke="#000000" d="M 366.641357421875 732.875 L 371.516357421875 737.75" stroke-miterlimit="10"/></g><g transform="translate(-14,-30) scale(1,1)"><g><path fill="none" stroke="none"/><text fill="#000000" stroke="none" font-family="Arial" font-size="13px" font-style="normal" font-weight="bold" text-decoration="none" x="312.0927734375" y="786.5">Controller_QLKHO</text></g></g><g transform="translate(-14,-30) scale(1,1)"><path fill="#ffffff" stroke="none" d="M 986.750439453125 867.5 C 986.750439453125 858.88435712 993.734796573125 851.9 1002.350439453125 851.9 C 1010.966082333125 851.9 1017.950439453125 858.88435712 1017.950439453125 867.5 C 1017.950439453125 876.11564288 1010.966082333125 883.1 1002.350439453125 883.1 C 993.734796573125 883.1 986.750439453125 876.11564288 986.750439453125 867.5 Z"/></g><g transform="translate(-14,-30) scale(1,1)"><path fill="none" stroke="#000000" d="M 986.750439453125 867.5 C 986.750439453125 858.88435712 993.734796573125 851.9 1002.350439453125 851.9 C 1010.966082333125 851.9 1017.950439453125 858.88435712 1017.950439453125 867.5 C 1017.950439453125 876.11564288 1010.966082333125 883.1 1002.350439453125 883.1 C 993.734796573125 883.1 986.750439453125 876.11564288 986.750439453125 867.5 Z" stroke-miterlimit="10"/></g><g transform="translate(-14,-30) scale(1,1)"><path fill="none" stroke="#000000" d="M 978.950439453125 851.9 L 978.950439453125 883.1" stroke-miterlimit="10"/></g><g transform="translate(-14,-30) scale(1,1)"><path fill="none" stroke="#000000" d="M 978.950439453125 867.5 L 986.750439453125 867.5" stroke-miterlimit="10"/></g><g transform="translate(-14,-30) scale(1,1)"><g><path fill="none" stroke="none"/><text fill="#000000" stroke="none" font-family="Arial" font-size="13px" font-style="normal" font-weight="bold" text-decoration="none" x="966.30908203125" y="906.5">TKDT_GUI</text></g></g><g transform="translate(-14,-30) scale(1,1)"><path fill="#ffffff" stroke="none" d="M 986.23681640625 739.5 C 986.23681640625 731.4228348 992.78465120625 724.875 1000.86181640625 724.875 C 1008.93898160625 724.875 1015.48681640625 731.4228348 1015.48681640625 739.5 C 1015.48681640625 747.5771652 1008.93898160625 754.125 1000.86181640625 754.125 C 992.78465120625 754.125 986.23681640625 747.5771652 986.23681640625 739.5 Z"/></g><g transform="translate(-14,-30) scale(1,1)"><path fill="none" stroke="#000000" d="M 986.23681640625 739.5 C 986.23681640625 731.4228348 992.78465120625 724.875 1000.86181640625 724.875 C 1008.93898160625 724.875 1015.48681640625 731.4228348 1015.48681640625 739.5 C 1015.48681640625 747.5771652 1008.93898160625 754.125 1000.86181640625 754.125 C 992.78465120625 754.125 986.23681640625 747.5771652 986.23681640625 739.5 Z" stroke-miterlimit="10"/></g><g transform="translate(-14,-30) scale(1,1)"><path fill="none" stroke="#000000" d="M 1000.86181640625 724.875 L 1005.73681640625 720" stroke-miterlimit="10"/></g><g transform="translate(-14,-30) scale(1,1)"><path fill="none" stroke="#000000" d="M 1000.86181640625 724.875 L 1005.73681640625 729.75" stroke-miterlimit="10"/></g><g transform="translate(-14,-30) scale(1,1)"><g><path fill="none" stroke="none"/><text fill="#000000" stroke="none" font-family="Arial" font-size="13px" font-style="normal" font-weight="bold" text-decoration="none" x="952.09912109375" y="778.5">Controller_TKDT</text></g></g><g transform="translate(-14,-30) scale(1,1)"><path fill="#ffffff" stroke="none" d="M 676.91181640625 59.5 C 676.91181640625 50.884357120000004 683.89617352625 43.9 692.51181640625 43.9 C 701.12745928625 43.9 708.11181640625 50.884357120000004 708.11181640625 59.5 C 708.11181640625 68.11564288 701.12745928625 75.1 692.51181640625 75.1 C 683.89617352625 75.1 676.91181640625 68.11564288 676.91181640625 59.5 Z"/></g><g transform="translate(-14,-30) scale(1,1)"><path fill="none" stroke="#000000" d="M 676.91181640625 59.5 C 676.91181640625 50.884357120000004 683.89617352625 43.9 692.51181640625 43.9 C 701.12745928625 43.9 708.11181640625 50.884357120000004 708.11181640625 59.5 C 708.11181640625 68.11564288 701.12745928625 75.1 692.51181640625 75.1 C 683.89617352625 75.1 676.91181640625 68.11564288 676.91181640625 59.5 Z" stroke-miterlimit="10"/></g><g transform="translate(-14,-30) scale(1,1)"><path fill="none" stroke="#000000" d="M 669.11181640625 43.9 L 669.11181640625 75.1" stroke-miterlimit="10"/></g><g transform="translate(-14,-30) scale(1,1)"><path fill="none" stroke="#000000" d="M 669.11181640625 59.5 L 676.91181640625 59.5" stroke-miterlimit="10"/></g><g transform="translate(-14,-30) scale(1,1)"><g><path fill="none" stroke="none"/><text fill="#000000" stroke="none" font-family="Arial" font-size="13px" font-style="normal" font-weight="bold" text-decoration="none" x="655.02001953125" y="98.5">QLKM_GUI</text></g></g><g transform="translate(-14,-30) scale(1,1)"><path fill="#ffffff" stroke="none" d="M 388.191357421875 59.5 C 388.191357421875 50.884357120000004 395.175714541875 43.9 403.791357421875 43.9 C 412.407000301875 43.9 419.391357421875 50.884357120000004 419.391357421875 59.5 C 419.391357421875 68.11564288 412.407000301875 75.1 403.791357421875 75.1 C 395.175714541875 75.1 388.191357421875 68.11564288 388.191357421875 59.5 Z"/></g><g transform="translate(-14,-30) scale(1,1)"><path fill="none" stroke="#000000" d="M 388.191357421875 59.5 C 388.191357421875 50.884357120000004 395.175714541875 43.9 403.791357421875 43.9 C 412.407000301875 43.9 419.391357421875 50.884357120000004 419.391357421875 59.5 C 419.391357421875 68.11564288 412.407000301875 75.1 403.791357421875 75.1 C 395.175714541875 75.1 388.191357421875 68.11564288 388.191357421875 59.5 Z" stroke-miterlimit="10"/></g><g transform="translate(-14,-30) scale(1,1)"><path fill="none" stroke="#000000" d="M 380.391357421875 43.9 L 380.391357421875 75.1" stroke-miterlimit="10"/></g><g transform="translate(-14,-30) scale(1,1)"><path fill="none" stroke="#000000" d="M 380.391357421875 59.5 L 388.191357421875 59.5" stroke-miterlimit="10"/></g><g transform="translate(-14,-30) scale(1,1)"><g><path fill="none" stroke="none"/><text fill="#000000" stroke="none" font-family="Arial" font-size="13px" font-style="normal" font-weight="bold" text-decoration="none" x="367.029541015625" y="98.5">TTKM_GUI</text></g></g><g transform="translate(-14,-30) scale(1,1)"><path fill="#ffffff" stroke="none" d="M 531.680908203125 123.5 C 531.680908203125 115.4228348 538.228743003125 108.875 546.305908203125 108.875 C 554.383073403125 108.875 560.930908203125 115.4228348 560.930908203125 123.5 C 560.930908203125 131.5771652 554.383073403125 138.125 546.305908203125 138.125 C 538.228743003125 138.125 531.680908203125 131.5771652 531.680908203125 123.5 Z"/></g><g transform="translate(-14,-30) scale(1,1)"><path fill="none" stroke="#000000" d="M 531.680908203125 123.5 C 531.680908203125 115.4228348 538.228743003125 108.875 546.305908203125 108.875 C 554.383073403125 108.875 560.930908203125 115.4228348 560.930908203125 123.5 C 560.930908203125 131.5771652 554.383073403125 138.125 546.305908203125 138.125 C 538.228743003125 138.125 531.680908203125 131.5771652 531.680908203125 123.5 Z" stroke-miterlimit="10"/></g><g transform="translate(-14,-30) scale(1,1)"><path fill="none" stroke="#000000" d="M 546.305908203125 108.875 L 551.180908203125 104" stroke-miterlimit="10"/></g><g transform="translate(-14,-30) scale(1,1)"><path fill="none" stroke="#000000" d="M 546.305908203125 108.875 L 551.180908203125 113.75" stroke-miterlimit="10"/></g><g transform="translate(-14,-30) scale(1,1)"><g><path fill="none" stroke="none"/><text fill="#000000" stroke="none" font-family="Arial" font-size="13px" font-style="normal" font-weight="bold" text-decoration="none" x="496.0927734375" y="162.5">Controller_QLKM</text></g></g><g transform="translate(-14,-30) scale(1,1)"><path fill="#ffffff" stroke="none" d="M 291.10908203125 243.5 C 291.10908203125 234.88435712 298.09343915125 227.9 306.70908203125 227.9 C 315.32472491125 227.9 322.30908203125 234.88435712 322.30908203125 243.5 C 322.30908203125 252.11564288 315.32472491125 259.1 306.70908203125 259.1 C 298.09343915125 259.1 291.10908203125 252.11564288 291.10908203125 243.5 Z"/></g><g transform="translate(-14,-30) scale(1,1)"><path fill="none" stroke="#000000" d="M 291.10908203125 243.5 C 291.10908203125 234.88435712 298.09343915125 227.9 306.70908203125 227.9 C 315.32472491125 227.9 322.30908203125 234.88435712 322.30908203125 243.5 C 322.30908203125 252.11564288 315.32472491125 259.1 306.70908203125 259.1 C 298.09343915125 259.1 291.10908203125 252.11564288 291.10908203125 243.5 Z" stroke-miterlimit="10"/></g><g transform="translate(-14,-30) scale(1,1)"><path fill="none" stroke="#000000" d="M 283.30908203125 227.9 L 283.30908203125 259.1" stroke-miterlimit="10"/></g><g transform="translate(-14,-30) scale(1,1)"><path fill="none" stroke="#000000" d="M 283.30908203125 243.5 L 291.10908203125 243.5" stroke-miterlimit="10"/></g><g transform="translate(-14,-30) scale(1,1)"><g><path fill="none" stroke="none"/><text fill="#000000" stroke="none" font-family="Arial" font-size="13px" font-style="normal" font-weight="bold" text-decoration="none" x="269.937744140625" y="282.5">QLNV_GUI</text></g></g><g transform="translate(-14,-30) scale(1,1)"><path fill="#ffffff" stroke="none" d="M 106.750439453125 323.5 C 106.750439453125 314.88435712 113.73479657312501 307.9 122.350439453125 307.9 C 130.966082333125 307.9 137.950439453125 314.88435712 137.950439453125 323.5 C 137.950439453125 332.11564288 130.966082333125 339.09999999999997 122.350439453125 339.09999999999997 C 113.73479657312501 339.09999999999997 106.750439453125 332.11564288 106.750439453125 323.5 Z"/></g><g transform="translate(-14,-30) scale(1,1)"><path fill="none" stroke="#000000" d="M 106.750439453125 323.5 C 106.750439453125 314.88435712 113.73479657312501 307.9 122.350439453125 307.9 C 130.966082333125 307.9 137.950439453125 314.88435712 137.950439453125 323.5 C 137.950439453125 332.11564288 130.966082333125 339.09999999999997 122.350439453125 339.09999999999997 C 113.73479657312501 339.09999999999997 106.750439453125 332.11564288 106.750439453125 323.5 Z" stroke-miterlimit="10"/></g><g transform="translate(-14,-30) scale(1,1)"><path fill="none" stroke="#000000" d="M 98.950439453125 307.9 L 98.950439453125 339.09999999999997" stroke-miterlimit="10"/></g><g transform="translate(-14,-30) scale(1,1)"><path fill="none" stroke="#000000" d="M 98.950439453125 323.5 L 106.750439453125 323.5" stroke-miterlimit="10"/></g><g transform="translate(-14,-30) scale(1,1)"><g><path fill="none" stroke="none"/><text fill="#000000" stroke="none" font-family="Arial" font-size="13px" font-style="normal" font-weight="bold" text-decoration="none" x="86.30908203125" y="362.5">TTNV_GUI</text></g></g><g transform="translate(-14,-30) scale(1,1)"><path fill="#ffffff" stroke="none" d="M 282.601806640625 411.5 C 282.601806640625 403.4228348 289.149641440625 396.875 297.226806640625 396.875 C 305.303971840625 396.875 311.851806640625 403.4228348 311.851806640625 411.5 C 311.851806640625 419.5771652 305.303971840625 426.125 297.226806640625 426.125 C 289.149641440625 426.125 282.601806640625 419.5771652 282.601806640625 411.5 Z"/></g><g transform="translate(-14,-30) scale(1,1)"><path fill="none" stroke="#000000" d="M 282.601806640625 411.5 C 282.601806640625 403.4228348 289.149641440625 396.875 297.226806640625 396.875 C 305.303971840625 396.875 311.851806640625 403.4228348 311.851806640625 411.5 C 311.851806640625 419.5771652 305.303971840625 426.125 297.226806640625 426.125 C 289.149641440625 426.125 282.601806640625 419.5771652 282.601806640625 411.5 Z" stroke-miterlimit="10"/></g><g transform="translate(-14,-30) scale(1,1)"><path fill="none" stroke="#000000" d="M 297.226806640625 396.875 L 302.101806640625 392" stroke-miterlimit="10"/></g><g transform="translate(-14,-30) scale(1,1)"><path fill="none" stroke="#000000" d="M 297.226806640625 396.875 L 302.101806640625 401.75" stroke-miterlimit="10"/></g><g transform="translate(-14,-30) scale(1,1)"><g><path fill="none" stroke="none"/><text fill="#000000" stroke="none" font-family="Arial" font-size="13px" font-style="normal" font-weight="bold" text-decoration="none" x="247.734130859375" y="450.5">Controller_QLNV</text></g></g><g transform="translate(-14,-30) scale(1,1)"><path fill="none" stroke="#000000" d="M 301 289 L 298 391" stroke-miterlimit="10"/></g><g transform="translate(-14,-30) scale(1,1)"><path fill="none" stroke="#000000" d="M 158 356 L 239 395" stroke-miterlimit="10"/></g><g transform="translate(-14,-30) scale(1,1)"><path fill="none" stroke="#000000" d="M 647 90 L 606 109" stroke-miterlimit="10"/></g><g transform="translate(-14,-30) scale(1,1)"><path fill="none" stroke="#000000" d="M 441 90 L 487 110" stroke-miterlimit="10"/></g><g transform="translate(-14,-30) scale(1,1)"><path fill="none" stroke="#000000" d="M 1247 306 L 1203 335" stroke-miterlimit="10"/></g><g transform="translate(-14,-30) scale(1,1)"><path fill="none" stroke="#000000" d="M 1263 392 L 1212 381" stroke-miterlimit="10"/></g><g transform="translate(-14,-30) scale(1,1)"><path fill="none" stroke="#000000" d="M 1240 641 L 1278 679" stroke-miterlimit="10"/></g><g transform="translate(-14,-30) scale(1,1)"><path fill="none" stroke="#000000" d="M 1253 575 L 1279 556" stroke-miterlimit="10"/></g><g transform="translate(-14,-30) scale(1,1)"><path fill="none" stroke="#000000" d="M 155 745 L 126 767" stroke-miterlimit="10"/></g><g transform="translate(-14,-30) scale(1,1)"><path fill="none" stroke="#000000" d="M 151 693 L 118 680" stroke-miterlimit="10"/></g><g transform="translate(-14,-30) scale(1,1)"><path fill="none" stroke="#000000" d="M 1058 105 L 1094 151" stroke-miterlimit="10"/></g><g transform="translate(-14,-30) scale(1,1)"><path fill="none" stroke="#000000" d="M 365 855 L 365 793" stroke-miterlimit="10"/></g><g transform="translate(-14,-30) scale(1,1)"><path fill="none" stroke="#000000" d="M 999 847 L 999 785" stroke-miterlimit="10"/></g><g transform="translate(-14,-30) scale(1,1)"><path fill="none" stroke="#000000" d="M 200 679 L 200 609" stroke-miterlimit="10" stroke-dasharray="3"/></g><g transform="translate(-14,-30) scale(1,1)"><path fill="none" stroke="#000000" d="M 204.209517756016 619.1626748576241 L 200 609 L 195.790482243984 619.1626748576241" stroke-miterlimit="10"/></g><g transform="translate(-14,-30) scale(1,1)"><path fill="none" stroke="#000000" d="M 1129 401 L 1005 575" stroke-miterlimit="10" stroke-dasharray="3"/></g><g transform="translate(-14,-30) scale(1,1)"><path fill="none" stroke="#000000" d="M 1007.4698468390682 564.2808649326755 L 1005 575 L 1014.326018542957 569.1668723538377" stroke-miterlimit="10"/></g><g transform="translate(-14,-30) scale(1,1)"><path fill="none" stroke="#000000" d="M 1095 392 L 960 448" stroke-miterlimit="10" stroke-dasharray="3"/></g><g transform="translate(-14,-30) scale(1,1)"><path fill="none" stroke="#000000" d="M 967.7741826506444 440.21783551224854 L 960 448 L 970.9999985520517 447.9943559888553" stroke-miterlimit="10"/></g><g transform="translate(-14,-30) scale(1,1)"><path fill="none" stroke="#000000" d="M 1098 335 L 882 206" stroke-miterlimit="10" stroke-dasharray="3"/></g><g transform="translate(-14,-30) scale(1,1)"><path fill="none" stroke="#000000" d="M 892.8834889395074 207.596768143351 L 882 206 L 888.5667032499483 214.82487441424058" stroke-miterlimit="10"/></g><g transform="translate(-14,-30) scale(1,1)"><path fill="none" stroke="#000000" d="M 1095 369 L 717 375" stroke-miterlimit="10" stroke-dasharray="3"/></g><g transform="translate(-14,-30) scale(1,1)"><path fill="none" stroke="#000000" d="M 727.0945855168562 370.62972046170086 L 717 375 L 727.2282041694486 379.0476955750244" stroke-miterlimit="10"/></g><g transform="translate(-14,-30) scale(1,1)"><path fill="none" stroke="#000000" d="M 1063 182 L 882 177" stroke-miterlimit="10" stroke-dasharray="3"/></g><g transform="translate(-14,-30) scale(1,1)"><path fill="none" stroke="#000000" d="M 892.2750401718863 173.07271729230962 L 882 177 L 892.0425588167495 181.4885423482604" stroke-miterlimit="10"/></g><g transform="translate(-14,-30) scale(1,1)"><path fill="none" stroke="#000000" d="M 1223 109 L 1166 151" stroke-miterlimit="10"/></g><g transform="translate(-14,-30) scale(1,1)"><path fill="none" stroke="#000000" d="M 1151 608 L 1020 608" stroke-miterlimit="10" stroke-dasharray="3"/></g><g transform="translate(-14,-30) scale(1,1)"><path fill="none" stroke="#000000" d="M 1030.162674857624 603.790482243984 L 1020 608 L 1030.162674857624 612.209517756016" stroke-miterlimit="10"/></g><g transform="translate(-14,-30) scale(1,1)"><path fill="none" stroke="#000000" d="M 419 727 L 647 585" stroke-miterlimit="10" stroke-dasharray="3"/></g><g transform="translate(-14,-30) scale(1,1)"><path fill="none" stroke="#000000" d="M 640.5989797517348 593.9457777627939 L 647 585 L 636.1481750568798 586.7994152949987" stroke-miterlimit="10"/></g><g transform="translate(-14,-30) scale(1,1)"><path fill="none" stroke="#000000" d="M 430 752 L 615 730" stroke-miterlimit="10" stroke-dasharray="3"/></g><g transform="translate(-14,-30) scale(1,1)"><path fill="none" stroke="#000000" d="M 605.4055194538969 735.3801434042642 L 615 730 L 604.4113418589767 727.0200136287995" stroke-miterlimit="10"/></g><g transform="translate(-14,-30) scale(1,1)"><path fill="none" stroke="#000000" d="M 316 457 L 364 543" stroke-miterlimit="10" stroke-dasharray="3"/></g><g transform="translate(-14,-30) scale(1,1)"><path fill="none" stroke="#000000" d="M 355.37131495564535 536.1775521691015 L 364 543 L 362.72279741793363 532.0743991668942" stroke-miterlimit="10"/></g><g transform="translate(-14,-30) scale(1,1)"><path fill="none" stroke="#000000" d="M 545 169 L 543 223" stroke-miterlimit="10" stroke-dasharray="3"/></g><g transform="translate(-14,-30) scale(1,1)"><path fill="none" stroke="#000000" d="M 539.1695039351113 212.68848702193165 L 543 223 L 547.582771008294 213.0000895061236" stroke-miterlimit="10"/></g><g transform="translate(-14,-30) scale(1,1)"><path fill="none" stroke="#000000" d="M 972 719 L 709 409" stroke-miterlimit="10" stroke-dasharray="3"/></g><g transform="translate(-14,-30) scale(1,1)"><path fill="none" stroke="#000000" d="M 718.7845315281186 414.02622549984113 L 709 409 L 712.3646304595559 419.47278672897664" stroke-miterlimit="10"/></g><g transform="translate(-14,-30) scale(1,1)"><path fill="none" stroke="#000000" d="M 1095 357 L 590 265" stroke-miterlimit="10" stroke-dasharray="3"/></g><g transform="translate(-14,-30) scale(1,1)"><path fill="none" stroke="#000000" d="M 600.7525805538663 262.68008374448215 L 590 265 L 599.2436511409551 270.9627941088319" stroke-miterlimit="10"/></g><g transform="translate(-14,-30) scale(1,1)"><path fill="none" stroke="#000000" d="M 675 601 L 677 679" stroke-miterlimit="10"/></g><g transform="translate(-14,-30) scale(1,1)"><g><path fill="none" stroke="none"/><text fill="#000000" stroke="none" font-family="Arial" font-size="13px" font-style="normal" font-weight="normal" text-decoration="none" x="659.5" y="628.5">1</text></g></g><g transform="translate(-14,-30) scale(1,1)"><g><path fill="none" stroke="none"/><text fill="#000000" stroke="none" font-family="Arial" font-size="13px" font-style="normal" font-weight="normal" text-decoration="none" x="653.58544921875" y="663.5">1..*</text></g></g><g transform="translate(-14,-30) scale(1,1)"><path fill="none" stroke="#000000" d="M 742 698 L 943 622" stroke-miterlimit="10"/></g><g transform="translate(-14,-30) scale(1,1)"><g><path fill="none" stroke="none"/><text fill="#000000" stroke="none" font-family="Arial" font-size="13px" font-style="normal" font-weight="normal" text-decoration="none" x="756.5" y="708.5">1..*</text></g></g><g transform="translate(-14,-30) scale(1,1)"><g><path fill="none" stroke="none"/><text fill="#000000" stroke="none" font-family="Arial" font-size="13px" font-style="normal" font-weight="normal" text-decoration="none" x="923.5" y="647.5">1</text></g></g></g></svg>