<svg version="1.1" xmlns="http://www.w3.org/2000/svg" xmlns:xlink="http://www.w3.org/1999/xlink" width="620" height="1676"><defs/><g><g transform="translate(-6,-118) scale(1,1)"><rect fill="#ffffff" stroke="none" x="216" y="128" width="200" height="21"/></g><g transform="translate(-6,-118) scale(1,1)"><path fill="none" stroke="#000000" d="M 216 128 L 416 128 L 416 149 L 216 149 L 216 128 Z Z" stroke-miterlimit="10" stroke-width="2"/></g><g transform="translate(-6,-118) scale(1,1)"><path fill="none" stroke="#000000" d="M 216 1784 L 216 128 L 416 128 L 416 1784" stroke-miterlimit="10" stroke-width="2"/></g><g transform="translate(-6,-118) scale(1,1)"><g><path fill="none" stroke="none"/><text fill="#000000" stroke="none" font-family="Arial" font-size="13px" font-style="normal" font-weight="normal" text-decoration="none" x="289.619140625" y="145">Hệ thống</text></g></g><g transform="translate(-6,-118) scale(1,1)"><rect fill="#ffffff" stroke="none" x="416" y="128" width="200" height="21"/></g><g transform="translate(-6,-118) scale(1,1)"><path fill="none" stroke="#000000" d="M 416 128 L 616 128 L 616 149 L 416 149 L 416 128 Z Z" stroke-miterlimit="10" stroke-width="2"/></g><g transform="translate(-6,-118) scale(1,1)"><path fill="none" stroke="#000000" d="M 416 1784 L 416 128 L 616 128 L 616 1784" stroke-miterlimit="10" stroke-width="2"/></g><g transform="translate(-6,-118) scale(1,1)"><g><path fill="none" stroke="none"/><text fill="#000000" stroke="none" font-family="Arial" font-size="13px" font-style="normal" font-weight="normal" text-decoration="none" x="498.661376953125" y="145">CSDL</text></g></g><g transform="translate(-6,-118) scale(1,1)"><rect fill="#ffffff" stroke="none" x="16" y="128" width="200" height="21"/></g><g transform="translate(-6,-118) scale(1,1)"><path fill="none" stroke="#000000" d="M 16 128 L 216 128 L 216 149 L 16 149 L 16 128 Z Z" stroke-miterlimit="10" stroke-width="2"/></g><g transform="translate(-6,-118) scale(1,1)"><path fill="none" stroke="#000000" d="M 16 1784 L 16 128 L 216 128 L 216 1784" stroke-miterlimit="10" stroke-width="2"/></g><g transform="translate(-6,-118) scale(1,1)"><g><path fill="none" stroke="none"/><text fill="#000000" stroke="none" font-family="Arial" font-size="13px" font-style="normal" font-weight="normal" text-decoration="none" x="81.3671875" y="145">Nhân viên</text></g></g><g transform="translate(-6,-118) scale(1,1)"><path fill="#C0C0C0" stroke="none" d="M 265 231 L 381 231 Q 391 231 391 241 L 391 287 Q 391 297 381 297 L 265 297 Q 255 297 255 287 L 255 241 Q 255 231 265 231 Z" opacity="0.2"/></g><g transform="translate(-6,-118) scale(1,1)"><path fill="#ffffff" stroke="none" d="M 258 224 L 374 224 Q 384 224 384 234 L 384 280 Q 384 290 374 290 L 258 290 Q 248 290 248 280 L 248 234 Q 248 224 258 224 Z"/></g><g transform="translate(-6,-118) scale(1,1)"><path fill="none" stroke="#000000" d="M 258 224 L 374 224 Q 384 224 384 234 L 384 280 Q 384 290 374 290 L 258 290 Q 248 290 248 280 L 248 234 Q 248 224 258 224 Z" stroke-miterlimit="10"/></g><g transform="translate(-6,-118) scale(1,1)"><g><path fill="none" stroke="none"/><text fill="#000000" stroke="none" font-family="Arial" font-size="13px" font-style="normal" font-weight="bold" text-decoration="none" x="265.77099609375" y="243.5">Hiển thị giao diện</text><text fill="#000000" stroke="none" font-family="Arial" font-size="13px" font-style="normal" font-weight="bold" text-decoration="none" x="265.044189453125" y="256.5">quản lý nhân viên</text></g></g><g transform="translate(-6,-118) scale(1,1)"><path fill="none" stroke="#000000" d="M 320 179 L 320 224" stroke-miterlimit="10"/></g><g transform="translate(-6,-118) scale(1,1)"><path fill="none" stroke="#000000" d="M 315.790482243984 213.83732514237585 L 320 224 L 324.209517756016 213.83732514237585" stroke-miterlimit="10"/></g><g transform="translate(-6,-118) scale(1,1)"><path fill="#C0C0C0" stroke="none" d="M 319 176.5 C 319 171.2532944 323.2532944 167 328.5 167 C 333.7467056 167 338 171.2532944 338 176.5 C 338 181.7467056 333.7467056 186 328.5 186 C 323.2532944 186 319 181.7467056 319 176.5 Z" opacity="0.2"/></g><g transform="translate(-6,-118) scale(1,1)"><path fill="#000000" stroke="none" d="M 312 169.5 C 312 164.2532944 316.2532944 160 321.5 160 C 326.7467056 160 331 164.2532944 331 169.5 C 331 174.7467056 326.7467056 179 321.5 179 C 316.2532944 179 312 174.7467056 312 169.5 Z"/></g><g transform="translate(-6,-118) scale(1,1)"><path fill="none" stroke="#000000" d="M 455 217 L 385 237" stroke-miterlimit="10"/></g><g transform="translate(-6,-118) scale(1,1)"><path fill="none" stroke="#000000" d="M 393.61521178185615 230.16054637023052 L 385 237 L 395.92809871352966 238.2556506310878" stroke-miterlimit="10"/></g><g transform="translate(-6,-118) scale(1,1)"><rect fill="#C0C0C0" stroke="none" x="463" y="191" width="104" height="37" opacity="0.2"/></g><g transform="translate(-6,-118) scale(1,1)"><rect fill="#ffffff" stroke="none" x="456" y="184" width="104" height="37"/></g><g transform="translate(-6,-118) scale(1,1)"><path fill="none" stroke="#000000" d="M 456 184 L 560 184 L 560 221 L 456 221 L 456 184 Z Z" stroke-miterlimit="10"/></g><g transform="translate(-6,-118) scale(1,1)"><rect fill="#ffffff" stroke="none" x="456" y="184" width="104" height="37"/></g><g transform="translate(-6,-118) scale(1,1)"><path fill="none" stroke="#000000" d="M 456 184 L 560 184 L 560 221 L 456 221 L 456 184 Z Z" stroke-miterlimit="10"/></g><g transform="translate(-6,-118) scale(1,1)"><g><path fill="none" stroke="none"/><text fill="#000000" stroke="none" font-family="Arial" font-size="13px" font-style="normal" font-weight="bold" text-decoration="none" x="469.35546875" y="203.5">KHUYENMAI</text></g></g><g transform="translate(-6,-118) scale(1,1)"><path fill="none" stroke="#000000" d="M 248 257 L 160 257" stroke-miterlimit="10"/></g><g transform="translate(-6,-118) scale(1,1)"><path fill="none" stroke="#000000" d="M 170.16267485762415 252.790482243984 L 160 257 L 170.16267485762415 261.209517756016" stroke-miterlimit="10"/></g><g transform="translate(-6,-118) scale(1,1)"><path fill="#C0C0C0" stroke="none" d="M 65 247 L 157.3017578125 247 Q 167.3017578125 247 167.3017578125 257 L 167.3017578125 277 Q 167.3017578125 287 157.3017578125 287 L 65 287 Q 55 287 55 277 L 55 257 Q 55 247 65 247 Z" opacity="0.2"/></g><g transform="translate(-6,-118) scale(1,1)"><path fill="#ffffff" stroke="none" d="M 58 240 L 150.3017578125 240 Q 160.3017578125 240 160.3017578125 250 L 160.3017578125 270 Q 160.3017578125 280 150.3017578125 280 L 58 280 Q 48 280 48 270 L 48 250 Q 48 240 58 240 Z"/></g><g transform="translate(-6,-118) scale(1,1)"><path fill="none" stroke="#000000" d="M 58 240 L 150.3017578125 240 Q 160.3017578125 240 160.3017578125 250 L 160.3017578125 270 Q 160.3017578125 280 150.3017578125 280 L 58 280 Q 48 280 48 270 L 48 250 Q 48 240 58 240 Z" stroke-miterlimit="10"/></g><g transform="translate(-6,-118) scale(1,1)"><g><path fill="none" stroke="none"/><text fill="#000000" stroke="none" font-family="Arial" font-size="13px" font-style="normal" font-weight="bold" text-decoration="none" x="56.07373046875" y="259.5">Chọn chức năng</text></g></g><g transform="translate(-6,-118) scale(1,1)"><path fill="none" stroke="#000000" d="M 103 280 L 103 312" stroke-miterlimit="10"/></g><g transform="translate(-6,-118) scale(1,1)"><path fill="none" stroke="#000000" d="M 98.79048224398402 301.83732514237585 L 103 312 L 107.20951775601598 301.83732514237585" stroke-miterlimit="10"/></g><g transform="translate(-6,-118) scale(1,1)"><path fill="none" stroke="#000000" d="M 87 326 L 24 352 L 24 800 L 91 863" stroke-miterlimit="10"/></g><g transform="translate(-6,-118) scale(1,1)"><path fill="none" stroke="#000000" d="M 80.71267010901768 859.1050232716867 L 91 863 L 86.47992373093743 852.9715948166292" stroke-miterlimit="10"/></g><g transform="translate(-6,-118) scale(1,1)"><g><path fill="none" stroke="none"/><text fill="#000000" stroke="none" font-family="Arial" font-size="13px" font-style="normal" font-weight="normal" text-decoration="none" x="23.5" y="324.5">Tra cứu</text></g></g><g transform="translate(-6,-118) scale(1,1)"><path fill="none" stroke="#000000" d="M 110 330 L 110 359 L 264 359" stroke-miterlimit="10"/></g><g transform="translate(-6,-118) scale(1,1)"><path fill="none" stroke="#000000" d="M 253.83732514237585 363.209517756016 L 264 359 L 253.83732514237585 354.790482243984" stroke-miterlimit="10"/></g><g transform="translate(-6,-118) scale(1,1)"><g><path fill="none" stroke="none"/><text fill="#000000" stroke="none" font-family="Arial" font-size="13px" font-style="normal" font-weight="normal" text-decoration="none" x="119.5" y="356.5">Thêm</text></g></g><g transform="translate(-6,-118) scale(1,1)"><path fill="#C0C0C0" stroke="none" d="M 95 328.5 L 106.5 319 L 117 328.5 L 106.5 337 L 95 328.5" opacity="0.2"/></g><g transform="translate(-6,-118) scale(1,1)"><path fill="#ffffff" stroke="none" d="M 88 321 L 99 312 L 110 321 L 99 330 L 88 321"/></g><g transform="translate(-6,-118) scale(1,1)"><path fill="none" stroke="#000000" d="M 88 321 L 99 312 L 110 321 L 99 330 L 88 321 L 88 321" stroke-miterlimit="10"/></g><g transform="translate(-6,-118) scale(1,1)"><path fill="#C0C0C0" stroke="none" d="M 281 327 L 365 327 Q 375 327 375 337 L 375 396 Q 375 406 365 406 L 281 406 Q 271 406 271 396 L 271 337 Q 271 327 281 327 Z" opacity="0.2"/></g><g transform="translate(-6,-118) scale(1,1)"><path fill="#ffffff" stroke="none" d="M 274 320 L 358 320 Q 368 320 368 330 L 368 389 Q 368 399 358 399 L 274 399 Q 264 399 264 389 L 264 330 Q 264 320 274 320 Z"/></g><g transform="translate(-6,-118) scale(1,1)"><path fill="none" stroke="#000000" d="M 274 320 L 358 320 Q 368 320 368 330 L 368 389 Q 368 399 358 399 L 274 399 Q 264 399 264 389 L 264 330 Q 264 320 274 320 Z" stroke-miterlimit="10"/></g><g transform="translate(-6,-118) scale(1,1)"><g><path fill="none" stroke="none"/><text fill="#000000" stroke="none" font-family="Arial" font-size="13px" font-style="normal" font-weight="bold" text-decoration="none" x="279.865966796875" y="339.5">Hiển thị giao</text><text fill="#000000" stroke="none" font-family="Arial" font-size="13px" font-style="normal" font-weight="bold" text-decoration="none" x="276.96826171875" y="352.5">diện thông tin</text><text fill="#000000" stroke="none" font-family="Arial" font-size="13px" font-style="normal" font-weight="bold" text-decoration="none" x="287.81005859375" y="365.5">nhân viên</text></g></g><g transform="translate(-6,-118) scale(1,1)"><path fill="#C0C0C0" stroke="none" d="M 73 447 L 165 447 Q 175 447 175 457 L 175 503 Q 175 513 165 513 L 73 513 Q 63 513 63 503 L 63 457 Q 63 447 73 447 Z" opacity="0.2"/></g><g transform="translate(-6,-118) scale(1,1)"><path fill="#ffffff" stroke="none" d="M 66 440 L 158 440 Q 168 440 168 450 L 168 496 Q 168 506 158 506 L 66 506 Q 56 506 56 496 L 56 450 Q 56 440 66 440 Z"/></g><g transform="translate(-6,-118) scale(1,1)"><path fill="none" stroke="#000000" d="M 66 440 L 158 440 Q 168 440 168 450 L 168 496 Q 168 506 158 506 L 66 506 Q 56 506 56 496 L 56 450 Q 56 440 66 440 Z" stroke-miterlimit="10"/></g><g transform="translate(-6,-118) scale(1,1)"><g><path fill="none" stroke="none"/><text fill="#000000" stroke="none" font-family="Arial" font-size="13px" font-style="normal" font-weight="bold" text-decoration="none" x="69.71826171875" y="459.5">Nhập thông tin</text><text fill="#000000" stroke="none" font-family="Arial" font-size="13px" font-style="normal" font-weight="bold" text-decoration="none" x="75.13916015625" y="472.5">nhân viên và</text><text fill="#000000" stroke="none" font-family="Arial" font-size="13px" font-style="normal" font-weight="bold" text-decoration="none" x="85.619140625" y="485.5">xác nhận</text></g></g><g transform="translate(-6,-118) scale(1,1)"><path fill="#C0C0C0" stroke="none" d="M 257 495 L 373 495 Q 383 495 383 505 L 383 538 Q 383 548 373 548 L 257 548 Q 247 548 247 538 L 247 505 Q 247 495 257 495 Z" opacity="0.2"/></g><g transform="translate(-6,-118) scale(1,1)"><path fill="#ffffff" stroke="none" d="M 250 488 L 366 488 Q 376 488 376 498 L 376 531 Q 376 541 366 541 L 250 541 Q 240 541 240 531 L 240 498 Q 240 488 250 488 Z"/></g><g transform="translate(-6,-118) scale(1,1)"><path fill="none" stroke="#000000" d="M 250 488 L 366 488 Q 376 488 376 498 L 376 531 Q 376 541 366 541 L 250 541 Q 240 541 240 531 L 240 498 Q 240 488 250 488 Z" stroke-miterlimit="10"/></g><g transform="translate(-6,-118) scale(1,1)"><g><path fill="none" stroke="none"/><text fill="#000000" stroke="none" font-family="Arial" font-size="13px" font-style="normal" font-weight="bold" text-decoration="none" x="253.438720703125" y="507.5">Kiểm tra định dạng</text><text fill="#000000" stroke="none" font-family="Arial" font-size="13px" font-style="normal" font-weight="bold" text-decoration="none" x="288.109619140625" y="520.5">dữ liệu</text></g></g><g transform="translate(-6,-118) scale(1,1)"><path fill="none" stroke="#000000" d="M 316 541 L 316 576" stroke-miterlimit="10"/></g><g transform="translate(-6,-118) scale(1,1)"><path fill="none" stroke="#000000" d="M 311.790482243984 565.8373251423759 L 316 576 L 320.209517756016 565.8373251423759" stroke-miterlimit="10"/></g><g transform="translate(-6,-118) scale(1,1)"><path fill="none" stroke="#000000" d="M 315 594 L 315 624" stroke-miterlimit="10"/></g><g transform="translate(-6,-118) scale(1,1)"><path fill="none" stroke="#000000" d="M 310.790482243984 613.8373251423759 L 315 624 L 319.209517756016 613.8373251423759" stroke-miterlimit="10"/></g><g transform="translate(-6,-118) scale(1,1)"><g><path fill="none" stroke="none"/><text fill="#000000" stroke="none" font-family="Arial" font-size="13px" font-style="normal" font-weight="normal" text-decoration="none" x="290.5" y="614.5">Không hợp lệ</text></g></g><g transform="translate(-6,-118) scale(1,1)"><path fill="#C0C0C0" stroke="none" d="M 311 592.5 L 322.5 583 L 333 592.5 L 322.5 601 L 311 592.5" opacity="0.2"/></g><g transform="translate(-6,-118) scale(1,1)"><path fill="#ffffff" stroke="none" d="M 304 585 L 315 576 L 326 585 L 315 594 L 304 585"/></g><g transform="translate(-6,-118) scale(1,1)"><path fill="none" stroke="#000000" d="M 304 585 L 315 576 L 326 585 L 315 594 L 304 585 L 304 585" stroke-miterlimit="10"/></g><g transform="translate(-6,-118) scale(1,1)"><path fill="#C0C0C0" stroke="none" d="M 465 559 L 565 559 Q 575 559 575 569 L 575 602 Q 575 612 565 612 L 465 612 Q 455 612 455 602 L 455 569 Q 455 559 465 559 Z" opacity="0.2"/></g><g transform="translate(-6,-118) scale(1,1)"><path fill="#ffffff" stroke="none" d="M 458 552 L 558 552 Q 568 552 568 562 L 568 595 Q 568 605 558 605 L 458 605 Q 448 605 448 595 L 448 562 Q 448 552 458 552 Z"/></g><g transform="translate(-6,-118) scale(1,1)"><path fill="none" stroke="#000000" d="M 458 552 L 558 552 Q 568 552 568 562 L 568 595 Q 568 605 558 605 L 458 605 Q 448 605 448 595 L 448 562 Q 448 552 458 552 Z" stroke-miterlimit="10"/></g><g transform="translate(-6,-118) scale(1,1)"><g><path fill="none" stroke="none"/><text fill="#000000" stroke="none" font-family="Arial" font-size="13px" font-style="normal" font-weight="bold" text-decoration="none" x="465.727783203125" y="571.5">Kiểm tra thông</text><text fill="#000000" stroke="none" font-family="Arial" font-size="13px" font-style="normal" font-weight="bold" text-decoration="none" x="471.13916015625" y="584.5">tin nhân viên</text></g></g><g transform="translate(-6,-118) scale(1,1)"><path fill="none" stroke="#000000" d="M 508 605 L 508 632" stroke-miterlimit="10"/></g><g transform="translate(-6,-118) scale(1,1)"><path fill="none" stroke="#000000" d="M 503.790482243984 621.8373251423759 L 508 632 L 512.209517756016 621.8373251423759" stroke-miterlimit="10"/></g><g transform="translate(-6,-118) scale(1,1)"><path fill="none" stroke="#000000" d="M 507 650 L 507 712" stroke-miterlimit="10"/></g><g transform="translate(-6,-118) scale(1,1)"><path fill="none" stroke="#000000" d="M 502.790482243984 701.8373251423759 L 507 712 L 511.209517756016 701.8373251423759" stroke-miterlimit="10"/></g><g transform="translate(-6,-118) scale(1,1)"><g><path fill="none" stroke="none"/><text fill="#000000" stroke="none" font-family="Arial" font-size="13px" font-style="normal" font-weight="normal" text-decoration="none" x="501.5" y="686.5">Hợp lệ</text></g></g><g transform="translate(-6,-118) scale(1,1)"><path fill="#C0C0C0" stroke="none" d="M 265 631 L 373 631 Q 383 631 383 641 L 383 674 Q 383 684 373 684 L 265 684 Q 255 684 255 674 L 255 641 Q 255 631 265 631 Z" opacity="0.2"/></g><g transform="translate(-6,-118) scale(1,1)"><path fill="#ffffff" stroke="none" d="M 258 624 L 366 624 Q 376 624 376 634 L 376 667 Q 376 677 366 677 L 258 677 Q 248 677 248 667 L 248 634 Q 248 624 258 624 Z"/></g><g transform="translate(-6,-118) scale(1,1)"><path fill="none" stroke="#000000" d="M 258 624 L 366 624 Q 376 624 376 634 L 376 667 Q 376 677 366 677 L 258 677 Q 248 677 248 667 L 248 634 Q 248 624 258 624 Z" stroke-miterlimit="10"/></g><g transform="translate(-6,-118) scale(1,1)"><g><path fill="none" stroke="none"/><text fill="#000000" stroke="none" font-family="Arial" font-size="13px" font-style="normal" font-weight="bold" text-decoration="none" x="259.222412109375" y="643.5">Thông báo dữ liệu</text><text fill="#000000" stroke="none" font-family="Arial" font-size="13px" font-style="normal" font-weight="bold" text-decoration="none" x="274.126708984375" y="656.5">không hợp lệ</text></g></g><g transform="translate(-6,-118) scale(1,1)"><path fill="#C0C0C0" stroke="none" d="M 473 719 L 549 719 Q 559 719 559 729 L 559 762 Q 559 772 549 772 L 473 772 Q 463 772 463 762 L 463 729 Q 463 719 473 719 Z" opacity="0.2"/></g><g transform="translate(-6,-118) scale(1,1)"><path fill="#ffffff" stroke="none" d="M 466 712 L 542 712 Q 552 712 552 722 L 552 755 Q 552 765 542 765 L 466 765 Q 456 765 456 755 L 456 722 Q 456 712 466 712 Z"/></g><g transform="translate(-6,-118) scale(1,1)"><path fill="none" stroke="#000000" d="M 466 712 L 542 712 Q 552 712 552 722 L 552 755 Q 552 765 542 765 L 466 765 Q 456 765 456 755 L 456 722 Q 456 712 466 712 Z" stroke-miterlimit="10"/></g><g transform="translate(-6,-118) scale(1,1)"><g><path fill="none" stroke="none"/><text fill="#000000" stroke="none" font-family="Arial" font-size="13px" font-style="normal" font-weight="bold" text-decoration="none" x="465.676025390625" y="731.5">Lưu thông tin</text><text fill="#000000" stroke="none" font-family="Arial" font-size="13px" font-style="normal" font-weight="bold" text-decoration="none" x="475.81005859375" y="744.5">nhân viên</text></g></g><g transform="translate(-6,-118) scale(1,1)"><path fill="#C0C0C0" stroke="none" d="M 503 648.5 L 514.5 639 L 525 648.5 L 514.5 657 L 503 648.5" opacity="0.2"/></g><g transform="translate(-6,-118) scale(1,1)"><path fill="#ffffff" stroke="none" d="M 496 641 L 507 632 L 518 641 L 507 650 L 496 641"/></g><g transform="translate(-6,-118) scale(1,1)"><path fill="none" stroke="#000000" d="M 496 641 L 507 632 L 518 641 L 507 650 L 496 641 L 496 641" stroke-miterlimit="10"/></g><g transform="translate(-6,-118) scale(1,1)"><path fill="none" stroke="#000000" d="M 511 765 L 511 808" stroke-miterlimit="10"/></g><g transform="translate(-6,-118) scale(1,1)"><path fill="none" stroke="#000000" d="M 506.790482243984 797.8373251423759 L 511 808 L 515.209517756016 797.8373251423759" stroke-miterlimit="10"/></g><g transform="translate(-6,-118) scale(1,1)"><path fill="#C0C0C0" stroke="none" d="M 265 719 L 365 719 Q 375 719 375 729 L 375 788 Q 375 798 365 798 L 265 798 Q 255 798 255 788 L 255 729 Q 255 719 265 719 Z" opacity="0.2"/></g><g transform="translate(-6,-118) scale(1,1)"><path fill="#ffffff" stroke="none" d="M 258 712 L 358 712 Q 368 712 368 722 L 368 781 Q 368 791 358 791 L 258 791 Q 248 791 248 781 L 248 722 Q 248 712 258 712 Z"/></g><g transform="translate(-6,-118) scale(1,1)"><path fill="none" stroke="#000000" d="M 258 712 L 358 712 Q 368 712 368 722 L 368 781 Q 368 791 358 791 L 258 791 Q 248 791 248 781 L 248 722 Q 248 712 258 712 Z" stroke-miterlimit="10"/></g><g transform="translate(-6,-118) scale(1,1)"><g><path fill="none" stroke="none"/><text fill="#000000" stroke="none" font-family="Arial" font-size="13px" font-style="normal" font-weight="bold" text-decoration="none" x="258.846923828125" y="731.5">Thông báo thành</text><text fill="#000000" stroke="none" font-family="Arial" font-size="13px" font-style="normal" font-weight="bold" text-decoration="none" x="262.46826171875" y="744.5">công và hiển thị</text><text fill="#000000" stroke="none" font-family="Arial" font-size="13px" font-style="normal" font-weight="bold" text-decoration="none" x="258.85009765625" y="757.5">giao diện quản lý</text><text fill="#000000" stroke="none" font-family="Arial" font-size="13px" font-style="normal" font-weight="bold" text-decoration="none" x="279.81005859375" y="770.5">nhân viên</text></g></g><g transform="translate(-6,-118) scale(1,1)"><path fill="#C0C0C0" stroke="none" d="M 81 871 L 173 871 Q 183 871 183 881 L 183 914 Q 183 924 173 924 L 81 924 Q 71 924 71 914 L 71 881 Q 71 871 81 871 Z" opacity="0.2"/></g><g transform="translate(-6,-118) scale(1,1)"><path fill="#ffffff" stroke="none" d="M 74 864 L 166 864 Q 176 864 176 874 L 176 907 Q 176 917 166 917 L 74 917 Q 64 917 64 907 L 64 874 Q 64 864 74 864 Z"/></g><g transform="translate(-6,-118) scale(1,1)"><path fill="none" stroke="#000000" d="M 74 864 L 166 864 Q 176 864 176 874 L 176 907 Q 176 917 166 917 L 74 917 Q 64 917 64 907 L 64 874 Q 64 864 74 864 Z" stroke-miterlimit="10"/></g><g transform="translate(-6,-118) scale(1,1)"><g><path fill="none" stroke="none"/><text fill="#000000" stroke="none" font-family="Arial" font-size="13px" font-style="normal" font-weight="bold" text-decoration="none" x="77.71826171875" y="883.5">Nhập thông tin</text><text fill="#000000" stroke="none" font-family="Arial" font-size="13px" font-style="normal" font-weight="bold" text-decoration="none" x="87.1064453125" y="896.5">cần tra cứu</text></g></g><g transform="translate(-6,-118) scale(1,1)"><path fill="none" stroke="#000000" d="M 177 890 L 255 890" stroke-miterlimit="10"/></g><g transform="translate(-6,-118) scale(1,1)"><path fill="none" stroke="#000000" d="M 244.83732514237585 894.209517756016 L 255 890 L 244.83732514237585 885.790482243984" stroke-miterlimit="10"/></g><g transform="translate(-6,-118) scale(1,1)"><path fill="#C0C0C0" stroke="none" d="M 273 871 L 381 871 Q 391 871 391 881 L 391 914 Q 391 924 381 924 L 273 924 Q 263 924 263 914 L 263 881 Q 263 871 273 871 Z" opacity="0.2"/></g><g transform="translate(-6,-118) scale(1,1)"><path fill="#ffffff" stroke="none" d="M 266 864 L 374 864 Q 384 864 384 874 L 384 907 Q 384 917 374 917 L 266 917 Q 256 917 256 907 L 256 874 Q 256 864 266 864 Z"/></g><g transform="translate(-6,-118) scale(1,1)"><path fill="none" stroke="#000000" d="M 266 864 L 374 864 Q 384 864 384 874 L 384 907 Q 384 917 374 917 L 266 917 Q 256 917 256 907 L 256 874 Q 256 864 266 864 Z" stroke-miterlimit="10"/></g><g transform="translate(-6,-118) scale(1,1)"><g><path fill="none" stroke="none"/><text fill="#000000" stroke="none" font-family="Arial" font-size="13px" font-style="normal" font-weight="bold" text-decoration="none" x="273.735107421875" y="883.5">Yêu cầu tra cứu</text><text fill="#000000" stroke="none" font-family="Arial" font-size="13px" font-style="normal" font-weight="bold" text-decoration="none" x="295.063232421875" y="896.5">thông tin</text></g></g><g transform="translate(-6,-118) scale(1,1)"><path fill="#C0C0C0" stroke="none" d="M 473 863 L 549 863 Q 559 863 559 873 L 559 919 Q 559 929 549 929 L 473 929 Q 463 929 463 919 L 463 873 Q 463 863 473 863 Z" opacity="0.2"/></g><g transform="translate(-6,-118) scale(1,1)"><path fill="#ffffff" stroke="none" d="M 466 856 L 542 856 Q 552 856 552 866 L 552 912 Q 552 922 542 922 L 466 922 Q 456 922 456 912 L 456 866 Q 456 856 466 856 Z"/></g><g transform="translate(-6,-118) scale(1,1)"><path fill="none" stroke="#000000" d="M 466 856 L 542 856 Q 552 856 552 866 L 552 912 Q 552 922 542 922 L 466 922 Q 456 922 456 912 L 456 866 Q 456 856 466 856 Z" stroke-miterlimit="10"/></g><g transform="translate(-6,-118) scale(1,1)"><g><path fill="none" stroke="none"/><text fill="#000000" stroke="none" font-family="Arial" font-size="13px" font-style="normal" font-weight="bold" text-decoration="none" x="478.955322265625" y="875.5">Truy vấn</text><text fill="#000000" stroke="none" font-family="Arial" font-size="13px" font-style="normal" font-weight="bold" text-decoration="none" x="468.23095703125" y="888.5">thông tin tìm</text><text fill="#000000" stroke="none" font-family="Arial" font-size="13px" font-style="normal" font-weight="bold" text-decoration="none" x="490.2763671875" y="901.5">kiếm</text></g></g><g transform="translate(-6,-118) scale(1,1)"><path fill="none" stroke="#000000" d="M 505 923 L 507 975" stroke-miterlimit="10"/></g><g transform="translate(-6,-118) scale(1,1)"><path fill="none" stroke="#000000" d="M 502.4030090188142 965.0066184942785 L 507 975 L 510.81582433383 964.6830486744702" stroke-miterlimit="10"/></g><g transform="translate(-6,-118) scale(1,1)"><path fill="none" stroke="#000000" d="M 496 991 L 376 991" stroke-miterlimit="10"/></g><g transform="translate(-6,-118) scale(1,1)"><path fill="none" stroke="#000000" d="M 386.16267485762415 986.790482243984 L 376 991 L 386.16267485762415 995.209517756016" stroke-miterlimit="10"/></g><g transform="translate(-6,-118) scale(1,1)"><g><path fill="none" stroke="none"/><text fill="#000000" stroke="none" font-family="Arial" font-size="13px" font-style="normal" font-weight="normal" text-decoration="none" x="414.5" y="988.5">Không tồn tại</text></g></g><g transform="translate(-6,-118) scale(1,1)"><path fill="none" stroke="#000000" d="M 310 1122 L 310 1152" stroke-miterlimit="10"/></g><g transform="translate(-6,-118) scale(1,1)"><path fill="none" stroke="#000000" d="M 305.790482243984 1141.837325142376 L 310 1152 L 314.209517756016 1141.837325142376" stroke-miterlimit="10"/></g><g transform="translate(-6,-118) scale(1,1)"><path fill="#C0C0C0" stroke="none" d="M 303 1168.5 L 314.5 1159 L 325 1168.5 L 314.5 1177 L 303 1168.5" opacity="0.2"/></g><g transform="translate(-6,-118) scale(1,1)"><path fill="#ffffff" stroke="none" d="M 296 1161 L 307 1152 L 318 1161 L 307 1170 L 296 1161"/></g><g transform="translate(-6,-118) scale(1,1)"><path fill="none" stroke="#000000" d="M 296 1161 L 307 1152 L 318 1161 L 307 1170 L 296 1161 L 296 1161" stroke-miterlimit="10"/></g><g transform="translate(-6,-118) scale(1,1)"><path fill="#C0C0C0" stroke="none" d="M 65 1223 L 149 1223 Q 159 1223 159 1233 L 159 1292 Q 159 1302 149 1302 L 65 1302 Q 55 1302 55 1292 L 55 1233 Q 55 1223 65 1223 Z" opacity="0.2"/></g><g transform="translate(-6,-118) scale(1,1)"><path fill="#ffffff" stroke="none" d="M 58 1216 L 142 1216 Q 152 1216 152 1226 L 152 1285 Q 152 1295 142 1295 L 58 1295 Q 48 1295 48 1285 L 48 1226 Q 48 1216 58 1216 Z"/></g><g transform="translate(-6,-118) scale(1,1)"><path fill="none" stroke="#000000" d="M 58 1216 L 142 1216 Q 152 1216 152 1226 L 152 1285 Q 152 1295 142 1295 L 58 1295 Q 48 1295 48 1285 L 48 1226 Q 48 1216 58 1216 Z" stroke-miterlimit="10"/></g><g transform="translate(-6,-118) scale(1,1)"><g><path fill="none" stroke="none"/><text fill="#000000" stroke="none" font-family="Arial" font-size="13px" font-style="normal" font-weight="bold" text-decoration="none" x="63.869140625" y="1235.5">Chọn và xác</text><text fill="#000000" stroke="none" font-family="Arial" font-size="13px" font-style="normal" font-weight="bold" text-decoration="none" x="58.79736328125" y="1248.5">nhận thông tin</text><text fill="#000000" stroke="none" font-family="Arial" font-size="13px" font-style="normal" font-weight="bold" text-decoration="none" x="59.524169921875" y="1261.5">nhân viên cần</text><text fill="#000000" stroke="none" font-family="Arial" font-size="13px" font-style="normal" font-weight="bold" text-decoration="none" x="89.52001953125" y="1274.5">xóa</text></g></g><g transform="translate(-6,-118) scale(1,1)"><path fill="none" stroke="#000000" d="M 296 1161 L 176 1161" stroke-miterlimit="10"/></g><g transform="translate(-6,-118) scale(1,1)"><path fill="none" stroke="#000000" d="M 186.16267485762415 1156.7904822439841 L 176 1161 L 186.16267485762415 1165.2095177560159" stroke-miterlimit="10"/></g><g transform="translate(-6,-118) scale(1,1)"><g><path fill="none" stroke="none"/><text fill="#000000" stroke="none" font-family="Arial" font-size="13px" font-style="normal" font-weight="normal" text-decoration="none" x="262.5" y="1157.5">Sửa</text></g></g><g transform="translate(-6,-118) scale(1,1)"><path fill="none" stroke="#000000" d="M 77 1135 L 32 1096 L 40 424 L 263 371" stroke-miterlimit="10"/></g><g transform="translate(-6,-118) scale(1,1)"><path fill="none" stroke="#000000" d="M 254.08609151006792 377.44532663509904 L 263 371 L 252.1393806892519 369.25444903053346" stroke-miterlimit="10"/></g><g transform="translate(-6,-118) scale(1,1)"><path fill="#C0C0C0" stroke="none" d="M 281 1399 L 365 1399 Q 375 1399 375 1409 L 375 1442 Q 375 1452 365 1452 L 281 1452 Q 271 1452 271 1442 L 271 1409 Q 271 1399 281 1399 Z" opacity="0.2"/></g><g transform="translate(-6,-118) scale(1,1)"><path fill="#ffffff" stroke="none" d="M 274 1392 L 358 1392 Q 368 1392 368 1402 L 368 1435 Q 368 1445 358 1445 L 274 1445 Q 264 1445 264 1435 L 264 1402 Q 264 1392 274 1392 Z"/></g><g transform="translate(-6,-118) scale(1,1)"><path fill="none" stroke="#000000" d="M 274 1392 L 358 1392 Q 368 1392 368 1402 L 368 1435 Q 368 1445 358 1445 L 274 1445 Q 264 1445 264 1435 L 264 1402 Q 264 1392 274 1392 Z" stroke-miterlimit="10"/></g><g transform="translate(-6,-118) scale(1,1)"><g><path fill="none" stroke="none"/><text fill="#000000" stroke="none" font-family="Arial" font-size="13px" font-style="normal" font-weight="bold" text-decoration="none" x="274.070556640625" y="1411.5">Xử lý thông tin</text><text fill="#000000" stroke="none" font-family="Arial" font-size="13px" font-style="normal" font-weight="bold" text-decoration="none" x="293.234130859375" y="1424.5">cần xóa</text></g></g><g transform="translate(-6,-118) scale(1,1)"><path fill="none" stroke="#000000" d="M 368 1420 L 448 1420" stroke-miterlimit="10"/></g><g transform="translate(-6,-118) scale(1,1)"><path fill="none" stroke="#000000" d="M 437.83732514237585 1424.2095177560159 L 448 1420 L 437.83732514237585 1415.7904822439841" stroke-miterlimit="10"/></g><g transform="translate(-6,-118) scale(1,1)"><path fill="#C0C0C0" stroke="none" d="M 465 1407 L 591.83935546875 1407 Q 601.83935546875 1407 601.83935546875 1417 L 601.83935546875 1437 Q 601.83935546875 1447 591.83935546875 1447 L 465 1447 Q 455 1447 455 1437 L 455 1417 Q 455 1407 465 1407 Z" opacity="0.2"/></g><g transform="translate(-6,-118) scale(1,1)"><path fill="#ffffff" stroke="none" d="M 458 1400 L 584.83935546875 1400 Q 594.83935546875 1400 594.83935546875 1410 L 594.83935546875 1430 Q 594.83935546875 1440 584.83935546875 1440 L 458 1440 Q 448 1440 448 1430 L 448 1410 Q 448 1400 458 1400 Z"/></g><g transform="translate(-6,-118) scale(1,1)"><path fill="none" stroke="#000000" d="M 458 1400 L 584.83935546875 1400 Q 594.83935546875 1400 594.83935546875 1410 L 594.83935546875 1430 Q 594.83935546875 1440 584.83935546875 1440 L 458 1440 Q 448 1440 448 1430 L 448 1410 Q 448 1400 458 1400 Z" stroke-miterlimit="10"/></g><g transform="translate(-6,-118) scale(1,1)"><g><path fill="none" stroke="none"/><text fill="#000000" stroke="none" font-family="Arial" font-size="13px" font-style="normal" font-weight="bold" text-decoration="none" x="457.15283203125" y="1419.5">Xóa được hay không?</text></g></g><g transform="translate(-6,-118) scale(1,1)"><path fill="none" stroke="#000000" d="M 520 1440 L 520 1480" stroke-miterlimit="10"/></g><g transform="translate(-6,-118) scale(1,1)"><path fill="none" stroke="#000000" d="M 515.790482243984 1469.837325142376 L 520 1480 L 524.209517756016 1469.837325142376" stroke-miterlimit="10"/></g><g transform="translate(-6,-118) scale(1,1)"><path fill="none" stroke="#000000" d="M 512 1489 L 376 1489" stroke-miterlimit="10"/></g><g transform="translate(-6,-118) scale(1,1)"><path fill="none" stroke="#000000" d="M 386.16267485762415 1484.7904822439841 L 376 1489 L 386.16267485762415 1493.2095177560159" stroke-miterlimit="10"/></g><g transform="translate(-6,-118) scale(1,1)"><g><path fill="none" stroke="none"/><text fill="#000000" stroke="none" font-family="Arial" font-size="13px" font-style="normal" font-weight="normal" text-decoration="none" x="446.5" y="1478.5">Thất bại</text></g></g><g transform="translate(-6,-118) scale(1,1)"><path fill="none" stroke="#000000" d="M 515 1498 L 515 1560" stroke-miterlimit="10"/></g><g transform="translate(-6,-118) scale(1,1)"><path fill="none" stroke="#000000" d="M 510.790482243984 1549.837325142376 L 515 1560 L 519.209517756016 1549.837325142376" stroke-miterlimit="10"/></g><g transform="translate(-6,-118) scale(1,1)"><g><path fill="none" stroke="none"/><text fill="#000000" stroke="none" font-family="Arial" font-size="13px" font-style="normal" font-weight="normal" text-decoration="none" x="517.5" y="1528.5">Thành công</text></g></g><g transform="translate(-6,-118) scale(1,1)"><path fill="#C0C0C0" stroke="none" d="M 519 1496.5 L 530.5 1487 L 541 1496.5 L 530.5 1505 L 519 1496.5" opacity="0.2"/></g><g transform="translate(-6,-118) scale(1,1)"><path fill="#ffffff" stroke="none" d="M 512 1489 L 523 1480 L 534 1489 L 523 1498 L 512 1489"/></g><g transform="translate(-6,-118) scale(1,1)"><path fill="none" stroke="#000000" d="M 512 1489 L 523 1480 L 534 1489 L 523 1498 L 512 1489 L 512 1489" stroke-miterlimit="10"/></g><g transform="translate(-6,-118) scale(1,1)"><path fill="#C0C0C0" stroke="none" d="M 281 1463 L 373 1463 Q 383 1463 383 1473 L 383 1519 Q 383 1529 373 1529 L 281 1529 Q 271 1529 271 1519 L 271 1473 Q 271 1463 281 1463 Z" opacity="0.2"/></g><g transform="translate(-6,-118) scale(1,1)"><path fill="#ffffff" stroke="none" d="M 274 1456 L 366 1456 Q 376 1456 376 1466 L 376 1512 Q 376 1522 366 1522 L 274 1522 Q 264 1522 264 1512 L 264 1466 Q 264 1456 274 1456 Z"/></g><g transform="translate(-6,-118) scale(1,1)"><path fill="none" stroke="#000000" d="M 274 1456 L 366 1456 Q 376 1456 376 1466 L 376 1512 Q 376 1522 366 1522 L 274 1522 Q 264 1522 264 1512 L 264 1466 Q 264 1456 274 1456 Z" stroke-miterlimit="10"/></g><g transform="translate(-6,-118) scale(1,1)"><g><path fill="none" stroke="none"/><text fill="#000000" stroke="none" font-family="Arial" font-size="13px" font-style="normal" font-weight="bold" text-decoration="none" x="279.88916015625" y="1475.5">Hiển thị thông</text><text fill="#000000" stroke="none" font-family="Arial" font-size="13px" font-style="normal" font-weight="bold" text-decoration="none" x="277.353271484375" y="1488.5">báo xóa không</text><text fill="#000000" stroke="none" font-family="Arial" font-size="13px" font-style="normal" font-weight="bold" text-decoration="none" x="287.833251953125" y="1501.5">thành công</text></g></g><g transform="translate(-6,-118) scale(1,1)"><path fill="#C0C0C0" stroke="none" d="M 489 1567 L 562.49365234375 1567 Q 572.49365234375 1567 572.49365234375 1577 L 572.49365234375 1597 Q 572.49365234375 1607 562.49365234375 1607 L 489 1607 Q 479 1607 479 1597 L 479 1577 Q 479 1567 489 1567 Z" opacity="0.2"/></g><g transform="translate(-6,-118) scale(1,1)"><path fill="#ffffff" stroke="none" d="M 482 1560 L 555.49365234375 1560 Q 565.49365234375 1560 565.49365234375 1570 L 565.49365234375 1590 Q 565.49365234375 1600 555.49365234375 1600 L 482 1600 Q 472 1600 472 1590 L 472 1570 Q 472 1560 482 1560 Z"/></g><g transform="translate(-6,-118) scale(1,1)"><path fill="none" stroke="#000000" d="M 482 1560 L 555.49365234375 1560 Q 565.49365234375 1560 565.49365234375 1570 L 565.49365234375 1590 Q 565.49365234375 1600 555.49365234375 1600 L 482 1600 Q 472 1600 472 1590 L 472 1570 Q 472 1560 482 1560 Z" stroke-miterlimit="10"/></g><g transform="translate(-6,-118) scale(1,1)"><g><path fill="none" stroke="none"/><text fill="#000000" stroke="none" font-family="Arial" font-size="13px" font-style="normal" font-weight="bold" text-decoration="none" x="480.4228515625" y="1579.5">Lưu thông tin</text></g></g><g transform="translate(-6,-118) scale(1,1)"><path fill="none" stroke="#000000" d="M 518 1600 L 518 1672" stroke-miterlimit="10"/></g><g transform="translate(-6,-118) scale(1,1)"><path fill="none" stroke="#000000" d="M 513.790482243984 1661.837325142376 L 518 1672 L 522.209517756016 1661.837325142376" stroke-miterlimit="10"/></g><g transform="translate(-6,-118) scale(1,1)"><path fill="none" stroke="#000000" d="M 472 1578 L 384 1578" stroke-miterlimit="10"/></g><g transform="translate(-6,-118) scale(1,1)"><path fill="none" stroke="#000000" d="M 394.16267485762415 1573.7904822439841 L 384 1578 L 394.16267485762415 1582.2095177560159" stroke-miterlimit="10"/></g><g transform="translate(-6,-118) scale(1,1)"><path fill="#C0C0C0" stroke="none" d="M 273 1559 L 381 1559 Q 391 1559 391 1569 L 391 1602 Q 391 1612 381 1612 L 273 1612 Q 263 1612 263 1602 L 263 1569 Q 263 1559 273 1559 Z" opacity="0.2"/></g><g transform="translate(-6,-118) scale(1,1)"><path fill="#ffffff" stroke="none" d="M 266 1552 L 374 1552 Q 384 1552 384 1562 L 384 1595 Q 384 1605 374 1605 L 266 1605 Q 256 1605 256 1595 L 256 1562 Q 256 1552 266 1552 Z"/></g><g transform="translate(-6,-118) scale(1,1)"><path fill="none" stroke="#000000" d="M 266 1552 L 374 1552 Q 384 1552 384 1562 L 384 1595 Q 384 1605 374 1605 L 266 1605 Q 256 1605 256 1595 L 256 1562 Q 256 1552 266 1552 Z" stroke-miterlimit="10"/></g><g transform="translate(-6,-118) scale(1,1)"><g><path fill="none" stroke="none"/><text fill="#000000" stroke="none" font-family="Arial" font-size="13px" font-style="normal" font-weight="bold" text-decoration="none" x="267.23828125" y="1571.5">Hiển thị thông báo</text><text fill="#000000" stroke="none" font-family="Arial" font-size="13px" font-style="normal" font-weight="bold" text-decoration="none" x="275.54736328125" y="1584.5">xóa thành công</text></g></g><g transform="translate(-6,-118) scale(1,1)"><path fill="none" stroke="#000000" d="M 319 1605 L 319 1632" stroke-miterlimit="10"/></g><g transform="translate(-6,-118) scale(1,1)"><path fill="none" stroke="#000000" d="M 314.790482243984 1621.837325142376 L 319 1632 L 323.209517756016 1621.837325142376" stroke-miterlimit="10"/></g><g transform="translate(-6,-118) scale(1,1)"><path fill="none" stroke="#000000" d="M 456 1684 L 376 1684" stroke-miterlimit="10"/></g><g transform="translate(-6,-118) scale(1,1)"><path fill="none" stroke="#000000" d="M 386.16267485762415 1679.7904822439841 L 376 1684 L 386.16267485762415 1688.2095177560159" stroke-miterlimit="10"/></g><g transform="translate(-6,-118) scale(1,1)"><path fill="none" stroke="#000000" d="M 456 749 L 368 749" stroke-miterlimit="10"/></g><g transform="translate(-6,-118) scale(1,1)"><path fill="none" stroke="#000000" d="M 378.16267485762415 744.790482243984 L 368 749 L 378.16267485762415 753.209517756016" stroke-miterlimit="10"/></g><g transform="translate(-6,-118) scale(1,1)"><rect fill="#C0C0C0" stroke="none" x="463" y="1679" width="92.7763671875" height="24" opacity="0.2"/></g><g transform="translate(-6,-118) scale(1,1)"><rect fill="#ffffff" stroke="none" x="456" y="1672" width="92.7763671875" height="24"/></g><g transform="translate(-6,-118) scale(1,1)"><path fill="none" stroke="#000000" d="M 456 1672 L 548.7763671875 1672 L 548.7763671875 1696 L 456 1696 L 456 1672 Z Z" stroke-miterlimit="10"/></g><g transform="translate(-6,-118) scale(1,1)"><rect fill="#ffffff" stroke="none" x="456" y="1672" width="92.7763671875" height="24"/></g><g transform="translate(-6,-118) scale(1,1)"><path fill="none" stroke="#000000" d="M 456 1672 L 548.7763671875 1672 L 548.7763671875 1696 L 456 1696 L 456 1672 Z Z" stroke-miterlimit="10"/></g><g transform="translate(-6,-118) scale(1,1)"><g><path fill="none" stroke="none"/><text fill="#000000" stroke="none" font-family="Arial" font-size="13px" font-style="normal" font-weight="bold" text-decoration="none" x="468.799560546875" y="1691.5">NHANVIEN</text></g></g><g transform="translate(-6,-118) scale(1,1)"><path fill="none" stroke="#000000" d="M 319 1698 L 319 1752" stroke-miterlimit="10"/></g><g transform="translate(-6,-118) scale(1,1)"><path fill="none" stroke="#000000" d="M 314.790482243984 1741.837325142376 L 319 1752 L 323.209517756016 1741.837325142376" stroke-miterlimit="10"/></g><g transform="translate(-6,-118) scale(1,1)"><path fill="none" stroke="#000000" d="M 268 1523 L 248 1536 L 248 1632 L 263 1639" stroke-miterlimit="10"/></g><g transform="translate(-6,-118) scale(1,1)"><path fill="none" stroke="#000000" d="M 252.01061151169475 1638.516946531837 L 263 1639 L 255.57089926183966 1630.8877584958122" stroke-miterlimit="10"/></g><g transform="translate(-6,-118) scale(1,1)"><path fill="none" stroke="#000000" d="M 266 1027 L 232 1048 L 232 1720 L 303 1757" stroke-miterlimit="10"/></g><g transform="translate(-6,-118) scale(1,1)"><path fill="none" stroke="#000000" d="M 292.04228147787626 1756.036462356778 L 303 1757 L 295.9330469281237 1748.570398925222" stroke-miterlimit="10"/></g><g transform="translate(-6,-118) scale(1,1)"><path fill="none" stroke="#000000" d="M 318 1161 L 392 1161 L 392 1764 L 329 1764" stroke-miterlimit="10"/></g><g transform="translate(-6,-118) scale(1,1)"><path fill="none" stroke="#000000" d="M 339.16267485762415 1759.7904822439841 L 329 1764 L 339.16267485762415 1768.2095177560159" stroke-miterlimit="10"/></g><g transform="translate(-6,-118) scale(1,1)"><g><path fill="none" stroke="none"/><text fill="#000000" stroke="none" font-family="Arial" font-size="13px" font-style="normal" font-weight="normal" text-decoration="none" x="335.5" y="1116.5">Thoát</text></g></g><g transform="translate(-6,-118) scale(1,1)"><path fill="none" stroke="#000000" d="M 496 641 L 376 641" stroke-miterlimit="10"/></g><g transform="translate(-6,-118) scale(1,1)"><path fill="none" stroke="#000000" d="M 386.16267485762415 636.790482243984 L 376 641 L 386.16267485762415 645.209517756016" stroke-miterlimit="10"/></g><g transform="translate(-6,-118) scale(1,1)"><g><path fill="none" stroke="none"/><text fill="#000000" stroke="none" font-family="Arial" font-size="13px" font-style="normal" font-weight="normal" text-decoration="none" x="396.5" y="662.5">Không hợp lệ</text></g></g><g transform="translate(-6,-118) scale(1,1)"><path fill="none" stroke="#000000" d="M 313 399 L 313 472 L 168 472" stroke-miterlimit="10"/></g><g transform="translate(-6,-118) scale(1,1)"><path fill="none" stroke="#000000" d="M 178.16267485762415 467.790482243984 L 168 472 L 178.16267485762415 476.209517756016" stroke-miterlimit="10"/></g><g transform="translate(-6,-118) scale(1,1)"><path fill="none" stroke="#000000" d="M 169 485 L 239 500" stroke-miterlimit="10"/></g><g transform="translate(-6,-118) scale(1,1)"><path fill="none" stroke="#000000" d="M 228.18089557131685 501.986700621948 L 239 500 L 229.94492841014576 493.7545473740797" stroke-miterlimit="10"/></g><g transform="translate(-6,-118) scale(1,1)"><path fill="none" stroke="#000000" d="M 326 585 L 448 585" stroke-miterlimit="10"/></g><g transform="translate(-6,-118) scale(1,1)"><path fill="none" stroke="#000000" d="M 437.83732514237585 589.209517756016 L 448 585 L 437.83732514237585 580.790482243984" stroke-miterlimit="10"/></g><g transform="translate(-6,-118) scale(1,1)"><g><path fill="none" stroke="none"/><text fill="#000000" stroke="none" font-family="Arial" font-size="13px" font-style="normal" font-weight="normal" text-decoration="none" x="367.5" y="576.5">Hợp lệ</text></g></g><g transform="translate(-6,-118) scale(1,1)"><path fill="none" stroke="#000000" d="M 248 656 L 112 656 L 112 506" stroke-miterlimit="10"/></g><g transform="translate(-6,-118) scale(1,1)"><path fill="none" stroke="#000000" d="M 116.20951775601598 516.1626748576241 L 112 506 L 107.79048224398402 516.1626748576241" stroke-miterlimit="10"/></g><g transform="translate(-6,-118) scale(1,1)"><rect fill="#C0C0C0" stroke="none" x="479" y="815" width="92.7763671875" height="24" opacity="0.2"/></g><g transform="translate(-6,-118) scale(1,1)"><rect fill="#ffffff" stroke="none" x="472" y="808" width="92.7763671875" height="24"/></g><g transform="translate(-6,-118) scale(1,1)"><path fill="none" stroke="#000000" d="M 472 808 L 564.7763671875 808 L 564.7763671875 832 L 472 832 L 472 808 Z Z" stroke-miterlimit="10"/></g><g transform="translate(-6,-118) scale(1,1)"><rect fill="#ffffff" stroke="none" x="472" y="808" width="92.7763671875" height="24"/></g><g transform="translate(-6,-118) scale(1,1)"><path fill="none" stroke="#000000" d="M 472 808 L 564.7763671875 808 L 564.7763671875 832 L 472 832 L 472 808 Z Z" stroke-miterlimit="10"/></g><g transform="translate(-6,-118) scale(1,1)"><g><path fill="none" stroke="none"/><text fill="#000000" stroke="none" font-family="Arial" font-size="13px" font-style="normal" font-weight="bold" text-decoration="none" x="484.799560546875" y="827.5">NHANVIEN</text></g></g><g transform="translate(-6,-118) scale(1,1)"><path fill="#C0C0C0" stroke="none" d="M 503 992.5 L 514.5 983 L 525 992.5 L 514.5 1001 L 503 992.5" opacity="0.2"/></g><g transform="translate(-6,-118) scale(1,1)"><path fill="#ffffff" stroke="none" d="M 496 985 L 507 976 L 518 985 L 507 994 L 496 985"/></g><g transform="translate(-6,-118) scale(1,1)"><path fill="none" stroke="#000000" d="M 496 985 L 507 976 L 518 985 L 507 994 L 496 985 L 496 985" stroke-miterlimit="10"/></g><g transform="translate(-6,-118) scale(1,1)"><path fill="#C0C0C0" stroke="none" d="M 281 967 L 373 967 Q 383 967 383 977 L 383 1023 Q 383 1033 373 1033 L 281 1033 Q 271 1033 271 1023 L 271 977 Q 271 967 281 967 Z" opacity="0.2"/></g><g transform="translate(-6,-118) scale(1,1)"><path fill="#ffffff" stroke="none" d="M 274 960 L 366 960 Q 376 960 376 970 L 376 1016 Q 376 1026 366 1026 L 274 1026 Q 264 1026 264 1016 L 264 970 Q 264 960 274 960 Z"/></g><g transform="translate(-6,-118) scale(1,1)"><path fill="none" stroke="#000000" d="M 274 960 L 366 960 Q 376 960 376 970 L 376 1016 Q 376 1026 366 1026 L 274 1026 Q 264 1026 264 1016 L 264 970 Q 264 960 274 960 Z" stroke-miterlimit="10"/></g><g transform="translate(-6,-118) scale(1,1)"><g><path fill="none" stroke="none"/><text fill="#000000" stroke="none" font-family="Arial" font-size="13px" font-style="normal" font-weight="bold" text-decoration="none" x="279.88916015625" y="979.5">Hiển thị thông</text><text fill="#000000" stroke="none" font-family="Arial" font-size="13px" font-style="normal" font-weight="bold" text-decoration="none" x="278.79736328125" y="992.5">báo không tồn</text><text fill="#000000" stroke="none" font-family="Arial" font-size="13px" font-style="normal" font-weight="bold" text-decoration="none" x="291.438720703125" y="1005.5">tại dữ liệu</text></g></g><g transform="translate(-6,-118) scale(1,1)"><path fill="#C0C0C0" stroke="none" d="M 281 1063 L 357 1063 Q 367 1063 367 1073 L 367 1119 Q 367 1129 357 1129 L 281 1129 Q 271 1129 271 1119 L 271 1073 Q 271 1063 281 1063 Z" opacity="0.2"/></g><g transform="translate(-6,-118) scale(1,1)"><path fill="#ffffff" stroke="none" d="M 274 1056 L 350 1056 Q 360 1056 360 1066 L 360 1112 Q 360 1122 350 1122 L 274 1122 Q 264 1122 264 1112 L 264 1066 Q 264 1056 274 1056 Z"/></g><g transform="translate(-6,-118) scale(1,1)"><path fill="none" stroke="#000000" d="M 274 1056 L 350 1056 Q 360 1056 360 1066 L 360 1112 Q 360 1122 350 1122 L 274 1122 Q 264 1122 264 1112 L 264 1066 Q 264 1056 274 1056 Z" stroke-miterlimit="10"/></g><g transform="translate(-6,-118) scale(1,1)"><g><path fill="none" stroke="none"/><text fill="#000000" stroke="none" font-family="Arial" font-size="13px" font-style="normal" font-weight="bold" text-decoration="none" x="275.865966796875" y="1075.5">Hiển thị giao</text><text fill="#000000" stroke="none" font-family="Arial" font-size="13px" font-style="normal" font-weight="bold" text-decoration="none" x="272.96826171875" y="1088.5">diện thông tin</text><text fill="#000000" stroke="none" font-family="Arial" font-size="13px" font-style="normal" font-weight="bold" text-decoration="none" x="283.81005859375" y="1101.5">nhân viên</text></g></g><g transform="translate(-6,-118) scale(1,1)"><path fill="none" stroke="#000000" d="M 507 994 L 507 1088 L 504 1088 L 504 1089 L 360 1089" stroke-miterlimit="10"/></g><g transform="translate(-6,-118) scale(1,1)"><path fill="none" stroke="#000000" d="M 370.16267485762415 1084.7904822439841 L 360 1089 L 370.16267485762415 1093.2095177560159" stroke-miterlimit="10"/></g><g transform="translate(-6,-118) scale(1,1)"><g><path fill="none" stroke="none"/><text fill="#000000" stroke="none" font-family="Arial" font-size="13px" font-style="normal" font-weight="normal" text-decoration="none" x="423.5" y="1083.5">Tồn tại</text></g></g><g transform="translate(-6,-118) scale(1,1)"><path fill="#C0C0C0" stroke="none" d="M 57 1143 L 173 1143 Q 183 1143 183 1153 L 183 1186 Q 183 1196 173 1196 L 57 1196 Q 47 1196 47 1186 L 47 1153 Q 47 1143 57 1143 Z" opacity="0.2"/></g><g transform="translate(-6,-118) scale(1,1)"><path fill="#ffffff" stroke="none" d="M 50 1136 L 166 1136 Q 176 1136 176 1146 L 176 1179 Q 176 1189 166 1189 L 50 1189 Q 40 1189 40 1179 L 40 1146 Q 40 1136 50 1136 Z"/></g><g transform="translate(-6,-118) scale(1,1)"><path fill="none" stroke="#000000" d="M 50 1136 L 166 1136 Q 176 1136 176 1146 L 176 1179 Q 176 1189 166 1189 L 50 1189 Q 40 1189 40 1179 L 40 1146 Q 40 1136 50 1136 Z" stroke-miterlimit="10"/></g><g transform="translate(-6,-118) scale(1,1)"><g><path fill="none" stroke="none"/><text fill="#000000" stroke="none" font-family="Arial" font-size="13px" font-style="normal" font-weight="bold" text-decoration="none" x="65.71826171875" y="1155.5">Chọn thông tin</text><text fill="#000000" stroke="none" font-family="Arial" font-size="13px" font-style="normal" font-weight="bold" text-decoration="none" x="54.501953125" y="1168.5">nhân viên cần sửa</text></g></g><g transform="translate(-6,-118) scale(1,1)"><path fill="#C0C0C0" stroke="none" d="M 281 1639 L 373 1639 Q 383 1639 383 1649 L 383 1695 Q 383 1705 373 1705 L 281 1705 Q 271 1705 271 1695 L 271 1649 Q 271 1639 281 1639 Z" opacity="0.2"/></g><g transform="translate(-6,-118) scale(1,1)"><path fill="#ffffff" stroke="none" d="M 274 1632 L 366 1632 Q 376 1632 376 1642 L 376 1688 Q 376 1698 366 1698 L 274 1698 Q 264 1698 264 1688 L 264 1642 Q 264 1632 274 1632 Z"/></g><g transform="translate(-6,-118) scale(1,1)"><path fill="none" stroke="#000000" d="M 274 1632 L 366 1632 Q 376 1632 376 1642 L 376 1688 Q 376 1698 366 1698 L 274 1698 Q 264 1698 264 1688 L 264 1642 Q 264 1632 274 1632 Z" stroke-miterlimit="10"/></g><g transform="translate(-6,-118) scale(1,1)"><g><path fill="none" stroke="none"/><text fill="#000000" stroke="none" font-family="Arial" font-size="13px" font-style="normal" font-weight="bold" text-decoration="none" x="283.865966796875" y="1651.5">Hiển thị giao</text><text fill="#000000" stroke="none" font-family="Arial" font-size="13px" font-style="normal" font-weight="bold" text-decoration="none" x="284.945068359375" y="1664.5">diện quản lý</text><text fill="#000000" stroke="none" font-family="Arial" font-size="13px" font-style="normal" font-weight="bold" text-decoration="none" x="291.81005859375" y="1677.5">nhân viên</text></g></g><g transform="translate(-6,-118) scale(1,1)"><path fill="none" stroke="#000000" d="M 478 807 L 369 771" stroke-miterlimit="10"/></g><g transform="translate(-6,-118) scale(1,1)"><path fill="none" stroke="#000000" d="M 379.97013651850045 770.189997058362 L 369 771 L 377.3298164955872 778.1842993499606" stroke-miterlimit="10"/></g><g transform="translate(-6,-118) scale(1,1)"><path fill="none" stroke="#000000" d="M 385 890 L 455 889" stroke-miterlimit="10"/></g><g transform="translate(-6,-118) scale(1,1)"><path fill="none" stroke="#000000" d="M 444.8984918238746 893.3542545363899 L 455 889 L 444.7782321587568 884.936077978144" stroke-miterlimit="10"/></g><g transform="translate(-6,-118) scale(1,1)"><path fill="none" stroke="#000000" d="M 153 1256 L 255 1256" stroke-miterlimit="10"/></g><g transform="translate(-6,-118) scale(1,1)"><path fill="none" stroke="#000000" d="M 244.83732514237585 1260.2095177560159 L 255 1256 L 244.83732514237585 1251.7904822439841" stroke-miterlimit="10"/></g><g transform="translate(-6,-118) scale(1,1)"><path fill="#C0C0C0" stroke="none" d="M 311 1771.5 C 311 1764.59644 316.59644 1759 323.5 1759 C 330.40356 1759 336 1764.59644 336 1771.5 C 336 1778.40356 330.40356 1784 323.5 1784 C 316.59644 1784 311 1778.40356 311 1771.5 Z" opacity="0.2"/></g><g transform="translate(-6,-118) scale(1,1)"><path fill="none" stroke="#000000" d="M 304 1764.5 C 304 1757.59644 309.59644 1752 316.5 1752 C 323.40356 1752 329 1757.59644 329 1764.5 C 329 1771.40356 323.40356 1777 316.5 1777 C 309.59644 1777 304 1771.40356 304 1764.5 Z" stroke-miterlimit="10"/></g><g transform="translate(-6,-118) scale(1,1)"><path fill="#000000" stroke="none" d="M 309 1764.5 C 309 1760.357864 312.357864 1757 316.5 1757 C 320.642136 1757 324 1760.357864 324 1764.5 C 324 1768.642136 320.642136 1772 316.5 1772 C 312.357864 1772 309 1768.642136 309 1764.5 Z"/></g><g transform="translate(-6,-118) scale(1,1)"><path fill="#C0C0C0" stroke="none" d="M 273 1231 L 357 1231 Q 367 1231 367 1241 L 367 1287 Q 367 1297 357 1297 L 273 1297 Q 263 1297 263 1287 L 263 1241 Q 263 1231 273 1231 Z" opacity="0.2"/></g><g transform="translate(-6,-118) scale(1,1)"><path fill="#ffffff" stroke="none" d="M 266 1224 L 350 1224 Q 360 1224 360 1234 L 360 1280 Q 360 1290 350 1290 L 266 1290 Q 256 1290 256 1280 L 256 1234 Q 256 1224 266 1224 Z"/></g><g transform="translate(-6,-118) scale(1,1)"><path fill="none" stroke="#000000" d="M 266 1224 L 350 1224 Q 360 1224 360 1234 L 360 1280 Q 360 1290 350 1290 L 266 1290 Q 256 1290 256 1280 L 256 1234 Q 256 1224 266 1224 Z" stroke-miterlimit="10"/></g><g transform="translate(-6,-118) scale(1,1)"><g><path fill="none" stroke="none"/><text fill="#000000" stroke="none" font-family="Arial" font-size="13px" font-style="normal" font-weight="bold" text-decoration="none" x="267.88916015625" y="1243.5">Hiển thị thông</text><text fill="#000000" stroke="none" font-family="Arial" font-size="13px" font-style="normal" font-weight="bold" text-decoration="none" x="268.96826171875" y="1256.5">báo xác nhận</text><text fill="#000000" stroke="none" font-family="Arial" font-size="13px" font-style="normal" font-weight="bold" text-decoration="none" x="297.52001953125" y="1269.5">xóa</text></g></g><g transform="translate(-6,-118) scale(1,1)"><path fill="none" stroke="#000000" d="M 306 1170 L 306 1208 L 96 1208 L 96 1216" stroke-miterlimit="10"/></g><g transform="translate(-6,-118) scale(1,1)"><path fill="none" stroke="#000000" d="M 91.79048224398402 1205.837325142376 L 96 1216 L 100.20951775601598 1205.837325142376" stroke-miterlimit="10"/></g><g transform="translate(-6,-118) scale(1,1)"><g><path fill="none" stroke="none"/><text fill="#000000" stroke="none" font-family="Arial" font-size="13px" font-style="normal" font-weight="normal" text-decoration="none" x="264.5" y="1204.5">Xóa</text></g></g><g transform="translate(-6,-118) scale(1,1)"><path fill="none" stroke="#000000" d="M 255 1282 L 132 1340" stroke-miterlimit="10"/></g><g transform="translate(-6,-118) scale(1,1)"><path fill="none" stroke="#000000" d="M 139.39660706744223 1331.8581203712004 L 132 1340 L 142.98736931228962 1339.473012718032" stroke-miterlimit="10"/></g><g transform="translate(-6,-118) scale(1,1)"><path fill="#C0C0C0" stroke="none" d="M 81 1343 L 127.79541015625 1343 Q 137.79541015625 1343 137.79541015625 1353 L 137.79541015625 1373 Q 137.79541015625 1383 127.79541015625 1383 L 81 1383 Q 71 1383 71 1373 L 71 1353 Q 71 1343 81 1343 Z" opacity="0.2"/></g><g transform="translate(-6,-118) scale(1,1)"><path fill="#ffffff" stroke="none" d="M 74 1336 L 120.79541015625 1336 Q 130.79541015625 1336 130.79541015625 1346 L 130.79541015625 1366 Q 130.79541015625 1376 120.79541015625 1376 L 74 1376 Q 64 1376 64 1366 L 64 1346 Q 64 1336 74 1336 Z"/></g><g transform="translate(-6,-118) scale(1,1)"><path fill="none" stroke="#000000" d="M 74 1336 L 120.79541015625 1336 Q 130.79541015625 1336 130.79541015625 1346 L 130.79541015625 1366 Q 130.79541015625 1376 120.79541015625 1376 L 74 1376 Q 64 1376 64 1366 L 64 1346 Q 64 1336 74 1336 Z" stroke-miterlimit="10"/></g><g transform="translate(-6,-118) scale(1,1)"><g><path fill="none" stroke="none"/><text fill="#000000" stroke="none" font-family="Arial" font-size="13px" font-style="normal" font-weight="bold" text-decoration="none" x="69.931396484375" y="1355.5">Xác nhận</text></g></g><g transform="translate(-6,-118) scale(1,1)"><path fill="#C0C0C0" stroke="none" d="M 95 1424.5 L 106.5 1415 L 117 1424.5 L 106.5 1433 L 95 1424.5" opacity="0.2"/></g><g transform="translate(-6,-118) scale(1,1)"><path fill="#ffffff" stroke="none" d="M 88 1417 L 99 1408 L 110 1417 L 99 1426 L 88 1417"/></g><g transform="translate(-6,-118) scale(1,1)"><path fill="none" stroke="#000000" d="M 88 1417 L 99 1408 L 110 1417 L 99 1426 L 88 1417 L 88 1417" stroke-miterlimit="10"/></g><g transform="translate(-6,-118) scale(1,1)"><path fill="none" stroke="#000000" d="M 98 1377 L 99 1407" stroke-miterlimit="10"/></g><g transform="translate(-6,-118) scale(1,1)"><path fill="none" stroke="#000000" d="M 94.45425113032024 1396.9832057416654 L 99 1407 L 102.86861329449725 1396.7027270028595" stroke-miterlimit="10"/></g><g transform="translate(-6,-118) scale(1,1)"><path fill="none" stroke="#000000" d="M 99 1427 L 96 1688 L 303 1760" stroke-miterlimit="10"/></g><g transform="translate(-6,-118) scale(1,1)"><path fill="none" stroke="#000000" d="M 292.0184727471 1760.6372277409332 L 303 1760 L 294.7842995549155 1752.6854756684636" stroke-miterlimit="10"/></g><g transform="translate(-6,-118) scale(1,1)"><g><path fill="none" stroke="none"/><text fill="#000000" stroke="none" font-family="Arial" font-size="13px" font-style="normal" font-weight="normal" text-decoration="none" x="101.5" y="1587.5">Không đồng ý</text></g></g><g transform="translate(-6,-118) scale(1,1)"><path fill="none" stroke="#000000" d="M 111 1417 L 263 1418" stroke-miterlimit="10"/></g><g transform="translate(-6,-118) scale(1,1)"><path fill="none" stroke="#000000" d="M 252.8098514720252 1422.1425684035164 L 263 1418 L 252.86523866491527 1413.7237150842266" stroke-miterlimit="10"/></g><g transform="translate(-6,-118) scale(1,1)"><g><path fill="none" stroke="none"/><text fill="#000000" stroke="none" font-family="Arial" font-size="13px" font-style="normal" font-weight="normal" text-decoration="none" x="127.5" y="1406.5">Đồng ý xóa</text></g></g><g transform="translate(-6,-118) scale(1,1)"><path fill="none" stroke="#000000" d="M 270 792 L 240 824 L 240 1712 L 303 1755" stroke-miterlimit="10"/></g><g transform="translate(-6,-118) scale(1,1)"><path fill="none" stroke="#000000" d="M 292.2330514425009 1752.7477081094655 L 303 1755 L 296.9792285313141 1745.7940067932973" stroke-miterlimit="10"/></g></g></svg>