<svg version="1.1" xmlns="http://www.w3.org/2000/svg" xmlns:xlink="http://www.w3.org/1999/xlink" width="754.61181640625" height="606"><defs/><g><g transform="translate(-1,-182) scale(1,1)"><path fill="#C0C0C0" stroke="none" d="M 295 216 C 295 206.6111584 332.6080768 199 379 199 C 425.3919232 199 463 206.6111584 463 216 C 463 225.3888416 425.3919232 233 379 233 C 332.6080768 233 295 225.3888416 295 216 Z" opacity="0.2"/></g><g transform="translate(-1,-182) scale(1,1)"><path fill="#ffffff" stroke="none" d="M 288 209 C 288 199.6111584 325.6080768 192 372 192 C 418.3919232 192 456 199.6111584 456 209 C 456 218.3888416 418.3919232 226 372 226 C 325.6080768 226 288 218.3888416 288 209 Z"/></g><g transform="translate(-1,-182) scale(1,1)"><path fill="none" stroke="#000000" d="M 288 209 C 288 199.6111584 325.6080768 192 372 192 C 418.3919232 192 456 199.6111584 456 209 C 456 218.3888416 418.3919232 226 372 226 C 325.6080768 226 288 218.3888416 288 209 Z" stroke-miterlimit="10"/></g><g transform="translate(-1,-182) scale(1,1)"><g><path fill="none" stroke="none"/><text fill="#000000" stroke="none" font-family="Arial" font-size="13px" font-style="normal" font-weight="bold" text-decoration="none" x="323.64990234375" y="216">Quản lý hóa đơn</text></g></g><g transform="translate(-1,-182) scale(1,1)"><path fill="#C0C0C0" stroke="none" d="M 279 312 C 279 302.6111584 321.9806592 295 375 295 C 428.0193408 295 471 302.6111584 471 312 C 471 321.3888416 428.0193408 329 375 329 C 321.9806592 329 279 321.3888416 279 312 Z" opacity="0.2"/></g><g transform="translate(-1,-182) scale(1,1)"><path fill="#ffffff" stroke="none" d="M 272 305 C 272 295.6111584 314.9806592 288 368 288 C 421.0193408 288 464 295.6111584 464 305 C 464 314.3888416 421.0193408 322 368 322 C 314.9806592 322 272 314.3888416 272 305 Z"/></g><g transform="translate(-1,-182) scale(1,1)"><path fill="none" stroke="#000000" d="M 272 305 C 272 295.6111584 314.9806592 288 368 288 C 421.0193408 288 464 295.6111584 464 305 C 464 314.3888416 421.0193408 322 368 322 C 314.9806592 322 272 314.3888416 272 305 Z" stroke-miterlimit="10"/></g><g transform="translate(-1,-182) scale(1,1)"><g><path fill="none" stroke="none"/><text fill="#000000" stroke="none" font-family="Arial" font-size="13px" font-style="normal" font-weight="bold" text-decoration="none" x="308.37646484375" y="312">Quản lý khách  hàng</text></g></g><g transform="translate(-1,-182) scale(1,1)"><path fill="#C0C0C0" stroke="none" d="M 287 408 C 287 398.6111584 325.5035072 391 373 391 C 420.4964928 391 459 398.6111584 459 408 C 459 417.3888416 420.4964928 425 373 425 C 325.5035072 425 287 417.3888416 287 408 Z" opacity="0.2"/></g><g transform="translate(-1,-182) scale(1,1)"><path fill="#ffffff" stroke="none" d="M 280 401 C 280 391.6111584 318.5035072 384 366 384 C 413.4964928 384 452 391.6111584 452 401 C 452 410.3888416 413.4964928 418 366 418 C 318.5035072 418 280 410.3888416 280 401 Z"/></g><g transform="translate(-1,-182) scale(1,1)"><path fill="none" stroke="#000000" d="M 280 401 C 280 391.6111584 318.5035072 384 366 384 C 413.4964928 384 452 391.6111584 452 401 C 452 410.3888416 413.4964928 418 366 418 C 318.5035072 418 280 410.3888416 280 401 Z" stroke-miterlimit="10"/></g><g transform="translate(-1,-182) scale(1,1)"><g><path fill="none" stroke="none"/><text fill="#000000" stroke="none" font-family="Arial" font-size="13px" font-style="normal" font-weight="bold" text-decoration="none" x="312.87646484375" y="408">Quản lý hàng  hóa</text></g></g><g transform="translate(-1,-182) scale(1,1)"><path fill="#C0C0C0" stroke="none" d="M 271 608 C 271 598.6111584 313.0852288 591 365 591 C 416.9147712 591 459 598.6111584 459 608 C 459 617.3888416 416.9147712 625 365 625 C 313.0852288 625 271 617.3888416 271 608 Z" opacity="0.2"/></g><g transform="translate(-1,-182) scale(1,1)"><path fill="#ffffff" stroke="none" d="M 264 601 C 264 591.6111584 306.0852288 584 358 584 C 409.9147712 584 452 591.6111584 452 601 C 452 610.3888416 409.9147712 618 358 618 C 306.0852288 618 264 610.3888416 264 601 Z"/></g><g transform="translate(-1,-182) scale(1,1)"><path fill="none" stroke="#000000" d="M 264 601 C 264 591.6111584 306.0852288 584 358 584 C 409.9147712 584 452 591.6111584 452 601 C 452 610.3888416 409.9147712 618 358 618 C 306.0852288 618 264 610.3888416 264 601 Z" stroke-miterlimit="10"/></g><g transform="translate(-1,-182) scale(1,1)"><g><path fill="none" stroke="none"/><text fill="#000000" stroke="none" font-family="Arial" font-size="13px" font-style="normal" font-weight="bold" text-decoration="none" x="300.176025390625" y="608">Thống kê doanh thu</text></g></g><g transform="translate(-1,-182) scale(1,1)"><path fill="#C0C0C0" stroke="none" d="M 279 768 C 279 758.6111584 317.27964959999997 751 364.5 751 C 411.72035040000003 751 450 758.6111584 450 768 C 450 777.3888416 411.72035040000003 785 364.5 785 C 317.27964959999997 785 279 777.3888416 279 768 Z" opacity="0.2"/></g><g transform="translate(-1,-182) scale(1,1)"><path fill="#ffffff" stroke="none" d="M 272 761 C 272 751.6111584 310.27964959999997 744 357.5 744 C 404.72035040000003 744 443 751.6111584 443 761 C 443 770.3888416 404.72035040000003 778 357.5 778 C 310.27964959999997 778 272 770.3888416 272 761 Z"/></g><g transform="translate(-1,-182) scale(1,1)"><path fill="none" stroke="#000000" d="M 272 761 C 272 751.6111584 310.27964959999997 744 357.5 744 C 404.72035040000003 744 443 751.6111584 443 761 C 443 770.3888416 404.72035040000003 778 357.5 778 C 310.27964959999997 778 272 770.3888416 272 761 Z" stroke-miterlimit="10"/></g><g transform="translate(-1,-182) scale(1,1)"><g><path fill="none" stroke="none"/><text fill="#000000" stroke="none" font-family="Arial" font-size="13px" font-style="normal" font-weight="bold" text-decoration="none" x="305.103271484375" y="768">Quản lý nhân viên</text></g></g><g transform="translate(-1,-182) scale(1,1)"><path fill="#C0C0C0" stroke="none" d="M 271 689 C 271 674.6405952 315.77152 663 371 663 C 426.22848 663 471 674.6405952 471 689 C 471 703.3594048 426.22848 715 371 715 C 315.77152 715 271 703.3594048 271 689 Z" opacity="0.2"/></g><g transform="translate(-1,-182) scale(1,1)"><path fill="#ffffff" stroke="none" d="M 264 682 C 264 667.6405952 308.77152 656 364 656 C 419.22848 656 464 667.6405952 464 682 C 464 696.3594048 419.22848 708 364 708 C 308.77152 708 264 696.3594048 264 682 Z"/></g><g transform="translate(-1,-182) scale(1,1)"><path fill="none" stroke="#000000" d="M 264 682 C 264 667.6405952 308.77152 656 364 656 C 419.22848 656 464 667.6405952 464 682 C 464 696.3594048 419.22848 708 364 708 C 308.77152 708 264 696.3594048 264 682 Z" stroke-miterlimit="10"/></g><g transform="translate(-1,-182) scale(1,1)"><g><path fill="none" stroke="none"/><text fill="#000000" stroke="none" font-family="Arial" font-size="13px" font-style="normal" font-weight="bold" text-decoration="none" x="302.583251953125" y="682.5">Quản lý khuyến mãi -</text><text fill="#000000" stroke="none" font-family="Arial" font-size="13px" font-style="normal" font-weight="bold" text-decoration="none" x="335.4609375" y="695.5">Marketing</text></g></g><g transform="translate(-1,-182) scale(1,1)"><path fill="#C0C0C0" stroke="none" d="M 295 496 C 295 486.6111584 328.57864 479 370 479 C 411.42136 479 445 486.6111584 445 496 C 445 505.3888416 411.42136 513 370 513 C 328.57864 513 295 505.3888416 295 496 Z" opacity="0.2"/></g><g transform="translate(-1,-182) scale(1,1)"><path fill="#ffffff" stroke="none" d="M 288 489 C 288 479.6111584 321.57864 472 363 472 C 404.42136 472 438 479.6111584 438 489 C 438 498.3888416 404.42136 506 363 506 C 321.57864 506 288 498.3888416 288 489 Z"/></g><g transform="translate(-1,-182) scale(1,1)"><path fill="none" stroke="#000000" d="M 288 489 C 288 479.6111584 321.57864 472 363 472 C 404.42136 472 438 479.6111584 438 489 C 438 498.3888416 404.42136 506 363 506 C 321.57864 506 288 498.3888416 288 489 Z" stroke-miterlimit="10"/></g><g transform="translate(-1,-182) scale(1,1)"><g><path fill="none" stroke="none"/><text fill="#000000" stroke="none" font-family="Arial" font-size="13px" font-style="normal" font-weight="bold" text-decoration="none" x="317.833251953125" y="496">Quản lý kho bãi</text></g></g><g transform="translate(-1,-182) scale(1,1)"><path fill="#ffffff" stroke="none" d="M 60.74844122869318 461.23 C 60.74844122869318 455.027841696 65.71368419945682 450 71.838623046875 450 C 77.96356189429318 450 82.92880486505682 455.027841696 82.92880486505682 461.23 C 82.92880486505682 467.43215830400004 77.96356189429318 472.46 71.838623046875 472.46 C 65.71368419945682 472.46 60.74844122869318 467.43215830400004 60.74844122869318 461.23 Z"/></g><g transform="translate(-1,-182) scale(1,1)"><path fill="none" stroke="#000000" d="M 60.74844122869318 461.23 C 60.74844122869318 455.027841696 65.71368419945682 450 71.838623046875 450 C 77.96356189429318 450 82.92880486505682 455.027841696 82.92880486505682 461.23 C 82.92880486505682 467.43215830400004 77.96356189429318 472.46 71.838623046875 472.46 C 65.71368419945682 472.46 60.74844122869318 467.43215830400004 60.74844122869318 461.23 Z" stroke-miterlimit="10"/></g><g transform="translate(-1,-182) scale(1,1)"><path fill="none" stroke="#000000" d="M 71.838623046875 472.46 L 71.838623046875 494.54" stroke-miterlimit="10"/></g><g transform="translate(-1,-182) scale(1,1)"><path fill="none" stroke="#000000" d="M 60.09607759232954 480.74 L 83.58116850142045 480.74" stroke-miterlimit="10"/></g><g transform="translate(-1,-182) scale(1,1)"><path fill="none" stroke="#000000" d="M 71.838623046875 494.54 L 55.52953213778409 517" stroke-miterlimit="10"/></g><g transform="translate(-1,-182) scale(1,1)"><path fill="none" stroke="#000000" d="M 71.838623046875 494.54 L 88.14771395596591 517" stroke-miterlimit="10"/></g><g transform="translate(-1,-182) scale(1,1)"><g><path fill="none" stroke="none"/><text fill="#000000" stroke="none" font-family="Arial" font-size="13px" font-style="normal" font-weight="bold" text-decoration="none" x="19.44189453125" y="537.5">Quản lý chi nhánh</text></g></g><g transform="translate(-1,-182) scale(1,1)"><path fill="none" stroke="#000000" d="M 109 448 L 184 352 L 298 323" stroke-miterlimit="10"/></g><g transform="translate(-1,-182) scale(1,1)"><path fill="none" stroke="#000000" d="M 289.1887948549396 329.58503332502283 L 298 323 L 287.11321537303894 321.42585880996506" stroke-miterlimit="10"/></g><g transform="translate(-1,-182) scale(1,1)"><path fill="none" stroke="#000000" d="M 134 452 L 208 400 L 279 400" stroke-miterlimit="10"/></g><g transform="translate(-1,-182) scale(1,1)"><path fill="none" stroke="#000000" d="M 268.83732514237585 404.209517756016 L 279 400 L 268.83732514237585 395.790482243984" stroke-miterlimit="10"/></g><g transform="translate(-1,-182) scale(1,1)"><path fill="none" stroke="#000000" d="M 134 494 L 287 491" stroke-miterlimit="10"/></g><g transform="translate(-1,-182) scale(1,1)"><path fill="none" stroke="#000000" d="M 276.92180188992006 495.4079386173109 L 287 491 L 276.75675448686644 486.99052106157563" stroke-miterlimit="10"/></g><g transform="translate(-1,-182) scale(1,1)"><path fill="none" stroke="#000000" d="M 131 544 L 200 600 L 263 600" stroke-miterlimit="10"/></g><g transform="translate(-1,-182) scale(1,1)"><path fill="none" stroke="#000000" d="M 252.83732514237585 604.209517756016 L 263 600 L 252.83732514237585 595.790482243984" stroke-miterlimit="10"/></g><g transform="translate(-1,-182) scale(1,1)"><path fill="none" stroke="#000000" d="M 105 544 L 184 656 L 263 667" stroke-miterlimit="10"/></g><g transform="translate(-1,-182) scale(1,1)"><path fill="none" stroke="#000000" d="M 252.35389721461445 669.7677600118157 L 263 667 L 253.51496665419305 661.4291704002967" stroke-miterlimit="10"/></g><g transform="translate(-1,-182) scale(1,1)"><path fill="none" stroke="#000000" d="M 88 544 L 144 704 L 290 743" stroke-miterlimit="10"/></g><g transform="translate(-1,-182) scale(1,1)"><path fill="none" stroke="#000000" d="M 279.09521638138324 744.4441932803984 L 290 743 L 281.26795469399036 736.3103524178179" stroke-miterlimit="10"/></g><g transform="translate(-1,-182) scale(1,1)"><path fill="#ffffff" stroke="none" d="M 669.7157263849432 596.23 C 669.7157263849432 590.027841696 674.6809693557068 585 680.805908203125 585 C 686.9308470505432 585 691.8960900213068 590.027841696 691.8960900213068 596.23 C 691.8960900213068 602.432158304 686.9308470505432 607.46 680.805908203125 607.46 C 674.6809693557068 607.46 669.7157263849432 602.432158304 669.7157263849432 596.23 Z"/></g><g transform="translate(-1,-182) scale(1,1)"><path fill="none" stroke="#000000" d="M 669.7157263849432 596.23 C 669.7157263849432 590.027841696 674.6809693557068 585 680.805908203125 585 C 686.9308470505432 585 691.8960900213068 590.027841696 691.8960900213068 596.23 C 691.8960900213068 602.432158304 686.9308470505432 607.46 680.805908203125 607.46 C 674.6809693557068 607.46 669.7157263849432 602.432158304 669.7157263849432 596.23 Z" stroke-miterlimit="10"/></g><g transform="translate(-1,-182) scale(1,1)"><path fill="none" stroke="#000000" d="M 680.805908203125 607.46 L 680.805908203125 629.54" stroke-miterlimit="10"/></g><g transform="translate(-1,-182) scale(1,1)"><path fill="none" stroke="#000000" d="M 669.0633627485796 615.74 L 692.5484536576704 615.74" stroke-miterlimit="10"/></g><g transform="translate(-1,-182) scale(1,1)"><path fill="none" stroke="#000000" d="M 680.805908203125 629.54 L 664.4968172940341 652" stroke-miterlimit="10"/></g><g transform="translate(-1,-182) scale(1,1)"><path fill="none" stroke="#000000" d="M 680.805908203125 629.54 L 697.1149991122159 652" stroke-miterlimit="10"/></g><g transform="translate(-1,-182) scale(1,1)"><g><path fill="none" stroke="none"/><text fill="#000000" stroke="none" font-family="Arial" font-size="13px" font-style="normal" font-weight="bold" text-decoration="none" x="624.42919921875" y="672.5">Nhân viên hệ thống</text></g></g><g transform="translate(-1,-182) scale(1,1)"><path fill="none" stroke="#000000" d="M 628 583 L 568 528 L 439 503" stroke-miterlimit="10"/></g><g transform="translate(-1,-182) scale(1,1)"><path fill="none" stroke="#000000" d="M 449.7779403352883 500.8009087947597 L 439 503 L 448.1761470019795 509.0661623946333" stroke-miterlimit="10"/></g><g transform="translate(-1,-182) scale(1,1)"><path fill="none" stroke="#000000" d="M 615 612 L 544 592 L 453 596" stroke-miterlimit="10"/></g><g transform="translate(-1,-182) scale(1,1)"><path fill="none" stroke="#000000" d="M 462.96801598681503 591.3482629817885 L 453 596 L 463.33772648912674 599.759176909379" stroke-miterlimit="10"/></g><g transform="translate(-1,-182) scale(1,1)"><path fill="none" stroke="#000000" d="M 615 654 L 544 680 L 465 681" stroke-miterlimit="10"/></g><g transform="translate(-1,-182) scale(1,1)"><path fill="none" stroke="#000000" d="M 475.10858000258816 676.6621883015425 L 465 681 L 475.21514153548645 685.0805494005072" stroke-miterlimit="10"/></g><g transform="translate(-1,-182) scale(1,1)"><path fill="none" stroke="#000000" d="M 636 679 L 568 752 L 444 757" stroke-miterlimit="10"/></g><g transform="translate(-1,-182) scale(1,1)"><path fill="none" stroke="#000000" d="M 453.9848223214403 752.3844476810171 L 444 757 L 454.3240239161073 760.7966472287592" stroke-miterlimit="10"/></g><g transform="translate(-1,-182) scale(1,1)"><path fill="none" stroke="#000000" d="M 88 448 L 136 312 L 331 227" stroke-miterlimit="10"/></g><g transform="translate(-1,-182) scale(1,1)"><path fill="none" stroke="#000000" d="M 323.36597889007066 234.9197046468384 L 331 227 L 320.0018550446737 227.20200876622175" stroke-miterlimit="10"/></g><g transform="translate(-1,-182) scale(1,1)"><path fill="#ffffff" stroke="none" d="M 663.5470252130682 268.23 C 663.5470252130682 262.027841696 668.5122681838318 257 674.63720703125 257 C 680.7621458786682 257 685.7273888494318 262.027841696 685.7273888494318 268.23 C 685.7273888494318 274.43215830400004 680.7621458786682 279.46 674.63720703125 279.46 C 668.5122681838318 279.46 663.5470252130682 274.43215830400004 663.5470252130682 268.23 Z"/></g><g transform="translate(-1,-182) scale(1,1)"><path fill="none" stroke="#000000" d="M 663.5470252130682 268.23 C 663.5470252130682 262.027841696 668.5122681838318 257 674.63720703125 257 C 680.7621458786682 257 685.7273888494318 262.027841696 685.7273888494318 268.23 C 685.7273888494318 274.43215830400004 680.7621458786682 279.46 674.63720703125 279.46 C 668.5122681838318 279.46 663.5470252130682 274.43215830400004 663.5470252130682 268.23 Z" stroke-miterlimit="10"/></g><g transform="translate(-1,-182) scale(1,1)"><path fill="none" stroke="#000000" d="M 674.63720703125 279.46 L 674.63720703125 301.54" stroke-miterlimit="10"/></g><g transform="translate(-1,-182) scale(1,1)"><path fill="none" stroke="#000000" d="M 662.8946615767046 287.74 L 686.3797524857954 287.74" stroke-miterlimit="10"/></g><g transform="translate(-1,-182) scale(1,1)"><path fill="none" stroke="#000000" d="M 674.63720703125 301.54 L 658.3281161221591 324" stroke-miterlimit="10"/></g><g transform="translate(-1,-182) scale(1,1)"><path fill="none" stroke="#000000" d="M 674.63720703125 301.54 L 690.9462979403409 324" stroke-miterlimit="10"/></g><g transform="translate(-1,-182) scale(1,1)"><g><path fill="none" stroke="none"/><text fill="#000000" stroke="none" font-family="Arial" font-size="13px" font-style="normal" font-weight="bold" text-decoration="none" x="616.080078125" y="344.5">Nhân viên cửa hàng</text></g></g><g transform="translate(-1,-182) scale(1,1)"><path fill="none" stroke="#000000" d="M 620 255 L 568 208 L 457 209" stroke-miterlimit="10"/></g><g transform="translate(-1,-182) scale(1,1)"><path fill="none" stroke="#000000" d="M 467.1243404254823 204.6991011463944 L 457 209 L 467.2001845144816 213.11779502531763" stroke-miterlimit="10"/></g><g transform="translate(-1,-182) scale(1,1)"><path fill="none" stroke="#000000" d="M 607 303 L 465 304" stroke-miterlimit="10"/></g><g transform="translate(-1,-182) scale(1,1)"><path fill="none" stroke="#000000" d="M 475.13277911034703 299.7190202638981 L 465 304 L 475.1920666227116 308.13784701967194" stroke-miterlimit="10"/></g><g transform="translate(-1,-182) scale(1,1)"><path fill="none" stroke="#000000" d="M 622 351 L 568 400 L 453 401" stroke-miterlimit="10"/></g><g transform="translate(-1,-182) scale(1,1)"><path fill="none" stroke="#000000" d="M 463.1256875389089 396.70227364012266 L 453 401 L 463.19889377569206 405.12099087018515" stroke-miterlimit="10"/></g></g></svg>