<svg version="1.1" xmlns="http://www.w3.org/2000/svg" xmlns:xlink="http://www.w3.org/1999/xlink" width="556" height="900"><defs/><g><g transform="translate(-102,-86) scale(1,1)"><rect fill="#ffffff" stroke="none" x="112" y="96" width="175" height="21"/></g><g transform="translate(-102,-86) scale(1,1)"><path fill="none" stroke="#000000" d="M 112 96 L 287 96 L 287 117 L 112 117 L 112 96 Z Z" stroke-miterlimit="10" stroke-width="2"/></g><g transform="translate(-102,-86) scale(1,1)"><path fill="none" stroke="#000000" d="M 112 976 L 112 96 L 287 96 L 287 976" stroke-miterlimit="10" stroke-width="2"/></g><g transform="translate(-102,-86) scale(1,1)"><g><path fill="none" stroke="none"/><text fill="#000000" stroke="none" font-family="Arial" font-size="13px" font-style="normal" font-weight="normal" text-decoration="none" x="170.23095703125" y="113">Nhân viên</text></g></g><g transform="translate(-102,-86) scale(1,1)"><rect fill="#ffffff" stroke="none" x="288" y="96" width="184" height="21"/></g><g transform="translate(-102,-86) scale(1,1)"><path fill="none" stroke="#000000" d="M 288 96 L 472 96 L 472 117 L 288 117 L 288 96 Z Z" stroke-miterlimit="10" stroke-width="2"/></g><g transform="translate(-102,-86) scale(1,1)"><path fill="none" stroke="#000000" d="M 288 976 L 288 96 L 472 96 L 472 976" stroke-miterlimit="10" stroke-width="2"/></g><g transform="translate(-102,-86) scale(1,1)"><g><path fill="none" stroke="none"/><text fill="#000000" stroke="none" font-family="Arial" font-size="13px" font-style="normal" font-weight="normal" text-decoration="none" x="353.619140625" y="113">Hệ thống</text></g></g><g transform="translate(-102,-86) scale(1,1)"><rect fill="#ffffff" stroke="none" x="472" y="96" width="176" height="21"/></g><g transform="translate(-102,-86) scale(1,1)"><path fill="none" stroke="#000000" d="M 472 96 L 648 96 L 648 117 L 472 117 L 472 96 Z Z" stroke-miterlimit="10" stroke-width="2"/></g><g transform="translate(-102,-86) scale(1,1)"><path fill="none" stroke="#000000" d="M 472 976 L 472 96 L 648 96 L 648 976" stroke-miterlimit="10" stroke-width="2"/></g><g transform="translate(-102,-86) scale(1,1)"><g><path fill="none" stroke="none"/><text fill="#000000" stroke="none" font-family="Arial" font-size="13px" font-style="normal" font-weight="normal" text-decoration="none" x="542.661376953125" y="113">CSDL</text></g></g><g transform="translate(-102,-86) scale(1,1)"><path fill="#C0C0C0" stroke="none" d="M 337 183 L 437 183 Q 447 183 447 193 L 447 239 Q 447 249 437 249 L 337 249 Q 327 249 327 239 L 327 193 Q 327 183 337 183 Z" opacity="0.2"/></g><g transform="translate(-102,-86) scale(1,1)"><path fill="#ffffff" stroke="none" d="M 330 176 L 430 176 Q 440 176 440 186 L 440 232 Q 440 242 430 242 L 330 242 Q 320 242 320 232 L 320 186 Q 320 176 330 176 Z"/></g><g transform="translate(-102,-86) scale(1,1)"><path fill="none" stroke="#000000" d="M 330 176 L 430 176 Q 440 176 440 186 L 440 232 Q 440 242 430 242 L 330 242 Q 320 242 320 232 L 320 186 Q 320 176 330 176 Z" stroke-miterlimit="10"/></g><g transform="translate(-102,-86) scale(1,1)"><g><path fill="none" stroke="none"/><text fill="#000000" stroke="none" font-family="Arial" font-size="13px" font-style="normal" font-weight="bold" text-decoration="none" x="329.77099609375" y="195.5">Hiển thị giao diện</text><text fill="#000000" stroke="none" font-family="Arial" font-size="13px" font-style="normal" font-weight="bold" text-decoration="none" x="329.044189453125" y="208.5">quản lý nhân viên</text></g></g><g transform="translate(-102,-86) scale(1,1)"><path fill="none" stroke="#000000" d="M 377 147 L 377 176" stroke-miterlimit="10"/></g><g transform="translate(-102,-86) scale(1,1)"><path fill="none" stroke="#000000" d="M 372.790482243984 165.83732514237585 L 377 176 L 381.209517756016 165.83732514237585" stroke-miterlimit="10"/></g><g transform="translate(-102,-86) scale(1,1)"><path fill="#C0C0C0" stroke="none" d="M 375 144.5 C 375 139.2532944 379.2532944 135 384.5 135 C 389.7467056 135 394 139.2532944 394 144.5 C 394 149.7467056 389.7467056 154 384.5 154 C 379.2532944 154 375 149.7467056 375 144.5 Z" opacity="0.2"/></g><g transform="translate(-102,-86) scale(1,1)"><path fill="#000000" stroke="none" d="M 368 137.5 C 368 132.2532944 372.2532944 128 377.5 128 C 382.7467056 128 387 132.2532944 387 137.5 C 387 142.7467056 382.7467056 147 377.5 147 C 372.2532944 147 368 142.7467056 368 137.5 Z"/></g><g transform="translate(-102,-86) scale(1,1)"><path fill="none" stroke="#000000" d="M 511 176 L 441 193" stroke-miterlimit="10"/></g><g transform="translate(-102,-86) scale(1,1)"><path fill="none" stroke="#000000" d="M 449.8821819918647 186.51102141601663 L 441 193 L 451.8690518778895 194.69225035847163" stroke-miterlimit="10"/></g><g transform="translate(-102,-86) scale(1,1)"><rect fill="#C0C0C0" stroke="none" x="519" y="159" width="89.18359375" height="24" opacity="0.2"/></g><g transform="translate(-102,-86) scale(1,1)"><rect fill="#ffffff" stroke="none" x="512" y="152" width="89.18359375" height="24"/></g><g transform="translate(-102,-86) scale(1,1)"><path fill="none" stroke="#000000" d="M 512 152 L 601.18359375 152 L 601.18359375 176 L 512 176 L 512 152 Z Z" stroke-miterlimit="10"/></g><g transform="translate(-102,-86) scale(1,1)"><rect fill="#ffffff" stroke="none" x="512" y="152" width="89.18359375" height="24"/></g><g transform="translate(-102,-86) scale(1,1)"><path fill="none" stroke="#000000" d="M 512 152 L 601.18359375 152 L 601.18359375 176 L 512 176 L 512 152 Z Z" stroke-miterlimit="10"/></g><g transform="translate(-102,-86) scale(1,1)"><g><path fill="none" stroke="none"/><text fill="#000000" stroke="none" font-family="Arial" font-size="13px" font-style="normal" font-weight="bold" text-decoration="none" x="523.003173828125" y="171.5">NHANVIEN</text></g></g><g transform="translate(-102,-86) scale(1,1)"><path fill="none" stroke="#000000" d="M 320 210 L 256 210" stroke-miterlimit="10"/></g><g transform="translate(-102,-86) scale(1,1)"><path fill="none" stroke="#000000" d="M 266.16267485762415 205.790482243984 L 256 210 L 266.16267485762415 214.209517756016" stroke-miterlimit="10"/></g><g transform="translate(-102,-86) scale(1,1)"><path fill="#C0C0C0" stroke="none" d="M 153 191 L 253 191 Q 263 191 263 201 L 263 234 Q 263 244 253 244 L 153 244 Q 143 244 143 234 L 143 201 Q 143 191 153 191 Z" opacity="0.2"/></g><g transform="translate(-102,-86) scale(1,1)"><path fill="#ffffff" stroke="none" d="M 146 184 L 246 184 Q 256 184 256 194 L 256 227 Q 256 237 246 237 L 146 237 Q 136 237 136 227 L 136 194 Q 136 184 146 184 Z"/></g><g transform="translate(-102,-86) scale(1,1)"><path fill="none" stroke="#000000" d="M 146 184 L 246 184 Q 256 184 256 194 L 256 227 Q 256 237 246 237 L 146 237 Q 136 237 136 227 L 136 194 Q 136 184 146 184 Z" stroke-miterlimit="10"/></g><g transform="translate(-102,-86) scale(1,1)"><g><path fill="none" stroke="none"/><text fill="#000000" stroke="none" font-family="Arial" font-size="13px" font-style="normal" font-weight="bold" text-decoration="none" x="147.9228515625" y="203.5">Chọn chức năng</text><text fill="#000000" stroke="none" font-family="Arial" font-size="13px" font-style="normal" font-weight="bold" text-decoration="none" x="151.5537109375" y="216.5">thêm nhân viên</text></g></g><g transform="translate(-102,-86) scale(1,1)"><path fill="none" stroke="#000000" d="M 246 238 L 319 279" stroke-miterlimit="10"/></g><g transform="translate(-102,-86) scale(1,1)"><path fill="none" stroke="#000000" d="M 308.07784556452265 277.6936529987854 L 319 279 L 312.2005973566488 270.35314371036566" stroke-miterlimit="10"/></g><g transform="translate(-102,-86) scale(1,1)"><path fill="#C0C0C0" stroke="none" d="M 337 279 L 429 279 Q 439 279 439 289 L 439 348 Q 439 358 429 358 L 337 358 Q 327 358 327 348 L 327 289 Q 327 279 337 279 Z" opacity="0.2"/></g><g transform="translate(-102,-86) scale(1,1)"><path fill="#ffffff" stroke="none" d="M 330 272 L 422 272 Q 432 272 432 282 L 432 341 Q 432 351 422 351 L 330 351 Q 320 351 320 341 L 320 282 Q 320 272 330 272 Z"/></g><g transform="translate(-102,-86) scale(1,1)"><path fill="none" stroke="#000000" d="M 330 272 L 422 272 Q 432 272 432 282 L 432 341 Q 432 351 422 351 L 330 351 Q 320 351 320 341 L 320 282 Q 320 272 330 272 Z" stroke-miterlimit="10"/></g><g transform="translate(-102,-86) scale(1,1)"><g><path fill="none" stroke="none"/><text fill="#000000" stroke="none" font-family="Arial" font-size="13px" font-style="normal" font-weight="bold" text-decoration="none" x="339.865966796875" y="291.5">Hiển thị giao</text><text fill="#000000" stroke="none" font-family="Arial" font-size="13px" font-style="normal" font-weight="bold" text-decoration="none" x="336.96826171875" y="304.5">diện thông tin</text><text fill="#000000" stroke="none" font-family="Arial" font-size="13px" font-style="normal" font-weight="bold" text-decoration="none" x="347.81005859375" y="317.5">nhân viên</text></g></g><g transform="translate(-102,-86) scale(1,1)"><path fill="none" stroke="#000000" d="M 320 317 L 264 317" stroke-miterlimit="10"/></g><g transform="translate(-102,-86) scale(1,1)"><path fill="none" stroke="#000000" d="M 274.16267485762415 312.790482243984 L 264 317 L 274.16267485762415 321.209517756016" stroke-miterlimit="10"/></g><g transform="translate(-102,-86) scale(1,1)"><path fill="#C0C0C0" stroke="none" d="M 145 295 L 261 295 Q 271 295 271 305 L 271 351 Q 271 361 261 361 L 145 361 Q 135 361 135 351 L 135 305 Q 135 295 145 295 Z" opacity="0.2"/></g><g transform="translate(-102,-86) scale(1,1)"><path fill="#ffffff" stroke="none" d="M 138 288 L 254 288 Q 264 288 264 298 L 264 344 Q 264 354 254 354 L 138 354 Q 128 354 128 344 L 128 298 Q 128 288 138 288 Z"/></g><g transform="translate(-102,-86) scale(1,1)"><path fill="none" stroke="#000000" d="M 138 288 L 254 288 Q 264 288 264 298 L 264 344 Q 264 354 254 354 L 138 354 Q 128 354 128 344 L 128 298 Q 128 288 138 288 Z" stroke-miterlimit="10"/></g><g transform="translate(-102,-86) scale(1,1)"><g><path fill="none" stroke="none"/><text fill="#000000" stroke="none" font-family="Arial" font-size="13px" font-style="normal" font-weight="bold" text-decoration="none" x="153.71826171875" y="307.5">Nhập thông tin</text><text fill="#000000" stroke="none" font-family="Arial" font-size="13px" font-style="normal" font-weight="bold" text-decoration="none" x="147.21826171875" y="320.5">nhân viên và xác</text><text fill="#000000" stroke="none" font-family="Arial" font-size="13px" font-style="normal" font-weight="bold" text-decoration="none" x="181.5400390625" y="333.5">nhận</text></g></g><g transform="translate(-102,-86) scale(1,1)"><path fill="#C0C0C0" stroke="none" d="M 345 391 L 429 391 Q 439 391 439 401 L 439 434 Q 439 444 429 444 L 345 444 Q 335 444 335 434 L 335 401 Q 335 391 345 391 Z" opacity="0.2"/></g><g transform="translate(-102,-86) scale(1,1)"><path fill="#ffffff" stroke="none" d="M 338 384 L 422 384 Q 432 384 432 394 L 432 427 Q 432 437 422 437 L 338 437 Q 328 437 328 427 L 328 394 Q 328 384 338 384 Z"/></g><g transform="translate(-102,-86) scale(1,1)"><path fill="none" stroke="#000000" d="M 338 384 L 422 384 Q 432 384 432 394 L 432 427 Q 432 437 422 437 L 338 437 Q 328 437 328 427 L 328 394 Q 328 384 338 384 Z" stroke-miterlimit="10"/></g><g transform="translate(-102,-86) scale(1,1)"><g><path fill="none" stroke="none"/><text fill="#000000" stroke="none" font-family="Arial" font-size="13px" font-style="normal" font-weight="bold" text-decoration="none" x="341.70458984375" y="403.5">Kiểm tra định</text><text fill="#000000" stroke="none" font-family="Arial" font-size="13px" font-style="normal" font-weight="bold" text-decoration="none" x="343.84375" y="416.5">dạng dữ liệu</text></g></g><g transform="translate(-102,-86) scale(1,1)"><path fill="#C0C0C0" stroke="none" d="M 375 480.5 L 386.5 471 L 397 480.5 L 386.5 489 L 375 480.5" opacity="0.2"/></g><g transform="translate(-102,-86) scale(1,1)"><path fill="#ffffff" stroke="none" d="M 368 473 L 379 464 L 390 473 L 379 482 L 368 473"/></g><g transform="translate(-102,-86) scale(1,1)"><path fill="none" stroke="#000000" d="M 368 473 L 379 464 L 390 473 L 379 482 L 368 473 L 368 473" stroke-miterlimit="10"/></g><g transform="translate(-102,-86) scale(1,1)"><path fill="none" stroke="#000000" d="M 380 437 L 380 464" stroke-miterlimit="10"/></g><g transform="translate(-102,-86) scale(1,1)"><path fill="none" stroke="#000000" d="M 375.790482243984 453.83732514237585 L 380 464 L 384.209517756016 453.83732514237585" stroke-miterlimit="10"/></g><g transform="translate(-102,-86) scale(1,1)"><path fill="#C0C0C0" stroke="none" d="M 337 543 L 453 543 Q 463 543 463 553 L 463 586 Q 463 596 453 596 L 337 596 Q 327 596 327 586 L 327 553 Q 327 543 337 543 Z" opacity="0.2"/></g><g transform="translate(-102,-86) scale(1,1)"><path fill="#ffffff" stroke="none" d="M 330 536 L 446 536 Q 456 536 456 546 L 456 579 Q 456 589 446 589 L 330 589 Q 320 589 320 579 L 320 546 Q 320 536 330 536 Z"/></g><g transform="translate(-102,-86) scale(1,1)"><path fill="none" stroke="#000000" d="M 330 536 L 446 536 Q 456 536 456 546 L 456 579 Q 456 589 446 589 L 330 589 Q 320 589 320 579 L 320 546 Q 320 536 330 536 Z" stroke-miterlimit="10"/></g><g transform="translate(-102,-86) scale(1,1)"><g><path fill="none" stroke="none"/><text fill="#000000" stroke="none" font-family="Arial" font-size="13px" font-style="normal" font-weight="bold" text-decoration="none" x="335.222412109375" y="555.5">Thông báo dữ liệu</text><text fill="#000000" stroke="none" font-family="Arial" font-size="13px" font-style="normal" font-weight="bold" text-decoration="none" x="350.126708984375" y="568.5">không hợp lệ</text></g></g><g transform="translate(-102,-86) scale(1,1)"><path fill="none" stroke="#000000" d="M 380 482 L 380 536" stroke-miterlimit="10"/></g><g transform="translate(-102,-86) scale(1,1)"><path fill="none" stroke="#000000" d="M 375.790482243984 525.8373251423759 L 380 536 L 384.209517756016 525.8373251423759" stroke-miterlimit="10"/></g><g transform="translate(-102,-86) scale(1,1)"><g><path fill="none" stroke="none"/><text fill="#000000" stroke="none" font-family="Arial" font-size="13px" font-style="normal" font-weight="normal" text-decoration="none" x="355.5" y="514.5">Không hợp lệ</text></g></g><g transform="translate(-102,-86) scale(1,1)"><path fill="#C0C0C0" stroke="none" d="M 529 455 L 621 455 Q 631 455 631 465 L 631 498 Q 631 508 621 508 L 529 508 Q 519 508 519 498 L 519 465 Q 519 455 529 455 Z" opacity="0.2"/></g><g transform="translate(-102,-86) scale(1,1)"><path fill="#ffffff" stroke="none" d="M 522 448 L 614 448 Q 624 448 624 458 L 624 491 Q 624 501 614 501 L 522 501 Q 512 501 512 491 L 512 458 Q 512 448 522 448 Z"/></g><g transform="translate(-102,-86) scale(1,1)"><path fill="none" stroke="#000000" d="M 522 448 L 614 448 Q 624 448 624 458 L 624 491 Q 624 501 614 501 L 522 501 Q 512 501 512 491 L 512 458 Q 512 448 522 448 Z" stroke-miterlimit="10"/></g><g transform="translate(-102,-86) scale(1,1)"><g><path fill="none" stroke="none"/><text fill="#000000" stroke="none" font-family="Arial" font-size="13px" font-style="normal" font-weight="bold" text-decoration="none" x="525.727783203125" y="467.5">Kiểm tra thông</text><text fill="#000000" stroke="none" font-family="Arial" font-size="13px" font-style="normal" font-weight="bold" text-decoration="none" x="531.13916015625" y="480.5">tin nhân viên</text></g></g><g transform="translate(-102,-86) scale(1,1)"><path fill="none" stroke="#000000" d="M 391 473 L 511 474" stroke-miterlimit="10"/></g><g transform="translate(-102,-86) scale(1,1)"><path fill="none" stroke="#000000" d="M 500.8025998979879 478.12468558310604 L 511 474 L 500.87275609131814 469.7059423834715" stroke-miterlimit="10"/></g><g transform="translate(-102,-86) scale(1,1)"><g><path fill="none" stroke="none"/><text fill="#000000" stroke="none" font-family="Arial" font-size="13px" font-style="normal" font-weight="normal" text-decoration="none" x="406.5" y="463.5">Hợp lệ</text></g></g><g transform="translate(-102,-86) scale(1,1)"><path fill="none" stroke="#000000" d="M 566 502 L 564 543" stroke-miterlimit="10"/></g><g transform="translate(-102,-86) scale(1,1)"><path fill="none" stroke="#000000" d="M 560.2906331446342 532.6442963767635 L 564 543 L 568.6996697986108 533.0544932867136" stroke-miterlimit="10"/></g><g transform="translate(-102,-86) scale(1,1)"><path fill="#C0C0C0" stroke="none" d="M 513 607 L 621 607 Q 631 607 631 617 L 631 650 Q 631 660 621 660 L 513 660 Q 503 660 503 650 L 503 617 Q 503 607 513 607 Z" opacity="0.2"/></g><g transform="translate(-102,-86) scale(1,1)"><path fill="#ffffff" stroke="none" d="M 506 600 L 614 600 Q 624 600 624 610 L 624 643 Q 624 653 614 653 L 506 653 Q 496 653 496 643 L 496 610 Q 496 600 506 600 Z"/></g><g transform="translate(-102,-86) scale(1,1)"><path fill="none" stroke="#000000" d="M 506 600 L 614 600 Q 624 600 624 610 L 624 643 Q 624 653 614 653 L 506 653 Q 496 653 496 643 L 496 610 Q 496 600 506 600 Z" stroke-miterlimit="10"/></g><g transform="translate(-102,-86) scale(1,1)"><g><path fill="none" stroke="none"/><text fill="#000000" stroke="none" font-family="Arial" font-size="13px" font-style="normal" font-weight="bold" text-decoration="none" x="521.676025390625" y="619.5">Lưu thông tin</text><text fill="#000000" stroke="none" font-family="Arial" font-size="13px" font-style="normal" font-weight="bold" text-decoration="none" x="531.81005859375" y="632.5">nhân viên</text></g></g><g transform="translate(-102,-86) scale(1,1)"><path fill="none" stroke="#000000" d="M 563 562 L 563 600" stroke-miterlimit="10"/></g><g transform="translate(-102,-86) scale(1,1)"><path fill="none" stroke="#000000" d="M 558.790482243984 589.8373251423759 L 563 600 L 567.209517756016 589.8373251423759" stroke-miterlimit="10"/></g><g transform="translate(-102,-86) scale(1,1)"><g><path fill="none" stroke="none"/><text fill="#000000" stroke="none" font-family="Arial" font-size="13px" font-style="normal" font-weight="normal" text-decoration="none" x="566.5" y="580.5">Hợp lệ</text></g></g><g transform="translate(-102,-86) scale(1,1)"><path fill="#C0C0C0" stroke="none" d="M 559 560.5 L 570.5 551 L 581 560.5 L 570.5 569 L 559 560.5" opacity="0.2"/></g><g transform="translate(-102,-86) scale(1,1)"><path fill="#ffffff" stroke="none" d="M 552 553 L 563 544 L 574 553 L 563 562 L 552 553"/></g><g transform="translate(-102,-86) scale(1,1)"><path fill="none" stroke="#000000" d="M 552 553 L 563 544 L 574 553 L 563 562 L 552 553 L 552 553" stroke-miterlimit="10"/></g><g transform="translate(-102,-86) scale(1,1)"><path fill="none" stroke="#000000" d="M 552 558 L 456 558" stroke-miterlimit="10"/></g><g transform="translate(-102,-86) scale(1,1)"><path fill="none" stroke="#000000" d="M 466.16267485762415 553.790482243984 L 456 558 L 466.16267485762415 562.209517756016" stroke-miterlimit="10"/></g><g transform="translate(-102,-86) scale(1,1)"><g><path fill="none" stroke="none"/><text fill="#000000" stroke="none" font-family="Arial" font-size="13px" font-style="normal" font-weight="normal" text-decoration="none" x="471.5" y="548.5">Không hợp lệ</text></g></g><g transform="translate(-102,-86) scale(1,1)"><path fill="#C0C0C0" stroke="none" d="M 521 695 L 621 695 Q 631 695 631 705 L 631 738 Q 631 748 621 748 L 521 748 Q 511 748 511 738 L 511 705 Q 511 695 521 695 Z" opacity="0.2"/></g><g transform="translate(-102,-86) scale(1,1)"><path fill="#ffffff" stroke="none" d="M 514 688 L 614 688 Q 624 688 624 698 L 624 731 Q 624 741 614 741 L 514 741 Q 504 741 504 731 L 504 698 Q 504 688 514 688 Z"/></g><g transform="translate(-102,-86) scale(1,1)"><path fill="none" stroke="#000000" d="M 514 688 L 614 688 Q 624 688 624 698 L 624 731 Q 624 741 614 741 L 514 741 Q 504 741 504 731 L 504 698 Q 504 688 514 688 Z" stroke-miterlimit="10"/></g><g transform="translate(-102,-86) scale(1,1)"><g><path fill="none" stroke="none"/><text fill="#000000" stroke="none" font-family="Arial" font-size="13px" font-style="normal" font-weight="bold" text-decoration="none" x="515.94189453125" y="707.5">Tạo tài khoản và</text><text fill="#000000" stroke="none" font-family="Arial" font-size="13px" font-style="normal" font-weight="bold" text-decoration="none" x="537.263671875" y="720.5">mật khẩu</text></g></g><g transform="translate(-102,-86) scale(1,1)"><path fill="none" stroke="#000000" d="M 561 653 L 561 688" stroke-miterlimit="10"/></g><g transform="translate(-102,-86) scale(1,1)"><path fill="none" stroke="#000000" d="M 556.790482243984 677.8373251423759 L 561 688 L 565.209517756016 677.8373251423759" stroke-miterlimit="10"/></g><g transform="translate(-102,-86) scale(1,1)"><path fill="none" stroke="#000000" d="M 507 654 L 488 664 L 488 808 L 533 847" stroke-miterlimit="10"/></g><g transform="translate(-102,-86) scale(1,1)"><path fill="none" stroke="#000000" d="M 522.5632358277238 843.525240495762 L 533 847 L 528.0771192885778 837.1630672716996" stroke-miterlimit="10"/></g><g transform="translate(-102,-86) scale(1,1)"><path fill="none" stroke="#000000" d="M 503 715 L 441 717" stroke-miterlimit="10"/></g><g transform="translate(-102,-86) scale(1,1)"><path fill="none" stroke="#000000" d="M 451.0216711290793 712.4650129238797 L 441 717 L 451.29311172831143 720.8796715000755" stroke-miterlimit="10"/></g><g transform="translate(-102,-86) scale(1,1)"><path fill="#C0C0C0" stroke="none" d="M 353 679 L 437 679 Q 447 679 447 689 L 447 761 Q 447 771 437 771 L 353 771 Q 343 771 343 761 L 343 689 Q 343 679 353 679 Z" opacity="0.2"/></g><g transform="translate(-102,-86) scale(1,1)"><path fill="#ffffff" stroke="none" d="M 346 672 L 430 672 Q 440 672 440 682 L 440 754 Q 440 764 430 764 L 346 764 Q 336 764 336 754 L 336 682 Q 336 672 346 672 Z"/></g><g transform="translate(-102,-86) scale(1,1)"><path fill="none" stroke="#000000" d="M 346 672 L 430 672 Q 440 672 440 682 L 440 754 Q 440 764 430 764 L 346 764 Q 336 764 336 754 L 336 682 Q 336 672 346 672 Z" stroke-miterlimit="10"/></g><g transform="translate(-102,-86) scale(1,1)"><g><path fill="none" stroke="none"/><text fill="#000000" stroke="none" font-family="Arial" font-size="13px" font-style="normal" font-weight="bold" text-decoration="none" x="356.918701171875" y="691.5">Thông báo</text><text fill="#000000" stroke="none" font-family="Arial" font-size="13px" font-style="normal" font-weight="bold" text-decoration="none" x="347.162353515625" y="704.5">thành công và</text><text fill="#000000" stroke="none" font-family="Arial" font-size="13px" font-style="normal" font-weight="bold" text-decoration="none" x="358.369140625" y="717.5">hiển thị tài</text><text fill="#000000" stroke="none" font-family="Arial" font-size="13px" font-style="normal" font-weight="bold" text-decoration="none" x="353.67822265625" y="730.5">khoản - mật</text><text fill="#000000" stroke="none" font-family="Arial" font-size="13px" font-style="normal" font-weight="bold" text-decoration="none" x="373.905029296875" y="743.5">khẩu</text></g></g><g transform="translate(-102,-86) scale(1,1)"><path fill="#C0C0C0" stroke="none" d="M 345 841 L 445 841 Q 455 841 455 851 L 455 884 Q 455 894 445 894 L 345 894 Q 335 894 335 884 L 335 851 Q 335 841 345 841 Z" opacity="0.2"/></g><g transform="translate(-102,-86) scale(1,1)"><path fill="#ffffff" stroke="none" d="M 338 834 L 438 834 Q 448 834 448 844 L 448 877 Q 448 887 438 887 L 338 887 Q 328 887 328 877 L 328 844 Q 328 834 338 834 Z"/></g><g transform="translate(-102,-86) scale(1,1)"><path fill="none" stroke="#000000" d="M 338 834 L 438 834 Q 448 834 448 844 L 448 877 Q 448 887 438 887 L 338 887 Q 328 887 328 877 L 328 844 Q 328 834 338 834 Z" stroke-miterlimit="10"/></g><g transform="translate(-102,-86) scale(1,1)"><g><path fill="none" stroke="none"/><text fill="#000000" stroke="none" font-family="Arial" font-size="13px" font-style="normal" font-weight="bold" text-decoration="none" x="337.77099609375" y="853.5">Hiển thị giao diện</text><text fill="#000000" stroke="none" font-family="Arial" font-size="13px" font-style="normal" font-weight="bold" text-decoration="none" x="337.044189453125" y="866.5">quản lý nhân viên</text></g></g><g transform="translate(-102,-86) scale(1,1)"><path fill="none" stroke="#000000" d="M 388 765 L 388 833" stroke-miterlimit="10"/></g><g transform="translate(-102,-86) scale(1,1)"><path fill="none" stroke="#000000" d="M 383.790482243984 822.8373251423759 L 388 833 L 392.209517756016 822.8373251423759" stroke-miterlimit="10"/></g><g transform="translate(-102,-86) scale(1,1)"><rect fill="#C0C0C0" stroke="none" x="511" y="855" width="89.18359375" height="24" opacity="0.2"/></g><g transform="translate(-102,-86) scale(1,1)"><rect fill="#ffffff" stroke="none" x="504" y="848" width="89.18359375" height="24"/></g><g transform="translate(-102,-86) scale(1,1)"><path fill="none" stroke="#000000" d="M 504 848 L 593.18359375 848 L 593.18359375 872 L 504 872 L 504 848 Z Z" stroke-miterlimit="10"/></g><g transform="translate(-102,-86) scale(1,1)"><rect fill="#ffffff" stroke="none" x="504" y="848" width="89.18359375" height="24"/></g><g transform="translate(-102,-86) scale(1,1)"><path fill="none" stroke="#000000" d="M 504 848 L 593.18359375 848 L 593.18359375 872 L 504 872 L 504 848 Z Z" stroke-miterlimit="10"/></g><g transform="translate(-102,-86) scale(1,1)"><g><path fill="none" stroke="none"/><text fill="#000000" stroke="none" font-family="Arial" font-size="13px" font-style="normal" font-weight="bold" text-decoration="none" x="515.003173828125" y="867.5">NHANVIEN</text></g></g><g transform="translate(-102,-86) scale(1,1)"><rect fill="#C0C0C0" stroke="none" x="519" y="783" width="89.18359375" height="24" opacity="0.2"/></g><g transform="translate(-102,-86) scale(1,1)"><rect fill="#ffffff" stroke="none" x="512" y="776" width="89.18359375" height="24"/></g><g transform="translate(-102,-86) scale(1,1)"><path fill="none" stroke="#000000" d="M 512 776 L 601.18359375 776 L 601.18359375 800 L 512 800 L 512 776 Z Z" stroke-miterlimit="10"/></g><g transform="translate(-102,-86) scale(1,1)"><rect fill="#ffffff" stroke="none" x="512" y="776" width="89.18359375" height="24"/></g><g transform="translate(-102,-86) scale(1,1)"><path fill="none" stroke="#000000" d="M 512 776 L 601.18359375 776 L 601.18359375 800 L 512 800 L 512 776 Z Z" stroke-miterlimit="10"/></g><g transform="translate(-102,-86) scale(1,1)"><g><path fill="none" stroke="none"/><text fill="#000000" stroke="none" font-family="Arial" font-size="13px" font-style="normal" font-weight="bold" text-decoration="none" x="523.847412109375" y="795.5">TAIKHOAN</text></g></g><g transform="translate(-102,-86) scale(1,1)"><path fill="none" stroke="#000000" d="M 504 860 L 448 860" stroke-miterlimit="10"/></g><g transform="translate(-102,-86) scale(1,1)"><path fill="none" stroke="#000000" d="M 458.16267485762415 855.790482243984 L 448 860 L 458.16267485762415 864.209517756016" stroke-miterlimit="10"/></g><g transform="translate(-102,-86) scale(1,1)"><path fill="#C0C0C0" stroke="none" d="M 383 963.5 C 383 956.59644 388.59644 951 395.5 951 C 402.40356 951 408 956.59644 408 963.5 C 408 970.40356 402.40356 976 395.5 976 C 388.59644 976 383 970.40356 383 963.5 Z" opacity="0.2"/></g><g transform="translate(-102,-86) scale(1,1)"><path fill="none" stroke="#000000" d="M 376 956.5 C 376 949.59644 381.59644 944 388.5 944 C 395.40356 944 401 949.59644 401 956.5 C 401 963.40356 395.40356 969 388.5 969 C 381.59644 969 376 963.40356 376 956.5 Z" stroke-miterlimit="10"/></g><g transform="translate(-102,-86) scale(1,1)"><path fill="#000000" stroke="none" d="M 381 956.5 C 381 952.357864 384.357864 949 388.5 949 C 392.642136 949 396 952.357864 396 956.5 C 396 960.642136 392.642136 964 388.5 964 C 384.357864 964 381 960.642136 381 956.5 Z"/></g><g transform="translate(-102,-86) scale(1,1)"><path fill="none" stroke="#000000" d="M 388 888 L 388 943" stroke-miterlimit="10"/></g><g transform="translate(-102,-86) scale(1,1)"><path fill="none" stroke="#000000" d="M 383.790482243984 932.8373251423759 L 388 943 L 392.209517756016 932.8373251423759" stroke-miterlimit="10"/></g><g transform="translate(-102,-86) scale(1,1)"><path fill="none" stroke="#000000" d="M 561 741 L 561 776" stroke-miterlimit="10"/></g><g transform="translate(-102,-86) scale(1,1)"><path fill="none" stroke="#000000" d="M 556.790482243984 765.8373251423759 L 561 776 L 565.209517756016 765.8373251423759" stroke-miterlimit="10"/></g><g transform="translate(-102,-86) scale(1,1)"><path fill="none" stroke="#000000" d="M 320 561 L 200 561 L 200 560 L 197 560 L 197 354" stroke-miterlimit="10"/></g><g transform="translate(-102,-86) scale(1,1)"><path fill="none" stroke="#000000" d="M 201.209517756016 364.16267485762415 L 197 354 L 192.790482243984 364.16267485762415" stroke-miterlimit="10"/></g><g transform="translate(-102,-86) scale(1,1)"><path fill="none" stroke="#000000" d="M 265 354 L 327 384" stroke-miterlimit="10"/></g><g transform="translate(-102,-86) scale(1,1)"><path fill="none" stroke="#000000" d="M 316.0184727471 383.36277225906684 L 327 384 L 319.68547566846354 375.7842995549155" stroke-miterlimit="10"/></g><g transform="translate(-102,-86) scale(1,1)"><path fill="none" stroke="#000000" d="M 525 775 L 441 740" stroke-miterlimit="10"/></g><g transform="translate(-102,-86) scale(1,1)"><path fill="none" stroke="#000000" d="M 451.9999759285823 740.0230124012253 L 441 740 L 448.7618853470315 747.7944297969472" stroke-miterlimit="10"/></g></g></svg>