<svg version="1.1" xmlns="http://www.w3.org/2000/svg" xmlns:xlink="http://www.w3.org/1999/xlink" width="556" height="852"><defs/><g><g transform="translate(-102,-6) scale(1,1)"><rect fill="#ffffff" stroke="none" x="112" y="16" width="175" height="21"/></g><g transform="translate(-102,-6) scale(1,1)"><path fill="none" stroke="#000000" d="M 112 16 L 287 16 L 287 37 L 112 37 L 112 16 Z Z" stroke-miterlimit="10" stroke-width="2"/></g><g transform="translate(-102,-6) scale(1,1)"><path fill="none" stroke="#000000" d="M 112 848 L 112 16 L 287 16 L 287 848" stroke-miterlimit="10" stroke-width="2"/></g><g transform="translate(-102,-6) scale(1,1)"><g><path fill="none" stroke="none"/><text fill="#000000" stroke="none" font-family="Arial" font-size="13px" font-style="normal" font-weight="normal" text-decoration="none" x="170.23095703125" y="33">Nhân viên</text></g></g><g transform="translate(-102,-6) scale(1,1)"><rect fill="#ffffff" stroke="none" x="288" y="16" width="184" height="21"/></g><g transform="translate(-102,-6) scale(1,1)"><path fill="none" stroke="#000000" d="M 288 16 L 472 16 L 472 37 L 288 37 L 288 16 Z Z" stroke-miterlimit="10" stroke-width="2"/></g><g transform="translate(-102,-6) scale(1,1)"><path fill="none" stroke="#000000" d="M 288 848 L 288 16 L 472 16 L 472 848" stroke-miterlimit="10" stroke-width="2"/></g><g transform="translate(-102,-6) scale(1,1)"><g><path fill="none" stroke="none"/><text fill="#000000" stroke="none" font-family="Arial" font-size="13px" font-style="normal" font-weight="normal" text-decoration="none" x="353.619140625" y="33">Hệ thống</text></g></g><g transform="translate(-102,-6) scale(1,1)"><rect fill="#ffffff" stroke="none" x="472" y="16" width="176" height="21"/></g><g transform="translate(-102,-6) scale(1,1)"><path fill="none" stroke="#000000" d="M 472 16 L 648 16 L 648 37 L 472 37 L 472 16 Z Z" stroke-miterlimit="10" stroke-width="2"/></g><g transform="translate(-102,-6) scale(1,1)"><path fill="none" stroke="#000000" d="M 472 848 L 472 16 L 648 16 L 648 848" stroke-miterlimit="10" stroke-width="2"/></g><g transform="translate(-102,-6) scale(1,1)"><g><path fill="none" stroke="none"/><text fill="#000000" stroke="none" font-family="Arial" font-size="13px" font-style="normal" font-weight="normal" text-decoration="none" x="542.661376953125" y="33">CSDL</text></g></g><g transform="translate(-102,-6) scale(1,1)"><path fill="#C0C0C0" stroke="none" d="M 153 191 L 253 191 Q 263 191 263 201 L 263 260 Q 263 270 253 270 L 153 270 Q 143 270 143 260 L 143 201 Q 143 191 153 191 Z" opacity="0.2"/></g><g transform="translate(-102,-6) scale(1,1)"><path fill="#ffffff" stroke="none" d="M 146 184 L 246 184 Q 256 184 256 194 L 256 253 Q 256 263 246 263 L 146 263 Q 136 263 136 253 L 136 194 Q 136 184 146 184 Z"/></g><g transform="translate(-102,-6) scale(1,1)"><path fill="none" stroke="#000000" d="M 146 184 L 246 184 Q 256 184 256 194 L 256 253 Q 256 263 246 263 L 146 263 Q 136 263 136 253 L 136 194 Q 136 184 146 184 Z" stroke-miterlimit="10"/></g><g transform="translate(-102,-6) scale(1,1)"><g><path fill="none" stroke="none"/><text fill="#000000" stroke="none" font-family="Arial" font-size="13px" font-style="normal" font-weight="bold" text-decoration="none" x="159.869140625" y="203.5">Chọn và xác</text><text fill="#000000" stroke="none" font-family="Arial" font-size="13px" font-style="normal" font-weight="bold" text-decoration="none" x="154.79736328125" y="216.5">nhận thông tin</text><text fill="#000000" stroke="none" font-family="Arial" font-size="13px" font-style="normal" font-weight="bold" text-decoration="none" x="155.524169921875" y="229.5">nhân viên cần</text><text fill="#000000" stroke="none" font-family="Arial" font-size="13px" font-style="normal" font-weight="bold" text-decoration="none" x="185.52001953125" y="242.5">xóa</text></g></g><g transform="translate(-102,-6) scale(1,1)"><path fill="none" stroke="#000000" d="M 257 224 L 319 224" stroke-miterlimit="10"/></g><g transform="translate(-102,-6) scale(1,1)"><path fill="none" stroke="#000000" d="M 308.83732514237585 228.209517756016 L 319 224 L 308.83732514237585 219.790482243984" stroke-miterlimit="10"/></g><g transform="translate(-102,-6) scale(1,1)"><path fill="#C0C0C0" stroke="none" d="M 337 199 L 429 199 Q 439 199 439 209 L 439 255 Q 439 265 429 265 L 337 265 Q 327 265 327 255 L 327 209 Q 327 199 337 199 Z" opacity="0.2"/></g><g transform="translate(-102,-6) scale(1,1)"><path fill="#ffffff" stroke="none" d="M 330 192 L 422 192 Q 432 192 432 202 L 432 248 Q 432 258 422 258 L 330 258 Q 320 258 320 248 L 320 202 Q 320 192 330 192 Z"/></g><g transform="translate(-102,-6) scale(1,1)"><path fill="none" stroke="#000000" d="M 330 192 L 422 192 Q 432 192 432 202 L 432 248 Q 432 258 422 258 L 330 258 Q 320 258 320 248 L 320 202 Q 320 192 330 192 Z" stroke-miterlimit="10"/></g><g transform="translate(-102,-6) scale(1,1)"><g><path fill="none" stroke="none"/><text fill="#000000" stroke="none" font-family="Arial" font-size="13px" font-style="normal" font-weight="bold" text-decoration="none" x="335.88916015625" y="211.5">Hiển thị thông</text><text fill="#000000" stroke="none" font-family="Arial" font-size="13px" font-style="normal" font-weight="bold" text-decoration="none" x="336.96826171875" y="224.5">báo xác nhận</text><text fill="#000000" stroke="none" font-family="Arial" font-size="13px" font-style="normal" font-weight="bold" text-decoration="none" x="365.52001953125" y="237.5">xóa</text></g></g><g transform="translate(-102,-6) scale(1,1)"><path fill="#C0C0C0" stroke="none" d="M 337 375 L 421 375 Q 431 375 431 385 L 431 418 Q 431 428 421 428 L 337 428 Q 327 428 327 418 L 327 385 Q 327 375 337 375 Z" opacity="0.2"/></g><g transform="translate(-102,-6) scale(1,1)"><path fill="#ffffff" stroke="none" d="M 330 368 L 414 368 Q 424 368 424 378 L 424 411 Q 424 421 414 421 L 330 421 Q 320 421 320 411 L 320 378 Q 320 368 330 368 Z"/></g><g transform="translate(-102,-6) scale(1,1)"><path fill="none" stroke="#000000" d="M 330 368 L 414 368 Q 424 368 424 378 L 424 411 Q 424 421 414 421 L 330 421 Q 320 421 320 411 L 320 378 Q 320 368 330 368 Z" stroke-miterlimit="10"/></g><g transform="translate(-102,-6) scale(1,1)"><g><path fill="none" stroke="none"/><text fill="#000000" stroke="none" font-family="Arial" font-size="13px" font-style="normal" font-weight="bold" text-decoration="none" x="335.12646484375" y="387.5">Xửa lý thông</text><text fill="#000000" stroke="none" font-family="Arial" font-size="13px" font-style="normal" font-weight="bold" text-decoration="none" x="340.563232421875" y="400.5">tin cần xóa</text></g></g><g transform="translate(-102,-6) scale(1,1)"><path fill="#C0C0C0" stroke="none" d="M 321 479 L 437 479 Q 447 479 447 489 L 447 535 Q 447 545 437 545 L 321 545 Q 311 545 311 535 L 311 489 Q 311 479 321 479 Z" opacity="0.2"/></g><g transform="translate(-102,-6) scale(1,1)"><path fill="#ffffff" stroke="none" d="M 314 472 L 430 472 Q 440 472 440 482 L 440 528 Q 440 538 430 538 L 314 538 Q 304 538 304 528 L 304 482 Q 304 472 314 472 Z"/></g><g transform="translate(-102,-6) scale(1,1)"><path fill="none" stroke="#000000" d="M 314 472 L 430 472 Q 440 472 440 482 L 440 528 Q 440 538 430 538 L 314 538 Q 304 538 304 528 L 304 482 Q 304 472 314 472 Z" stroke-miterlimit="10"/></g><g transform="translate(-102,-6) scale(1,1)"><g><path fill="none" stroke="none"/><text fill="#000000" stroke="none" font-family="Arial" font-size="13px" font-style="normal" font-weight="bold" text-decoration="none" x="319.23828125" y="491.5">Hiển thị thông báo</text><text fill="#000000" stroke="none" font-family="Arial" font-size="13px" font-style="normal" font-weight="bold" text-decoration="none" x="323.932373046875" y="504.5">xóa không thành</text><text fill="#000000" stroke="none" font-family="Arial" font-size="13px" font-style="normal" font-weight="bold" text-decoration="none" x="357.905029296875" y="517.5">công</text></g></g><g transform="translate(-102,-6) scale(1,1)"><path fill="none" stroke="#000000" d="M 561 421 L 561 488" stroke-miterlimit="10"/></g><g transform="translate(-102,-6) scale(1,1)"><path fill="none" stroke="#000000" d="M 556.790482243984 477.83732514237585 L 561 488 L 565.209517756016 477.83732514237585" stroke-miterlimit="10"/></g><g transform="translate(-102,-6) scale(1,1)"><path fill="#C0C0C0" stroke="none" d="M 513 607 L 621 607 Q 631 607 631 617 L 631 650 Q 631 660 621 660 L 513 660 Q 503 660 503 650 L 503 617 Q 503 607 513 607 Z" opacity="0.2"/></g><g transform="translate(-102,-6) scale(1,1)"><path fill="#ffffff" stroke="none" d="M 506 600 L 614 600 Q 624 600 624 610 L 624 643 Q 624 653 614 653 L 506 653 Q 496 653 496 643 L 496 610 Q 496 600 506 600 Z"/></g><g transform="translate(-102,-6) scale(1,1)"><path fill="none" stroke="#000000" d="M 506 600 L 614 600 Q 624 600 624 610 L 624 643 Q 624 653 614 653 L 506 653 Q 496 653 496 643 L 496 610 Q 496 600 506 600 Z" stroke-miterlimit="10"/></g><g transform="translate(-102,-6) scale(1,1)"><g><path fill="none" stroke="none"/><text fill="#000000" stroke="none" font-family="Arial" font-size="13px" font-style="normal" font-weight="bold" text-decoration="none" x="521.676025390625" y="619.5">Lưu thông tin</text><text fill="#000000" stroke="none" font-family="Arial" font-size="13px" font-style="normal" font-weight="bold" text-decoration="none" x="531.81005859375" y="632.5">nhân viên</text></g></g><g transform="translate(-102,-6) scale(1,1)"><path fill="none" stroke="#000000" d="M 563 506 L 563 600" stroke-miterlimit="10"/></g><g transform="translate(-102,-6) scale(1,1)"><path fill="none" stroke="#000000" d="M 558.790482243984 589.8373251423759 L 563 600 L 567.209517756016 589.8373251423759" stroke-miterlimit="10"/></g><g transform="translate(-102,-6) scale(1,1)"><g><path fill="none" stroke="none"/><text fill="#000000" stroke="none" font-family="Arial" font-size="13px" font-style="normal" font-weight="normal" text-decoration="none" x="566.5" y="552.5">Thành công</text></g></g><g transform="translate(-102,-6) scale(1,1)"><path fill="#C0C0C0" stroke="none" d="M 559 504.5 L 570.5 495 L 581 504.5 L 570.5 513 L 559 504.5" opacity="0.2"/></g><g transform="translate(-102,-6) scale(1,1)"><path fill="#ffffff" stroke="none" d="M 552 497 L 563 488 L 574 497 L 563 506 L 552 497"/></g><g transform="translate(-102,-6) scale(1,1)"><path fill="none" stroke="#000000" d="M 552 497 L 563 488 L 574 497 L 563 506 L 552 497 L 552 497" stroke-miterlimit="10"/></g><g transform="translate(-102,-6) scale(1,1)"><path fill="none" stroke="#000000" d="M 552 497 L 440 497" stroke-miterlimit="10"/></g><g transform="translate(-102,-6) scale(1,1)"><path fill="none" stroke="#000000" d="M 450.16267485762415 492.790482243984 L 440 497 L 450.16267485762415 501.209517756016" stroke-miterlimit="10"/></g><g transform="translate(-102,-6) scale(1,1)"><g><path fill="none" stroke="none"/><text fill="#000000" stroke="none" font-family="Arial" font-size="13px" font-style="normal" font-weight="normal" text-decoration="none" x="449.5" y="487.5">Không thành công</text></g></g><g transform="translate(-102,-6) scale(1,1)"><path fill="#C0C0C0" stroke="none" d="M 337 599 L 421 599 Q 431 599 431 609 L 431 681 Q 431 691 421 691 L 337 691 Q 327 691 327 681 L 327 609 Q 327 599 337 599 Z" opacity="0.2"/></g><g transform="translate(-102,-6) scale(1,1)"><path fill="#ffffff" stroke="none" d="M 330 592 L 414 592 Q 424 592 424 602 L 424 674 Q 424 684 414 684 L 330 684 Q 320 684 320 674 L 320 602 Q 320 592 330 592 Z"/></g><g transform="translate(-102,-6) scale(1,1)"><path fill="none" stroke="#000000" d="M 330 592 L 414 592 Q 424 592 424 602 L 424 674 Q 424 684 414 684 L 330 684 Q 320 684 320 674 L 320 602 Q 320 592 330 592 Z" stroke-miterlimit="10"/></g><g transform="translate(-102,-6) scale(1,1)"><g><path fill="none" stroke="none"/><text fill="#000000" stroke="none" font-family="Arial" font-size="13px" font-style="normal" font-weight="bold" text-decoration="none" x="340.918701171875" y="611.5">Thông báo</text><text fill="#000000" stroke="none" font-family="Arial" font-size="13px" font-style="normal" font-weight="bold" text-decoration="none" x="331.162353515625" y="624.5">thành công và</text><text fill="#000000" stroke="none" font-family="Arial" font-size="13px" font-style="normal" font-weight="bold" text-decoration="none" x="336.945068359375" y="637.5">hiển thị giao</text><text fill="#000000" stroke="none" font-family="Arial" font-size="13px" font-style="normal" font-weight="bold" text-decoration="none" x="336.945068359375" y="650.5">diện quản lý</text><text fill="#000000" stroke="none" font-family="Arial" font-size="13px" font-style="normal" font-weight="bold" text-decoration="none" x="343.81005859375" y="663.5">nhân viên</text></g></g><g transform="translate(-102,-6) scale(1,1)"><rect fill="#C0C0C0" stroke="none" x="519" y="711" width="89.18359375" height="24" opacity="0.2"/></g><g transform="translate(-102,-6) scale(1,1)"><rect fill="#ffffff" stroke="none" x="512" y="704" width="89.18359375" height="24"/></g><g transform="translate(-102,-6) scale(1,1)"><path fill="none" stroke="#000000" d="M 512 704 L 601.18359375 704 L 601.18359375 728 L 512 728 L 512 704 Z Z" stroke-miterlimit="10"/></g><g transform="translate(-102,-6) scale(1,1)"><rect fill="#ffffff" stroke="none" x="512" y="704" width="89.18359375" height="24"/></g><g transform="translate(-102,-6) scale(1,1)"><path fill="none" stroke="#000000" d="M 512 704 L 601.18359375 704 L 601.18359375 728 L 512 728 L 512 704 Z Z" stroke-miterlimit="10"/></g><g transform="translate(-102,-6) scale(1,1)"><g><path fill="none" stroke="none"/><text fill="#000000" stroke="none" font-family="Arial" font-size="13px" font-style="normal" font-weight="bold" text-decoration="none" x="523.003173828125" y="723.5">NHANVIEN</text></g></g><g transform="translate(-102,-6) scale(1,1)"><path fill="none" stroke="#000000" d="M 559 653 L 559 704" stroke-miterlimit="10"/></g><g transform="translate(-102,-6) scale(1,1)"><path fill="none" stroke="#000000" d="M 554.790482243984 693.8373251423759 L 559 704 L 563.209517756016 693.8373251423759" stroke-miterlimit="10"/></g><g transform="translate(-102,-6) scale(1,1)"><path fill="none" stroke="#000000" d="M 384 684 L 384 808" stroke-miterlimit="10"/></g><g transform="translate(-102,-6) scale(1,1)"><path fill="none" stroke="#000000" d="M 379.790482243984 797.8373251423759 L 384 808 L 388.209517756016 797.8373251423759" stroke-miterlimit="10"/></g><g transform="translate(-102,-6) scale(1,1)"><path fill="#C0C0C0" stroke="none" d="M 375 827.5 C 375 820.59644 380.59644 815 387.5 815 C 394.40356 815 400 820.59644 400 827.5 C 400 834.40356 394.40356 840 387.5 840 C 380.59644 840 375 834.40356 375 827.5 Z" opacity="0.2"/></g><g transform="translate(-102,-6) scale(1,1)"><path fill="none" stroke="#000000" d="M 368 820.5 C 368 813.59644 373.59644 808 380.5 808 C 387.40356 808 393 813.59644 393 820.5 C 393 827.40356 387.40356 833 380.5 833 C 373.59644 833 368 827.40356 368 820.5 Z" stroke-miterlimit="10"/></g><g transform="translate(-102,-6) scale(1,1)"><path fill="#000000" stroke="none" d="M 373 820.5 C 373 816.357864 376.357864 813 380.5 813 C 384.642136 813 388 816.357864 388 820.5 C 388 824.642136 384.642136 828 380.5 828 C 376.357864 828 373 824.642136 373 820.5 Z"/></g><g transform="translate(-102,-6) scale(1,1)"><path fill="none" stroke="#000000" d="M 319 257 L 220 313" stroke-miterlimit="10"/></g><g transform="translate(-102,-6) scale(1,1)"><path fill="none" stroke="#000000" d="M 226.77303932257564 304.332477958791 L 220 313 L 230.91812564565913 311.6603984228136" stroke-miterlimit="10"/></g><g transform="translate(-102,-6) scale(1,1)"><path fill="#C0C0C0" stroke="none" d="M 169 319 L 215.79541015625 319 Q 225.79541015625 319 225.79541015625 329 L 225.79541015625 349 Q 225.79541015625 359 215.79541015625 359 L 169 359 Q 159 359 159 349 L 159 329 Q 159 319 169 319 Z" opacity="0.2"/></g><g transform="translate(-102,-6) scale(1,1)"><path fill="#ffffff" stroke="none" d="M 162 312 L 208.79541015625 312 Q 218.79541015625 312 218.79541015625 322 L 218.79541015625 342 Q 218.79541015625 352 208.79541015625 352 L 162 352 Q 152 352 152 342 L 152 322 Q 152 312 162 312 Z"/></g><g transform="translate(-102,-6) scale(1,1)"><path fill="none" stroke="#000000" d="M 162 312 L 208.79541015625 312 Q 218.79541015625 312 218.79541015625 322 L 218.79541015625 342 Q 218.79541015625 352 208.79541015625 352 L 162 352 Q 152 352 152 342 L 152 322 Q 152 312 162 312 Z" stroke-miterlimit="10"/></g><g transform="translate(-102,-6) scale(1,1)"><g><path fill="none" stroke="none"/><text fill="#000000" stroke="none" font-family="Arial" font-size="13px" font-style="normal" font-weight="bold" text-decoration="none" x="157.931396484375" y="331.5">Xác nhận</text></g></g><g transform="translate(-102,-6) scale(1,1)"><path fill="none" stroke="#000000" d="M 186 353 L 187 383" stroke-miterlimit="10"/></g><g transform="translate(-102,-6) scale(1,1)"><path fill="none" stroke="#000000" d="M 182.45425113032024 372.9832057416654 L 187 383 L 190.86861329449724 372.7027270028595" stroke-miterlimit="10"/></g><g transform="translate(-102,-6) scale(1,1)"><path fill="#C0C0C0" stroke="none" d="M 183 400.5 L 194.5 391 L 205 400.5 L 194.5 409 L 183 400.5" opacity="0.2"/></g><g transform="translate(-102,-6) scale(1,1)"><path fill="#ffffff" stroke="none" d="M 176 393 L 187 384 L 198 393 L 187 402 L 176 393"/></g><g transform="translate(-102,-6) scale(1,1)"><path fill="none" stroke="#000000" d="M 176 393 L 187 384 L 198 393 L 187 402 L 176 393 L 176 393" stroke-miterlimit="10"/></g><g transform="translate(-102,-6) scale(1,1)"><path fill="none" stroke="#000000" d="M 199 393 L 319 394" stroke-miterlimit="10"/></g><g transform="translate(-102,-6) scale(1,1)"><path fill="none" stroke="#000000" d="M 308.8025998979879 398.12468558310604 L 319 394 L 308.87275609131814 389.7059423834715" stroke-miterlimit="10"/></g><g transform="translate(-102,-6) scale(1,1)"><g><path fill="none" stroke="none"/><text fill="#000000" stroke="none" font-family="Arial" font-size="13px" font-style="normal" font-weight="normal" text-decoration="none" x="238.5" y="384.5">Đồng ý</text></g></g><g transform="translate(-102,-6) scale(1,1)"><path fill="#C0C0C0" stroke="none" d="M 521 375 L 613 375 Q 623 375 623 385 L 623 418 Q 623 428 613 428 L 521 428 Q 511 428 511 418 L 511 385 Q 511 375 521 375 Z" opacity="0.2"/></g><g transform="translate(-102,-6) scale(1,1)"><path fill="#ffffff" stroke="none" d="M 514 368 L 606 368 Q 616 368 616 378 L 616 411 Q 616 421 606 421 L 514 421 Q 504 421 504 411 L 504 378 Q 504 368 514 368 Z"/></g><g transform="translate(-102,-6) scale(1,1)"><path fill="none" stroke="#000000" d="M 514 368 L 606 368 Q 616 368 616 378 L 616 411 Q 616 421 606 421 L 514 421 Q 504 421 504 411 L 504 378 Q 504 368 514 368 Z" stroke-miterlimit="10"/></g><g transform="translate(-102,-6) scale(1,1)"><g><path fill="none" stroke="none"/><text fill="#000000" stroke="none" font-family="Arial" font-size="13px" font-style="normal" font-weight="bold" text-decoration="none" x="518.432373046875" y="387.5">Thực hiện xóa</text><text fill="#000000" stroke="none" font-family="Arial" font-size="13px" font-style="normal" font-weight="bold" text-decoration="none" x="535.063232421875" y="400.5">thông tin</text></g></g><g transform="translate(-102,-6) scale(1,1)"><path fill="none" stroke="#000000" d="M 525 703 L 425 660" stroke-miterlimit="10"/></g><g transform="translate(-102,-6) scale(1,1)"><path fill="none" stroke="#000000" d="M 435.9990125856135 660.1473843326673 L 425 660 L 432.67325992457376 667.8816928467132" stroke-miterlimit="10"/></g><g transform="translate(-102,-6) scale(1,1)"><path fill="none" stroke="#000000" d="M 496 635 L 424 635" stroke-miterlimit="10"/></g><g transform="translate(-102,-6) scale(1,1)"><path fill="none" stroke="#000000" d="M 434.16267485762415 630.790482243984 L 424 635 L 434.16267485762415 639.209517756016" stroke-miterlimit="10"/></g><g transform="translate(-102,-6) scale(1,1)"><path fill="none" stroke="#000000" d="M 339 539 L 304 576 L 304 776 L 367 812" stroke-miterlimit="10"/></g><g transform="translate(-102,-6) scale(1,1)"><path fill="none" stroke="#000000" d="M 356.08782157876317 810.6127862085847 L 367 812 L 360.2648329196912 803.3030163619607" stroke-miterlimit="10"/></g><g transform="translate(-102,-6) scale(1,1)"><path fill="none" stroke="#000000" d="M 187 402 L 187 824 L 368 824" stroke-miterlimit="10"/></g><g transform="translate(-102,-6) scale(1,1)"><path fill="none" stroke="#000000" d="M 357.83732514237585 828.209517756016 L 368 824 L 357.83732514237585 819.790482243984" stroke-miterlimit="10"/></g><g transform="translate(-102,-6) scale(1,1)"><g><path fill="none" stroke="none"/><text fill="#000000" stroke="none" font-family="Arial" font-size="13px" font-style="normal" font-weight="normal" text-decoration="none" x="201.5" y="445.5">Không đồng ý</text></g></g><g transform="translate(-102,-6) scale(1,1)"><path fill="none" stroke="#000000" d="M 425 394 L 503 394" stroke-miterlimit="10"/></g><g transform="translate(-102,-6) scale(1,1)"><path fill="none" stroke="#000000" d="M 492.83732514237585 398.209517756016 L 503 394 L 492.83732514237585 389.790482243984" stroke-miterlimit="10"/></g><g transform="translate(-102,-6) scale(1,1)"><path fill="none" stroke="#000000" d="M 320 136 L 193 136 L 193 184" stroke-miterlimit="10"/></g><g transform="translate(-102,-6) scale(1,1)"><path fill="none" stroke="#000000" d="M 188.790482243984 173.83732514237585 L 193 184 L 197.209517756016 173.83732514237585" stroke-miterlimit="10"/></g><g transform="translate(-102,-6) scale(1,1)"><path fill="none" stroke="#000000" d="M 377 67 L 377 104" stroke-miterlimit="10"/></g><g transform="translate(-102,-6) scale(1,1)"><path fill="none" stroke="#000000" d="M 372.790482243984 93.83732514237585 L 377 104 L 381.209517756016 93.83732514237585" stroke-miterlimit="10"/></g><g transform="translate(-102,-6) scale(1,1)"><path fill="#C0C0C0" stroke="none" d="M 337 111 L 429 111 Q 439 111 439 121 L 439 154 Q 439 164 429 164 L 337 164 Q 327 164 327 154 L 327 121 Q 327 111 337 111 Z" opacity="0.2"/></g><g transform="translate(-102,-6) scale(1,1)"><path fill="#ffffff" stroke="none" d="M 330 104 L 422 104 Q 432 104 432 114 L 432 147 Q 432 157 422 157 L 330 157 Q 320 157 320 147 L 320 114 Q 320 104 330 104 Z"/></g><g transform="translate(-102,-6) scale(1,1)"><path fill="none" stroke="#000000" d="M 330 104 L 422 104 Q 432 104 432 114 L 432 147 Q 432 157 422 157 L 330 157 Q 320 157 320 147 L 320 114 Q 320 104 330 104 Z" stroke-miterlimit="10"/></g><g transform="translate(-102,-6) scale(1,1)"><g><path fill="none" stroke="none"/><text fill="#000000" stroke="none" font-family="Arial" font-size="13px" font-style="normal" font-weight="bold" text-decoration="none" x="339.878662109375" y="123.5">Usecase tìm</text><text fill="#000000" stroke="none" font-family="Arial" font-size="13px" font-style="normal" font-weight="bold" text-decoration="none" x="332.280517578125" y="136.5">kiếm nhân viên</text></g></g><g transform="translate(-102,-6) scale(1,1)"><path fill="#C0C0C0" stroke="none" d="M 375 64.5 C 375 59.2532944 379.2532944 55 384.5 55 C 389.7467056 55 394 59.2532944 394 64.5 C 394 69.7467056 389.7467056 74 384.5 74 C 379.2532944 74 375 69.7467056 375 64.5 Z" opacity="0.2"/></g><g transform="translate(-102,-6) scale(1,1)"><path fill="#000000" stroke="none" d="M 368 57.5 C 368 52.2532944 372.2532944 48 377.5 48 C 382.7467056 48 387 52.2532944 387 57.5 C 387 62.7467056 382.7467056 67 377.5 67 C 372.2532944 67 368 62.7467056 368 57.5 Z"/></g></g></svg>