<svg version="1.1" xmlns="http://www.w3.org/2000/svg" xmlns:xlink="http://www.w3.org/1999/xlink" width="556" height="548"><defs/><g><g transform="translate(-102,-86) scale(1,1)"><rect fill="#ffffff" stroke="none" x="112" y="96" width="175" height="21"/></g><g transform="translate(-102,-86) scale(1,1)"><path fill="none" stroke="#000000" d="M 112 96 L 287 96 L 287 117 L 112 117 L 112 96 Z Z" stroke-miterlimit="10" stroke-width="2"/></g><g transform="translate(-102,-86) scale(1,1)"><path fill="none" stroke="#000000" d="M 112 624 L 112 96 L 287 96 L 287 624" stroke-miterlimit="10" stroke-width="2"/></g><g transform="translate(-102,-86) scale(1,1)"><g><path fill="none" stroke="none"/><text fill="#000000" stroke="none" font-family="Arial" font-size="13px" font-style="normal" font-weight="normal" text-decoration="none" x="170.23095703125" y="113">Nhân viên</text></g></g><g transform="translate(-102,-86) scale(1,1)"><rect fill="#ffffff" stroke="none" x="288" y="96" width="184" height="21"/></g><g transform="translate(-102,-86) scale(1,1)"><path fill="none" stroke="#000000" d="M 288 96 L 472 96 L 472 117 L 288 117 L 288 96 Z Z" stroke-miterlimit="10" stroke-width="2"/></g><g transform="translate(-102,-86) scale(1,1)"><path fill="none" stroke="#000000" d="M 288 624 L 288 96 L 472 96 L 472 624" stroke-miterlimit="10" stroke-width="2"/></g><g transform="translate(-102,-86) scale(1,1)"><g><path fill="none" stroke="none"/><text fill="#000000" stroke="none" font-family="Arial" font-size="13px" font-style="normal" font-weight="normal" text-decoration="none" x="353.619140625" y="113">Hệ thống</text></g></g><g transform="translate(-102,-86) scale(1,1)"><rect fill="#ffffff" stroke="none" x="472" y="96" width="176" height="21"/></g><g transform="translate(-102,-86) scale(1,1)"><path fill="none" stroke="#000000" d="M 472 96 L 648 96 L 648 117 L 472 117 L 472 96 Z Z" stroke-miterlimit="10" stroke-width="2"/></g><g transform="translate(-102,-86) scale(1,1)"><path fill="none" stroke="#000000" d="M 472 624 L 472 96 L 648 96 L 648 624" stroke-miterlimit="10" stroke-width="2"/></g><g transform="translate(-102,-86) scale(1,1)"><g><path fill="none" stroke="none"/><text fill="#000000" stroke="none" font-family="Arial" font-size="13px" font-style="normal" font-weight="normal" text-decoration="none" x="542.661376953125" y="113">CSDL</text></g></g><g transform="translate(-102,-86) scale(1,1)"><path fill="#C0C0C0" stroke="none" d="M 337 183 L 437 183 Q 447 183 447 193 L 447 239 Q 447 249 437 249 L 337 249 Q 327 249 327 239 L 327 193 Q 327 183 337 183 Z" opacity="0.2"/></g><g transform="translate(-102,-86) scale(1,1)"><path fill="#ffffff" stroke="none" d="M 330 176 L 430 176 Q 440 176 440 186 L 440 232 Q 440 242 430 242 L 330 242 Q 320 242 320 232 L 320 186 Q 320 176 330 176 Z"/></g><g transform="translate(-102,-86) scale(1,1)"><path fill="none" stroke="#000000" d="M 330 176 L 430 176 Q 440 176 440 186 L 440 232 Q 440 242 430 242 L 330 242 Q 320 242 320 232 L 320 186 Q 320 176 330 176 Z" stroke-miterlimit="10"/></g><g transform="translate(-102,-86) scale(1,1)"><g><path fill="none" stroke="none"/><text fill="#000000" stroke="none" font-family="Arial" font-size="13px" font-style="normal" font-weight="bold" text-decoration="none" x="329.77099609375" y="195.5">Hiển thị giao diện</text><text fill="#000000" stroke="none" font-family="Arial" font-size="13px" font-style="normal" font-weight="bold" text-decoration="none" x="329.044189453125" y="208.5">quản lý nhân viên</text></g></g><g transform="translate(-102,-86) scale(1,1)"><path fill="none" stroke="#000000" d="M 377 147 L 377 176" stroke-miterlimit="10"/></g><g transform="translate(-102,-86) scale(1,1)"><path fill="none" stroke="#000000" d="M 372.790482243984 165.83732514237585 L 377 176 L 381.209517756016 165.83732514237585" stroke-miterlimit="10"/></g><g transform="translate(-102,-86) scale(1,1)"><path fill="#C0C0C0" stroke="none" d="M 375 144.5 C 375 139.2532944 379.2532944 135 384.5 135 C 389.7467056 135 394 139.2532944 394 144.5 C 394 149.7467056 389.7467056 154 384.5 154 C 379.2532944 154 375 149.7467056 375 144.5 Z" opacity="0.2"/></g><g transform="translate(-102,-86) scale(1,1)"><path fill="#000000" stroke="none" d="M 368 137.5 C 368 132.2532944 372.2532944 128 377.5 128 C 382.7467056 128 387 132.2532944 387 137.5 C 387 142.7467056 382.7467056 147 377.5 147 C 372.2532944 147 368 142.7467056 368 137.5 Z"/></g><g transform="translate(-102,-86) scale(1,1)"><path fill="none" stroke="#000000" d="M 511 176 L 441 193" stroke-miterlimit="10"/></g><g transform="translate(-102,-86) scale(1,1)"><path fill="none" stroke="#000000" d="M 449.8821819918647 186.51102141601663 L 441 193 L 451.8690518778895 194.69225035847163" stroke-miterlimit="10"/></g><g transform="translate(-102,-86) scale(1,1)"><rect fill="#C0C0C0" stroke="none" x="519" y="159" width="89.18359375" height="24" opacity="0.2"/></g><g transform="translate(-102,-86) scale(1,1)"><rect fill="#ffffff" stroke="none" x="512" y="152" width="89.18359375" height="24"/></g><g transform="translate(-102,-86) scale(1,1)"><path fill="none" stroke="#000000" d="M 512 152 L 601.18359375 152 L 601.18359375 176 L 512 176 L 512 152 Z Z" stroke-miterlimit="10"/></g><g transform="translate(-102,-86) scale(1,1)"><rect fill="#ffffff" stroke="none" x="512" y="152" width="89.18359375" height="24"/></g><g transform="translate(-102,-86) scale(1,1)"><path fill="none" stroke="#000000" d="M 512 152 L 601.18359375 152 L 601.18359375 176 L 512 176 L 512 152 Z Z" stroke-miterlimit="10"/></g><g transform="translate(-102,-86) scale(1,1)"><g><path fill="none" stroke="none"/><text fill="#000000" stroke="none" font-family="Arial" font-size="13px" font-style="normal" font-weight="bold" text-decoration="none" x="523.003173828125" y="171.5">NHANVIEN</text></g></g><g transform="translate(-102,-86) scale(1,1)"><path fill="none" stroke="#000000" d="M 320 210 L 256 210" stroke-miterlimit="10"/></g><g transform="translate(-102,-86) scale(1,1)"><path fill="none" stroke="#000000" d="M 266.16267485762415 205.790482243984 L 256 210 L 266.16267485762415 214.209517756016" stroke-miterlimit="10"/></g><g transform="translate(-102,-86) scale(1,1)"><path fill="#C0C0C0" stroke="none" d="M 153 191 L 253 191 Q 263 191 263 201 L 263 234 Q 263 244 253 244 L 153 244 Q 143 244 143 234 L 143 201 Q 143 191 153 191 Z" opacity="0.2"/></g><g transform="translate(-102,-86) scale(1,1)"><path fill="#ffffff" stroke="none" d="M 146 184 L 246 184 Q 256 184 256 194 L 256 227 Q 256 237 246 237 L 146 237 Q 136 237 136 227 L 136 194 Q 136 184 146 184 Z"/></g><g transform="translate(-102,-86) scale(1,1)"><path fill="none" stroke="#000000" d="M 146 184 L 246 184 Q 256 184 256 194 L 256 227 Q 256 237 246 237 L 146 237 Q 136 237 136 227 L 136 194 Q 136 184 146 184 Z" stroke-miterlimit="10"/></g><g transform="translate(-102,-86) scale(1,1)"><g><path fill="none" stroke="none"/><text fill="#000000" stroke="none" font-family="Arial" font-size="13px" font-style="normal" font-weight="bold" text-decoration="none" x="147.9228515625" y="203.5">Chọn chức năng</text><text fill="#000000" stroke="none" font-family="Arial" font-size="13px" font-style="normal" font-weight="bold" text-decoration="none" x="145.396484375" y="216.5">tra cứu nhân viên</text></g></g><g transform="translate(-102,-86) scale(1,1)"><path fill="#C0C0C0" stroke="none" d="M 145 295 L 261 295 Q 271 295 271 305 L 271 351 Q 271 361 261 361 L 145 361 Q 135 361 135 351 L 135 305 Q 135 295 145 295 Z" opacity="0.2"/></g><g transform="translate(-102,-86) scale(1,1)"><path fill="#ffffff" stroke="none" d="M 138 288 L 254 288 Q 264 288 264 298 L 264 344 Q 264 354 254 354 L 138 354 Q 128 354 128 344 L 128 298 Q 128 288 138 288 Z"/></g><g transform="translate(-102,-86) scale(1,1)"><path fill="none" stroke="#000000" d="M 138 288 L 254 288 Q 264 288 264 298 L 264 344 Q 264 354 254 354 L 138 354 Q 128 354 128 344 L 128 298 Q 128 288 138 288 Z" stroke-miterlimit="10"/></g><g transform="translate(-102,-86) scale(1,1)"><g><path fill="none" stroke="none"/><text fill="#000000" stroke="none" font-family="Arial" font-size="13px" font-style="normal" font-weight="bold" text-decoration="none" x="153.71826171875" y="307.5">Nhập thông tin</text><text fill="#000000" stroke="none" font-family="Arial" font-size="13px" font-style="normal" font-weight="bold" text-decoration="none" x="146.1328125" y="320.5">nhân viên cần tra</text><text fill="#000000" stroke="none" font-family="Arial" font-size="13px" font-style="normal" font-weight="bold" text-decoration="none" x="184.78369140625" y="333.5">cứu</text></g></g><g transform="translate(-102,-86) scale(1,1)"><path fill="none" stroke="#000000" d="M 544 401 L 448 401" stroke-miterlimit="10"/></g><g transform="translate(-102,-86) scale(1,1)"><path fill="none" stroke="#000000" d="M 458.16267485762415 396.790482243984 L 448 401 L 458.16267485762415 405.209517756016" stroke-miterlimit="10"/></g><g transform="translate(-102,-86) scale(1,1)"><g><path fill="none" stroke="none"/><text fill="#000000" stroke="none" font-family="Arial" font-size="13px" font-style="normal" font-weight="normal" text-decoration="none" x="468.5" y="387.5">Không tồn tại</text></g></g><g transform="translate(-102,-86) scale(1,1)"><path fill="#C0C0C0" stroke="none" d="M 551 400.5 L 562.5 391 L 573 400.5 L 562.5 409 L 551 400.5" opacity="0.2"/></g><g transform="translate(-102,-86) scale(1,1)"><path fill="#ffffff" stroke="none" d="M 544 393 L 555 384 L 566 393 L 555 402 L 544 393"/></g><g transform="translate(-102,-86) scale(1,1)"><path fill="none" stroke="#000000" d="M 544 393 L 555 384 L 566 393 L 555 402 L 544 393 L 544 393" stroke-miterlimit="10"/></g><g transform="translate(-102,-86) scale(1,1)"><path fill="none" stroke="#000000" d="M 264 305 L 328 305" stroke-miterlimit="10"/></g><g transform="translate(-102,-86) scale(1,1)"><path fill="none" stroke="#000000" d="M 317.83732514237585 309.209517756016 L 328 305 L 317.83732514237585 300.790482243984" stroke-miterlimit="10"/></g><g transform="translate(-102,-86) scale(1,1)"><path fill="#C0C0C0" stroke="none" d="M 345 295 L 421 295 Q 431 295 431 305 L 431 351 Q 431 361 421 361 L 345 361 Q 335 361 335 351 L 335 305 Q 335 295 345 295 Z" opacity="0.2"/></g><g transform="translate(-102,-86) scale(1,1)"><path fill="#ffffff" stroke="none" d="M 338 288 L 414 288 Q 424 288 424 298 L 424 344 Q 424 354 414 354 L 338 354 Q 328 354 328 344 L 328 298 Q 328 288 338 288 Z"/></g><g transform="translate(-102,-86) scale(1,1)"><path fill="none" stroke="#000000" d="M 338 288 L 414 288 Q 424 288 424 298 L 424 344 Q 424 354 414 354 L 338 354 Q 328 354 328 344 L 328 298 Q 328 288 338 288 Z" stroke-miterlimit="10"/></g><g transform="translate(-102,-86) scale(1,1)"><g><path fill="none" stroke="none"/><text fill="#000000" stroke="none" font-family="Arial" font-size="13px" font-style="normal" font-weight="bold" text-decoration="none" x="342.75732421875" y="307.5">Yêu cầu tra</text><text fill="#000000" stroke="none" font-family="Arial" font-size="13px" font-style="normal" font-weight="bold" text-decoration="none" x="338.041015625" y="320.5">cứu thông tin</text></g></g><g transform="translate(-102,-86) scale(1,1)"><path fill="#C0C0C0" stroke="none" d="M 513 303 L 605 303 Q 615 303 615 313 L 615 346 Q 615 356 605 356 L 513 356 Q 503 356 503 346 L 503 313 Q 503 303 513 303 Z" opacity="0.2"/></g><g transform="translate(-102,-86) scale(1,1)"><path fill="#ffffff" stroke="none" d="M 506 296 L 598 296 Q 608 296 608 306 L 608 339 Q 608 349 598 349 L 506 349 Q 496 349 496 339 L 496 306 Q 496 296 506 296 Z"/></g><g transform="translate(-102,-86) scale(1,1)"><path fill="none" stroke="#000000" d="M 506 296 L 598 296 Q 608 296 608 306 L 608 339 Q 608 349 598 349 L 506 349 Q 496 349 496 339 L 496 306 Q 496 296 506 296 Z" stroke-miterlimit="10"/></g><g transform="translate(-102,-86) scale(1,1)"><g><path fill="none" stroke="none"/><text fill="#000000" stroke="none" font-family="Arial" font-size="13px" font-style="normal" font-weight="bold" text-decoration="none" x="508.883544921875" y="315.5">Truy vấn thông</text><text fill="#000000" stroke="none" font-family="Arial" font-size="13px" font-style="normal" font-weight="bold" text-decoration="none" x="518.773193359375" y="328.5">tin tìm kiếm</text></g></g><g transform="translate(-102,-86) scale(1,1)"><path fill="none" stroke="#000000" d="M 425 321 L 495 322" stroke-miterlimit="10"/></g><g transform="translate(-102,-86) scale(1,1)"><path fill="none" stroke="#000000" d="M 484.7782321587568 326.06392202185606 L 495 322 L 484.8984918238746 317.6457454636101" stroke-miterlimit="10"/></g><g transform="translate(-102,-86) scale(1,1)"><path fill="#C0C0C0" stroke="none" d="M 337 375 L 445 375 Q 455 375 455 385 L 455 431 Q 455 441 445 441 L 337 441 Q 327 441 327 431 L 327 385 Q 327 375 337 375 Z" opacity="0.2"/></g><g transform="translate(-102,-86) scale(1,1)"><path fill="#ffffff" stroke="none" d="M 330 368 L 438 368 Q 448 368 448 378 L 448 424 Q 448 434 438 434 L 330 434 Q 320 434 320 424 L 320 378 Q 320 368 330 368 Z"/></g><g transform="translate(-102,-86) scale(1,1)"><path fill="none" stroke="#000000" d="M 330 368 L 438 368 Q 448 368 448 378 L 448 424 Q 448 434 438 434 L 330 434 Q 320 434 320 424 L 320 378 Q 320 368 330 368 Z" stroke-miterlimit="10"/></g><g transform="translate(-102,-86) scale(1,1)"><g><path fill="none" stroke="none"/><text fill="#000000" stroke="none" font-family="Arial" font-size="13px" font-style="normal" font-weight="bold" text-decoration="none" x="333.40283203125" y="387.5">Thông báo không</text><text fill="#000000" stroke="none" font-family="Arial" font-size="13px" font-style="normal" font-weight="bold" text-decoration="none" x="344.596923828125" y="400.5">tồn tại dữ liệu</text></g></g><g transform="translate(-102,-86) scale(1,1)"><path fill="none" stroke="#000000" d="M 335 435 L 304 456 L 304 568 L 375 592" stroke-miterlimit="10"/></g><g transform="translate(-102,-86) scale(1,1)"><path fill="none" stroke="#000000" d="M 364.02448119579896 592.7334759564081 L 375 592 L 366.7204904038955 584.7577820491224" stroke-miterlimit="10"/></g><g transform="translate(-102,-86) scale(1,1)"><path fill="none" stroke="#000000" d="M 196 238 L 196 287" stroke-miterlimit="10"/></g><g transform="translate(-102,-86) scale(1,1)"><path fill="none" stroke="#000000" d="M 191.790482243984 276.83732514237585 L 196 287 L 200.209517756016 276.83732514237585" stroke-miterlimit="10"/></g><g transform="translate(-102,-86) scale(1,1)"><path fill="#C0C0C0" stroke="none" d="M 353 479 L 445 479 Q 455 479 455 489 L 455 522 Q 455 532 445 532 L 353 532 Q 343 532 343 522 L 343 489 Q 343 479 353 479 Z" opacity="0.2"/></g><g transform="translate(-102,-86) scale(1,1)"><path fill="#ffffff" stroke="none" d="M 346 472 L 438 472 Q 448 472 448 482 L 448 515 Q 448 525 438 525 L 346 525 Q 336 525 336 515 L 336 482 Q 336 472 346 472 Z"/></g><g transform="translate(-102,-86) scale(1,1)"><path fill="none" stroke="#000000" d="M 346 472 L 438 472 Q 448 472 448 482 L 448 515 Q 448 525 438 525 L 346 525 Q 336 525 336 515 L 336 482 Q 336 472 346 472 Z" stroke-miterlimit="10"/></g><g transform="translate(-102,-86) scale(1,1)"><g><path fill="none" stroke="none"/><text fill="#000000" stroke="none" font-family="Arial" font-size="13px" font-style="normal" font-weight="bold" text-decoration="none" x="346.833251953125" y="491.5">Hiển thị kết quả</text><text fill="#000000" stroke="none" font-family="Arial" font-size="13px" font-style="normal" font-weight="bold" text-decoration="none" x="367.444091796875" y="504.5">tìm kiếm</text></g></g><g transform="translate(-102,-86) scale(1,1)"><path fill="none" stroke="#000000" d="M 555 403 L 552 496 L 449 497" stroke-miterlimit="10"/></g><g transform="translate(-102,-86) scale(1,1)"><path fill="none" stroke="#000000" d="M 459.1213287482835 492.69201852729486 L 449 497 L 459.2030631051054 501.1106572799538" stroke-miterlimit="10"/></g><g transform="translate(-102,-86) scale(1,1)"><g><path fill="none" stroke="none"/><text fill="#000000" stroke="none" font-family="Arial" font-size="13px" font-style="normal" font-weight="normal" text-decoration="none" x="479.5" y="483.5">Tồn tại</text></g></g><g transform="translate(-102,-86) scale(1,1)"><path fill="none" stroke="#000000" d="M 553 350 L 555 383" stroke-miterlimit="10"/></g><g transform="translate(-102,-86) scale(1,1)"><path fill="none" stroke="#000000" d="M 550.1834003605785 373.1105931465267 L 555 383 L 558.5870163807081 372.6012830847007" stroke-miterlimit="10"/></g><g transform="translate(-102,-86) scale(1,1)"><path fill="#C0C0C0" stroke="none" d="M 383 603.5 C 383 596.59644 388.59644 591 395.5 591 C 402.40356 591 408 596.59644 408 603.5 C 408 610.40356 402.40356 616 395.5 616 C 388.59644 616 383 610.40356 383 603.5 Z" opacity="0.2"/></g><g transform="translate(-102,-86) scale(1,1)"><path fill="none" stroke="#000000" d="M 376 596.5 C 376 589.59644 381.59644 584 388.5 584 C 395.40356 584 401 589.59644 401 596.5 C 401 603.40356 395.40356 609 388.5 609 C 381.59644 609 376 603.40356 376 596.5 Z" stroke-miterlimit="10"/></g><g transform="translate(-102,-86) scale(1,1)"><path fill="#000000" stroke="none" d="M 381 596.5 C 381 592.357864 384.357864 589 388.5 589 C 392.642136 589 396 592.357864 396 596.5 C 396 600.642136 392.642136 604 388.5 604 C 384.357864 604 381 600.642136 381 596.5 Z"/></g><g transform="translate(-102,-86) scale(1,1)"><path fill="none" stroke="#000000" d="M 391 526 L 389 583" stroke-miterlimit="10"/></g><g transform="translate(-102,-86) scale(1,1)"><path fill="none" stroke="#000000" d="M 385.14943690422166 572.6959637109805 L 389 583 L 393.5632946571464 572.9911867900305" stroke-miterlimit="10"/></g></g></svg>