<svg version="1.1" xmlns="http://www.w3.org/2000/svg" xmlns:xlink="http://www.w3.org/1999/xlink" width="878.7236328125" height="724"><defs/><g><g transform="translate(-6,-38) scale(1,1)"><path fill="#ffffff" stroke="none" d="M 40.532568359375 427.5 C 40.532568359375 418.88435712 47.516925479375004 411.9 56.132568359375 411.9 C 64.748211239375 411.9 71.732568359375 418.88435712 71.732568359375 427.5 C 71.732568359375 436.11564288 64.748211239375 443.1 56.132568359375 443.1 C 47.516925479375004 443.1 40.532568359375 436.11564288 40.532568359375 427.5 Z"/></g><g transform="translate(-6,-38) scale(1,1)"><path fill="none" stroke="#000000" d="M 40.532568359375 427.5 C 40.532568359375 418.88435712 47.516925479375004 411.9 56.132568359375 411.9 C 64.748211239375 411.9 71.732568359375 418.88435712 71.732568359375 427.5 C 71.732568359375 436.11564288 64.748211239375 443.1 56.132568359375 443.1 C 47.516925479375004 443.1 40.532568359375 436.11564288 40.532568359375 427.5 Z" stroke-miterlimit="10"/></g><g transform="translate(-6,-38) scale(1,1)"><path fill="none" stroke="#000000" d="M 40.532568359375 443.1 L 71.732568359375 443.1" stroke-miterlimit="10"/></g><g transform="translate(-6,-38) scale(1,1)"><g><path fill="none" stroke="none"/><text fill="#000000" stroke="none" font-family="Arial" font-size="13px" font-style="normal" font-weight="bold" text-decoration="none" x="23.38818359375" y="466.5">TAIKHOAN</text></g></g><g transform="translate(-6,-38) scale(1,1)"><path fill="#ffffff" stroke="none" d="M 656.955908203125 75.5 C 656.955908203125 66.88435712 663.940265323125 59.9 672.555908203125 59.9 C 681.171551083125 59.9 688.155908203125 66.88435712 688.155908203125 75.5 C 688.155908203125 84.11564288 681.171551083125 91.1 672.555908203125 91.1 C 663.940265323125 91.1 656.955908203125 84.11564288 656.955908203125 75.5 Z"/></g><g transform="translate(-6,-38) scale(1,1)"><path fill="none" stroke="#000000" d="M 656.955908203125 75.5 C 656.955908203125 66.88435712 663.940265323125 59.9 672.555908203125 59.9 C 681.171551083125 59.9 688.155908203125 66.88435712 688.155908203125 75.5 C 688.155908203125 84.11564288 681.171551083125 91.1 672.555908203125 91.1 C 663.940265323125 91.1 656.955908203125 84.11564288 656.955908203125 75.5 Z" stroke-miterlimit="10"/></g><g transform="translate(-6,-38) scale(1,1)"><path fill="none" stroke="#000000" d="M 656.955908203125 91.1 L 688.155908203125 91.1" stroke-miterlimit="10"/></g><g transform="translate(-6,-38) scale(1,1)"><g><path fill="none" stroke="none"/><text fill="#000000" stroke="none" font-family="Arial" font-size="13px" font-style="normal" font-weight="bold" text-decoration="none" x="631.023193359375" y="114.5">KHACHHANG</text></g></g><g transform="translate(-6,-38) scale(1,1)"><path fill="#ffffff" stroke="none" d="M 232.291357421875 427.5 C 232.291357421875 418.88435712 239.275714541875 411.9 247.891357421875 411.9 C 256.507000301875 411.9 263.491357421875 418.88435712 263.491357421875 427.5 C 263.491357421875 436.11564288 256.507000301875 443.1 247.891357421875 443.1 C 239.275714541875 443.1 232.291357421875 436.11564288 232.291357421875 427.5 Z"/></g><g transform="translate(-6,-38) scale(1,1)"><path fill="none" stroke="#000000" d="M 232.291357421875 427.5 C 232.291357421875 418.88435712 239.275714541875 411.9 247.891357421875 411.9 C 256.507000301875 411.9 263.491357421875 418.88435712 263.491357421875 427.5 C 263.491357421875 436.11564288 256.507000301875 443.1 247.891357421875 443.1 C 239.275714541875 443.1 232.291357421875 436.11564288 232.291357421875 427.5 Z" stroke-miterlimit="10"/></g><g transform="translate(-6,-38) scale(1,1)"><path fill="none" stroke="#000000" d="M 232.291357421875 443.1 L 263.491357421875 443.1" stroke-miterlimit="10"/></g><g transform="translate(-6,-38) scale(1,1)"><g><path fill="none" stroke="none"/><text fill="#000000" stroke="none" font-family="Arial" font-size="13px" font-style="normal" font-weight="bold" text-decoration="none" x="214.302734375" y="466.5">NHANVIEN</text></g></g><g transform="translate(-6,-38) scale(1,1)"><path fill="#ffffff" stroke="none" d="M 821.76181640625 427.5 C 821.76181640625 418.88435712 828.74617352625 411.9 837.36181640625 411.9 C 845.97745928625 411.9 852.96181640625 418.88435712 852.96181640625 427.5 C 852.96181640625 436.11564288 845.97745928625 443.1 837.36181640625 443.1 C 828.74617352625 443.1 821.76181640625 436.11564288 821.76181640625 427.5 Z"/></g><g transform="translate(-6,-38) scale(1,1)"><path fill="none" stroke="#000000" d="M 821.76181640625 427.5 C 821.76181640625 418.88435712 828.74617352625 411.9 837.36181640625 411.9 C 845.97745928625 411.9 852.96181640625 418.88435712 852.96181640625 427.5 C 852.96181640625 436.11564288 845.97745928625 443.1 837.36181640625 443.1 C 828.74617352625 443.1 821.76181640625 436.11564288 821.76181640625 427.5 Z" stroke-miterlimit="10"/></g><g transform="translate(-6,-38) scale(1,1)"><path fill="none" stroke="#000000" d="M 821.76181640625 443.1 L 852.96181640625 443.1" stroke-miterlimit="10"/></g><g transform="translate(-6,-38) scale(1,1)"><g><path fill="none" stroke="none"/><text fill="#000000" stroke="none" font-family="Arial" font-size="13px" font-style="normal" font-weight="bold" text-decoration="none" x="805.21728515625" y="466.5">SANPHAM</text></g></g><g transform="translate(-6,-38) scale(1,1)"><path fill="#ffffff" stroke="none" d="M 522.15 195.5 C 522.15 186.88435712 529.13435712 179.9 537.75 179.9 C 546.36564288 179.9 553.35 186.88435712 553.35 195.5 C 553.35 204.11564288 546.36564288 211.1 537.75 211.1 C 529.13435712 211.1 522.15 204.11564288 522.15 195.5 Z"/></g><g transform="translate(-6,-38) scale(1,1)"><path fill="none" stroke="#000000" d="M 522.15 195.5 C 522.15 186.88435712 529.13435712 179.9 537.75 179.9 C 546.36564288 179.9 553.35 186.88435712 553.35 195.5 C 553.35 204.11564288 546.36564288 211.1 537.75 211.1 C 529.13435712 211.1 522.15 204.11564288 522.15 195.5 Z" stroke-miterlimit="10"/></g><g transform="translate(-6,-38) scale(1,1)"><path fill="none" stroke="#000000" d="M 522.15 211.1 L 553.35 211.1" stroke-miterlimit="10"/></g><g transform="translate(-6,-38) scale(1,1)"><g><path fill="none" stroke="none"/><text fill="#000000" stroke="none" font-family="Arial" font-size="13px" font-style="normal" font-weight="bold" text-decoration="none" x="509.220458984375" y="234.5">HOADON</text></g></g><g transform="translate(-6,-38) scale(1,1)"><path fill="#ffffff" stroke="none" d="M 514.5708984375 355.5 C 514.5708984375 346.88435712 521.5552555575 339.9 530.1708984375 339.9 C 538.7865413175 339.9 545.7708984375 346.88435712 545.7708984375 355.5 C 545.7708984375 364.11564288 538.7865413175 371.1 530.1708984375 371.1 C 521.5552555575 371.1 514.5708984375 364.11564288 514.5708984375 355.5 Z"/></g><g transform="translate(-6,-38) scale(1,1)"><path fill="none" stroke="#000000" d="M 514.5708984375 355.5 C 514.5708984375 346.88435712 521.5552555575 339.9 530.1708984375 339.9 C 538.7865413175 339.9 545.7708984375 346.88435712 545.7708984375 355.5 C 545.7708984375 364.11564288 538.7865413175 371.1 530.1708984375 371.1 C 521.5552555575 371.1 514.5708984375 364.11564288 514.5708984375 355.5 Z" stroke-miterlimit="10"/></g><g transform="translate(-6,-38) scale(1,1)"><path fill="none" stroke="#000000" d="M 514.5708984375 371.1 L 545.7708984375 371.1" stroke-miterlimit="10"/></g><g transform="translate(-6,-38) scale(1,1)"><g><path fill="none" stroke="none"/><text fill="#000000" stroke="none" font-family="Arial" font-size="13px" font-style="normal" font-weight="bold" text-decoration="none" x="516.08544921875" y="394.5">KHO</text></g></g><g transform="translate(-6,-38) scale(1,1)"><path fill="#ffffff" stroke="none" d="M 518.482275390625 707.5 C 518.482275390625 698.88435712 525.466632510625 691.9 534.082275390625 691.9 C 542.697918270625 691.9 549.682275390625 698.88435712 549.682275390625 707.5 C 549.682275390625 716.11564288 542.697918270625 723.1 534.082275390625 723.1 C 525.466632510625 723.1 518.482275390625 716.11564288 518.482275390625 707.5 Z"/></g><g transform="translate(-6,-38) scale(1,1)"><path fill="none" stroke="#000000" d="M 518.482275390625 707.5 C 518.482275390625 698.88435712 525.466632510625 691.9 534.082275390625 691.9 C 542.697918270625 691.9 549.682275390625 698.88435712 549.682275390625 707.5 C 549.682275390625 716.11564288 542.697918270625 723.1 534.082275390625 723.1 C 525.466632510625 723.1 518.482275390625 716.11564288 518.482275390625 707.5 Z" stroke-miterlimit="10"/></g><g transform="translate(-6,-38) scale(1,1)"><path fill="none" stroke="#000000" d="M 518.482275390625 723.1 L 549.682275390625 723.1" stroke-miterlimit="10"/></g><g transform="translate(-6,-38) scale(1,1)"><g><path fill="none" stroke="none"/><text fill="#000000" stroke="none" font-family="Arial" font-size="13px" font-style="normal" font-weight="bold" text-decoration="none" x="501.5791015625" y="746.5">CUAHANG</text></g></g><g transform="translate(-6,-38) scale(1,1)"><path fill="#ffffff" stroke="none" d="M 398.78818359375 67.5 C 398.78818359375 58.884357120000004 405.77254071375 51.9 414.38818359375 51.9 C 423.00382647375 51.9 429.98818359375 58.884357120000004 429.98818359375 67.5 C 429.98818359375 76.11564288 423.00382647375 83.1 414.38818359375 83.1 C 405.77254071375 83.1 398.78818359375 76.11564288 398.78818359375 67.5 Z"/></g><g transform="translate(-6,-38) scale(1,1)"><path fill="none" stroke="#000000" d="M 398.78818359375 67.5 C 398.78818359375 58.884357120000004 405.77254071375 51.9 414.38818359375 51.9 C 423.00382647375 51.9 429.98818359375 58.884357120000004 429.98818359375 67.5 C 429.98818359375 76.11564288 423.00382647375 83.1 414.38818359375 83.1 C 405.77254071375 83.1 398.78818359375 76.11564288 398.78818359375 67.5 Z" stroke-miterlimit="10"/></g><g transform="translate(-6,-38) scale(1,1)"><path fill="none" stroke="#000000" d="M 398.78818359375 83.1 L 429.98818359375 83.1" stroke-miterlimit="10"/></g><g transform="translate(-6,-38) scale(1,1)"><g><path fill="none" stroke="none"/><text fill="#000000" stroke="none" font-family="Arial" font-size="13px" font-style="normal" font-weight="bold" text-decoration="none" x="375.74365234375" y="106.5">KHUYENMAI</text></g></g><g transform="translate(-6,-38) scale(1,1)"><path fill="none" stroke="#000000" d="M 97 440 L 207 440" stroke-miterlimit="10"/></g><g transform="translate(-6,-38) scale(1,1)"><path fill="#000000" stroke="none" d="M 196.83732514237585 444.209517756016 L 207 440 L 196.83732514237585 435.790482243984 L 185 440"/></g><g transform="translate(-6,-38) scale(1,1)"><path fill="none" stroke="#000000" d="M 196.83732514237585 444.209517756016 L 207 440 L 196.83732514237585 435.790482243984 L 185 440 L 196.83732514237585 444.209517756016" stroke-miterlimit="10"/></g><g transform="translate(-6,-38) scale(1,1)"><g><path fill="none" stroke="none"/><text fill="#000000" stroke="none" font-family="Arial" font-size="13px" font-style="normal" font-weight="normal" text-decoration="none" x="114.5" y="458.5">1</text></g></g><g transform="translate(-6,-38) scale(1,1)"><g><path fill="none" stroke="none"/><text fill="#000000" stroke="none" font-family="Arial" font-size="13px" font-style="normal" font-weight="normal" text-decoration="none" x="181.5" y="458.5">1</text></g></g><g transform="translate(-6,-38) scale(1,1)"><path fill="none" stroke="#000000" d="M 288 407 L 503 235" stroke-miterlimit="10"/></g><g transform="translate(-6,-38) scale(1,1)"><g><path fill="none" stroke="none"/><text fill="#000000" stroke="none" font-family="Arial" font-size="13px" font-style="normal" font-weight="normal" text-decoration="none" x="308.5" y="409.5">1</text></g></g><g transform="translate(-6,-38) scale(1,1)"><g><path fill="none" stroke="none"/><text fill="#000000" stroke="none" font-family="Arial" font-size="13px" font-style="normal" font-weight="normal" text-decoration="none" x="483.5" y="264.5">0..*</text></g></g><g transform="translate(-6,-38) scale(1,1)"><path fill="none" stroke="#000000" d="M 635 121 L 573 176" stroke-miterlimit="10"/></g><g transform="translate(-6,-38) scale(1,1)"><g><path fill="none" stroke="none"/><text fill="#000000" stroke="none" font-family="Arial" font-size="13px" font-style="normal" font-weight="normal" text-decoration="none" x="606.5" y="132.5">1</text></g></g><g transform="translate(-6,-38) scale(1,1)"><g><path fill="none" stroke="none"/><text fill="#000000" stroke="none" font-family="Arial" font-size="13px" font-style="normal" font-weight="normal" text-decoration="none" x="570.5" y="158.5">0..*</text></g></g><g transform="translate(-6,-38) scale(1,1)"><path fill="#ffffff" stroke="none" d="M 775.679541015625 216.5 C 775.679541015625 207.88435712 782.663898135625 200.9 791.279541015625 200.9 C 799.895183895625 200.9 806.879541015625 207.88435712 806.879541015625 216.5 C 806.879541015625 225.11564288 799.895183895625 232.1 791.279541015625 232.1 C 782.663898135625 232.1 775.679541015625 225.11564288 775.679541015625 216.5 Z"/></g><g transform="translate(-6,-38) scale(1,1)"><path fill="none" stroke="#000000" d="M 775.679541015625 216.5 C 775.679541015625 207.88435712 782.663898135625 200.9 791.279541015625 200.9 C 799.895183895625 200.9 806.879541015625 207.88435712 806.879541015625 216.5 C 806.879541015625 225.11564288 799.895183895625 232.1 791.279541015625 232.1 C 782.663898135625 232.1 775.679541015625 225.11564288 775.679541015625 216.5 Z" stroke-miterlimit="10"/></g><g transform="translate(-6,-38) scale(1,1)"><path fill="none" stroke="#000000" d="M 775.679541015625 232.1 L 806.879541015625 232.1" stroke-miterlimit="10"/></g><g transform="translate(-6,-38) scale(1,1)"><path fill="none" stroke="#000000" d="M 768 261 L 814.55908203125 261" stroke-miterlimit="10"/></g><g transform="translate(-6,-38) scale(1,1)"><path fill="none" stroke="#000000" d="M 768 271 L 814.55908203125 271" stroke-miterlimit="10"/></g><g transform="translate(-6,-38) scale(1,1)"><g><path fill="none" stroke="none"/><text fill="#000000" stroke="none" font-family="Arial" font-size="13px" font-style="normal" font-weight="bold" text-decoration="none" x="773.226806640625" y="255.5">CTHD</text></g></g><g transform="translate(-6,-38) scale(1,1)"><path fill="none" stroke="#000000" d="M 573 235 L 799 411" stroke-miterlimit="10"/></g><g transform="translate(-6,-38) scale(1,1)"><g><path fill="none" stroke="none"/><text fill="#000000" stroke="none" font-family="Arial" font-size="13px" font-style="normal" font-weight="normal" text-decoration="none" x="583.5" y="243.5">0..*</text></g></g><g transform="translate(-6,-38) scale(1,1)"><g><path fill="none" stroke="none"/><text fill="#000000" stroke="none" font-family="Arial" font-size="13px" font-style="normal" font-weight="normal" text-decoration="none" x="783.5" y="395.5">1..*</text></g></g><g transform="translate(-6,-38) scale(1,1)"><path fill="none" stroke="#000000" d="M 767 258 L 686 323" stroke-miterlimit="10" stroke-dasharray="3"/></g><g transform="translate(-6,-38) scale(1,1)"><path fill="#ffffff" stroke="none" d="M 518.7017578125 523.5 C 518.7017578125 514.88435712 525.6861149325 507.9 534.3017578125 507.9 C 542.9174006925 507.9 549.9017578125 514.88435712 549.9017578125 523.5 C 549.9017578125 532.11564288 542.9174006925 539.1 534.3017578125 539.1 C 525.6861149325 539.1 518.7017578125 532.11564288 518.7017578125 523.5 Z"/></g><g transform="translate(-6,-38) scale(1,1)"><path fill="none" stroke="#000000" d="M 518.7017578125 523.5 C 518.7017578125 514.88435712 525.6861149325 507.9 534.3017578125 507.9 C 542.9174006925 507.9 549.9017578125 514.88435712 549.9017578125 523.5 C 549.9017578125 532.11564288 542.9174006925 539.1 534.3017578125 539.1 C 525.6861149325 539.1 518.7017578125 532.11564288 518.7017578125 523.5 Z" stroke-miterlimit="10"/></g><g transform="translate(-6,-38) scale(1,1)"><path fill="none" stroke="#000000" d="M 518.7017578125 539.1 L 549.9017578125 539.1" stroke-miterlimit="10"/></g><g transform="translate(-6,-38) scale(1,1)"><path fill="none" stroke="#000000" d="M 472 568 L 596.603515625 568" stroke-miterlimit="10"/></g><g transform="translate(-6,-38) scale(1,1)"><path fill="none" stroke="#000000" d="M 472 578 L 596.603515625 578" stroke-miterlimit="10"/></g><g transform="translate(-6,-38) scale(1,1)"><g><path fill="none" stroke="none"/><text fill="#000000" stroke="none" font-family="Arial" font-size="13px" font-style="normal" font-weight="bold" text-decoration="none" x="512.0341796875" y="562.5">CTTON</text></g></g><g transform="translate(-6,-38) scale(1,1)"><path fill="none" stroke="#000000" d="M 801 473 L 570 687" stroke-miterlimit="10"/></g><g transform="translate(-6,-38) scale(1,1)"><g><path fill="none" stroke="none"/><text fill="#000000" stroke="none" font-family="Arial" font-size="13px" font-style="normal" font-weight="normal" text-decoration="none" x="797.5" y="492.5">0..*</text></g></g><g transform="translate(-6,-38) scale(1,1)"><g><path fill="none" stroke="none"/><text fill="#000000" stroke="none" font-family="Arial" font-size="13px" font-style="normal" font-weight="normal" text-decoration="none" x="567.5" y="669.5">0..*</text></g></g><g transform="translate(-6,-38) scale(1,1)"><path fill="none" stroke="#000000" d="M 598 560 L 685 580" stroke-miterlimit="10" stroke-dasharray="3"/></g><g transform="translate(-6,-38) scale(1,1)"><path fill="none" stroke="#000000" d="M 505 175 L 446 113" stroke-miterlimit="10"/></g><g transform="translate(-6,-38) scale(1,1)"><g><path fill="none" stroke="none"/><text fill="#000000" stroke="none" font-family="Arial" font-size="13px" font-style="normal" font-weight="normal" text-decoration="none" x="489.5" y="156.5">0..*</text></g></g><g transform="translate(-6,-38) scale(1,1)"><g><path fill="none" stroke="none"/><text fill="#000000" stroke="none" font-family="Arial" font-size="13px" font-style="normal" font-weight="normal" text-decoration="none" x="458.5" y="126.5">0..1</text></g></g><g transform="translate(-6,-38) scale(1,1)"><path fill="none" stroke="#000000" d="M 289 429 L 503 375" stroke-miterlimit="10"/></g><g transform="translate(-6,-38) scale(1,1)"><g><path fill="none" stroke="none"/><text fill="#000000" stroke="none" font-family="Arial" font-size="13px" font-style="normal" font-weight="normal" text-decoration="none" x="303.5" y="441.5">1..*</text></g></g><g transform="translate(-6,-38) scale(1,1)"><g><path fill="none" stroke="none"/><text fill="#000000" stroke="none" font-family="Arial" font-size="13px" font-style="normal" font-weight="normal" text-decoration="none" x="474.5" y="398.5">0..1</text></g></g><g transform="translate(-6,-38) scale(1,1)"><path fill="none" stroke="#000000" d="M 281 473 L 500 687" stroke-miterlimit="10"/></g><g transform="translate(-6,-38) scale(1,1)"><g><path fill="none" stroke="none"/><text fill="#000000" stroke="none" font-family="Arial" font-size="13px" font-style="normal" font-weight="normal" text-decoration="none" x="277.5" y="500.5">1..*</text></g></g><g transform="translate(-6,-38) scale(1,1)"><g><path fill="none" stroke="none"/><text fill="#000000" stroke="none" font-family="Arial" font-size="13px" font-style="normal" font-weight="normal" text-decoration="none" x="464.5" y="686.5">0..1</text></g></g><g transform="translate(-6,-38) scale(1,1)"><path fill="none" stroke="#000000" d="M 531 400 L 531 504" stroke-miterlimit="10"/></g><g transform="translate(-6,-38) scale(1,1)"><g><path fill="none" stroke="none"/><text fill="#000000" stroke="none" font-family="Arial" font-size="13px" font-style="normal" font-weight="normal" text-decoration="none" x="514.5" y="427.5">1</text></g></g><g transform="translate(-6,-38) scale(1,1)"><g><path fill="none" stroke="none"/><text fill="#000000" stroke="none" font-family="Arial" font-size="13px" font-style="normal" font-weight="normal" text-decoration="none" x="508.5" y="488.5">1..*</text></g></g><g transform="translate(-6,-38) scale(1,1)"><path fill="none" stroke="#000000" d="M 598 524 L 799 453" stroke-miterlimit="10"/></g><g transform="translate(-6,-38) scale(1,1)"><g><path fill="none" stroke="none"/><text fill="#000000" stroke="none" font-family="Arial" font-size="13px" font-style="normal" font-weight="normal" text-decoration="none" x="612.5" y="534.5">1..*</text></g></g><g transform="translate(-6,-38) scale(1,1)"><g><path fill="none" stroke="none"/><text fill="#000000" stroke="none" font-family="Arial" font-size="13px" font-style="normal" font-weight="normal" text-decoration="none" x="778.5" y="477.5">1</text></g></g></g></svg>