<svg version="1.1" xmlns="http://www.w3.org/2000/svg" xmlns:xlink="http://www.w3.org/1999/xlink" width="607.57177734375" height="692"><defs/><g><g transform="translate(-52,-30) scale(1,1)"><path fill="#ffffff" stroke="none" d="M 121.4717879971591 47.3 C 121.4717879971591 43.82060576 124.3501897193409 41 127.90087890625 41 C 131.4515680931591 41 134.32996981534092 43.82060576 134.32996981534092 47.3 C 134.32996981534092 50.779394239999995 131.4515680931591 53.6 127.90087890625 53.6 C 124.3501897193409 53.6 121.4717879971591 50.779394239999995 121.4717879971591 47.3 Z"/></g><g transform="translate(-52,-30) scale(1,1)"><path fill="none" stroke="#000000" d="M 121.4717879971591 47.3 C 121.4717879971591 43.82060576 124.3501897193409 41 127.90087890625 41 C 131.4515680931591 41 134.32996981534092 43.82060576 134.32996981534092 47.3 C 134.32996981534092 50.779394239999995 131.4515680931591 53.6 127.90087890625 53.6 C 124.3501897193409 53.6 121.4717879971591 50.779394239999995 121.4717879971591 47.3 Z" stroke-miterlimit="10"/></g><g transform="translate(-52,-30) scale(1,1)"><path fill="none" stroke="#000000" d="M 127.90087890625 53.6 L 127.90087890625 66.4" stroke-miterlimit="10"/></g><g transform="translate(-52,-30) scale(1,1)"><path fill="none" stroke="#000000" d="M 121.09360617897728 58.4 L 134.70815163352273 58.4" stroke-miterlimit="10"/></g><g transform="translate(-52,-30) scale(1,1)"><path fill="none" stroke="#000000" d="M 127.90087890625 66.4 L 118.44633345170455 79" stroke-miterlimit="10"/></g><g transform="translate(-52,-30) scale(1,1)"><path fill="none" stroke="#000000" d="M 127.90087890625 66.4 L 137.35542436079547 79" stroke-miterlimit="10"/></g><g transform="translate(-52,-30) scale(1,1)"><g><path fill="none" stroke="none"/><text fill="#000000" stroke="none" font-family="Arial" font-size="13px" font-style="normal" font-weight="bold" text-decoration="none" x="95.02001953125" y="99.5">: Nhân viên</text></g></g><g transform="translate(-52,-30) scale(1,1)"><path fill="none" stroke="#000000" d="M 128.5 105 L 128.5 712" stroke-miterlimit="10" stroke-dasharray="3"/></g><g transform="translate(-52,-30) scale(1,1)"><path fill="#ffffff" stroke="none" d="M 264.0654296875 60 C 264.0654296875 51.1634432 271.2288728875 44 280.0654296875 44 C 288.9019864875 44 296.0654296875 51.1634432 296.0654296875 60 C 296.0654296875 68.8365568 288.9019864875 76 280.0654296875 76 C 271.2288728875 76 264.0654296875 68.8365568 264.0654296875 60 Z"/></g><g transform="translate(-52,-30) scale(1,1)"><path fill="none" stroke="#000000" d="M 264.0654296875 60 C 264.0654296875 51.1634432 271.2288728875 44 280.0654296875 44 C 288.9019864875 44 296.0654296875 51.1634432 296.0654296875 60 C 296.0654296875 68.8365568 288.9019864875 76 280.0654296875 76 C 271.2288728875 76 264.0654296875 68.8365568 264.0654296875 60 Z" stroke-miterlimit="10"/></g><g transform="translate(-52,-30) scale(1,1)"><path fill="none" stroke="#000000" d="M 256.0654296875 44 L 256.0654296875 76" stroke-miterlimit="10"/></g><g transform="translate(-52,-30) scale(1,1)"><path fill="none" stroke="#000000" d="M 256.0654296875 60 L 264.0654296875 60" stroke-miterlimit="10"/></g><g transform="translate(-52,-30) scale(1,1)"><g><path fill="none" stroke="none"/><text fill="#000000" stroke="none" font-family="Arial" font-size="13px" font-style="normal" font-weight="bold" text-decoration="none" x="239.582275390625" y="99.5">: QLNV_GUI</text></g></g><g transform="translate(-52,-30) scale(1,1)"><path fill="none" stroke="#000000" d="M 277.5 105 L 277.5 704" stroke-miterlimit="10" stroke-dasharray="3"/></g><g transform="translate(-52,-30) scale(1,1)"><path fill="#ffffff" stroke="none" d="M 416.5654296875 60 C 416.5654296875 51.715728 423.2811576875 45 431.5654296875 45 C 439.8497016875 45 446.5654296875 51.715728 446.5654296875 60 C 446.5654296875 68.284272 439.8497016875 75 431.5654296875 75 C 423.2811576875 75 416.5654296875 68.284272 416.5654296875 60 Z"/></g><g transform="translate(-52,-30) scale(1,1)"><path fill="none" stroke="#000000" d="M 416.5654296875 60 C 416.5654296875 51.715728 423.2811576875 45 431.5654296875 45 C 439.8497016875 45 446.5654296875 51.715728 446.5654296875 60 C 446.5654296875 68.284272 439.8497016875 75 431.5654296875 75 C 423.2811576875 75 416.5654296875 68.284272 416.5654296875 60 Z" stroke-miterlimit="10"/></g><g transform="translate(-52,-30) scale(1,1)"><path fill="none" stroke="#000000" d="M 431.5654296875 45 L 436.5654296875 40" stroke-miterlimit="10"/></g><g transform="translate(-52,-30) scale(1,1)"><path fill="none" stroke="#000000" d="M 431.5654296875 45 L 436.5654296875 50" stroke-miterlimit="10"/></g><g transform="translate(-52,-30) scale(1,1)"><g><path fill="none" stroke="none"/><text fill="#000000" stroke="none" font-family="Arial" font-size="13px" font-style="normal" font-weight="bold" text-decoration="none" x="378.4609375" y="99.5">: Controller_QLNV</text></g></g><g transform="translate(-52,-30) scale(1,1)"><path fill="none" stroke="#000000" d="M 432.5 105 L 432.5 712" stroke-miterlimit="10" stroke-dasharray="3"/></g><g transform="translate(-52,-30) scale(1,1)"><path fill="#ffffff" stroke="none" d="M 564.785888671875 60 C 564.785888671875 51.1634432 571.949331871875 44 580.785888671875 44 C 589.622445471875 44 596.785888671875 51.1634432 596.785888671875 60 C 596.785888671875 68.8365568 589.622445471875 76 580.785888671875 76 C 571.949331871875 76 564.785888671875 68.8365568 564.785888671875 60 Z"/></g><g transform="translate(-52,-30) scale(1,1)"><path fill="none" stroke="#000000" d="M 564.785888671875 60 C 564.785888671875 51.1634432 571.949331871875 44 580.785888671875 44 C 589.622445471875 44 596.785888671875 51.1634432 596.785888671875 60 C 596.785888671875 68.8365568 589.622445471875 76 580.785888671875 76 C 571.949331871875 76 564.785888671875 68.8365568 564.785888671875 60 Z" stroke-miterlimit="10"/></g><g transform="translate(-52,-30) scale(1,1)"><path fill="none" stroke="#000000" d="M 564.785888671875 76 L 596.785888671875 76" stroke-miterlimit="10"/></g><g transform="translate(-52,-30) scale(1,1)"><g><path fill="none" stroke="none"/><text fill="#000000" stroke="none" font-family="Arial" font-size="13px" font-style="normal" font-weight="bold" text-decoration="none" x="543.58544921875" y="99.5">: NHANVIEN</text></g></g><g transform="translate(-52,-30) scale(1,1)"><path fill="none" stroke="#000000" d="M 581.5 105 L 581.5 712" stroke-miterlimit="10" stroke-dasharray="3"/></g><g transform="translate(-52,-30) scale(1,1)"><path fill="none" stroke="#000000" d="M 432 138 L 581 138" stroke-miterlimit="10"/></g><g transform="translate(-52,-30) scale(1,1)"><path fill="#000000" stroke="none" d="M 570.8373251423759 142.209517756016 L 581 138 L 570.8373251423758 133.790482243984"/></g><g transform="translate(-52,-30) scale(1,1)"><path fill="none" stroke="#000000" d="M 570.8373251423759 142.209517756016 L 581 138 L 570.8373251423758 133.790482243984 L 570.8373251423759 142.209517756016" stroke-miterlimit="10"/></g><g transform="translate(-52,-30) scale(1,1)"><g><path fill="none" stroke="none"/><text fill="#000000" stroke="none" font-family="Arial" font-size="13px" font-style="normal" font-weight="normal" text-decoration="none" x="424.5" y="134.5">1 : Lấy danh sách nhân viên</text></g></g><g transform="translate(-52,-30) scale(1,1)"><path fill="none" stroke="#000000" d="M 277 176 L 307 176 L 307 196 L 277 196" stroke-miterlimit="10"/></g><g transform="translate(-52,-30) scale(1,1)"><path fill="#000000" stroke="none" d="M 287.16267485762415 191.790482243984 L 277 196 L 287.16267485762415 200.209517756016"/></g><g transform="translate(-52,-30) scale(1,1)"><path fill="none" stroke="#000000" d="M 287.16267485762415 191.790482243984 L 277 196 L 287.16267485762415 200.209517756016 L 287.16267485762415 191.790482243984" stroke-miterlimit="10"/></g><g transform="translate(-52,-30) scale(1,1)"><g><path fill="none" stroke="none"/><text fill="#000000" stroke="none" font-family="Arial" font-size="13px" font-style="normal" font-weight="normal" text-decoration="none" x="338.92822265625" y="178.5">2 : Hiển thị</text><text fill="#000000" stroke="none" font-family="Arial" font-size="13px" font-style="normal" font-weight="normal" text-decoration="none" x="320.123291015625" y="191.5">dannh sách nhân</text><text fill="#000000" stroke="none" font-family="Arial" font-size="13px" font-style="normal" font-weight="normal" text-decoration="none" x="358.075927734375" y="204.5">viên</text></g></g><g transform="translate(-52,-30) scale(1,1)"><path fill="none" stroke="#000000" d="M 128 256 L 277 256" stroke-miterlimit="10"/></g><g transform="translate(-52,-30) scale(1,1)"><path fill="#000000" stroke="none" d="M 266.83732514237585 260.209517756016 L 277 256 L 266.83732514237585 251.790482243984"/></g><g transform="translate(-52,-30) scale(1,1)"><path fill="none" stroke="#000000" d="M 266.83732514237585 260.209517756016 L 277 256 L 266.83732514237585 251.790482243984 L 266.83732514237585 260.209517756016" stroke-miterlimit="10"/></g><g transform="translate(-52,-30) scale(1,1)"><g><path fill="none" stroke="none"/><text fill="#000000" stroke="none" font-family="Arial" font-size="13px" font-style="normal" font-weight="normal" text-decoration="none" x="144.5" y="252.5">3 : Chọn chức năng</text></g></g><g transform="translate(-52,-30) scale(1,1)"><rect fill="#ffffff" stroke="none" x="120" y="336" width="472" height="29"/></g><g transform="translate(-52,-30) scale(1,1)"><path fill="none" stroke="#000000" d="M 120 336 L 592 336 L 592 365 L 120 365 L 120 336 Z Z" stroke-miterlimit="10"/></g><g transform="translate(-52,-30) scale(1,1)"><path fill="none" stroke="#000000" d="M 120 336 L 120 358 L 145.1708984375 358 L 156.1708984375 347 L 156.1708984375 336 L 120 336 L 120 336" stroke-miterlimit="10"/></g><g transform="translate(-52,-30) scale(1,1)"><g><path fill="none" stroke="none"/><text fill="#000000" stroke="none" font-family="Arial" font-size="13px" font-style="normal" font-weight="normal" text-decoration="none" x="262.068359375" y="353.5">: Sequence - Thêm thông tin nhân viên</text></g></g><g transform="translate(-52,-30) scale(1,1)"><g><path fill="none" stroke="none"/><text fill="#000000" stroke="none" font-family="Arial" font-size="13px" font-style="normal" font-weight="bold" text-decoration="none" x="125" y="353.5">ref</text></g></g><g transform="translate(-52,-30) scale(1,1)"><rect fill="#ffffff" stroke="none" x="120" y="432" width="464" height="29"/></g><g transform="translate(-52,-30) scale(1,1)"><path fill="none" stroke="#000000" d="M 120 432 L 584 432 L 584 461 L 120 461 L 120 432 Z Z" stroke-miterlimit="10"/></g><g transform="translate(-52,-30) scale(1,1)"><path fill="none" stroke="#000000" d="M 120 432 L 120 454 L 145.1708984375 454 L 156.1708984375 443 L 156.1708984375 432 L 120 432 L 120 432" stroke-miterlimit="10"/></g><g transform="translate(-52,-30) scale(1,1)"><g><path fill="none" stroke="none"/><text fill="#000000" stroke="none" font-family="Arial" font-size="13px" font-style="normal" font-weight="normal" text-decoration="none" x="247.962890625" y="449.5">: Sequence - Tìm kiếm thông tin nhân viên</text></g></g><g transform="translate(-52,-30) scale(1,1)"><g><path fill="none" stroke="none"/><text fill="#000000" stroke="none" font-family="Arial" font-size="13px" font-style="normal" font-weight="bold" text-decoration="none" x="125" y="449.5">ref</text></g></g><g transform="translate(-52,-30) scale(1,1)"><rect fill="#ffffff" stroke="none" x="120" y="536" width="464" height="29"/></g><g transform="translate(-52,-30) scale(1,1)"><path fill="none" stroke="#000000" d="M 120 536 L 584 536 L 584 565 L 120 565 L 120 536 Z Z" stroke-miterlimit="10"/></g><g transform="translate(-52,-30) scale(1,1)"><path fill="none" stroke="#000000" d="M 120 536 L 120 558 L 145.1708984375 558 L 156.1708984375 547 L 156.1708984375 536 L 120 536 L 120 536" stroke-miterlimit="10"/></g><g transform="translate(-52,-30) scale(1,1)"><g><path fill="none" stroke="none"/><text fill="#000000" stroke="none" font-family="Arial" font-size="13px" font-style="normal" font-weight="normal" text-decoration="none" x="263.117919921875" y="553.5">: Sequence - Xóa thông tin nhân viên</text></g></g><g transform="translate(-52,-30) scale(1,1)"><g><path fill="none" stroke="none"/><text fill="#000000" stroke="none" font-family="Arial" font-size="13px" font-style="normal" font-weight="bold" text-decoration="none" x="125" y="553.5">ref</text></g></g><g transform="translate(-52,-30) scale(1,1)"><rect fill="#ffffff" stroke="none" x="120" y="632" width="464" height="29"/></g><g transform="translate(-52,-30) scale(1,1)"><path fill="none" stroke="#000000" d="M 120 632 L 584 632 L 584 661 L 120 661 L 120 632 Z Z" stroke-miterlimit="10"/></g><g transform="translate(-52,-30) scale(1,1)"><path fill="none" stroke="#000000" d="M 120 632 L 120 654 L 145.1708984375 654 L 156.1708984375 643 L 156.1708984375 632 L 120 632 L 120 632" stroke-miterlimit="10"/></g><g transform="translate(-52,-30) scale(1,1)"><g><path fill="none" stroke="none"/><text fill="#000000" stroke="none" font-family="Arial" font-size="13px" font-style="normal" font-weight="normal" text-decoration="none" x="262.381591796875" y="649.5">: Sequence - Sửa thông tin nhân viên</text></g></g><g transform="translate(-52,-30) scale(1,1)"><g><path fill="none" stroke="none"/><text fill="#000000" stroke="none" font-family="Arial" font-size="13px" font-style="normal" font-weight="bold" text-decoration="none" x="125" y="649.5">ref</text></g></g><g transform="translate(-52,-30) scale(1,1)"><path fill="none" stroke="#000000" d="M 104 272 L 600 272 L 600 688 L 104 688 L 104 272" stroke-miterlimit="10"/></g><g transform="translate(-52,-30) scale(1,1)"><path fill="#ffffff" stroke="none" d="M 104 272 L 104 294 L 138.07177734375 294 L 149.07177734375 283 L 149.07177734375 272 L 104 272"/></g><g transform="translate(-52,-30) scale(1,1)"><path fill="none" stroke="#000000" d="M 104 272 L 104 294 L 138.07177734375 294 L 149.07177734375 283 L 149.07177734375 272 L 104 272 L 104 272" stroke-miterlimit="10"/></g><g transform="translate(-52,-30) scale(1,1)"><g><path fill="none" stroke="none"/><text fill="#000000" stroke="none" font-family="Arial" font-size="13px" font-style="normal" font-weight="bold" text-decoration="none" x="109" y="289.5">opt</text></g></g><g transform="translate(-52,-30) scale(1,1)"><g><path fill="none" stroke="none"/><text fill="#000000" stroke="none" font-family="Arial" font-size="13px" font-style="normal" font-weight="normal" text-decoration="none" x="123.5" y="322.5">[Thêm nhân viên]</text></g></g><g transform="translate(-52,-30) scale(1,1)"><path fill="none" stroke="#000000" d="M 104 385 L 600 385" stroke-miterlimit="10" stroke-dasharray="10,3"/></g><g transform="translate(-52,-30) scale(1,1)"><g><path fill="none" stroke="none"/><text fill="#000000" stroke="none" font-family="Arial" font-size="13px" font-style="normal" font-weight="normal" text-decoration="none" x="123.5" y="412.5">[Tra cứu nhân viên]</text></g></g><g transform="translate(-52,-30) scale(1,1)"><path fill="none" stroke="#000000" d="M 104 489 L 600 489" stroke-miterlimit="10" stroke-dasharray="10,3"/></g><g transform="translate(-52,-30) scale(1,1)"><g><path fill="none" stroke="none"/><text fill="#000000" stroke="none" font-family="Arial" font-size="13px" font-style="normal" font-weight="normal" text-decoration="none" x="123.5" y="516.5">[Xóa nhân viên]</text></g></g><g transform="translate(-52,-30) scale(1,1)"><path fill="none" stroke="#000000" d="M 104 585 L 600 585" stroke-miterlimit="10" stroke-dasharray="10,3"/></g><g transform="translate(-52,-30) scale(1,1)"><g><path fill="none" stroke="none"/><text fill="#000000" stroke="none" font-family="Arial" font-size="13px" font-style="normal" font-weight="normal" text-decoration="none" x="123.5" y="612.5">[Sửa nhân viên]</text></g></g></g></svg>