<svg version="1.1" xmlns="http://www.w3.org/2000/svg" xmlns:xlink="http://www.w3.org/1999/xlink" width="637.36376953125" height="597"><defs/><g><g transform="translate(-6,-30) scale(1,1)"><path fill="#ffffff" stroke="none" d="M 75.4717879971591 47.3 C 75.4717879971591 43.82060576 78.35018971934092 41 81.90087890625 41 C 85.45156809315908 41 88.3299698153409 43.82060576 88.3299698153409 47.3 C 88.3299698153409 50.779394239999995 85.45156809315908 53.6 81.90087890625 53.6 C 78.35018971934092 53.6 75.4717879971591 50.779394239999995 75.4717879971591 47.3 Z"/></g><g transform="translate(-6,-30) scale(1,1)"><path fill="none" stroke="#000000" d="M 75.4717879971591 47.3 C 75.4717879971591 43.82060576 78.35018971934092 41 81.90087890625 41 C 85.45156809315908 41 88.3299698153409 43.82060576 88.3299698153409 47.3 C 88.3299698153409 50.779394239999995 85.45156809315908 53.6 81.90087890625 53.6 C 78.35018971934092 53.6 75.4717879971591 50.779394239999995 75.4717879971591 47.3 Z" stroke-miterlimit="10"/></g><g transform="translate(-6,-30) scale(1,1)"><path fill="none" stroke="#000000" d="M 81.90087890625 53.6 L 81.90087890625 66.4" stroke-miterlimit="10"/></g><g transform="translate(-6,-30) scale(1,1)"><path fill="none" stroke="#000000" d="M 75.09360617897727 58.4 L 88.70815163352273 58.4" stroke-miterlimit="10"/></g><g transform="translate(-6,-30) scale(1,1)"><path fill="none" stroke="#000000" d="M 81.90087890625 66.4 L 72.44633345170455 79" stroke-miterlimit="10"/></g><g transform="translate(-6,-30) scale(1,1)"><path fill="none" stroke="#000000" d="M 81.90087890625 66.4 L 91.35542436079545 79" stroke-miterlimit="10"/></g><g transform="translate(-6,-30) scale(1,1)"><g><path fill="none" stroke="none"/><text fill="#000000" stroke="none" font-family="Arial" font-size="13px" font-style="normal" font-weight="bold" text-decoration="none" x="49.02001953125" y="99.5">: Nhân viên</text></g></g><g transform="translate(-6,-30) scale(1,1)"><path fill="none" stroke="#000000" d="M 82.5 105 L 82.5 608" stroke-miterlimit="10" stroke-dasharray="3"/></g><g transform="translate(-6,-30) scale(1,1)"><path fill="#ffffff" stroke="none" d="M 208.0654296875 60 C 208.0654296875 51.1634432 215.2288728875 44 224.0654296875 44 C 232.9019864875 44 240.0654296875 51.1634432 240.0654296875 60 C 240.0654296875 68.8365568 232.9019864875 76 224.0654296875 76 C 215.2288728875 76 208.0654296875 68.8365568 208.0654296875 60 Z"/></g><g transform="translate(-6,-30) scale(1,1)"><path fill="none" stroke="#000000" d="M 208.0654296875 60 C 208.0654296875 51.1634432 215.2288728875 44 224.0654296875 44 C 232.9019864875 44 240.0654296875 51.1634432 240.0654296875 60 C 240.0654296875 68.8365568 232.9019864875 76 224.0654296875 76 C 215.2288728875 76 208.0654296875 68.8365568 208.0654296875 60 Z" stroke-miterlimit="10"/></g><g transform="translate(-6,-30) scale(1,1)"><path fill="none" stroke="#000000" d="M 200.0654296875 44 L 200.0654296875 76" stroke-miterlimit="10"/></g><g transform="translate(-6,-30) scale(1,1)"><path fill="none" stroke="#000000" d="M 200.0654296875 60 L 208.0654296875 60" stroke-miterlimit="10"/></g><g transform="translate(-6,-30) scale(1,1)"><g><path fill="none" stroke="none"/><text fill="#000000" stroke="none" font-family="Arial" font-size="13px" font-style="normal" font-weight="bold" text-decoration="none" x="183.582275390625" y="99.5">: QLNV_GUI</text></g></g><g transform="translate(-6,-30) scale(1,1)"><path fill="none" stroke="#000000" d="M 221.5 105 L 221.5 617" stroke-miterlimit="10" stroke-dasharray="3"/></g><g transform="translate(-6,-30) scale(1,1)"><path fill="#ffffff" stroke="none" d="M 352.5654296875 60 C 352.5654296875 51.715728 359.2811576875 45 367.5654296875 45 C 375.8497016875 45 382.5654296875 51.715728 382.5654296875 60 C 382.5654296875 68.284272 375.8497016875 75 367.5654296875 75 C 359.2811576875 75 352.5654296875 68.284272 352.5654296875 60 Z"/></g><g transform="translate(-6,-30) scale(1,1)"><path fill="none" stroke="#000000" d="M 352.5654296875 60 C 352.5654296875 51.715728 359.2811576875 45 367.5654296875 45 C 375.8497016875 45 382.5654296875 51.715728 382.5654296875 60 C 382.5654296875 68.284272 375.8497016875 75 367.5654296875 75 C 359.2811576875 75 352.5654296875 68.284272 352.5654296875 60 Z" stroke-miterlimit="10"/></g><g transform="translate(-6,-30) scale(1,1)"><path fill="none" stroke="#000000" d="M 367.5654296875 45 L 372.5654296875 40" stroke-miterlimit="10"/></g><g transform="translate(-6,-30) scale(1,1)"><path fill="none" stroke="#000000" d="M 367.5654296875 45 L 372.5654296875 50" stroke-miterlimit="10"/></g><g transform="translate(-6,-30) scale(1,1)"><g><path fill="none" stroke="none"/><text fill="#000000" stroke="none" font-family="Arial" font-size="13px" font-style="normal" font-weight="bold" text-decoration="none" x="314.4609375" y="99.5">: Controller_QLNV</text></g></g><g transform="translate(-6,-30) scale(1,1)"><path fill="none" stroke="#000000" d="M 368.5 105 L 368.5 617" stroke-miterlimit="10" stroke-dasharray="3"/></g><g transform="translate(-6,-30) scale(1,1)"><path fill="#ffffff" stroke="none" d="M 492.785888671875 60 C 492.785888671875 51.1634432 499.949331871875 44 508.785888671875 44 C 517.622445471875 44 524.785888671875 51.1634432 524.785888671875 60 C 524.785888671875 68.8365568 517.622445471875 76 508.785888671875 76 C 499.949331871875 76 492.785888671875 68.8365568 492.785888671875 60 Z"/></g><g transform="translate(-6,-30) scale(1,1)"><path fill="none" stroke="#000000" d="M 492.785888671875 60 C 492.785888671875 51.1634432 499.949331871875 44 508.785888671875 44 C 517.622445471875 44 524.785888671875 51.1634432 524.785888671875 60 C 524.785888671875 68.8365568 517.622445471875 76 508.785888671875 76 C 499.949331871875 76 492.785888671875 68.8365568 492.785888671875 60 Z" stroke-miterlimit="10"/></g><g transform="translate(-6,-30) scale(1,1)"><path fill="none" stroke="#000000" d="M 492.785888671875 76 L 524.785888671875 76" stroke-miterlimit="10"/></g><g transform="translate(-6,-30) scale(1,1)"><g><path fill="none" stroke="none"/><text fill="#000000" stroke="none" font-family="Arial" font-size="13px" font-style="normal" font-weight="bold" text-decoration="none" x="471.58544921875" y="99.5">: NHANVIEN</text></g></g><g transform="translate(-6,-30) scale(1,1)"><path fill="none" stroke="#000000" d="M 509.5 105 L 509.5 600" stroke-miterlimit="10" stroke-dasharray="3"/></g><g transform="translate(-6,-30) scale(1,1)"><path fill="none" stroke="#000000" d="M 82 152 L 221 152" stroke-miterlimit="10"/></g><g transform="translate(-6,-30) scale(1,1)"><path fill="#000000" stroke="none" d="M 210.83732514237585 156.209517756016 L 221 152 L 210.83732514237585 147.790482243984"/></g><g transform="translate(-6,-30) scale(1,1)"><path fill="none" stroke="#000000" d="M 210.83732514237585 156.209517756016 L 221 152 L 210.83732514237585 147.790482243984 L 210.83732514237585 156.209517756016" stroke-miterlimit="10"/></g><g transform="translate(-6,-30) scale(1,1)"><g><path fill="none" stroke="none"/><text fill="#000000" stroke="none" font-family="Arial" font-size="13px" font-style="normal" font-weight="normal" text-decoration="none" x="73.5" y="148.5">1 : Nhập thông tin tìm kiếm</text></g></g><g transform="translate(-6,-30) scale(1,1)"><path fill="none" stroke="#000000" d="M 221 192 L 368 192" stroke-miterlimit="10"/></g><g transform="translate(-6,-30) scale(1,1)"><path fill="#000000" stroke="none" d="M 357.83732514237585 196.209517756016 L 368 192 L 357.83732514237585 187.790482243984"/></g><g transform="translate(-6,-30) scale(1,1)"><path fill="none" stroke="#000000" d="M 357.83732514237585 196.209517756016 L 368 192 L 357.83732514237585 187.790482243984 L 357.83732514237585 196.209517756016" stroke-miterlimit="10"/></g><g transform="translate(-6,-30) scale(1,1)"><g><path fill="none" stroke="none"/><text fill="#000000" stroke="none" font-family="Arial" font-size="13px" font-style="normal" font-weight="normal" text-decoration="none" x="216.5" y="188.5">2 : Xử lý thông tin tìm kiếm</text></g></g><g transform="translate(-6,-30) scale(1,1)"><path fill="none" stroke="#000000" d="M 368 233 L 509 233" stroke-miterlimit="10"/></g><g transform="translate(-6,-30) scale(1,1)"><path fill="#000000" stroke="none" d="M 498.83732514237585 237.209517756016 L 509 233 L 498.83732514237585 228.790482243984"/></g><g transform="translate(-6,-30) scale(1,1)"><path fill="none" stroke="#000000" d="M 498.83732514237585 237.209517756016 L 509 233 L 498.83732514237585 228.790482243984 L 498.83732514237585 237.209517756016" stroke-miterlimit="10"/></g><g transform="translate(-6,-30) scale(1,1)"><g><path fill="none" stroke="none"/><text fill="#000000" stroke="none" font-family="Arial" font-size="13px" font-style="normal" font-weight="normal" text-decoration="none" x="350.5" y="229.5">3 : Truy vấn thông tin tìm kiếm</text></g></g><g transform="translate(-6,-30) scale(1,1)"><path fill="none" stroke="#000000" d="M 509 264 L 539 264 L 539 284 L 509 284" stroke-miterlimit="10"/></g><g transform="translate(-6,-30) scale(1,1)"><path fill="#000000" stroke="none" d="M 519.1626748576241 279.790482243984 L 509 284 L 519.1626748576241 288.209517756016"/></g><g transform="translate(-6,-30) scale(1,1)"><path fill="none" stroke="#000000" d="M 519.1626748576241 279.790482243984 L 509 284 L 519.1626748576241 288.209517756016 L 519.1626748576241 279.790482243984" stroke-miterlimit="10"/></g><g transform="translate(-6,-30) scale(1,1)"><g><path fill="none" stroke="none"/><text fill="#000000" stroke="none" font-family="Arial" font-size="13px" font-style="normal" font-weight="normal" text-decoration="none" x="554.1044921875" y="268.5">4 : Truy vấn</text><text fill="#000000" stroke="none" font-family="Arial" font-size="13px" font-style="normal" font-weight="normal" text-decoration="none" x="552.412841796875" y="281.5">thông tin tìm</text><text fill="#000000" stroke="none" font-family="Arial" font-size="13px" font-style="normal" font-weight="normal" text-decoration="none" x="574.458251953125" y="294.5">kiếm</text></g></g><g transform="translate(-6,-30) scale(1,1)"><path fill="none" stroke="#000000" d="M 509 368 L 368 368" stroke-miterlimit="10" stroke-dasharray="3"/></g><g transform="translate(-6,-30) scale(1,1)"><path fill="none" stroke="#000000" d="M 378.16267485762415 363.790482243984 L 368 368 L 378.16267485762415 372.209517756016" stroke-miterlimit="10"/></g><g transform="translate(-6,-30) scale(1,1)"><g><path fill="none" stroke="none"/><text fill="#000000" stroke="none" font-family="Arial" font-size="13px" font-style="normal" font-weight="normal" text-decoration="none" x="353.5" y="364.5">5 : Thông báo không tìm thấy</text></g></g><g transform="translate(-6,-30) scale(1,1)"><path fill="none" stroke="#000000" d="M 368 424 L 221 424" stroke-miterlimit="10" stroke-dasharray="3"/></g><g transform="translate(-6,-30) scale(1,1)"><path fill="none" stroke="#000000" d="M 231.16267485762415 419.790482243984 L 221 424 L 231.16267485762415 428.209517756016" stroke-miterlimit="10"/></g><g transform="translate(-6,-30) scale(1,1)"><g><path fill="none" stroke="none"/><text fill="#000000" stroke="none" font-family="Arial" font-size="13px" font-style="normal" font-weight="normal" text-decoration="none" x="231.8701171875" y="387.5">6 : Thông báo không</text><text fill="#000000" stroke="none" font-family="Arial" font-size="13px" font-style="normal" font-weight="normal" text-decoration="none" x="236.945068359375" y="400.5">tìm thấy và hiển thị</text><text fill="#000000" stroke="none" font-family="Arial" font-size="13px" font-style="normal" font-weight="normal" text-decoration="none" x="231.50830078125" y="413.5">danh sách nhân viên</text></g></g><g transform="translate(-6,-30) scale(1,1)"><path fill="none" stroke="#000000" d="M 509 496 L 368 496" stroke-miterlimit="10" stroke-dasharray="3"/></g><g transform="translate(-6,-30) scale(1,1)"><path fill="none" stroke="#000000" d="M 378.16267485762415 491.790482243984 L 368 496 L 378.16267485762415 500.209517756016" stroke-miterlimit="10"/></g><g transform="translate(-6,-30) scale(1,1)"><g><path fill="none" stroke="none"/><text fill="#000000" stroke="none" font-family="Arial" font-size="13px" font-style="normal" font-weight="normal" text-decoration="none" x="369.958740234375" y="484.5">7 : Thông báo truy vấn</text><text fill="#000000" stroke="none" font-family="Arial" font-size="13px" font-style="normal" font-weight="normal" text-decoration="none" x="402.833251953125" y="497.5">thành công</text></g></g><g transform="translate(-6,-30) scale(1,1)"><path fill="none" stroke="#000000" d="M 368 584 L 221 584" stroke-miterlimit="10" stroke-dasharray="3"/></g><g transform="translate(-6,-30) scale(1,1)"><path fill="none" stroke="#000000" d="M 231.16267485762415 579.790482243984 L 221 584 L 231.16267485762415 588.209517756016" stroke-miterlimit="10"/></g><g transform="translate(-6,-30) scale(1,1)"><g><path fill="none" stroke="none"/><text fill="#000000" stroke="none" font-family="Arial" font-size="13px" font-style="normal" font-weight="normal" text-decoration="none" x="242.24462890625" y="539.5">8 : Thông báo truy</text><text fill="#000000" stroke="none" font-family="Arial" font-size="13px" font-style="normal" font-weight="normal" text-decoration="none" x="241.87646484375" y="552.5">vấn thành công và</text><text fill="#000000" stroke="none" font-family="Arial" font-size="13px" font-style="normal" font-weight="normal" text-decoration="none" x="240.44189453125" y="565.5">hiển thị kết quả tim</text><text fill="#000000" stroke="none" font-family="Arial" font-size="13px" font-style="normal" font-weight="normal" text-decoration="none" x="281.2763671875" y="578.5">kiếm</text></g></g><g transform="translate(-6,-30) scale(1,1)"><path fill="none" stroke="#000000" d="M 64 304 L 536 304 L 536 611 L 64 611 L 64 304" stroke-miterlimit="10"/></g><g transform="translate(-6,-30) scale(1,1)"><path fill="#ffffff" stroke="none" d="M 64 304 L 64 326 L 93.72998046875 326 L 104.72998046875 315 L 104.72998046875 304 L 64 304"/></g><g transform="translate(-6,-30) scale(1,1)"><path fill="none" stroke="#000000" d="M 64 304 L 64 326 L 93.72998046875 326 L 104.72998046875 315 L 104.72998046875 304 L 64 304 L 64 304" stroke-miterlimit="10"/></g><g transform="translate(-6,-30) scale(1,1)"><g><path fill="none" stroke="none"/><text fill="#000000" stroke="none" font-family="Arial" font-size="13px" font-style="normal" font-weight="bold" text-decoration="none" x="69" y="321.5">alt</text></g></g><g transform="translate(-6,-30) scale(1,1)"><g><path fill="none" stroke="none"/><text fill="#000000" stroke="none" font-family="Arial" font-size="13px" font-style="normal" font-weight="normal" text-decoration="none" x="83.5" y="354.5">[Không tìm thấy]</text></g></g><g transform="translate(-6,-30) scale(1,1)"><path fill="none" stroke="#000000" d="M 64 457 L 536 457" stroke-miterlimit="10" stroke-dasharray="10,3"/></g><g transform="translate(-6,-30) scale(1,1)"><g><path fill="none" stroke="none"/><text fill="#000000" stroke="none" font-family="Arial" font-size="13px" font-style="normal" font-weight="normal" text-decoration="none" x="83.5" y="484.5">[Tìm thấy]</text></g></g></g></svg>