<svg version="1.1" xmlns="http://www.w3.org/2000/svg" xmlns:xlink="http://www.w3.org/1999/xlink" width="600.40087890625" height="700"><defs/><g><g transform="translate(-46,-30) scale(1,1)"><path fill="#ffffff" stroke="none" d="M 115.4717879971591 47.3 C 115.4717879971591 43.82060576 118.3501897193409 41 121.90087890625 41 C 125.4515680931591 41 128.32996981534092 43.82060576 128.32996981534092 47.3 C 128.32996981534092 50.779394239999995 125.4515680931591 53.6 121.90087890625 53.6 C 118.3501897193409 53.6 115.4717879971591 50.779394239999995 115.4717879971591 47.3 Z"/></g><g transform="translate(-46,-30) scale(1,1)"><path fill="none" stroke="#000000" d="M 115.4717879971591 47.3 C 115.4717879971591 43.82060576 118.3501897193409 41 121.90087890625 41 C 125.4515680931591 41 128.32996981534092 43.82060576 128.32996981534092 47.3 C 128.32996981534092 50.779394239999995 125.4515680931591 53.6 121.90087890625 53.6 C 118.3501897193409 53.6 115.4717879971591 50.779394239999995 115.4717879971591 47.3 Z" stroke-miterlimit="10"/></g><g transform="translate(-46,-30) scale(1,1)"><path fill="none" stroke="#000000" d="M 121.90087890625 53.6 L 121.90087890625 66.4" stroke-miterlimit="10"/></g><g transform="translate(-46,-30) scale(1,1)"><path fill="none" stroke="#000000" d="M 115.09360617897728 58.4 L 128.70815163352273 58.4" stroke-miterlimit="10"/></g><g transform="translate(-46,-30) scale(1,1)"><path fill="none" stroke="#000000" d="M 121.90087890625 66.4 L 112.44633345170455 79" stroke-miterlimit="10"/></g><g transform="translate(-46,-30) scale(1,1)"><path fill="none" stroke="#000000" d="M 121.90087890625 66.4 L 131.35542436079547 79" stroke-miterlimit="10"/></g><g transform="translate(-46,-30) scale(1,1)"><g><path fill="none" stroke="none"/><text fill="#000000" stroke="none" font-family="Arial" font-size="13px" font-style="normal" font-weight="bold" text-decoration="none" x="89.02001953125" y="99.5">: Nhân viên</text></g></g><g transform="translate(-46,-30) scale(1,1)"><path fill="none" stroke="#000000" d="M 122.5 105 L 122.5 720" stroke-miterlimit="10" stroke-dasharray="3"/></g><g transform="translate(-46,-30) scale(1,1)"><path fill="#ffffff" stroke="none" d="M 257.14453125 60 C 257.14453125 51.1634432 264.30797445 44 273.14453125 44 C 281.98108805 44 289.14453125 51.1634432 289.14453125 60 C 289.14453125 68.8365568 281.98108805 76 273.14453125 76 C 264.30797445 76 257.14453125 68.8365568 257.14453125 60 Z"/></g><g transform="translate(-46,-30) scale(1,1)"><path fill="none" stroke="#000000" d="M 257.14453125 60 C 257.14453125 51.1634432 264.30797445 44 273.14453125 44 C 281.98108805 44 289.14453125 51.1634432 289.14453125 60 C 289.14453125 68.8365568 281.98108805 76 273.14453125 76 C 264.30797445 76 257.14453125 68.8365568 257.14453125 60 Z" stroke-miterlimit="10"/></g><g transform="translate(-46,-30) scale(1,1)"><path fill="none" stroke="#000000" d="M 249.14453125 44 L 249.14453125 76" stroke-miterlimit="10"/></g><g transform="translate(-46,-30) scale(1,1)"><path fill="none" stroke="#000000" d="M 249.14453125 60 L 257.14453125 60" stroke-miterlimit="10"/></g><g transform="translate(-46,-30) scale(1,1)"><g><path fill="none" stroke="none"/><text fill="#000000" stroke="none" font-family="Arial" font-size="13px" font-style="normal" font-weight="bold" text-decoration="none" x="231.94091796875" y="99.5">: QLKM_GUI</text></g></g><g transform="translate(-46,-30) scale(1,1)"><path fill="none" stroke="#000000" d="M 270.5 105 L 270.5 720" stroke-miterlimit="10" stroke-dasharray="3"/></g><g transform="translate(-46,-30) scale(1,1)"><path fill="#ffffff" stroke="none" d="M 377.64453125 60 C 377.64453125 51.715728 384.36025925 45 392.64453125 45 C 400.92880325 45 407.64453125 51.715728 407.64453125 60 C 407.64453125 68.284272 400.92880325 75 392.64453125 75 C 384.36025925 75 377.64453125 68.284272 377.64453125 60 Z"/></g><g transform="translate(-46,-30) scale(1,1)"><path fill="none" stroke="#000000" d="M 377.64453125 60 C 377.64453125 51.715728 384.36025925 45 392.64453125 45 C 400.92880325 45 407.64453125 51.715728 407.64453125 60 C 407.64453125 68.284272 400.92880325 75 392.64453125 75 C 384.36025925 75 377.64453125 68.284272 377.64453125 60 Z" stroke-miterlimit="10"/></g><g transform="translate(-46,-30) scale(1,1)"><path fill="none" stroke="#000000" d="M 392.64453125 45 L 397.64453125 40" stroke-miterlimit="10"/></g><g transform="translate(-46,-30) scale(1,1)"><path fill="none" stroke="#000000" d="M 392.64453125 45 L 397.64453125 50" stroke-miterlimit="10"/></g><g transform="translate(-46,-30) scale(1,1)"><g><path fill="none" stroke="none"/><text fill="#000000" stroke="none" font-family="Arial" font-size="13px" font-style="normal" font-weight="bold" text-decoration="none" x="338.819580078125" y="99.5">: Controller_QLKM</text></g></g><g transform="translate(-46,-30) scale(1,1)"><path fill="none" stroke="#000000" d="M 393.5 105 L 393.5 712" stroke-miterlimit="10" stroke-dasharray="3"/></g><g transform="translate(-46,-30) scale(1,1)"><path fill="#ffffff" stroke="none" d="M 546.200439453125 60 C 546.200439453125 51.1634432 553.363882653125 44 562.200439453125 44 C 571.036996253125 44 578.200439453125 51.1634432 578.200439453125 60 C 578.200439453125 68.8365568 571.036996253125 76 562.200439453125 76 C 553.363882653125 76 546.200439453125 68.8365568 546.200439453125 60 Z"/></g><g transform="translate(-46,-30) scale(1,1)"><path fill="none" stroke="#000000" d="M 546.200439453125 60 C 546.200439453125 51.1634432 553.363882653125 44 562.200439453125 44 C 571.036996253125 44 578.200439453125 51.1634432 578.200439453125 60 C 578.200439453125 68.8365568 571.036996253125 76 562.200439453125 76 C 553.363882653125 76 546.200439453125 68.8365568 546.200439453125 60 Z" stroke-miterlimit="10"/></g><g transform="translate(-46,-30) scale(1,1)"><path fill="none" stroke="#000000" d="M 546.200439453125 76 L 578.200439453125 76" stroke-miterlimit="10"/></g><g transform="translate(-46,-30) scale(1,1)"><g><path fill="none" stroke="none"/><text fill="#000000" stroke="none" font-family="Arial" font-size="13px" font-style="normal" font-weight="bold" text-decoration="none" x="519.944091796875" y="99.5">: KHUYENMAI</text></g></g><g transform="translate(-46,-30) scale(1,1)"><path fill="none" stroke="#000000" d="M 563.5 105 L 563.5 720" stroke-miterlimit="10" stroke-dasharray="3"/></g><g transform="translate(-46,-30) scale(1,1)"><path fill="none" stroke="#000000" d="M 393 148 L 563 148" stroke-miterlimit="10"/></g><g transform="translate(-46,-30) scale(1,1)"><path fill="#000000" stroke="none" d="M 552.8373251423759 152.209517756016 L 563 148 L 552.8373251423758 143.790482243984"/></g><g transform="translate(-46,-30) scale(1,1)"><path fill="none" stroke="#000000" d="M 552.8373251423759 152.209517756016 L 563 148 L 552.8373251423758 143.790482243984 L 552.8373251423759 152.209517756016" stroke-miterlimit="10"/></g><g transform="translate(-46,-30) scale(1,1)"><g><path fill="none" stroke="none"/><text fill="#000000" stroke="none" font-family="Arial" font-size="13px" font-style="normal" font-weight="normal" text-decoration="none" x="391.5" y="144.5">1 : Lấy danh sách khuyến mãi</text></g></g><g transform="translate(-46,-30) scale(1,1)"><path fill="none" stroke="#000000" d="M 270 168 L 300 168 L 300 188 L 270 188" stroke-miterlimit="10"/></g><g transform="translate(-46,-30) scale(1,1)"><path fill="#000000" stroke="none" d="M 280.16267485762415 183.790482243984 L 270 188 L 280.16267485762415 192.209517756016"/></g><g transform="translate(-46,-30) scale(1,1)"><path fill="none" stroke="#000000" d="M 280.16267485762415 183.790482243984 L 270 188 L 280.16267485762415 192.209517756016 L 280.16267485762415 183.790482243984" stroke-miterlimit="10"/></g><g transform="translate(-46,-30) scale(1,1)"><g><path fill="none" stroke="none"/><text fill="#000000" stroke="none" font-family="Arial" font-size="13px" font-style="normal" font-weight="normal" text-decoration="none" x="295.662353515625" y="172.5">2 : Hiển thị danh</text><text fill="#000000" stroke="none" font-family="Arial" font-size="13px" font-style="normal" font-weight="normal" text-decoration="none" x="306.504150390625" y="185.5">sách khuyến</text><text fill="#000000" stroke="none" font-family="Arial" font-size="13px" font-style="normal" font-weight="normal" text-decoration="none" x="332.5263671875" y="198.5">mãi</text></g></g><g transform="translate(-46,-30) scale(1,1)"><path fill="none" stroke="#000000" d="M 122 238 L 270 238" stroke-miterlimit="10"/></g><g transform="translate(-46,-30) scale(1,1)"><path fill="#000000" stroke="none" d="M 259.83732514237585 242.209517756016 L 270 238 L 259.83732514237585 233.790482243984"/></g><g transform="translate(-46,-30) scale(1,1)"><path fill="none" stroke="#000000" d="M 259.83732514237585 242.209517756016 L 270 238 L 259.83732514237585 233.790482243984 L 259.83732514237585 242.209517756016" stroke-miterlimit="10"/></g><g transform="translate(-46,-30) scale(1,1)"><g><path fill="none" stroke="none"/><text fill="#000000" stroke="none" font-family="Arial" font-size="13px" font-style="normal" font-weight="normal" text-decoration="none" x="138.5" y="234.5">3 : Chọn chức năng</text></g></g><g transform="translate(-46,-30) scale(1,1)"><rect fill="#ffffff" stroke="none" x="112" y="336" width="464" height="29"/></g><g transform="translate(-46,-30) scale(1,1)"><path fill="none" stroke="#000000" d="M 112 336 L 576 336 L 576 365 L 112 365 L 112 336 Z Z" stroke-miterlimit="10"/></g><g transform="translate(-46,-30) scale(1,1)"><path fill="none" stroke="#000000" d="M 112 336 L 112 358 L 137.1708984375 358 L 148.1708984375 347 L 148.1708984375 336 L 112 336 L 112 336" stroke-miterlimit="10"/></g><g transform="translate(-46,-30) scale(1,1)"><g><path fill="none" stroke="none"/><text fill="#000000" stroke="none" font-family="Arial" font-size="13px" font-style="normal" font-weight="normal" text-decoration="none" x="245.018798828125" y="353.5">: Sequence - Thêm thông tin khuyến mãi</text></g></g><g transform="translate(-46,-30) scale(1,1)"><g><path fill="none" stroke="none"/><text fill="#000000" stroke="none" font-family="Arial" font-size="13px" font-style="normal" font-weight="bold" text-decoration="none" x="117" y="353.5">ref</text></g></g><g transform="translate(-46,-30) scale(1,1)"><rect fill="#ffffff" stroke="none" x="112" y="448" width="464" height="29"/></g><g transform="translate(-46,-30) scale(1,1)"><path fill="none" stroke="#000000" d="M 112 448 L 576 448 L 576 477 L 112 477 L 112 448 Z Z" stroke-miterlimit="10"/></g><g transform="translate(-46,-30) scale(1,1)"><path fill="none" stroke="#000000" d="M 112 448 L 112 470 L 137.1708984375 470 L 148.1708984375 459 L 148.1708984375 448 L 112 448 L 112 448" stroke-miterlimit="10"/></g><g transform="translate(-46,-30) scale(1,1)"><g><path fill="none" stroke="none"/><text fill="#000000" stroke="none" font-family="Arial" font-size="13px" font-style="normal" font-weight="normal" text-decoration="none" x="234.913330078125" y="465.5">: Sequence - Tìm kiếm thông tin khuyến mãi</text></g></g><g transform="translate(-46,-30) scale(1,1)"><g><path fill="none" stroke="none"/><text fill="#000000" stroke="none" font-family="Arial" font-size="13px" font-style="normal" font-weight="bold" text-decoration="none" x="117" y="465.5">ref</text></g></g><g transform="translate(-46,-30) scale(1,1)"><rect fill="#ffffff" stroke="none" x="112" y="552" width="464" height="29"/></g><g transform="translate(-46,-30) scale(1,1)"><path fill="none" stroke="#000000" d="M 112 552 L 576 552 L 576 581 L 112 581 L 112 552 Z Z" stroke-miterlimit="10"/></g><g transform="translate(-46,-30) scale(1,1)"><path fill="none" stroke="#000000" d="M 112 552 L 112 574 L 137.1708984375 574 L 148.1708984375 563 L 148.1708984375 552 L 112 552 L 112 552" stroke-miterlimit="10"/></g><g transform="translate(-46,-30) scale(1,1)"><g><path fill="none" stroke="none"/><text fill="#000000" stroke="none" font-family="Arial" font-size="13px" font-style="normal" font-weight="normal" text-decoration="none" x="250.068359375" y="569.5">: Sequence - Xóa thông tin khuyến mãi</text></g></g><g transform="translate(-46,-30) scale(1,1)"><g><path fill="none" stroke="none"/><text fill="#000000" stroke="none" font-family="Arial" font-size="13px" font-style="normal" font-weight="bold" text-decoration="none" x="117" y="569.5">ref</text></g></g><g transform="translate(-46,-30) scale(1,1)"><rect fill="#ffffff" stroke="none" x="112" y="648" width="456" height="29"/></g><g transform="translate(-46,-30) scale(1,1)"><path fill="none" stroke="#000000" d="M 112 648 L 568 648 L 568 677 L 112 677 L 112 648 Z Z" stroke-miterlimit="10"/></g><g transform="translate(-46,-30) scale(1,1)"><path fill="none" stroke="#000000" d="M 112 648 L 112 670 L 137.1708984375 670 L 148.1708984375 659 L 148.1708984375 648 L 112 648 L 112 648" stroke-miterlimit="10"/></g><g transform="translate(-46,-30) scale(1,1)"><g><path fill="none" stroke="none"/><text fill="#000000" stroke="none" font-family="Arial" font-size="13px" font-style="normal" font-weight="normal" text-decoration="none" x="245.33203125" y="665.5">: Sequence - Sửa thông tin khuyến mãi</text></g></g><g transform="translate(-46,-30) scale(1,1)"><g><path fill="none" stroke="none"/><text fill="#000000" stroke="none" font-family="Arial" font-size="13px" font-style="normal" font-weight="bold" text-decoration="none" x="117" y="665.5">ref</text></g></g><g transform="translate(-46,-30) scale(1,1)"><path fill="none" stroke="#000000" d="M 96 272 L 600 272 L 600 702 L 96 702 L 96 272" stroke-miterlimit="10"/></g><g transform="translate(-46,-30) scale(1,1)"><path fill="#ffffff" stroke="none" d="M 96 272 L 96 294 L 130.07177734375 294 L 141.07177734375 283 L 141.07177734375 272 L 96 272"/></g><g transform="translate(-46,-30) scale(1,1)"><path fill="none" stroke="#000000" d="M 96 272 L 96 294 L 130.07177734375 294 L 141.07177734375 283 L 141.07177734375 272 L 96 272 L 96 272" stroke-miterlimit="10"/></g><g transform="translate(-46,-30) scale(1,1)"><g><path fill="none" stroke="none"/><text fill="#000000" stroke="none" font-family="Arial" font-size="13px" font-style="normal" font-weight="bold" text-decoration="none" x="101" y="289.5">opt</text></g></g><g transform="translate(-46,-30) scale(1,1)"><g><path fill="none" stroke="none"/><text fill="#000000" stroke="none" font-family="Arial" font-size="13px" font-style="normal" font-weight="normal" text-decoration="none" x="115.5" y="322.5">[Thêm thông tin khuyến  mãi]</text></g></g><g transform="translate(-46,-30) scale(1,1)"><path fill="none" stroke="#000000" d="M 96 401 L 600 401" stroke-miterlimit="10" stroke-dasharray="10,3"/></g><g transform="translate(-46,-30) scale(1,1)"><g><path fill="none" stroke="none"/><text fill="#000000" stroke="none" font-family="Arial" font-size="13px" font-style="normal" font-weight="normal" text-decoration="none" x="115.5" y="428.5">[Tìm kiếm thông tin khuyến mãi]</text></g></g><g transform="translate(-46,-30) scale(1,1)"><path fill="none" stroke="#000000" d="M 96 505 L 600 505" stroke-miterlimit="10" stroke-dasharray="10,3"/></g><g transform="translate(-46,-30) scale(1,1)"><g><path fill="none" stroke="none"/><text fill="#000000" stroke="none" font-family="Arial" font-size="13px" font-style="normal" font-weight="normal" text-decoration="none" x="115.5" y="532.5">[Xóa thông tin khuyến mãi]</text></g></g><g transform="translate(-46,-30) scale(1,1)"><path fill="none" stroke="#000000" d="M 96 603 L 600 603" stroke-miterlimit="10" stroke-dasharray="10,3"/></g><g transform="translate(-46,-30) scale(1,1)"><g><path fill="none" stroke="none"/><text fill="#000000" stroke="none" font-family="Arial" font-size="13px" font-style="normal" font-weight="normal" text-decoration="none" x="115.5" y="630.5">[Sửa thông tin khuyến mãi]</text></g></g></g></svg>